<svg width="24" height="24" viewBox="0 0 24 24" fill="none" xmlns="http://www.w3.org/2000/svg">
<path fill-rule="evenodd" clip-rule="evenodd" d="M7.34499 4.01717C10.4389 3.67462 13.5611 3.67462 16.655 4.01717C18.368 4.20917 19.75 5.55817 19.951 7.27717C20.3176 10.4152 20.3176 13.5852 19.951 16.7232C19.75 18.4422 18.368 19.7912 16.655 19.9832C13.5611 20.3257 10.4389 20.3257 7.34499 19.9832C5.63199 19.7912 4.24999 18.4422 4.04899 16.7232C3.68244 13.5855 3.68244 10.4158 4.04899 7.27817C4.15065 6.44304 4.53137 5.66671 5.12942 5.07501C5.72747 4.48331 6.50782 4.11091 7.34399 4.01817M12 7.00717C12.1989 7.00717 12.3897 7.08619 12.5303 7.22684C12.671 7.36749 12.75 7.55826 12.75 7.75717V11.2502H16.243C16.4419 11.2502 16.6327 11.3292 16.7733 11.4698C16.914 11.6105 16.993 11.8013 16.993 12.0002C16.993 12.1991 16.914 12.3898 16.7733 12.5305C16.6327 12.6712 16.4419 12.7502 16.243 12.7502H12.75V16.2432C12.75 16.4421 12.671 16.6328 12.5303 16.7735C12.3897 16.9142 12.1989 16.9932 12 16.9932C11.8011 16.9932 11.6103 16.9142 11.4697 16.7735C11.329 16.6328 11.25 16.4421 11.25 16.2432V12.7502H7.75699C7.55807 12.7502 7.36731 12.6712 7.22666 12.5305C7.086 12.3898 7.00699 12.1991 7.00699 12.0002C7.00699 11.8013 7.086 11.6105 7.22666 11.4698C7.36731 11.3292 7.55807 11.2502 7.75699 11.2502H11.25V7.75717C11.25 7.55826 11.329 7.36749 11.4697 7.22684C11.6103 7.08619 11.8011 7.00717 12 7.00717Z" fill="#232323"/>
<path fill-rule="evenodd" clip-rule="evenodd" d="M7.34499 4.01717C10.4389 3.67462 13.5611 3.67462 16.655 4.01717C18.368 4.20917 19.75 5.55817 19.951 7.27717C20.3176 10.4152 20.3176 13.5852 19.951 16.7232C19.75 18.4422 18.368 19.7912 16.655 19.9832C13.5611 20.3257 10.4389 20.3257 7.34499 19.9832C5.63199 19.7912 4.24999 18.4422 4.04899 16.7232C3.68244 13.5855 3.68244 10.4158 4.04899 7.27817C4.15065 6.44304 4.53137 5.66671 5.12942 5.07501C5.72747 4.48331 6.50782 4.11091 7.34399 4.01817M12 7.00717C12.1989 7.00717 12.3897 7.08619 12.5303 7.22684C12.671 7.36749 12.75 7.55826 12.75 7.75717V11.2502H16.243C16.4419 11.2502 16.6327 11.3292 16.7733 11.4698C16.914 11.6105 16.993 11.8013 16.993 12.0002C16.993 12.1991 16.914 12.3898 16.7733 12.5305C16.6327 12.6712 16.4419 12.7502 16.243 12.7502H12.75V16.2432C12.75 16.4421 12.671 16.6328 12.5303 16.7735C12.3897 16.9142 12.1989 16.9932 12 16.9932C11.8011 16.9932 11.6103 16.9142 11.4697 16.7735C11.329 16.6328 11.25 16.4421 11.25 16.2432V12.7502H7.75699C7.55807 12.7502 7.36731 12.6712 7.22666 12.5305C7.086 12.3898 7.00699 12.1991 7.00699 12.0002C7.00699 11.8013 7.086 11.6105 7.22666 11.4698C7.36731 11.3292 7.55807 11.2502 7.75699 11.2502H11.25V7.75717C11.25 7.55826 11.329 7.36749 11.4697 7.22684C11.6103 7.08619 11.8011 7.00717 12 7.00717Z" fill="black" fill-opacity="0.2"/>
<path fill-rule="evenodd" clip-rule="evenodd" d="M7.34499 4.01717C10.4389 3.67462 13.5611 3.67462 16.655 4.01717C18.368 4.20917 19.75 5.55817 19.951 7.27717C20.3176 10.4152 20.3176 13.5852 19.951 16.7232C19.75 18.4422 18.368 19.7912 16.655 19.9832C13.5611 20.3257 10.4389 20.3257 7.34499 19.9832C5.63199 19.7912 4.24999 18.4422 4.04899 16.7232C3.68244 13.5855 3.68244 10.4158 4.04899 7.27817C4.15065 6.44304 4.53137 5.66671 5.12942 5.07501C5.72747 4.48331 6.50782 4.11091 7.34399 4.01817M12 7.00717C12.1989 7.00717 12.3897 7.08619 12.5303 7.22684C12.671 7.36749 12.75 7.55826 12.75 7.75717V11.2502H16.243C16.4419 11.2502 16.6327 11.3292 16.7733 11.4698C16.914 11.6105 16.993 11.8013 16.993 12.0002C16.993 12.1991 16.914 12.3898 16.7733 12.5305C16.6327 12.6712 16.4419 12.7502 16.243 12.7502H12.75V16.2432C12.75 16.4421 12.671 16.6328 12.5303 16.7735C12.3897 16.9142 12.1989 16.9932 12 16.9932C11.8011 16.9932 11.6103 16.9142 11.4697 16.7735C11.329 16.6328 11.25 16.4421 11.25 16.2432V12.7502H7.75699C7.55807 12.7502 7.36731 12.6712 7.22666 12.5305C7.086 12.3898 7.00699 12.1991 7.00699 12.0002C7.00699 11.8013 7.086 11.6105 7.22666 11.4698C7.36731 11.3292 7.55807 11.2502 7.75699 11.2502H11.25V7.75717C11.25 7.55826 11.329 7.36749 11.4697 7.22684C11.6103 7.08619 11.8011 7.00717 12 7.00717Z" fill="black" fill-opacity="0.2"/>
</svg>
