<svg width="24" height="24" viewBox="0 0 24 24" fill="none" xmlns="http://www.w3.org/2000/svg">
<path d="M7.007 11.9998C7.007 11.8009 7.08602 11.6102 7.22667 11.4695C7.36733 11.3289 7.55809 11.2498 7.757 11.2498H11.25V7.75684C11.25 7.55792 11.329 7.36716 11.4697 7.22651C11.6103 7.08585 11.8011 7.00684 12 7.00684C12.1989 7.00684 12.3897 7.08585 12.5303 7.22651C12.671 7.36716 12.75 7.55792 12.75 7.75684V11.2498H16.243C16.4419 11.2498 16.6327 11.3289 16.7733 11.4695C16.914 11.6102 16.993 11.8009 16.993 11.9998C16.993 12.1987 16.914 12.3895 16.7733 12.5302C16.6327 12.6708 16.4419 12.7498 16.243 12.7498H12.75V16.2428C12.75 16.4417 12.671 16.6325 12.5303 16.7732C12.3897 16.9138 12.1989 16.9928 12 16.9928C11.8011 16.9928 11.6103 16.9138 11.4697 16.7732C11.329 16.6325 11.25 16.4417 11.25 16.2428V12.7498H7.757C7.55809 12.7498 7.36733 12.6708 7.22667 12.5302C7.08602 12.3895 7.007 12.1987 7.007 11.9998Z" fill="#232323"/>
<path d="M7.007 11.9998C7.007 11.8009 7.08602 11.6102 7.22667 11.4695C7.36733 11.3289 7.55809 11.2498 7.757 11.2498H11.25V7.75684C11.25 7.55792 11.329 7.36716 11.4697 7.22651C11.6103 7.08585 11.8011 7.00684 12 7.00684C12.1989 7.00684 12.3897 7.08585 12.5303 7.22651C12.671 7.36716 12.75 7.55792 12.75 7.75684V11.2498H16.243C16.4419 11.2498 16.6327 11.3289 16.7733 11.4695C16.914 11.6102 16.993 11.8009 16.993 11.9998C16.993 12.1987 16.914 12.3895 16.7733 12.5302C16.6327 12.6708 16.4419 12.7498 16.243 12.7498H12.75V16.2428C12.75 16.4417 12.671 16.6325 12.5303 16.7732C12.3897 16.9138 12.1989 16.9928 12 16.9928C11.8011 16.9928 11.6103 16.9138 11.4697 16.7732C11.329 16.6325 11.25 16.4417 11.25 16.2428V12.7498H7.757C7.55809 12.7498 7.36733 12.6708 7.22667 12.5302C7.08602 12.3895 7.007 12.1987 7.007 11.9998Z" fill="black" fill-opacity="0.2"/>
<path d="M7.007 11.9998C7.007 11.8009 7.08602 11.6102 7.22667 11.4695C7.36733 11.3289 7.55809 11.2498 7.757 11.2498H11.25V7.75684C11.25 7.55792 11.329 7.36716 11.4697 7.22651C11.6103 7.08585 11.8011 7.00684 12 7.00684C12.1989 7.00684 12.3897 7.08585 12.5303 7.22651C12.671 7.36716 12.75 7.55792 12.75 7.75684V11.2498H16.243C16.4419 11.2498 16.6327 11.3289 16.7733 11.4695C16.914 11.6102 16.993 11.8009 16.993 11.9998C16.993 12.1987 16.914 12.3895 16.7733 12.5302C16.6327 12.6708 16.4419 12.7498 16.243 12.7498H12.75V16.2428C12.75 16.4417 12.671 16.6325 12.5303 16.7732C12.3897 16.9138 12.1989 16.9928 12 16.9928C11.8011 16.9928 11.6103 16.9138 11.4697 16.7732C11.329 16.6325 11.25 16.4417 11.25 16.2428V12.7498H7.757C7.55809 12.7498 7.36733 12.6708 7.22667 12.5302C7.08602 12.3895 7.007 12.1987 7.007 11.9998Z" fill="black" fill-opacity="0.2"/>
<path fill-rule="evenodd" clip-rule="evenodd" d="M7.31701 3.76905C10.4295 3.42399 13.5705 3.42399 16.683 3.76905C18.51 3.97305 19.985 5.41205 20.199 7.24905C20.569 10.406 20.569 13.595 20.199 16.752C19.984 18.589 18.509 20.027 16.683 20.232C13.5705 20.5771 10.4295 20.5771 7.31701 20.232C5.49001 20.027 4.01501 18.589 3.80101 16.752C3.43266 13.5951 3.43266 10.406 3.80101 7.24905C4.01501 5.41205 5.49101 3.97305 7.31701 3.76905ZM16.517 5.25905C13.5149 4.92627 10.4851 4.92627 7.48301 5.25905C6.92725 5.3207 6.40851 5.56792 6.01058 5.96076C5.61266 6.35361 5.3588 6.86913 5.29001 7.42405C4.93434 10.465 4.93434 13.5371 5.29001 16.578C5.35901 17.1328 5.61296 17.6481 6.01087 18.0407C6.40877 18.4334 6.9274 18.6804 7.48301 18.742C10.46 19.074 13.54 19.074 16.517 18.742C17.0724 18.6802 17.5908 18.4331 17.9885 18.0404C18.3862 17.6478 18.64 17.1326 18.709 16.578C19.0647 13.5371 19.0647 10.465 18.709 7.42405C18.6398 6.86964 18.3859 6.35469 17.9883 5.96227C17.5906 5.56985 17.0723 5.32282 16.517 5.26105" fill="#232323"/>
<path fill-rule="evenodd" clip-rule="evenodd" d="M7.31701 3.76905C10.4295 3.42399 13.5705 3.42399 16.683 3.76905C18.51 3.97305 19.985 5.41205 20.199 7.24905C20.569 10.406 20.569 13.595 20.199 16.752C19.984 18.589 18.509 20.027 16.683 20.232C13.5705 20.5771 10.4295 20.5771 7.31701 20.232C5.49001 20.027 4.01501 18.589 3.80101 16.752C3.43266 13.5951 3.43266 10.406 3.80101 7.24905C4.01501 5.41205 5.49101 3.97305 7.31701 3.76905ZM16.517 5.25905C13.5149 4.92627 10.4851 4.92627 7.48301 5.25905C6.92725 5.3207 6.40851 5.56792 6.01058 5.96076C5.61266 6.35361 5.3588 6.86913 5.29001 7.42405C4.93434 10.465 4.93434 13.5371 5.29001 16.578C5.35901 17.1328 5.61296 17.6481 6.01087 18.0407C6.40877 18.4334 6.9274 18.6804 7.48301 18.742C10.46 19.074 13.54 19.074 16.517 18.742C17.0724 18.6802 17.5908 18.4331 17.9885 18.0404C18.3862 17.6478 18.64 17.1326 18.709 16.578C19.0647 13.5371 19.0647 10.465 18.709 7.42405C18.6398 6.86964 18.3859 6.35469 17.9883 5.96227C17.5906 5.56985 17.0723 5.32282 16.517 5.26105" fill="black" fill-opacity="0.2"/>
<path fill-rule="evenodd" clip-rule="evenodd" d="M7.31701 3.76905C10.4295 3.42399 13.5705 3.42399 16.683 3.76905C18.51 3.97305 19.985 5.41205 20.199 7.24905C20.569 10.406 20.569 13.595 20.199 16.752C19.984 18.589 18.509 20.027 16.683 20.232C13.5705 20.5771 10.4295 20.5771 7.31701 20.232C5.49001 20.027 4.01501 18.589 3.80101 16.752C3.43266 13.5951 3.43266 10.406 3.80101 7.24905C4.01501 5.41205 5.49101 3.97305 7.31701 3.76905ZM16.517 5.25905C13.5149 4.92627 10.4851 4.92627 7.48301 5.25905C6.92725 5.3207 6.40851 5.56792 6.01058 5.96076C5.61266 6.35361 5.3588 6.86913 5.29001 7.42405C4.93434 10.465 4.93434 13.5371 5.29001 16.578C5.35901 17.1328 5.61296 17.6481 6.01087 18.0407C6.40877 18.4334 6.9274 18.6804 7.48301 18.742C10.46 19.074 13.54 19.074 16.517 18.742C17.0724 18.6802 17.5908 18.4331 17.9885 18.0404C18.3862 17.6478 18.64 17.1326 18.709 16.578C19.0647 13.5371 19.0647 10.465 18.709 7.42405C18.6398 6.86964 18.3859 6.35469 17.9883 5.96227C17.5906 5.56985 17.0723 5.32282 16.517 5.26105" fill="black" fill-opacity="0.2"/>
</svg>
