<svg width="24" height="24" viewBox="0 0 24 24" fill="none" xmlns="http://www.w3.org/2000/svg">
<path d="M12 1.5C14.7848 1.5 17.4555 2.60625 19.4246 4.57538C21.3938 6.54451 22.5 9.21523 22.5 12C22.5 14.7848 21.3938 17.4555 19.4246 19.4246C17.4555 21.3938 14.7848 22.5 12 22.5C9.21523 22.5 6.54451 21.3938 4.57538 19.4246C2.60625 17.4555 1.5 14.7848 1.5 12C1.5 9.21523 2.60625 6.54451 4.57538 4.57538C6.54451 2.60625 9.21523 1.5 12 1.5ZM12.5555 5.98828C11.3383 5.98828 10.3758 6.33437 9.66797 7.02656C8.94141 7.72031 8.59687 8.67656 8.59687 9.89766H10.4766C10.4766 9.20625 10.6102 8.66016 10.8891 8.28047C11.2031 7.81875 11.7141 7.60547 12.4406 7.60547C13.0062 7.60234 13.4461 7.75625 13.7602 8.06719C14.0768 8.41895 14.2427 8.88105 14.2219 9.35391C14.2162 9.78481 14.0585 10.1999 13.7766 10.5258L13.5797 10.7555C12.5063 11.7141 11.8641 12.4055 11.6484 12.8531C11.4187 13.2984 11.3203 13.8422 11.3203 14.4703V14.7H13.2164V14.468C13.2164 14.0719 13.2984 13.7273 13.4648 13.3969C13.6245 13.079 13.8489 12.798 14.1234 12.5719C14.9156 11.8781 15.3938 11.4328 15.5438 11.2687C15.9398 10.7391 16.1531 10.0641 16.1531 9.23906C16.1531 8.23281 15.8234 7.44062 15.1641 6.8625C14.5031 6.26953 13.6289 5.98828 12.5555 5.98828ZM12.2602 15.5086C12.0936 15.5038 11.9277 15.5321 11.772 15.5916C11.6164 15.6511 11.474 15.7408 11.3531 15.8555C11.2318 15.9688 11.1365 16.1072 11.0738 16.2609C11.011 16.4147 10.9824 16.5802 10.9898 16.7461C10.9898 17.1094 11.1047 17.407 11.3531 17.6367C11.5955 17.8716 11.9203 18.002 12.2578 18C12.6211 18 12.9164 17.8828 13.1648 17.6531C13.2877 17.5366 13.3848 17.3958 13.4502 17.2396C13.5156 17.0834 13.5477 16.9154 13.5445 16.7461C13.5476 16.5808 13.5169 16.4165 13.4545 16.2634C13.392 16.1103 13.2991 15.9715 13.1813 15.8555C12.9303 15.6242 12.599 15.4997 12.2578 15.5086" fill="#232323"/>
<path d="M12 1.5C14.7848 1.5 17.4555 2.60625 19.4246 4.57538C21.3938 6.54451 22.5 9.21523 22.5 12C22.5 14.7848 21.3938 17.4555 19.4246 19.4246C17.4555 21.3938 14.7848 22.5 12 22.5C9.21523 22.5 6.54451 21.3938 4.57538 19.4246C2.60625 17.4555 1.5 14.7848 1.5 12C1.5 9.21523 2.60625 6.54451 4.57538 4.57538C6.54451 2.60625 9.21523 1.5 12 1.5ZM12.5555 5.98828C11.3383 5.98828 10.3758 6.33437 9.66797 7.02656C8.94141 7.72031 8.59687 8.67656 8.59687 9.89766H10.4766C10.4766 9.20625 10.6102 8.66016 10.8891 8.28047C11.2031 7.81875 11.7141 7.60547 12.4406 7.60547C13.0062 7.60234 13.4461 7.75625 13.7602 8.06719C14.0768 8.41895 14.2427 8.88105 14.2219 9.35391C14.2162 9.78481 14.0585 10.1999 13.7766 10.5258L13.5797 10.7555C12.5063 11.7141 11.8641 12.4055 11.6484 12.8531C11.4187 13.2984 11.3203 13.8422 11.3203 14.4703V14.7H13.2164V14.468C13.2164 14.0719 13.2984 13.7273 13.4648 13.3969C13.6245 13.079 13.8489 12.798 14.1234 12.5719C14.9156 11.8781 15.3938 11.4328 15.5438 11.2687C15.9398 10.7391 16.1531 10.0641 16.1531 9.23906C16.1531 8.23281 15.8234 7.44062 15.1641 6.8625C14.5031 6.26953 13.6289 5.98828 12.5555 5.98828ZM12.2602 15.5086C12.0936 15.5038 11.9277 15.5321 11.772 15.5916C11.6164 15.6511 11.474 15.7408 11.3531 15.8555C11.2318 15.9688 11.1365 16.1072 11.0738 16.2609C11.011 16.4147 10.9824 16.5802 10.9898 16.7461C10.9898 17.1094 11.1047 17.407 11.3531 17.6367C11.5955 17.8716 11.9203 18.002 12.2578 18C12.6211 18 12.9164 17.8828 13.1648 17.6531C13.2877 17.5366 13.3848 17.3958 13.4502 17.2396C13.5156 17.0834 13.5477 16.9154 13.5445 16.7461C13.5476 16.5808 13.5169 16.4165 13.4545 16.2634C13.392 16.1103 13.2991 15.9715 13.1813 15.8555C12.9303 15.6242 12.599 15.4997 12.2578 15.5086" fill="black" fill-opacity="0.2"/>
<path d="M12 1.5C14.7848 1.5 17.4555 2.60625 19.4246 4.57538C21.3938 6.54451 22.5 9.21523 22.5 12C22.5 14.7848 21.3938 17.4555 19.4246 19.4246C17.4555 21.3938 14.7848 22.5 12 22.5C9.21523 22.5 6.54451 21.3938 4.57538 19.4246C2.60625 17.4555 1.5 14.7848 1.5 12C1.5 9.21523 2.60625 6.54451 4.57538 4.57538C6.54451 2.60625 9.21523 1.5 12 1.5ZM12.5555 5.98828C11.3383 5.98828 10.3758 6.33437 9.66797 7.02656C8.94141 7.72031 8.59687 8.67656 8.59687 9.89766H10.4766C10.4766 9.20625 10.6102 8.66016 10.8891 8.28047C11.2031 7.81875 11.7141 7.60547 12.4406 7.60547C13.0062 7.60234 13.4461 7.75625 13.7602 8.06719C14.0768 8.41895 14.2427 8.88105 14.2219 9.35391C14.2162 9.78481 14.0585 10.1999 13.7766 10.5258L13.5797 10.7555C12.5063 11.7141 11.8641 12.4055 11.6484 12.8531C11.4187 13.2984 11.3203 13.8422 11.3203 14.4703V14.7H13.2164V14.468C13.2164 14.0719 13.2984 13.7273 13.4648 13.3969C13.6245 13.079 13.8489 12.798 14.1234 12.5719C14.9156 11.8781 15.3938 11.4328 15.5438 11.2687C15.9398 10.7391 16.1531 10.0641 16.1531 9.23906C16.1531 8.23281 15.8234 7.44062 15.1641 6.8625C14.5031 6.26953 13.6289 5.98828 12.5555 5.98828ZM12.2602 15.5086C12.0936 15.5038 11.9277 15.5321 11.772 15.5916C11.6164 15.6511 11.474 15.7408 11.3531 15.8555C11.2318 15.9688 11.1365 16.1072 11.0738 16.2609C11.011 16.4147 10.9824 16.5802 10.9898 16.7461C10.9898 17.1094 11.1047 17.407 11.3531 17.6367C11.5955 17.8716 11.9203 18.002 12.2578 18C12.6211 18 12.9164 17.8828 13.1648 17.6531C13.2877 17.5366 13.3848 17.3958 13.4502 17.2396C13.5156 17.0834 13.5477 16.9154 13.5445 16.7461C13.5476 16.5808 13.5169 16.4165 13.4545 16.2634C13.392 16.1103 13.2991 15.9715 13.1813 15.8555C12.9303 15.6242 12.599 15.4997 12.2578 15.5086" fill="black" fill-opacity="0.2"/>
</svg>
