<svg width="24" height="24" viewBox="0 0 24 24" fill="none" xmlns="http://www.w3.org/2000/svg">
<path d="M18.6539 17.5944L21.5836 20.5241C21.7207 20.6656 21.7966 20.8554 21.795 21.0524C21.7933 21.2494 21.7142 21.4378 21.5748 21.577C21.4353 21.7162 21.2467 21.7949 21.0497 21.7961C20.8526 21.7973 20.6631 21.7209 20.5219 21.5835L17.5922 18.6538C15.676 20.2919 13.1999 21.1241 10.6833 20.9758C8.16681 20.8275 5.80552 19.7103 4.09495 17.8586C2.38437 16.0069 1.45749 13.5646 1.5088 11.0443C1.5601 8.52388 2.5856 6.12134 4.37011 4.34077C6.15462 2.5602 8.55942 1.54002 11.0799 1.49428C13.6004 1.44855 16.0406 2.38082 17.8885 4.09548C19.7365 5.81014 20.8484 8.1739 20.9911 10.6907C21.1338 13.2076 20.2962 15.6819 18.6539 17.5944ZM11.25 19.4999C13.438 19.4999 15.5365 18.6307 17.0836 17.0835C18.6308 15.5364 19.5 13.438 19.5 11.2499C19.5 9.06188 18.6308 6.96346 17.0836 5.41629C15.5365 3.86911 13.438 2.99992 11.25 2.99992C9.06196 2.99992 6.96354 3.86911 5.41637 5.41629C3.86919 6.96346 3 9.06188 3 11.2499C3 13.438 3.86919 15.5364 5.41637 17.0835C6.96354 18.6307 9.06196 19.4999 11.25 19.4999Z" fill="#232323"/>
<path d="M18.6539 17.5944L21.5836 20.5241C21.7207 20.6656 21.7966 20.8554 21.795 21.0524C21.7933 21.2494 21.7142 21.4378 21.5748 21.577C21.4353 21.7162 21.2467 21.7949 21.0497 21.7961C20.8526 21.7973 20.6631 21.7209 20.5219 21.5835L17.5922 18.6538C15.676 20.2919 13.1999 21.1241 10.6833 20.9758C8.16681 20.8275 5.80552 19.7103 4.09495 17.8586C2.38437 16.0069 1.45749 13.5646 1.5088 11.0443C1.5601 8.52388 2.5856 6.12134 4.37011 4.34077C6.15462 2.5602 8.55942 1.54002 11.0799 1.49428C13.6004 1.44855 16.0406 2.38082 17.8885 4.09548C19.7365 5.81014 20.8484 8.1739 20.9911 10.6907C21.1338 13.2076 20.2962 15.6819 18.6539 17.5944ZM11.25 19.4999C13.438 19.4999 15.5365 18.6307 17.0836 17.0835C18.6308 15.5364 19.5 13.438 19.5 11.2499C19.5 9.06188 18.6308 6.96346 17.0836 5.41629C15.5365 3.86911 13.438 2.99992 11.25 2.99992C9.06196 2.99992 6.96354 3.86911 5.41637 5.41629C3.86919 6.96346 3 9.06188 3 11.2499C3 13.438 3.86919 15.5364 5.41637 17.0835C6.96354 18.6307 9.06196 19.4999 11.25 19.4999Z" fill="black" fill-opacity="0.2"/>
<path d="M18.6539 17.5944L21.5836 20.5241C21.7207 20.6656 21.7966 20.8554 21.795 21.0524C21.7933 21.2494 21.7142 21.4378 21.5748 21.577C21.4353 21.7162 21.2467 21.7949 21.0497 21.7961C20.8526 21.7973 20.6631 21.7209 20.5219 21.5835L17.5922 18.6538C15.676 20.2919 13.1999 21.1241 10.6833 20.9758C8.16681 20.8275 5.80552 19.7103 4.09495 17.8586C2.38437 16.0069 1.45749 13.5646 1.5088 11.0443C1.5601 8.52388 2.5856 6.12134 4.37011 4.34077C6.15462 2.5602 8.55942 1.54002 11.0799 1.49428C13.6004 1.44855 16.0406 2.38082 17.8885 4.09548C19.7365 5.81014 20.8484 8.1739 20.9911 10.6907C21.1338 13.2076 20.2962 15.6819 18.6539 17.5944ZM11.25 19.4999C13.438 19.4999 15.5365 18.6307 17.0836 17.0835C18.6308 15.5364 19.5 13.438 19.5 11.2499C19.5 9.06188 18.6308 6.96346 17.0836 5.41629C15.5365 3.86911 13.438 2.99992 11.25 2.99992C9.06196 2.99992 6.96354 3.86911 5.41637 5.41629C3.86919 6.96346 3 9.06188 3 11.2499C3 13.438 3.86919 15.5364 5.41637 17.0835C6.96354 18.6307 9.06196 19.4999 11.25 19.4999Z" fill="black" fill-opacity="0.2"/>
</svg>
