<svg width="27" height="24" viewBox="0 0 27 24" fill="none" xmlns="http://www.w3.org/2000/svg">
<path d="M18 3H9C4.03125 3 0 7.03125 0 12C0 16.9688 4.03125 21 9 21H18C22.9688 21 27 16.9688 27 12C27 7.03125 22.9688 3 18 3ZM18 18C14.6812 18 12 15.3141 12 12C12 8.68125 14.6859 6 18 6C21.3188 6 24 8.68594 24 12C24 15.3188 21.3141 18 18 18Z" fill="#232323"/>
<path d="M18 3H9C4.03125 3 0 7.03125 0 12C0 16.9688 4.03125 21 9 21H18C22.9688 21 27 16.9688 27 12C27 7.03125 22.9688 3 18 3ZM18 18C14.6812 18 12 15.3141 12 12C12 8.68125 14.6859 6 18 6C21.3188 6 24 8.68594 24 12C24 15.3188 21.3141 18 18 18Z" fill="black" fill-opacity="0.2"/>
<path d="M18 3H9C4.03125 3 0 7.03125 0 12C0 16.9688 4.03125 21 9 21H18C22.9688 21 27 16.9688 27 12C27 7.03125 22.9688 3 18 3ZM18 18C14.6812 18 12 15.3141 12 12C12 8.68125 14.6859 6 18 6C21.3188 6 24 8.68594 24 12C24 15.3188 21.3141 18 18 18Z" fill="black" fill-opacity="0.2"/>
</svg>
