<svg width="24" height="24" viewBox="0 0 24 24" fill="none" xmlns="http://www.w3.org/2000/svg">
<path d="M12 2.7002C9.51376 2.7002 7.50001 4.71395 7.50001 7.20019C7.50001 9.68645 9.51376 11.7002 12 11.7002C14.4863 11.7002 16.5 9.68645 16.5 7.20019C16.5 4.71395 14.4863 2.7002 12 2.7002ZM14.25 14.4302C14.0475 14.4114 13.8375 14.4002 13.6275 14.4002H10.3688C10.1588 14.4002 9.95251 14.4114 9.74626 14.4302V16.9614C10.365 17.2464 10.7963 17.8727 10.7963 18.5964C10.7963 19.5902 9.99001 20.3964 8.99626 20.3964C8.00251 20.3964 7.19626 19.5902 7.19626 18.5964C7.19626 17.8689 7.62751 17.2427 8.24626 16.9614V14.7714C5.88751 15.6377 4.20001 17.9102 4.20001 20.5727C4.20001 21.1389 4.66126 21.6002 5.22751 21.6002H18.7688C19.335 21.6002 19.7963 21.1389 19.7963 20.5727C19.7963 17.9102 18.1088 15.6414 15.7463 14.7752V16.1777C16.62 16.4852 17.2463 17.3214 17.2463 18.3002V19.5002C17.2463 19.9127 16.9088 20.2502 16.4963 20.2502C16.0838 20.2502 15.7463 19.9127 15.7463 19.5002V18.3002C15.7463 17.8877 15.4088 17.5502 14.9963 17.5502C14.5838 17.5502 14.2463 17.8877 14.2463 18.3002V19.5002C14.2463 19.9127 13.9088 20.2502 13.4963 20.2502C13.0838 20.2502 12.7463 19.9127 12.7463 19.5002V18.3002C12.7463 17.3214 13.3725 16.4889 14.2463 16.1777V14.4302H14.25Z" fill="#232323"/>
<path d="M12 2.7002C9.51376 2.7002 7.50001 4.71395 7.50001 7.20019C7.50001 9.68645 9.51376 11.7002 12 11.7002C14.4863 11.7002 16.5 9.68645 16.5 7.20019C16.5 4.71395 14.4863 2.7002 12 2.7002ZM14.25 14.4302C14.0475 14.4114 13.8375 14.4002 13.6275 14.4002H10.3688C10.1588 14.4002 9.95251 14.4114 9.74626 14.4302V16.9614C10.365 17.2464 10.7963 17.8727 10.7963 18.5964C10.7963 19.5902 9.99001 20.3964 8.99626 20.3964C8.00251 20.3964 7.19626 19.5902 7.19626 18.5964C7.19626 17.8689 7.62751 17.2427 8.24626 16.9614V14.7714C5.88751 15.6377 4.20001 17.9102 4.20001 20.5727C4.20001 21.1389 4.66126 21.6002 5.22751 21.6002H18.7688C19.335 21.6002 19.7963 21.1389 19.7963 20.5727C19.7963 17.9102 18.1088 15.6414 15.7463 14.7752V16.1777C16.62 16.4852 17.2463 17.3214 17.2463 18.3002V19.5002C17.2463 19.9127 16.9088 20.2502 16.4963 20.2502C16.0838 20.2502 15.7463 19.9127 15.7463 19.5002V18.3002C15.7463 17.8877 15.4088 17.5502 14.9963 17.5502C14.5838 17.5502 14.2463 17.8877 14.2463 18.3002V19.5002C14.2463 19.9127 13.9088 20.2502 13.4963 20.2502C13.0838 20.2502 12.7463 19.9127 12.7463 19.5002V18.3002C12.7463 17.3214 13.3725 16.4889 14.2463 16.1777V14.4302H14.25Z" fill="black" fill-opacity="0.2"/>
<path d="M12 2.7002C9.51376 2.7002 7.50001 4.71395 7.50001 7.20019C7.50001 9.68645 9.51376 11.7002 12 11.7002C14.4863 11.7002 16.5 9.68645 16.5 7.20019C16.5 4.71395 14.4863 2.7002 12 2.7002ZM14.25 14.4302C14.0475 14.4114 13.8375 14.4002 13.6275 14.4002H10.3688C10.1588 14.4002 9.95251 14.4114 9.74626 14.4302V16.9614C10.365 17.2464 10.7963 17.8727 10.7963 18.5964C10.7963 19.5902 9.99001 20.3964 8.99626 20.3964C8.00251 20.3964 7.19626 19.5902 7.19626 18.5964C7.19626 17.8689 7.62751 17.2427 8.24626 16.9614V14.7714C5.88751 15.6377 4.20001 17.9102 4.20001 20.5727C4.20001 21.1389 4.66126 21.6002 5.22751 21.6002H18.7688C19.335 21.6002 19.7963 21.1389 19.7963 20.5727C19.7963 17.9102 18.1088 15.6414 15.7463 14.7752V16.1777C16.62 16.4852 17.2463 17.3214 17.2463 18.3002V19.5002C17.2463 19.9127 16.9088 20.2502 16.4963 20.2502C16.0838 20.2502 15.7463 19.9127 15.7463 19.5002V18.3002C15.7463 17.8877 15.4088 17.5502 14.9963 17.5502C14.5838 17.5502 14.2463 17.8877 14.2463 18.3002V19.5002C14.2463 19.9127 13.9088 20.2502 13.4963 20.2502C13.0838 20.2502 12.7463 19.9127 12.7463 19.5002V18.3002C12.7463 17.3214 13.3725 16.4889 14.2463 16.1777V14.4302H14.25Z" fill="black" fill-opacity="0.2"/>
</svg>
