<svg width="24" height="24" viewBox="0 0 24 24" fill="none" xmlns="http://www.w3.org/2000/svg">
<path d="M7.20001 3.6001C6.24523 3.6001 5.32955 3.97938 4.65442 4.65451C3.97929 5.32964 3.60001 6.24532 3.60001 7.2001V16.8001C3.60001 17.7549 3.97929 18.6706 4.65442 19.3457C5.32955 20.0208 6.24523 20.4001 7.20001 20.4001H16.8C17.7548 20.4001 18.6705 20.0208 19.3456 19.3457C20.0207 18.6706 20.4 17.7549 20.4 16.8001V7.2001C20.4 6.24532 20.0207 5.32964 19.3456 4.65451C18.6705 3.97938 17.7548 3.6001 16.8 3.6001H7.20001ZM16.6248 9.4249L10.6248 15.4249C10.5691 15.4808 10.5029 15.5251 10.43 15.5554C10.3571 15.5856 10.2789 15.6012 10.2 15.6012C10.1211 15.6012 10.0429 15.5856 9.97005 15.5554C9.89715 15.5251 9.83094 15.4808 9.77521 15.4249L7.37521 13.0249C7.26254 12.9122 7.19925 12.7594 7.19925 12.6001C7.19925 12.4408 7.26254 12.288 7.37521 12.1753C7.48787 12.0626 7.64068 11.9993 7.80001 11.9993C7.95934 11.9993 8.11214 12.0626 8.22481 12.1753L10.2 14.1517L15.7752 8.5753C15.831 8.51951 15.8972 8.47526 15.9701 8.44507C16.043 8.41488 16.1211 8.39934 16.2 8.39934C16.2789 8.39934 16.357 8.41488 16.4299 8.44507C16.5028 8.47526 16.569 8.51951 16.6248 8.5753C16.6806 8.63108 16.7248 8.69731 16.755 8.7702C16.7852 8.84308 16.8008 8.9212 16.8008 9.0001C16.8008 9.07899 16.7852 9.15711 16.755 9.23C16.7248 9.30289 16.6806 9.36911 16.6248 9.4249Z" fill="#232323"/>
<path d="M7.20001 3.6001C6.24523 3.6001 5.32955 3.97938 4.65442 4.65451C3.97929 5.32964 3.60001 6.24532 3.60001 7.2001V16.8001C3.60001 17.7549 3.97929 18.6706 4.65442 19.3457C5.32955 20.0208 6.24523 20.4001 7.20001 20.4001H16.8C17.7548 20.4001 18.6705 20.0208 19.3456 19.3457C20.0207 18.6706 20.4 17.7549 20.4 16.8001V7.2001C20.4 6.24532 20.0207 5.32964 19.3456 4.65451C18.6705 3.97938 17.7548 3.6001 16.8 3.6001H7.20001ZM16.6248 9.4249L10.6248 15.4249C10.5691 15.4808 10.5029 15.5251 10.43 15.5554C10.3571 15.5856 10.2789 15.6012 10.2 15.6012C10.1211 15.6012 10.0429 15.5856 9.97005 15.5554C9.89715 15.5251 9.83094 15.4808 9.77521 15.4249L7.37521 13.0249C7.26254 12.9122 7.19925 12.7594 7.19925 12.6001C7.19925 12.4408 7.26254 12.288 7.37521 12.1753C7.48787 12.0626 7.64068 11.9993 7.80001 11.9993C7.95934 11.9993 8.11214 12.0626 8.22481 12.1753L10.2 14.1517L15.7752 8.5753C15.831 8.51951 15.8972 8.47526 15.9701 8.44507C16.043 8.41488 16.1211 8.39934 16.2 8.39934C16.2789 8.39934 16.357 8.41488 16.4299 8.44507C16.5028 8.47526 16.569 8.51951 16.6248 8.5753C16.6806 8.63108 16.7248 8.69731 16.755 8.7702C16.7852 8.84308 16.8008 8.9212 16.8008 9.0001C16.8008 9.07899 16.7852 9.15711 16.755 9.23C16.7248 9.30289 16.6806 9.36911 16.6248 9.4249Z" fill="black" fill-opacity="0.2"/>
<path d="M7.20001 3.6001C6.24523 3.6001 5.32955 3.97938 4.65442 4.65451C3.97929 5.32964 3.60001 6.24532 3.60001 7.2001V16.8001C3.60001 17.7549 3.97929 18.6706 4.65442 19.3457C5.32955 20.0208 6.24523 20.4001 7.20001 20.4001H16.8C17.7548 20.4001 18.6705 20.0208 19.3456 19.3457C20.0207 18.6706 20.4 17.7549 20.4 16.8001V7.2001C20.4 6.24532 20.0207 5.32964 19.3456 4.65451C18.6705 3.97938 17.7548 3.6001 16.8 3.6001H7.20001ZM16.6248 9.4249L10.6248 15.4249C10.5691 15.4808 10.5029 15.5251 10.43 15.5554C10.3571 15.5856 10.2789 15.6012 10.2 15.6012C10.1211 15.6012 10.0429 15.5856 9.97005 15.5554C9.89715 15.5251 9.83094 15.4808 9.77521 15.4249L7.37521 13.0249C7.26254 12.9122 7.19925 12.7594 7.19925 12.6001C7.19925 12.4408 7.26254 12.288 7.37521 12.1753C7.48787 12.0626 7.64068 11.9993 7.80001 11.9993C7.95934 11.9993 8.11214 12.0626 8.22481 12.1753L10.2 14.1517L15.7752 8.5753C15.831 8.51951 15.8972 8.47526 15.9701 8.44507C16.043 8.41488 16.1211 8.39934 16.2 8.39934C16.2789 8.39934 16.357 8.41488 16.4299 8.44507C16.5028 8.47526 16.569 8.51951 16.6248 8.5753C16.6806 8.63108 16.7248 8.69731 16.755 8.7702C16.7852 8.84308 16.8008 8.9212 16.8008 9.0001C16.8008 9.07899 16.7852 9.15711 16.755 9.23C16.7248 9.30289 16.6806 9.36911 16.6248 9.4249Z" fill="black" fill-opacity="0.2"/>
</svg>
