<svg width="24" height="24" viewBox="0 0 24 24" fill="none" xmlns="http://www.w3.org/2000/svg">
<path d="M12.3324 2.50088C12.2339 2.43535 12.1183 2.40039 12 2.40039C11.8817 2.40039 11.766 2.43535 11.6676 2.50088C9.40214 4.02812 6.81972 5.02145 4.11478 5.40608C3.97186 5.42658 3.84112 5.49793 3.74656 5.60704C3.652 5.71615 3.59996 5.8557 3.59998 6.00008V11.4001C3.59998 16.0693 6.36838 19.4761 11.784 21.5605C11.923 21.6141 12.077 21.6141 12.216 21.5605L12.2616 21.5425C11.9045 21.1003 11.606 20.6139 11.3736 20.0953C6.95758 18.1717 4.79998 15.2905 4.79998 11.4001V6.51368C7.17697 6.11019 9.45671 5.26262 11.52 4.01528L12 3.71648L12.48 4.01528C14.5432 5.26262 16.823 6.11019 19.2 6.51368V11.0485C19.6192 11.1677 20.0192 11.3245 20.4 11.5189V6.00008C20.4 5.85552 20.3477 5.71583 20.2529 5.60669C20.1581 5.49756 20.0271 5.42632 19.884 5.40608C17.1795 5.02127 14.5975 4.02795 12.3324 2.50088ZM10.8012 17.3089C10.8121 16.4252 11.001 15.5527 11.3567 14.7437C11.7123 13.9346 12.2274 13.2056 12.8712 12.6001H9.59998C9.12259 12.6001 8.66475 12.7897 8.32718 13.1273C7.98962 13.4649 7.79998 13.9227 7.79998 14.4001C7.79998 15.6805 8.67598 16.9621 10.8 17.3089M14.4 9.00008C14.4 9.6366 14.1471 10.247 13.697 10.6971C13.2469 11.1472 12.6365 11.4001 12 11.4001C11.3635 11.4001 10.753 11.1472 10.3029 10.6971C9.85283 10.247 9.59998 9.6366 9.59998 9.00008C9.59998 8.36356 9.85283 7.75311 10.3029 7.30302C10.753 6.85294 11.3635 6.60008 12 6.60008C12.6365 6.60008 13.2469 6.85294 13.697 7.30302C14.1471 7.75311 14.4 8.36356 14.4 9.00008ZM22.8 17.4001C22.8 18.8323 22.231 20.2058 21.2184 21.2185C20.2057 22.2312 18.8321 22.8001 17.4 22.8001C15.9678 22.8001 14.5943 22.2312 13.5816 21.2185C12.5689 20.2058 12 18.8323 12 17.4001C12 15.9679 12.5689 14.5944 13.5816 13.5817C14.5943 12.569 15.9678 12.0001 17.4 12.0001C18.8321 12.0001 20.2057 12.569 21.2184 13.5817C22.231 14.5944 22.8 15.9679 22.8 17.4001ZM18 15.0001C18 14.841 17.9368 14.6883 17.8242 14.5758C17.7117 14.4633 17.5591 14.4001 17.4 14.4001C17.2408 14.4001 17.0882 14.4633 16.9757 14.5758C16.8632 14.6883 16.8 14.841 16.8 15.0001V16.8001H15C14.8408 16.8001 14.6882 16.8633 14.5757 16.9758C14.4632 17.0883 14.4 17.241 14.4 17.4001C14.4 17.5592 14.4632 17.7118 14.5757 17.8243C14.6882 17.9369 14.8408 18.0001 15 18.0001H16.8V19.8001C16.8 19.9592 16.8632 20.1118 16.9757 20.2243C17.0882 20.3369 17.2408 20.4001 17.4 20.4001C17.5591 20.4001 17.7117 20.3369 17.8242 20.2243C17.9368 20.1118 18 19.9592 18 19.8001V18.0001H19.8C19.9591 18.0001 20.1117 17.9369 20.2242 17.8243C20.3368 17.7118 20.4 17.5592 20.4 17.4001C20.4 17.241 20.3368 17.0883 20.2242 16.9758C20.1117 16.8633 19.9591 16.8001 19.8 16.8001H18V15.0001Z" fill="black"/>
</svg>
