<svg width="24" height="24" viewBox="0 0 24 24" fill="none" xmlns="http://www.w3.org/2000/svg">
<path d="M6.75 3C5.75544 3 4.80161 3.39509 4.09835 4.09835C3.39509 4.80161 3 5.75544 3 6.75V17.25C3 18.2446 3.39509 19.1984 4.09835 19.9016C4.80161 20.6049 5.75544 21 6.75 21H17.25C18.2446 21 19.1984 20.6049 19.9016 19.9016C20.6049 19.1984 21 18.2446 21 17.25V6.75C21 5.75544 20.6049 4.80161 19.9016 4.09835C19.1984 3.39509 18.2446 3 17.25 3H6.75ZM4.5 6.75C4.5 6.15326 4.73705 5.58097 5.15901 5.15901C5.58097 4.73705 6.15326 4.5 6.75 4.5H17.25C17.8467 4.5 18.419 4.73705 18.841 5.15901C19.2629 5.58097 19.5 6.15326 19.5 6.75V17.25C19.5 17.8467 19.2629 18.419 18.841 18.841C18.419 19.2629 17.8467 19.5 17.25 19.5H6.75C6.15326 19.5 5.58097 19.2629 5.15901 18.841C4.73705 18.419 4.5 17.8467 4.5 17.25V6.75ZM16.281 10.281C16.4218 10.1402 16.5009 9.94916 16.5009 9.75C16.5009 9.55084 16.4218 9.35983 16.281 9.219C16.1402 9.07817 15.9492 8.99905 15.75 8.99905C15.5508 8.99905 15.3598 9.07817 15.219 9.219L10.5 13.9395L8.781 12.219C8.64017 12.0782 8.44916 11.9991 8.25 11.9991C8.05084 11.9991 7.85983 12.0782 7.719 12.219C7.57817 12.3598 7.49905 12.5508 7.49905 12.75C7.49905 12.9492 7.57817 13.1402 7.719 13.281L9.969 15.531C10.0387 15.6008 10.1214 15.6563 10.2125 15.6941C10.3037 15.7319 10.4013 15.7513 10.5 15.7513C10.5987 15.7513 10.6963 15.7319 10.7875 15.6941C10.8786 15.6563 10.9613 15.6008 11.031 15.531L16.281 10.281Z" fill="#232323"/>
<path d="M6.75 3C5.75544 3 4.80161 3.39509 4.09835 4.09835C3.39509 4.80161 3 5.75544 3 6.75V17.25C3 18.2446 3.39509 19.1984 4.09835 19.9016C4.80161 20.6049 5.75544 21 6.75 21H17.25C18.2446 21 19.1984 20.6049 19.9016 19.9016C20.6049 19.1984 21 18.2446 21 17.25V6.75C21 5.75544 20.6049 4.80161 19.9016 4.09835C19.1984 3.39509 18.2446 3 17.25 3H6.75ZM4.5 6.75C4.5 6.15326 4.73705 5.58097 5.15901 5.15901C5.58097 4.73705 6.15326 4.5 6.75 4.5H17.25C17.8467 4.5 18.419 4.73705 18.841 5.15901C19.2629 5.58097 19.5 6.15326 19.5 6.75V17.25C19.5 17.8467 19.2629 18.419 18.841 18.841C18.419 19.2629 17.8467 19.5 17.25 19.5H6.75C6.15326 19.5 5.58097 19.2629 5.15901 18.841C4.73705 18.419 4.5 17.8467 4.5 17.25V6.75ZM16.281 10.281C16.4218 10.1402 16.5009 9.94916 16.5009 9.75C16.5009 9.55084 16.4218 9.35983 16.281 9.219C16.1402 9.07817 15.9492 8.99905 15.75 8.99905C15.5508 8.99905 15.3598 9.07817 15.219 9.219L10.5 13.9395L8.781 12.219C8.64017 12.0782 8.44916 11.9991 8.25 11.9991C8.05084 11.9991 7.85983 12.0782 7.719 12.219C7.57817 12.3598 7.49905 12.5508 7.49905 12.75C7.49905 12.9492 7.57817 13.1402 7.719 13.281L9.969 15.531C10.0387 15.6008 10.1214 15.6563 10.2125 15.6941C10.3037 15.7319 10.4013 15.7513 10.5 15.7513C10.5987 15.7513 10.6963 15.7319 10.7875 15.6941C10.8786 15.6563 10.9613 15.6008 11.031 15.531L16.281 10.281Z" fill="black" fill-opacity="0.2"/>
<path d="M6.75 3C5.75544 3 4.80161 3.39509 4.09835 4.09835C3.39509 4.80161 3 5.75544 3 6.75V17.25C3 18.2446 3.39509 19.1984 4.09835 19.9016C4.80161 20.6049 5.75544 21 6.75 21H17.25C18.2446 21 19.1984 20.6049 19.9016 19.9016C20.6049 19.1984 21 18.2446 21 17.25V6.75C21 5.75544 20.6049 4.80161 19.9016 4.09835C19.1984 3.39509 18.2446 3 17.25 3H6.75ZM4.5 6.75C4.5 6.15326 4.73705 5.58097 5.15901 5.15901C5.58097 4.73705 6.15326 4.5 6.75 4.5H17.25C17.8467 4.5 18.419 4.73705 18.841 5.15901C19.2629 5.58097 19.5 6.15326 19.5 6.75V17.25C19.5 17.8467 19.2629 18.419 18.841 18.841C18.419 19.2629 17.8467 19.5 17.25 19.5H6.75C6.15326 19.5 5.58097 19.2629 5.15901 18.841C4.73705 18.419 4.5 17.8467 4.5 17.25V6.75ZM16.281 10.281C16.4218 10.1402 16.5009 9.94916 16.5009 9.75C16.5009 9.55084 16.4218 9.35983 16.281 9.219C16.1402 9.07817 15.9492 8.99905 15.75 8.99905C15.5508 8.99905 15.3598 9.07817 15.219 9.219L10.5 13.9395L8.781 12.219C8.64017 12.0782 8.44916 11.9991 8.25 11.9991C8.05084 11.9991 7.85983 12.0782 7.719 12.219C7.57817 12.3598 7.49905 12.5508 7.49905 12.75C7.49905 12.9492 7.57817 13.1402 7.719 13.281L9.969 15.531C10.0387 15.6008 10.1214 15.6563 10.2125 15.6941C10.3037 15.7319 10.4013 15.7513 10.5 15.7513C10.5987 15.7513 10.6963 15.7319 10.7875 15.6941C10.8786 15.6563 10.9613 15.6008 11.031 15.531L16.281 10.281Z" fill="black" fill-opacity="0.2"/>
</svg>
