<svg width="24" height="24" viewBox="0 0 24 24" fill="none" xmlns="http://www.w3.org/2000/svg">
<path d="M3.59998 7.2001C3.59998 6.24532 3.97926 5.32964 4.65439 4.65451C5.32952 3.97938 6.2452 3.6001 7.19998 3.6001H16.8C17.7548 3.6001 18.6704 3.97938 19.3456 4.65451C20.0207 5.32964 20.4 6.24532 20.4 7.2001V16.8001C20.4 17.7549 20.0207 18.6706 19.3456 19.3457C18.6704 20.0208 17.7548 20.4001 16.8 20.4001H7.19998C6.2452 20.4001 5.32952 20.0208 4.65439 19.3457C3.97926 18.6706 3.59998 17.7549 3.59998 16.8001V7.2001ZM7.19998 5.4001C6.72259 5.4001 6.26475 5.58974 5.92718 5.9273C5.58962 6.26487 5.39998 6.72271 5.39998 7.2001V16.8001C5.39998 17.2775 5.58962 17.7353 5.92718 18.0729C6.26475 18.4105 6.72259 18.6001 7.19998 18.6001H16.8C17.2774 18.6001 17.7352 18.4105 18.0728 18.0729C18.4103 17.7353 18.6 17.2775 18.6 16.8001V7.2001C18.6 6.72271 18.4103 6.26487 18.0728 5.9273C17.7352 5.58974 17.2774 5.4001 16.8 5.4001H7.19998Z" fill="#232323"/>
<path d="M3.59998 7.2001C3.59998 6.24532 3.97926 5.32964 4.65439 4.65451C5.32952 3.97938 6.2452 3.6001 7.19998 3.6001H16.8C17.7548 3.6001 18.6704 3.97938 19.3456 4.65451C20.0207 5.32964 20.4 6.24532 20.4 7.2001V16.8001C20.4 17.7549 20.0207 18.6706 19.3456 19.3457C18.6704 20.0208 17.7548 20.4001 16.8 20.4001H7.19998C6.2452 20.4001 5.32952 20.0208 4.65439 19.3457C3.97926 18.6706 3.59998 17.7549 3.59998 16.8001V7.2001ZM7.19998 5.4001C6.72259 5.4001 6.26475 5.58974 5.92718 5.9273C5.58962 6.26487 5.39998 6.72271 5.39998 7.2001V16.8001C5.39998 17.2775 5.58962 17.7353 5.92718 18.0729C6.26475 18.4105 6.72259 18.6001 7.19998 18.6001H16.8C17.2774 18.6001 17.7352 18.4105 18.0728 18.0729C18.4103 17.7353 18.6 17.2775 18.6 16.8001V7.2001C18.6 6.72271 18.4103 6.26487 18.0728 5.9273C17.7352 5.58974 17.2774 5.4001 16.8 5.4001H7.19998Z" fill="black" fill-opacity="0.2"/>
<path d="M3.59998 7.2001C3.59998 6.24532 3.97926 5.32964 4.65439 4.65451C5.32952 3.97938 6.2452 3.6001 7.19998 3.6001H16.8C17.7548 3.6001 18.6704 3.97938 19.3456 4.65451C20.0207 5.32964 20.4 6.24532 20.4 7.2001V16.8001C20.4 17.7549 20.0207 18.6706 19.3456 19.3457C18.6704 20.0208 17.7548 20.4001 16.8 20.4001H7.19998C6.2452 20.4001 5.32952 20.0208 4.65439 19.3457C3.97926 18.6706 3.59998 17.7549 3.59998 16.8001V7.2001ZM7.19998 5.4001C6.72259 5.4001 6.26475 5.58974 5.92718 5.9273C5.58962 6.26487 5.39998 6.72271 5.39998 7.2001V16.8001C5.39998 17.2775 5.58962 17.7353 5.92718 18.0729C6.26475 18.4105 6.72259 18.6001 7.19998 18.6001H16.8C17.2774 18.6001 17.7352 18.4105 18.0728 18.0729C18.4103 17.7353 18.6 17.2775 18.6 16.8001V7.2001C18.6 6.72271 18.4103 6.26487 18.0728 5.9273C17.7352 5.58974 17.2774 5.4001 16.8 5.4001H7.19998Z" fill="black" fill-opacity="0.2"/>
</svg>
