<svg width="24" height="24" viewBox="0 0 24 24" fill="none" xmlns="http://www.w3.org/2000/svg">
<path d="M8 11.0002C8 10.7349 8.10536 10.4806 8.29289 10.293C8.48043 10.1055 8.73478 10.0002 9 10.0002H15C15.2652 10.0002 15.5196 10.1055 15.7071 10.293C15.8946 10.4806 16 10.7349 16 11.0002C16 11.2654 15.8946 11.5197 15.7071 11.7073C15.5196 11.8948 15.2652 12.0002 15 12.0002H9C8.73478 12.0002 8.48043 11.8948 8.29289 11.7073C8.10536 11.5197 8 11.2654 8 11.0002ZM9 14.0002C8.73478 14.0002 8.48043 14.1055 8.29289 14.293C8.10536 14.4806 8 14.7349 8 15.0002C8 15.2654 8.10536 15.5197 8.29289 15.7073C8.48043 15.8948 8.73478 16.0002 9 16.0002H13C13.2652 16.0002 13.5196 15.8948 13.7071 15.7073C13.8946 15.5197 14 15.2654 14 15.0002C14 14.7349 13.8946 14.4806 13.7071 14.293C13.5196 14.1055 13.2652 14.0002 13 14.0002H9ZM2 12.0002C2.0005 9.80776 2.72148 7.67627 4.05199 5.93375C5.38249 4.19123 7.24877 2.93424 9.3636 2.35623C11.4784 1.77823 13.7246 1.91124 15.7565 2.73481C17.7883 3.55838 19.4932 5.02685 20.6087 6.91422C21.7243 8.8016 22.1886 11.0033 21.9304 13.1804C21.6721 15.3576 20.7055 17.3895 19.1794 18.9635C17.6533 20.5375 15.6521 21.5664 13.484 21.8917C11.3159 22.2171 9.10092 21.8209 7.18 20.7642L3.292 21.9482C3.11858 22.001 2.93407 22.0057 2.75819 21.9617C2.58231 21.9178 2.42168 21.8269 2.2935 21.6987C2.16531 21.5705 2.07438 21.4098 2.03043 21.234C1.98648 21.0581 1.99117 20.8736 2.044 20.7002L3.228 16.8062C2.42153 15.3327 1.9992 13.6799 2 12.0002ZM12 4.00016C10.5799 4.00004 9.18532 4.37795 7.95956 5.09507C6.7338 5.81219 5.72102 6.84268 5.02526 8.08068C4.32949 9.31869 3.97581 10.7196 4.00054 12.1395C4.02528 13.5594 4.42754 14.9471 5.166 16.1602C5.23931 16.2807 5.28629 16.4153 5.30387 16.5552C5.32145 16.6952 5.30923 16.8373 5.268 16.9722L4.502 19.4902L7.016 18.7242C7.15132 18.6829 7.29384 18.6709 7.43416 18.6888C7.57448 18.7067 7.70939 18.7542 7.83 18.8282C8.88436 19.4719 10.0735 19.8627 11.3041 19.9699C12.5348 20.0772 13.7736 19.898 14.9234 19.4464C16.0732 18.9948 17.1029 18.283 17.9316 17.3669C18.7603 16.4507 19.3656 15.3551 19.7 14.1659C20.0344 12.9767 20.0889 11.7262 19.8592 10.5125C19.6295 9.29867 19.1218 8.15457 18.3759 7.16983C17.63 6.1851 16.6662 5.38647 15.56 4.83655C14.4538 4.28663 13.2353 4.00035 12 4.00016Z" fill="#232323"/>
<path d="M8 11.0002C8 10.7349 8.10536 10.4806 8.29289 10.293C8.48043 10.1055 8.73478 10.0002 9 10.0002H15C15.2652 10.0002 15.5196 10.1055 15.7071 10.293C15.8946 10.4806 16 10.7349 16 11.0002C16 11.2654 15.8946 11.5197 15.7071 11.7073C15.5196 11.8948 15.2652 12.0002 15 12.0002H9C8.73478 12.0002 8.48043 11.8948 8.29289 11.7073C8.10536 11.5197 8 11.2654 8 11.0002ZM9 14.0002C8.73478 14.0002 8.48043 14.1055 8.29289 14.293C8.10536 14.4806 8 14.7349 8 15.0002C8 15.2654 8.10536 15.5197 8.29289 15.7073C8.48043 15.8948 8.73478 16.0002 9 16.0002H13C13.2652 16.0002 13.5196 15.8948 13.7071 15.7073C13.8946 15.5197 14 15.2654 14 15.0002C14 14.7349 13.8946 14.4806 13.7071 14.293C13.5196 14.1055 13.2652 14.0002 13 14.0002H9ZM2 12.0002C2.0005 9.80776 2.72148 7.67627 4.05199 5.93375C5.38249 4.19123 7.24877 2.93424 9.3636 2.35623C11.4784 1.77823 13.7246 1.91124 15.7565 2.73481C17.7883 3.55838 19.4932 5.02685 20.6087 6.91422C21.7243 8.8016 22.1886 11.0033 21.9304 13.1804C21.6721 15.3576 20.7055 17.3895 19.1794 18.9635C17.6533 20.5375 15.6521 21.5664 13.484 21.8917C11.3159 22.2171 9.10092 21.8209 7.18 20.7642L3.292 21.9482C3.11858 22.001 2.93407 22.0057 2.75819 21.9617C2.58231 21.9178 2.42168 21.8269 2.2935 21.6987C2.16531 21.5705 2.07438 21.4098 2.03043 21.234C1.98648 21.0581 1.99117 20.8736 2.044 20.7002L3.228 16.8062C2.42153 15.3327 1.9992 13.6799 2 12.0002ZM12 4.00016C10.5799 4.00004 9.18532 4.37795 7.95956 5.09507C6.7338 5.81219 5.72102 6.84268 5.02526 8.08068C4.32949 9.31869 3.97581 10.7196 4.00054 12.1395C4.02528 13.5594 4.42754 14.9471 5.166 16.1602C5.23931 16.2807 5.28629 16.4153 5.30387 16.5552C5.32145 16.6952 5.30923 16.8373 5.268 16.9722L4.502 19.4902L7.016 18.7242C7.15132 18.6829 7.29384 18.6709 7.43416 18.6888C7.57448 18.7067 7.70939 18.7542 7.83 18.8282C8.88436 19.4719 10.0735 19.8627 11.3041 19.9699C12.5348 20.0772 13.7736 19.898 14.9234 19.4464C16.0732 18.9948 17.1029 18.283 17.9316 17.3669C18.7603 16.4507 19.3656 15.3551 19.7 14.1659C20.0344 12.9767 20.0889 11.7262 19.8592 10.5125C19.6295 9.29867 19.1218 8.15457 18.3759 7.16983C17.63 6.1851 16.6662 5.38647 15.56 4.83655C14.4538 4.28663 13.2353 4.00035 12 4.00016Z" fill="black" fill-opacity="0.2"/>
<path d="M8 11.0002C8 10.7349 8.10536 10.4806 8.29289 10.293C8.48043 10.1055 8.73478 10.0002 9 10.0002H15C15.2652 10.0002 15.5196 10.1055 15.7071 10.293C15.8946 10.4806 16 10.7349 16 11.0002C16 11.2654 15.8946 11.5197 15.7071 11.7073C15.5196 11.8948 15.2652 12.0002 15 12.0002H9C8.73478 12.0002 8.48043 11.8948 8.29289 11.7073C8.10536 11.5197 8 11.2654 8 11.0002ZM9 14.0002C8.73478 14.0002 8.48043 14.1055 8.29289 14.293C8.10536 14.4806 8 14.7349 8 15.0002C8 15.2654 8.10536 15.5197 8.29289 15.7073C8.48043 15.8948 8.73478 16.0002 9 16.0002H13C13.2652 16.0002 13.5196 15.8948 13.7071 15.7073C13.8946 15.5197 14 15.2654 14 15.0002C14 14.7349 13.8946 14.4806 13.7071 14.293C13.5196 14.1055 13.2652 14.0002 13 14.0002H9ZM2 12.0002C2.0005 9.80776 2.72148 7.67627 4.05199 5.93375C5.38249 4.19123 7.24877 2.93424 9.3636 2.35623C11.4784 1.77823 13.7246 1.91124 15.7565 2.73481C17.7883 3.55838 19.4932 5.02685 20.6087 6.91422C21.7243 8.8016 22.1886 11.0033 21.9304 13.1804C21.6721 15.3576 20.7055 17.3895 19.1794 18.9635C17.6533 20.5375 15.6521 21.5664 13.484 21.8917C11.3159 22.2171 9.10092 21.8209 7.18 20.7642L3.292 21.9482C3.11858 22.001 2.93407 22.0057 2.75819 21.9617C2.58231 21.9178 2.42168 21.8269 2.2935 21.6987C2.16531 21.5705 2.07438 21.4098 2.03043 21.234C1.98648 21.0581 1.99117 20.8736 2.044 20.7002L3.228 16.8062C2.42153 15.3327 1.9992 13.6799 2 12.0002ZM12 4.00016C10.5799 4.00004 9.18532 4.37795 7.95956 5.09507C6.7338 5.81219 5.72102 6.84268 5.02526 8.08068C4.32949 9.31869 3.97581 10.7196 4.00054 12.1395C4.02528 13.5594 4.42754 14.9471 5.166 16.1602C5.23931 16.2807 5.28629 16.4153 5.30387 16.5552C5.32145 16.6952 5.30923 16.8373 5.268 16.9722L4.502 19.4902L7.016 18.7242C7.15132 18.6829 7.29384 18.6709 7.43416 18.6888C7.57448 18.7067 7.70939 18.7542 7.83 18.8282C8.88436 19.4719 10.0735 19.8627 11.3041 19.9699C12.5348 20.0772 13.7736 19.898 14.9234 19.4464C16.0732 18.9948 17.1029 18.283 17.9316 17.3669C18.7603 16.4507 19.3656 15.3551 19.7 14.1659C20.0344 12.9767 20.0889 11.7262 19.8592 10.5125C19.6295 9.29867 19.1218 8.15457 18.3759 7.16983C17.63 6.1851 16.6662 5.38647 15.56 4.83655C14.4538 4.28663 13.2353 4.00035 12 4.00016Z" fill="black" fill-opacity="0.2"/>
</svg>
