<svg width="24" height="24" viewBox="0 0 24 24" fill="none" xmlns="http://www.w3.org/2000/svg">
<path d="M15 7.4999C15 7.34077 15.0632 7.18816 15.1757 7.07564C15.2883 6.96312 15.4409 6.8999 15.6 6.8999H18.1155C18.3053 6.89991 18.4924 6.94495 18.6614 7.03131C18.8304 7.11767 18.9766 7.2429 19.0878 7.3967L22.2 11.6999H15V7.4999Z" stroke="#232323" stroke-linecap="round" stroke-linejoin="round"/>
<path d="M15 7.4999C15 7.34077 15.0632 7.18816 15.1757 7.07564C15.2883 6.96312 15.4409 6.8999 15.6 6.8999H18.1155C18.3053 6.89991 18.4924 6.94495 18.6614 7.03131C18.8304 7.11767 18.9766 7.2429 19.0878 7.3967L22.2 11.6999H15V7.4999Z" stroke="black" stroke-opacity="0.2" stroke-linecap="round" stroke-linejoin="round"/>
<path d="M15 7.4999C15 7.34077 15.0632 7.18816 15.1757 7.07564C15.2883 6.96312 15.4409 6.8999 15.6 6.8999H18.1155C18.3053 6.89991 18.4924 6.94495 18.6614 7.03131C18.8304 7.11767 18.9766 7.2429 19.0878 7.3967L22.2 11.6999H15V7.4999Z" stroke="black" stroke-opacity="0.2" stroke-linecap="round" stroke-linejoin="round"/>
<path fill-rule="evenodd" clip-rule="evenodd" d="M22.2 11.6997H15V16.4997H15.2358C15.3763 15.7096 15.7904 14.9942 16.4055 14.4789C17.0207 13.9635 17.7975 13.6811 18.6 13.6811C19.4025 13.6811 20.1793 13.9635 20.7945 14.4789C21.4096 14.9942 21.8237 15.7096 21.9642 16.4997H22.2V11.6997ZM19.4217 16.4997C19.3273 16.3703 19.2037 16.265 19.0609 16.1924C18.9181 16.1198 18.7602 16.082 18.6 16.082C18.4398 16.082 18.2819 16.1198 18.1391 16.1924C17.9963 16.265 17.8727 16.3703 17.7783 16.4997H19.4217Z" fill="#232323"/>
<path fill-rule="evenodd" clip-rule="evenodd" d="M22.2 11.6997H15V16.4997H15.2358C15.3763 15.7096 15.7904 14.9942 16.4055 14.4789C17.0207 13.9635 17.7975 13.6811 18.6 13.6811C19.4025 13.6811 20.1793 13.9635 20.7945 14.4789C21.4096 14.9942 21.8237 15.7096 21.9642 16.4997H22.2V11.6997ZM19.4217 16.4997C19.3273 16.3703 19.2037 16.265 19.0609 16.1924C18.9181 16.1198 18.7602 16.082 18.6 16.082C18.4398 16.082 18.2819 16.1198 18.1391 16.1924C17.9963 16.265 17.8727 16.3703 17.7783 16.4997H19.4217Z" fill="black" fill-opacity="0.2"/>
<path fill-rule="evenodd" clip-rule="evenodd" d="M22.2 11.6997H15V16.4997H15.2358C15.3763 15.7096 15.7904 14.9942 16.4055 14.4789C17.0207 13.9635 17.7975 13.6811 18.6 13.6811C19.4025 13.6811 20.1793 13.9635 20.7945 14.4789C21.4096 14.9942 21.8237 15.7096 21.9642 16.4997H22.2V11.6997ZM19.4217 16.4997C19.3273 16.3703 19.2037 16.265 19.0609 16.1924C18.9181 16.1198 18.7602 16.082 18.6 16.082C18.4398 16.082 18.2819 16.1198 18.1391 16.1924C17.9963 16.265 17.8727 16.3703 17.7783 16.4997H19.4217Z" fill="black" fill-opacity="0.2"/>
<path d="M15 11.7001V11.1001C14.8409 11.1001 14.6883 11.1633 14.5758 11.2758C14.4632 11.3884 14.4 11.541 14.4 11.7001H15ZM22.2 11.7001H22.8C22.8 11.541 22.7368 11.3884 22.6243 11.2758C22.5118 11.1633 22.3592 11.1001 22.2 11.1001V11.7001ZM15 16.5001H14.4C14.4 16.6592 14.4632 16.8118 14.5758 16.9244C14.6883 17.0369 14.8409 17.1001 15 17.1001V16.5001ZM15.2358 16.5001V17.1001C15.3767 17.1001 15.5131 17.0505 15.6211 16.9601C15.7291 16.8696 15.8018 16.7441 15.8265 16.6054L15.2358 16.5001ZM21.9642 16.5001L21.3735 16.6054C21.3983 16.7441 21.471 16.8697 21.5791 16.9602C21.6872 17.0506 21.8236 17.1002 21.9645 17.1001L21.9642 16.5001ZM22.2 16.5001V17.1001C22.3592 17.1001 22.5118 17.0369 22.6243 16.9244C22.7368 16.8118 22.8 16.6592 22.8 16.5001H22.2ZM19.4217 16.5001V17.1001C19.5325 17.1001 19.6412 17.0694 19.7356 17.0115C19.83 16.9535 19.9066 16.8706 19.9567 16.7718C20.0069 16.673 20.0288 16.5622 20.0198 16.4518C20.0109 16.3414 19.9716 16.2356 19.9062 16.1461L19.4217 16.5001ZM17.7786 16.5001L17.2938 16.1461C17.2285 16.2356 17.1891 16.3414 17.1802 16.4518C17.1713 16.5622 17.1931 16.673 17.2433 16.7718C17.2935 16.8706 17.37 16.9535 17.4645 17.0115C17.5589 17.0694 17.6675 17.1001 17.7783 17.1001L17.7786 16.5001ZM15 12.3001H22.2V11.1001H15V12.3001ZM15.6 16.5001V11.7001H14.4V16.5001H15.6ZM15.2358 15.9001H15V17.1001H15.2358V15.9001ZM15.8265 16.6054C15.8622 16.4053 15.9195 16.2097 15.9972 16.0219L14.8884 15.5629C14.7776 15.8306 14.696 16.1095 14.6451 16.3948L15.8265 16.6054ZM15.9972 16.0219C16.2834 15.3318 16.8317 14.7835 17.5218 14.4973L17.0628 13.3885C16.0785 13.7965 15.2964 14.5786 14.8884 15.5629L15.9972 16.0219ZM17.5218 14.4973C18.2122 14.2116 18.9878 14.2116 19.6782 14.4973L20.1375 13.3885C19.1532 12.9811 18.0471 12.9811 17.0628 13.3885L17.5218 14.4973ZM19.6782 14.4973C20.3683 14.7835 20.9166 15.3318 21.2028 16.0219L22.3116 15.5629C21.9036 14.5786 21.1219 13.7965 20.1375 13.3885L19.6782 14.4973ZM21.2028 16.0219C21.2807 16.2097 21.3377 16.4053 21.3735 16.6054L22.5549 16.3948C22.504 16.1095 22.4225 15.8306 22.3116 15.5629L21.2028 16.0219ZM22.2 15.9001H21.9642L21.9645 17.1001H22.2V15.9001ZM21.6 11.7001V16.5001H22.8V11.7001H21.6ZM19.9062 16.1461C19.731 15.9066 19.4934 15.7198 19.2192 15.6061L18.7596 16.7146C18.831 16.744 18.8922 16.7926 18.9369 16.8541L19.9062 16.1461ZM19.2192 15.6061C18.8228 15.4422 18.3775 15.4422 17.9811 15.6061L18.4404 16.7146C18.5428 16.6725 18.6573 16.6725 18.7596 16.7146L19.2192 15.6061ZM17.9811 15.6061C17.707 15.7198 17.469 15.9066 17.2938 16.1461L18.2631 16.8541C18.3083 16.7923 18.3698 16.7441 18.4404 16.7146L17.9811 15.6061ZM19.4217 15.9001H17.778V17.1001H19.4211L19.4217 15.9001Z" fill="#232323"/>
<path d="M15 11.7001V11.1001C14.8409 11.1001 14.6883 11.1633 14.5758 11.2758C14.4632 11.3884 14.4 11.541 14.4 11.7001H15ZM22.2 11.7001H22.8C22.8 11.541 22.7368 11.3884 22.6243 11.2758C22.5118 11.1633 22.3592 11.1001 22.2 11.1001V11.7001ZM15 16.5001H14.4C14.4 16.6592 14.4632 16.8118 14.5758 16.9244C14.6883 17.0369 14.8409 17.1001 15 17.1001V16.5001ZM15.2358 16.5001V17.1001C15.3767 17.1001 15.5131 17.0505 15.6211 16.9601C15.7291 16.8696 15.8018 16.7441 15.8265 16.6054L15.2358 16.5001ZM21.9642 16.5001L21.3735 16.6054C21.3983 16.7441 21.471 16.8697 21.5791 16.9602C21.6872 17.0506 21.8236 17.1002 21.9645 17.1001L21.9642 16.5001ZM22.2 16.5001V17.1001C22.3592 17.1001 22.5118 17.0369 22.6243 16.9244C22.7368 16.8118 22.8 16.6592 22.8 16.5001H22.2ZM19.4217 16.5001V17.1001C19.5325 17.1001 19.6412 17.0694 19.7356 17.0115C19.83 16.9535 19.9066 16.8706 19.9567 16.7718C20.0069 16.673 20.0288 16.5622 20.0198 16.4518C20.0109 16.3414 19.9716 16.2356 19.9062 16.1461L19.4217 16.5001ZM17.7786 16.5001L17.2938 16.1461C17.2285 16.2356 17.1891 16.3414 17.1802 16.4518C17.1713 16.5622 17.1931 16.673 17.2433 16.7718C17.2935 16.8706 17.37 16.9535 17.4645 17.0115C17.5589 17.0694 17.6675 17.1001 17.7783 17.1001L17.7786 16.5001ZM15 12.3001H22.2V11.1001H15V12.3001ZM15.6 16.5001V11.7001H14.4V16.5001H15.6ZM15.2358 15.9001H15V17.1001H15.2358V15.9001ZM15.8265 16.6054C15.8622 16.4053 15.9195 16.2097 15.9972 16.0219L14.8884 15.5629C14.7776 15.8306 14.696 16.1095 14.6451 16.3948L15.8265 16.6054ZM15.9972 16.0219C16.2834 15.3318 16.8317 14.7835 17.5218 14.4973L17.0628 13.3885C16.0785 13.7965 15.2964 14.5786 14.8884 15.5629L15.9972 16.0219ZM17.5218 14.4973C18.2122 14.2116 18.9878 14.2116 19.6782 14.4973L20.1375 13.3885C19.1532 12.9811 18.0471 12.9811 17.0628 13.3885L17.5218 14.4973ZM19.6782 14.4973C20.3683 14.7835 20.9166 15.3318 21.2028 16.0219L22.3116 15.5629C21.9036 14.5786 21.1219 13.7965 20.1375 13.3885L19.6782 14.4973ZM21.2028 16.0219C21.2807 16.2097 21.3377 16.4053 21.3735 16.6054L22.5549 16.3948C22.504 16.1095 22.4225 15.8306 22.3116 15.5629L21.2028 16.0219ZM22.2 15.9001H21.9642L21.9645 17.1001H22.2V15.9001ZM21.6 11.7001V16.5001H22.8V11.7001H21.6ZM19.9062 16.1461C19.731 15.9066 19.4934 15.7198 19.2192 15.6061L18.7596 16.7146C18.831 16.744 18.8922 16.7926 18.9369 16.8541L19.9062 16.1461ZM19.2192 15.6061C18.8228 15.4422 18.3775 15.4422 17.9811 15.6061L18.4404 16.7146C18.5428 16.6725 18.6573 16.6725 18.7596 16.7146L19.2192 15.6061ZM17.9811 15.6061C17.707 15.7198 17.469 15.9066 17.2938 16.1461L18.2631 16.8541C18.3083 16.7923 18.3698 16.7441 18.4404 16.7146L17.9811 15.6061ZM19.4217 15.9001H17.778V17.1001H19.4211L19.4217 15.9001Z" fill="black" fill-opacity="0.2"/>
<path d="M15 11.7001V11.1001C14.8409 11.1001 14.6883 11.1633 14.5758 11.2758C14.4632 11.3884 14.4 11.541 14.4 11.7001H15ZM22.2 11.7001H22.8C22.8 11.541 22.7368 11.3884 22.6243 11.2758C22.5118 11.1633 22.3592 11.1001 22.2 11.1001V11.7001ZM15 16.5001H14.4C14.4 16.6592 14.4632 16.8118 14.5758 16.9244C14.6883 17.0369 14.8409 17.1001 15 17.1001V16.5001ZM15.2358 16.5001V17.1001C15.3767 17.1001 15.5131 17.0505 15.6211 16.9601C15.7291 16.8696 15.8018 16.7441 15.8265 16.6054L15.2358 16.5001ZM21.9642 16.5001L21.3735 16.6054C21.3983 16.7441 21.471 16.8697 21.5791 16.9602C21.6872 17.0506 21.8236 17.1002 21.9645 17.1001L21.9642 16.5001ZM22.2 16.5001V17.1001C22.3592 17.1001 22.5118 17.0369 22.6243 16.9244C22.7368 16.8118 22.8 16.6592 22.8 16.5001H22.2ZM19.4217 16.5001V17.1001C19.5325 17.1001 19.6412 17.0694 19.7356 17.0115C19.83 16.9535 19.9066 16.8706 19.9567 16.7718C20.0069 16.673 20.0288 16.5622 20.0198 16.4518C20.0109 16.3414 19.9716 16.2356 19.9062 16.1461L19.4217 16.5001ZM17.7786 16.5001L17.2938 16.1461C17.2285 16.2356 17.1891 16.3414 17.1802 16.4518C17.1713 16.5622 17.1931 16.673 17.2433 16.7718C17.2935 16.8706 17.37 16.9535 17.4645 17.0115C17.5589 17.0694 17.6675 17.1001 17.7783 17.1001L17.7786 16.5001ZM15 12.3001H22.2V11.1001H15V12.3001ZM15.6 16.5001V11.7001H14.4V16.5001H15.6ZM15.2358 15.9001H15V17.1001H15.2358V15.9001ZM15.8265 16.6054C15.8622 16.4053 15.9195 16.2097 15.9972 16.0219L14.8884 15.5629C14.7776 15.8306 14.696 16.1095 14.6451 16.3948L15.8265 16.6054ZM15.9972 16.0219C16.2834 15.3318 16.8317 14.7835 17.5218 14.4973L17.0628 13.3885C16.0785 13.7965 15.2964 14.5786 14.8884 15.5629L15.9972 16.0219ZM17.5218 14.4973C18.2122 14.2116 18.9878 14.2116 19.6782 14.4973L20.1375 13.3885C19.1532 12.9811 18.0471 12.9811 17.0628 13.3885L17.5218 14.4973ZM19.6782 14.4973C20.3683 14.7835 20.9166 15.3318 21.2028 16.0219L22.3116 15.5629C21.9036 14.5786 21.1219 13.7965 20.1375 13.3885L19.6782 14.4973ZM21.2028 16.0219C21.2807 16.2097 21.3377 16.4053 21.3735 16.6054L22.5549 16.3948C22.504 16.1095 22.4225 15.8306 22.3116 15.5629L21.2028 16.0219ZM22.2 15.9001H21.9642L21.9645 17.1001H22.2V15.9001ZM21.6 11.7001V16.5001H22.8V11.7001H21.6ZM19.9062 16.1461C19.731 15.9066 19.4934 15.7198 19.2192 15.6061L18.7596 16.7146C18.831 16.744 18.8922 16.7926 18.9369 16.8541L19.9062 16.1461ZM19.2192 15.6061C18.8228 15.4422 18.3775 15.4422 17.9811 15.6061L18.4404 16.7146C18.5428 16.6725 18.6573 16.6725 18.7596 16.7146L19.2192 15.6061ZM17.9811 15.6061C17.707 15.7198 17.469 15.9066 17.2938 16.1461L18.2631 16.8541C18.3083 16.7923 18.3698 16.7441 18.4404 16.7146L17.9811 15.6061ZM19.4217 15.9001H17.778V17.1001H19.4211L19.4217 15.9001Z" fill="black" fill-opacity="0.2"/>
<path d="M17.7516 15.0516C18.0206 14.9402 18.3089 14.8828 18.6 14.8828C18.8912 14.8828 19.1794 14.9402 19.4484 15.0516C19.7174 15.163 19.9618 15.3263 20.1677 15.5322C20.3735 15.738 20.5368 15.9824 20.6483 16.2514C20.7597 16.5204 20.817 16.8087 20.817 17.0998C20.817 17.391 20.7597 17.6793 20.6482 17.9482C20.5368 18.2172 20.3735 18.4616 20.1677 18.6675C19.9618 18.8734 19.7174 19.0367 19.4484 19.1481C19.1794 19.2595 18.8911 19.3168 18.6 19.3168C18.3088 19.3168 18.0206 19.2595 17.7516 19.1481C17.2084 18.923 16.7768 18.4914 16.5518 17.9482C16.3267 17.405 16.3267 16.7946 16.5518 16.2514C16.7768 15.7082 17.2084 15.2766 17.7516 15.0516Z" fill="#232323"/>
<path d="M17.7516 15.0516C18.0206 14.9402 18.3089 14.8828 18.6 14.8828C18.8912 14.8828 19.1794 14.9402 19.4484 15.0516C19.7174 15.163 19.9618 15.3263 20.1677 15.5322C20.3735 15.738 20.5368 15.9824 20.6483 16.2514C20.7597 16.5204 20.817 16.8087 20.817 17.0998C20.817 17.391 20.7597 17.6793 20.6482 17.9482C20.5368 18.2172 20.3735 18.4616 20.1677 18.6675C19.9618 18.8734 19.7174 19.0367 19.4484 19.1481C19.1794 19.2595 18.8911 19.3168 18.6 19.3168C18.3088 19.3168 18.0206 19.2595 17.7516 19.1481C17.2084 18.923 16.7768 18.4914 16.5518 17.9482C16.3267 17.405 16.3267 16.7946 16.5518 16.2514C16.7768 15.7082 17.2084 15.2766 17.7516 15.0516Z" fill="black" fill-opacity="0.2"/>
<path d="M17.7516 15.0516C18.0206 14.9402 18.3089 14.8828 18.6 14.8828C18.8912 14.8828 19.1794 14.9402 19.4484 15.0516C19.7174 15.163 19.9618 15.3263 20.1677 15.5322C20.3735 15.738 20.5368 15.9824 20.6483 16.2514C20.7597 16.5204 20.817 16.8087 20.817 17.0998C20.817 17.391 20.7597 17.6793 20.6482 17.9482C20.5368 18.2172 20.3735 18.4616 20.1677 18.6675C19.9618 18.8734 19.7174 19.0367 19.4484 19.1481C19.1794 19.2595 18.8911 19.3168 18.6 19.3168C18.3088 19.3168 18.0206 19.2595 17.7516 19.1481C17.2084 18.923 16.7768 18.4914 16.5518 17.9482C16.3267 17.405 16.3267 16.7946 16.5518 16.2514C16.7768 15.7082 17.2084 15.2766 17.7516 15.0516Z" fill="black" fill-opacity="0.2"/>
<path fill-rule="evenodd" clip-rule="evenodd" d="M1.80002 5.7C1.80002 5.38174 1.92645 5.07652 2.15149 4.85147C2.37653 4.62643 2.68176 4.5 3.00002 4.5H13.8C14.1183 4.5 14.4235 4.62643 14.6485 4.85147C14.8736 5.07652 15 5.38174 15 5.7V16.5H9.06422C8.92369 15.7099 8.50958 14.9945 7.89447 14.4792C7.27936 13.9638 6.50249 13.6814 5.70002 13.6814C4.89755 13.6814 4.12068 13.9638 3.50556 14.4792C2.89045 14.9945 2.47634 15.7099 2.33582 16.5H1.80002V5.7ZM6.08942 16.1601C6.26342 16.2321 6.41222 16.3503 6.52142 16.5H4.87862C5.01309 16.3158 5.20559 16.1821 5.42518 16.1205C5.64477 16.0588 5.87872 16.0728 6.08942 16.1601ZM7.20002 13.3785V11.3016H5.12312V8.9016H7.20002V6.8247H9.60002V8.9016H11.6769V11.3016H9.60002V13.3785H7.20002Z" fill="#232323"/>
<path fill-rule="evenodd" clip-rule="evenodd" d="M1.80002 5.7C1.80002 5.38174 1.92645 5.07652 2.15149 4.85147C2.37653 4.62643 2.68176 4.5 3.00002 4.5H13.8C14.1183 4.5 14.4235 4.62643 14.6485 4.85147C14.8736 5.07652 15 5.38174 15 5.7V16.5H9.06422C8.92369 15.7099 8.50958 14.9945 7.89447 14.4792C7.27936 13.9638 6.50249 13.6814 5.70002 13.6814C4.89755 13.6814 4.12068 13.9638 3.50556 14.4792C2.89045 14.9945 2.47634 15.7099 2.33582 16.5H1.80002V5.7ZM6.08942 16.1601C6.26342 16.2321 6.41222 16.3503 6.52142 16.5H4.87862C5.01309 16.3158 5.20559 16.1821 5.42518 16.1205C5.64477 16.0588 5.87872 16.0728 6.08942 16.1601ZM7.20002 13.3785V11.3016H5.12312V8.9016H7.20002V6.8247H9.60002V8.9016H11.6769V11.3016H9.60002V13.3785H7.20002Z" fill="black" fill-opacity="0.2"/>
<path fill-rule="evenodd" clip-rule="evenodd" d="M1.80002 5.7C1.80002 5.38174 1.92645 5.07652 2.15149 4.85147C2.37653 4.62643 2.68176 4.5 3.00002 4.5H13.8C14.1183 4.5 14.4235 4.62643 14.6485 4.85147C14.8736 5.07652 15 5.38174 15 5.7V16.5H9.06422C8.92369 15.7099 8.50958 14.9945 7.89447 14.4792C7.27936 13.9638 6.50249 13.6814 5.70002 13.6814C4.89755 13.6814 4.12068 13.9638 3.50556 14.4792C2.89045 14.9945 2.47634 15.7099 2.33582 16.5H1.80002V5.7ZM6.08942 16.1601C6.26342 16.2321 6.41222 16.3503 6.52142 16.5H4.87862C5.01309 16.3158 5.20559 16.1821 5.42518 16.1205C5.64477 16.0588 5.87872 16.0728 6.08942 16.1601ZM7.20002 13.3785V11.3016H5.12312V8.9016H7.20002V6.8247H9.60002V8.9016H11.6769V11.3016H9.60002V13.3785H7.20002Z" fill="black" fill-opacity="0.2"/>
<path d="M15 16.4999V17.0999C15.1591 17.0999 15.3118 17.0367 15.4243 16.9242C15.5368 16.8116 15.6 16.659 15.6 16.4999H15ZM9.06421 16.4999L8.47351 16.6052C8.49824 16.7439 8.57102 16.8695 8.67908 16.96C8.78714 17.0504 8.92359 17.1 9.06451 17.0999L9.06421 16.4999ZM2.33581 16.4999V17.0999C2.47668 17.0999 2.61306 17.0503 2.72106 16.9599C2.82906 16.8694 2.90179 16.7439 2.92651 16.6052L2.33581 16.4999ZM1.80001 16.4999H1.20001C1.20001 16.659 1.26323 16.8116 1.37575 16.9242C1.48827 17.0367 1.64088 17.0999 1.80001 17.0999V16.4999ZM6.52141 16.4999V17.0999C6.63224 17.1 6.74091 17.0693 6.83539 17.0114C6.92987 16.9535 7.00646 16.8705 7.05667 16.7717C7.10687 16.6729 7.12874 16.5622 7.11983 16.4517C7.11092 16.3412 7.0716 16.2354 7.00621 16.1459L6.52141 16.4999ZM4.87861 16.4999L4.39381 16.1459C4.32843 16.2354 4.2891 16.3412 4.28019 16.4517C4.27129 16.5622 4.29315 16.6729 4.34336 16.7717C4.39357 16.8705 4.47015 16.9535 4.56463 17.0114C4.65911 17.0693 4.76779 17.1 4.87861 17.0999V16.4999ZM7.20001 13.3784H6.60001C6.60001 13.5375 6.66323 13.6901 6.77575 13.8027C6.88827 13.9152 7.04088 13.9784 7.20001 13.9784V13.3784ZM7.20001 11.3015H7.80001C7.80001 11.1424 7.7368 10.9898 7.62428 10.8772C7.51175 10.7647 7.35914 10.7015 7.20001 10.7015V11.3015ZM5.12311 11.3015H4.52311C4.52311 11.4606 4.58633 11.6132 4.69885 11.7258C4.81137 11.8383 4.96398 11.9015 5.12311 11.9015V11.3015ZM5.12311 8.9015V8.3015C4.96398 8.3015 4.81137 8.36472 4.69885 8.47724C4.58633 8.58976 4.52311 8.74237 4.52311 8.9015H5.12311ZM7.20001 8.9015V9.5015C7.35914 9.5015 7.51175 9.43829 7.62428 9.32577C7.7368 9.21324 7.80001 9.06063 7.80001 8.9015H7.20001ZM7.20001 6.8246V6.2246C7.04088 6.2246 6.88827 6.28782 6.77575 6.40034C6.66323 6.51286 6.60001 6.66547 6.60001 6.8246H7.20001ZM9.60001 6.8246H10.2C10.2 6.66547 10.1368 6.51286 10.0243 6.40034C9.91175 6.28782 9.75914 6.2246 9.60001 6.2246V6.8246ZM9.60001 8.9015H9.00001C9.00001 9.06063 9.06323 9.21324 9.17575 9.32577C9.28827 9.43829 9.44088 9.5015 9.60001 9.5015V8.9015ZM11.6769 8.9015H12.2769C12.2769 8.74237 12.2137 8.58976 12.1012 8.47724C11.9887 8.36472 11.836 8.3015 11.6769 8.3015V8.9015ZM11.6769 11.3015V11.9015C11.836 11.9015 11.9887 11.8383 12.1012 11.7258C12.2137 11.6132 12.2769 11.4606 12.2769 11.3015H11.6769ZM9.60001 11.3015V10.7015C9.44088 10.7015 9.28827 10.7647 9.17575 10.8772C9.06323 10.9898 9.00001 11.1424 9.00001 11.3015H9.60001ZM9.60001 13.3784V13.9784C9.75914 13.9784 9.91175 13.9152 10.0243 13.8027C10.1368 13.6901 10.2 13.5375 10.2 13.3784H9.60001ZM3.00001 3.8999C2.52262 3.8999 2.06479 4.08954 1.72722 4.42711C1.38965 4.76468 1.20001 5.22251 1.20001 5.6999H2.40001C2.40001 5.54077 2.46323 5.38816 2.57575 5.27564C2.68827 5.16312 2.84088 5.0999 3.00001 5.0999V3.8999ZM13.8 3.8999H3.00001V5.0999H13.8V3.8999ZM15.6 5.6999C15.6 5.22251 15.4104 4.76468 15.0728 4.42711C14.7352 4.08954 14.2774 3.8999 13.8 3.8999V5.0999C13.9591 5.0999 14.1118 5.16312 14.2243 5.27564C14.3368 5.38816 14.4 5.54077 14.4 5.6999H15.6ZM15.6 16.4999V5.6999H14.4V16.4999H15.6ZM9.06451 17.0999H15V15.8999H9.06421L9.06451 17.0999ZM8.30281 16.0217C8.38068 16.2095 8.43771 16.4051 8.47351 16.6052L9.65491 16.3946C9.60403 16.1093 9.52246 15.8304 9.41161 15.5627L8.30281 16.0217ZM6.77821 14.4971C7.4683 14.7833 8.01662 15.3316 8.30281 16.0217L9.41161 15.5627C9.0037 14.5784 8.22173 13.7964 7.23751 13.3883L6.77821 14.4971ZM4.62181 14.4971C5.31223 14.2114 6.0878 14.2114 6.77821 14.4971L7.23751 13.3883C6.25319 12.981 5.14713 12.981 4.16281 13.3883L4.62181 14.4971ZM3.09721 16.0217C3.3834 15.3316 3.93173 14.7833 4.62181 14.4971L4.16281 13.3883C3.17849 13.7963 2.3964 14.5784 1.98841 15.5627L3.09721 16.0217ZM2.92621 16.6052C2.96202 16.4051 3.01935 16.2095 3.09721 16.0217L1.98841 15.5627C1.87757 15.8304 1.79599 16.1093 1.74511 16.3946L2.92621 16.6052ZM1.80001 17.0999H2.33581V15.8999H1.80001V17.0999ZM1.20001 5.6999V16.4999H2.40001V5.6999H1.20001ZM7.00621 16.1459C6.831 15.9064 6.59335 15.7196 6.31921 15.6059L5.85961 16.7144C5.93101 16.7438 5.99221 16.7924 6.03691 16.8539L7.00621 16.1459ZM4.87861 17.0999H6.52141V15.8999H4.87861V17.0999ZM5.08111 15.6059C4.80697 15.7196 4.56933 15.9064 4.39411 16.1459L5.36311 16.8539C5.4083 16.7921 5.4695 16.7439 5.54011 16.7144L5.08111 15.6059ZM6.31921 15.6059C5.92288 15.4421 5.47745 15.4421 5.08111 15.6059L5.54011 16.7144C5.64245 16.6723 5.75727 16.6723 5.85961 16.7144L6.31921 15.6059ZM6.60001 12.1781V13.3784L7.80001 13.3781V12.1781H6.60001ZM6.60001 11.6012V12.1781H7.80001V11.6012H6.60001ZM6.60001 11.5436V11.6012H7.80001V11.5436H6.60001ZM6.60001 11.4857V11.5436H7.80001V11.4857H6.60001ZM6.60001 11.4281V11.4857H7.80001V11.4281H6.60001ZM6.60001 11.3705V11.4281H7.80001V11.3705H6.60001ZM6.60001 11.3126V11.3705H7.80001V11.3126H6.60001ZM6.60001 11.3012V11.3126H7.80001V11.3015L6.60001 11.3012ZM6.32311 11.9012H7.20001V10.7015L6.32311 10.7012V11.9012ZM5.12311 11.9015L6.32311 11.9012V10.7012H5.12311V11.9015ZM4.52311 8.9012V11.3015L5.72311 11.3012V8.9012H4.52311ZM6.32311 8.3012H5.12311V9.5012H6.32311V8.3012ZM7.20001 8.3012H6.32311V9.5012H7.20001V8.3012ZM6.60001 8.8895V8.9012H7.80001V8.8895H6.60001ZM6.60001 8.8607V8.8895H7.80001V8.8607H6.60001ZM6.60001 8.8319V8.8607H7.80001V8.8319H6.60001ZM6.60001 8.7743V8.8319H7.80001V8.7743H6.60001ZM6.60001 8.7167V8.7743H7.80001V8.7167H6.60001ZM6.60001 8.6588V8.7167H7.80001V8.6588H6.60001ZM6.60001 8.6012V8.6588H7.80001V8.6012H6.60001ZM6.60001 8.5436V8.6012H7.80001V8.5436H6.60001ZM6.60001 8.4857V8.5436H7.80001V8.4857H6.60001ZM6.60001 8.4281V8.4857H7.80001V8.4281H6.60001ZM6.60001 8.3705V8.4281H7.80001V8.3705H6.60001ZM6.60001 8.0243V8.3705H7.80001V8.0243H6.60001ZM6.60001 6.8243V8.0243H7.80001V6.8243H6.60001ZM9.60001 6.2243H7.20001V7.4243H9.60001V6.2243ZM10.2 8.0243V6.8243H9.00001V8.0243H10.2ZM10.2 8.3705V8.0243H9.00001V8.3705H10.2ZM10.2 8.4281V8.3705H9.00001V8.4281H10.2ZM10.2 8.4857V8.4281H9.00001V8.4857H10.2ZM10.2 8.5436V8.4857H9.00001V8.5436H10.2ZM10.2 8.6012V8.5436H9.00001V8.6012H10.2ZM10.2 8.6588V8.6012H9.00001V8.6588H10.2ZM10.2 8.7164V8.6588H9.00001V8.7164H10.2ZM10.2 8.7743V8.7164H9.00001V8.7743H10.2ZM10.2 8.8319V8.7743H9.00001V8.8319H10.2ZM10.2 8.8607V8.8319H9.00001V8.8607H10.2ZM10.2 8.8895V8.8607H9.00001V8.8895H10.2ZM10.2 8.9012V8.8895H9.00001V8.9012H10.2ZM9.61141 8.3012H9.60001V9.5012H9.61141V8.3012ZM9.66931 8.3012H9.61141V9.5012H9.66931V8.3012ZM10.4769 8.3012H9.66931V9.5012H10.4769V8.3012ZM11.6769 8.3012H10.4769V9.5012H11.6769V8.3012ZM12.2769 11.3015V8.9012H11.0769V11.3012L12.2769 11.3015ZM10.4769 11.9012L11.6769 11.9015V10.7012H10.4769V11.9012ZM9.66931 11.9012H10.4769V10.7012H9.66931V11.9012ZM9.61141 11.9012H9.66931V10.7012H9.61141V11.9012ZM9.60001 11.9012H9.61141V10.7012L9.60001 10.7015V11.9012ZM10.2 11.3126V11.3012L9.00001 11.3015V11.3126H10.2ZM10.2 11.3705V11.3126H9.00001V11.3705H10.2ZM10.2 11.4281V11.3705H9.00001V11.4281H10.2ZM10.2 11.4857V11.4281H9.00001V11.4857H10.2ZM10.2 11.5436V11.4857H9.00001V11.5436H10.2ZM10.2 11.6012V11.5436H9.00001V11.6012H10.2ZM10.2 12.1781V11.6012H9.00001V12.1781H10.2ZM10.2 13.3784V12.1781H9.00001V13.3781L10.2 13.3784ZM7.20001 13.9784H9.60001V12.7781H7.20001V13.9784Z" fill="#232323"/>
<path d="M15 16.4999V17.0999C15.1591 17.0999 15.3118 17.0367 15.4243 16.9242C15.5368 16.8116 15.6 16.659 15.6 16.4999H15ZM9.06421 16.4999L8.47351 16.6052C8.49824 16.7439 8.57102 16.8695 8.67908 16.96C8.78714 17.0504 8.92359 17.1 9.06451 17.0999L9.06421 16.4999ZM2.33581 16.4999V17.0999C2.47668 17.0999 2.61306 17.0503 2.72106 16.9599C2.82906 16.8694 2.90179 16.7439 2.92651 16.6052L2.33581 16.4999ZM1.80001 16.4999H1.20001C1.20001 16.659 1.26323 16.8116 1.37575 16.9242C1.48827 17.0367 1.64088 17.0999 1.80001 17.0999V16.4999ZM6.52141 16.4999V17.0999C6.63224 17.1 6.74091 17.0693 6.83539 17.0114C6.92987 16.9535 7.00646 16.8705 7.05667 16.7717C7.10687 16.6729 7.12874 16.5622 7.11983 16.4517C7.11092 16.3412 7.0716 16.2354 7.00621 16.1459L6.52141 16.4999ZM4.87861 16.4999L4.39381 16.1459C4.32843 16.2354 4.2891 16.3412 4.28019 16.4517C4.27129 16.5622 4.29315 16.6729 4.34336 16.7717C4.39357 16.8705 4.47015 16.9535 4.56463 17.0114C4.65911 17.0693 4.76779 17.1 4.87861 17.0999V16.4999ZM7.20001 13.3784H6.60001C6.60001 13.5375 6.66323 13.6901 6.77575 13.8027C6.88827 13.9152 7.04088 13.9784 7.20001 13.9784V13.3784ZM7.20001 11.3015H7.80001C7.80001 11.1424 7.7368 10.9898 7.62428 10.8772C7.51175 10.7647 7.35914 10.7015 7.20001 10.7015V11.3015ZM5.12311 11.3015H4.52311C4.52311 11.4606 4.58633 11.6132 4.69885 11.7258C4.81137 11.8383 4.96398 11.9015 5.12311 11.9015V11.3015ZM5.12311 8.9015V8.3015C4.96398 8.3015 4.81137 8.36472 4.69885 8.47724C4.58633 8.58976 4.52311 8.74237 4.52311 8.9015H5.12311ZM7.20001 8.9015V9.5015C7.35914 9.5015 7.51175 9.43829 7.62428 9.32577C7.7368 9.21324 7.80001 9.06063 7.80001 8.9015H7.20001ZM7.20001 6.8246V6.2246C7.04088 6.2246 6.88827 6.28782 6.77575 6.40034C6.66323 6.51286 6.60001 6.66547 6.60001 6.8246H7.20001ZM9.60001 6.8246H10.2C10.2 6.66547 10.1368 6.51286 10.0243 6.40034C9.91175 6.28782 9.75914 6.2246 9.60001 6.2246V6.8246ZM9.60001 8.9015H9.00001C9.00001 9.06063 9.06323 9.21324 9.17575 9.32577C9.28827 9.43829 9.44088 9.5015 9.60001 9.5015V8.9015ZM11.6769 8.9015H12.2769C12.2769 8.74237 12.2137 8.58976 12.1012 8.47724C11.9887 8.36472 11.836 8.3015 11.6769 8.3015V8.9015ZM11.6769 11.3015V11.9015C11.836 11.9015 11.9887 11.8383 12.1012 11.7258C12.2137 11.6132 12.2769 11.4606 12.2769 11.3015H11.6769ZM9.60001 11.3015V10.7015C9.44088 10.7015 9.28827 10.7647 9.17575 10.8772C9.06323 10.9898 9.00001 11.1424 9.00001 11.3015H9.60001ZM9.60001 13.3784V13.9784C9.75914 13.9784 9.91175 13.9152 10.0243 13.8027C10.1368 13.6901 10.2 13.5375 10.2 13.3784H9.60001ZM3.00001 3.8999C2.52262 3.8999 2.06479 4.08954 1.72722 4.42711C1.38965 4.76468 1.20001 5.22251 1.20001 5.6999H2.40001C2.40001 5.54077 2.46323 5.38816 2.57575 5.27564C2.68827 5.16312 2.84088 5.0999 3.00001 5.0999V3.8999ZM13.8 3.8999H3.00001V5.0999H13.8V3.8999ZM15.6 5.6999C15.6 5.22251 15.4104 4.76468 15.0728 4.42711C14.7352 4.08954 14.2774 3.8999 13.8 3.8999V5.0999C13.9591 5.0999 14.1118 5.16312 14.2243 5.27564C14.3368 5.38816 14.4 5.54077 14.4 5.6999H15.6ZM15.6 16.4999V5.6999H14.4V16.4999H15.6ZM9.06451 17.0999H15V15.8999H9.06421L9.06451 17.0999ZM8.30281 16.0217C8.38068 16.2095 8.43771 16.4051 8.47351 16.6052L9.65491 16.3946C9.60403 16.1093 9.52246 15.8304 9.41161 15.5627L8.30281 16.0217ZM6.77821 14.4971C7.4683 14.7833 8.01662 15.3316 8.30281 16.0217L9.41161 15.5627C9.0037 14.5784 8.22173 13.7964 7.23751 13.3883L6.77821 14.4971ZM4.62181 14.4971C5.31223 14.2114 6.0878 14.2114 6.77821 14.4971L7.23751 13.3883C6.25319 12.981 5.14713 12.981 4.16281 13.3883L4.62181 14.4971ZM3.09721 16.0217C3.3834 15.3316 3.93173 14.7833 4.62181 14.4971L4.16281 13.3883C3.17849 13.7963 2.3964 14.5784 1.98841 15.5627L3.09721 16.0217ZM2.92621 16.6052C2.96202 16.4051 3.01935 16.2095 3.09721 16.0217L1.98841 15.5627C1.87757 15.8304 1.79599 16.1093 1.74511 16.3946L2.92621 16.6052ZM1.80001 17.0999H2.33581V15.8999H1.80001V17.0999ZM1.20001 5.6999V16.4999H2.40001V5.6999H1.20001ZM7.00621 16.1459C6.831 15.9064 6.59335 15.7196 6.31921 15.6059L5.85961 16.7144C5.93101 16.7438 5.99221 16.7924 6.03691 16.8539L7.00621 16.1459ZM4.87861 17.0999H6.52141V15.8999H4.87861V17.0999ZM5.08111 15.6059C4.80697 15.7196 4.56933 15.9064 4.39411 16.1459L5.36311 16.8539C5.4083 16.7921 5.4695 16.7439 5.54011 16.7144L5.08111 15.6059ZM6.31921 15.6059C5.92288 15.4421 5.47745 15.4421 5.08111 15.6059L5.54011 16.7144C5.64245 16.6723 5.75727 16.6723 5.85961 16.7144L6.31921 15.6059ZM6.60001 12.1781V13.3784L7.80001 13.3781V12.1781H6.60001ZM6.60001 11.6012V12.1781H7.80001V11.6012H6.60001ZM6.60001 11.5436V11.6012H7.80001V11.5436H6.60001ZM6.60001 11.4857V11.5436H7.80001V11.4857H6.60001ZM6.60001 11.4281V11.4857H7.80001V11.4281H6.60001ZM6.60001 11.3705V11.4281H7.80001V11.3705H6.60001ZM6.60001 11.3126V11.3705H7.80001V11.3126H6.60001ZM6.60001 11.3012V11.3126H7.80001V11.3015L6.60001 11.3012ZM6.32311 11.9012H7.20001V10.7015L6.32311 10.7012V11.9012ZM5.12311 11.9015L6.32311 11.9012V10.7012H5.12311V11.9015ZM4.52311 8.9012V11.3015L5.72311 11.3012V8.9012H4.52311ZM6.32311 8.3012H5.12311V9.5012H6.32311V8.3012ZM7.20001 8.3012H6.32311V9.5012H7.20001V8.3012ZM6.60001 8.8895V8.9012H7.80001V8.8895H6.60001ZM6.60001 8.8607V8.8895H7.80001V8.8607H6.60001ZM6.60001 8.8319V8.8607H7.80001V8.8319H6.60001ZM6.60001 8.7743V8.8319H7.80001V8.7743H6.60001ZM6.60001 8.7167V8.7743H7.80001V8.7167H6.60001ZM6.60001 8.6588V8.7167H7.80001V8.6588H6.60001ZM6.60001 8.6012V8.6588H7.80001V8.6012H6.60001ZM6.60001 8.5436V8.6012H7.80001V8.5436H6.60001ZM6.60001 8.4857V8.5436H7.80001V8.4857H6.60001ZM6.60001 8.4281V8.4857H7.80001V8.4281H6.60001ZM6.60001 8.3705V8.4281H7.80001V8.3705H6.60001ZM6.60001 8.0243V8.3705H7.80001V8.0243H6.60001ZM6.60001 6.8243V8.0243H7.80001V6.8243H6.60001ZM9.60001 6.2243H7.20001V7.4243H9.60001V6.2243ZM10.2 8.0243V6.8243H9.00001V8.0243H10.2ZM10.2 8.3705V8.0243H9.00001V8.3705H10.2ZM10.2 8.4281V8.3705H9.00001V8.4281H10.2ZM10.2 8.4857V8.4281H9.00001V8.4857H10.2ZM10.2 8.5436V8.4857H9.00001V8.5436H10.2ZM10.2 8.6012V8.5436H9.00001V8.6012H10.2ZM10.2 8.6588V8.6012H9.00001V8.6588H10.2ZM10.2 8.7164V8.6588H9.00001V8.7164H10.2ZM10.2 8.7743V8.7164H9.00001V8.7743H10.2ZM10.2 8.8319V8.7743H9.00001V8.8319H10.2ZM10.2 8.8607V8.8319H9.00001V8.8607H10.2ZM10.2 8.8895V8.8607H9.00001V8.8895H10.2ZM10.2 8.9012V8.8895H9.00001V8.9012H10.2ZM9.61141 8.3012H9.60001V9.5012H9.61141V8.3012ZM9.66931 8.3012H9.61141V9.5012H9.66931V8.3012ZM10.4769 8.3012H9.66931V9.5012H10.4769V8.3012ZM11.6769 8.3012H10.4769V9.5012H11.6769V8.3012ZM12.2769 11.3015V8.9012H11.0769V11.3012L12.2769 11.3015ZM10.4769 11.9012L11.6769 11.9015V10.7012H10.4769V11.9012ZM9.66931 11.9012H10.4769V10.7012H9.66931V11.9012ZM9.61141 11.9012H9.66931V10.7012H9.61141V11.9012ZM9.60001 11.9012H9.61141V10.7012L9.60001 10.7015V11.9012ZM10.2 11.3126V11.3012L9.00001 11.3015V11.3126H10.2ZM10.2 11.3705V11.3126H9.00001V11.3705H10.2ZM10.2 11.4281V11.3705H9.00001V11.4281H10.2ZM10.2 11.4857V11.4281H9.00001V11.4857H10.2ZM10.2 11.5436V11.4857H9.00001V11.5436H10.2ZM10.2 11.6012V11.5436H9.00001V11.6012H10.2ZM10.2 12.1781V11.6012H9.00001V12.1781H10.2ZM10.2 13.3784V12.1781H9.00001V13.3781L10.2 13.3784ZM7.20001 13.9784H9.60001V12.7781H7.20001V13.9784Z" fill="black" fill-opacity="0.2"/>
<path d="M15 16.4999V17.0999C15.1591 17.0999 15.3118 17.0367 15.4243 16.9242C15.5368 16.8116 15.6 16.659 15.6 16.4999H15ZM9.06421 16.4999L8.47351 16.6052C8.49824 16.7439 8.57102 16.8695 8.67908 16.96C8.78714 17.0504 8.92359 17.1 9.06451 17.0999L9.06421 16.4999ZM2.33581 16.4999V17.0999C2.47668 17.0999 2.61306 17.0503 2.72106 16.9599C2.82906 16.8694 2.90179 16.7439 2.92651 16.6052L2.33581 16.4999ZM1.80001 16.4999H1.20001C1.20001 16.659 1.26323 16.8116 1.37575 16.9242C1.48827 17.0367 1.64088 17.0999 1.80001 17.0999V16.4999ZM6.52141 16.4999V17.0999C6.63224 17.1 6.74091 17.0693 6.83539 17.0114C6.92987 16.9535 7.00646 16.8705 7.05667 16.7717C7.10687 16.6729 7.12874 16.5622 7.11983 16.4517C7.11092 16.3412 7.0716 16.2354 7.00621 16.1459L6.52141 16.4999ZM4.87861 16.4999L4.39381 16.1459C4.32843 16.2354 4.2891 16.3412 4.28019 16.4517C4.27129 16.5622 4.29315 16.6729 4.34336 16.7717C4.39357 16.8705 4.47015 16.9535 4.56463 17.0114C4.65911 17.0693 4.76779 17.1 4.87861 17.0999V16.4999ZM7.20001 13.3784H6.60001C6.60001 13.5375 6.66323 13.6901 6.77575 13.8027C6.88827 13.9152 7.04088 13.9784 7.20001 13.9784V13.3784ZM7.20001 11.3015H7.80001C7.80001 11.1424 7.7368 10.9898 7.62428 10.8772C7.51175 10.7647 7.35914 10.7015 7.20001 10.7015V11.3015ZM5.12311 11.3015H4.52311C4.52311 11.4606 4.58633 11.6132 4.69885 11.7258C4.81137 11.8383 4.96398 11.9015 5.12311 11.9015V11.3015ZM5.12311 8.9015V8.3015C4.96398 8.3015 4.81137 8.36472 4.69885 8.47724C4.58633 8.58976 4.52311 8.74237 4.52311 8.9015H5.12311ZM7.20001 8.9015V9.5015C7.35914 9.5015 7.51175 9.43829 7.62428 9.32577C7.7368 9.21324 7.80001 9.06063 7.80001 8.9015H7.20001ZM7.20001 6.8246V6.2246C7.04088 6.2246 6.88827 6.28782 6.77575 6.40034C6.66323 6.51286 6.60001 6.66547 6.60001 6.8246H7.20001ZM9.60001 6.8246H10.2C10.2 6.66547 10.1368 6.51286 10.0243 6.40034C9.91175 6.28782 9.75914 6.2246 9.60001 6.2246V6.8246ZM9.60001 8.9015H9.00001C9.00001 9.06063 9.06323 9.21324 9.17575 9.32577C9.28827 9.43829 9.44088 9.5015 9.60001 9.5015V8.9015ZM11.6769 8.9015H12.2769C12.2769 8.74237 12.2137 8.58976 12.1012 8.47724C11.9887 8.36472 11.836 8.3015 11.6769 8.3015V8.9015ZM11.6769 11.3015V11.9015C11.836 11.9015 11.9887 11.8383 12.1012 11.7258C12.2137 11.6132 12.2769 11.4606 12.2769 11.3015H11.6769ZM9.60001 11.3015V10.7015C9.44088 10.7015 9.28827 10.7647 9.17575 10.8772C9.06323 10.9898 9.00001 11.1424 9.00001 11.3015H9.60001ZM9.60001 13.3784V13.9784C9.75914 13.9784 9.91175 13.9152 10.0243 13.8027C10.1368 13.6901 10.2 13.5375 10.2 13.3784H9.60001ZM3.00001 3.8999C2.52262 3.8999 2.06479 4.08954 1.72722 4.42711C1.38965 4.76468 1.20001 5.22251 1.20001 5.6999H2.40001C2.40001 5.54077 2.46323 5.38816 2.57575 5.27564C2.68827 5.16312 2.84088 5.0999 3.00001 5.0999V3.8999ZM13.8 3.8999H3.00001V5.0999H13.8V3.8999ZM15.6 5.6999C15.6 5.22251 15.4104 4.76468 15.0728 4.42711C14.7352 4.08954 14.2774 3.8999 13.8 3.8999V5.0999C13.9591 5.0999 14.1118 5.16312 14.2243 5.27564C14.3368 5.38816 14.4 5.54077 14.4 5.6999H15.6ZM15.6 16.4999V5.6999H14.4V16.4999H15.6ZM9.06451 17.0999H15V15.8999H9.06421L9.06451 17.0999ZM8.30281 16.0217C8.38068 16.2095 8.43771 16.4051 8.47351 16.6052L9.65491 16.3946C9.60403 16.1093 9.52246 15.8304 9.41161 15.5627L8.30281 16.0217ZM6.77821 14.4971C7.4683 14.7833 8.01662 15.3316 8.30281 16.0217L9.41161 15.5627C9.0037 14.5784 8.22173 13.7964 7.23751 13.3883L6.77821 14.4971ZM4.62181 14.4971C5.31223 14.2114 6.0878 14.2114 6.77821 14.4971L7.23751 13.3883C6.25319 12.981 5.14713 12.981 4.16281 13.3883L4.62181 14.4971ZM3.09721 16.0217C3.3834 15.3316 3.93173 14.7833 4.62181 14.4971L4.16281 13.3883C3.17849 13.7963 2.3964 14.5784 1.98841 15.5627L3.09721 16.0217ZM2.92621 16.6052C2.96202 16.4051 3.01935 16.2095 3.09721 16.0217L1.98841 15.5627C1.87757 15.8304 1.79599 16.1093 1.74511 16.3946L2.92621 16.6052ZM1.80001 17.0999H2.33581V15.8999H1.80001V17.0999ZM1.20001 5.6999V16.4999H2.40001V5.6999H1.20001ZM7.00621 16.1459C6.831 15.9064 6.59335 15.7196 6.31921 15.6059L5.85961 16.7144C5.93101 16.7438 5.99221 16.7924 6.03691 16.8539L7.00621 16.1459ZM4.87861 17.0999H6.52141V15.8999H4.87861V17.0999ZM5.08111 15.6059C4.80697 15.7196 4.56933 15.9064 4.39411 16.1459L5.36311 16.8539C5.4083 16.7921 5.4695 16.7439 5.54011 16.7144L5.08111 15.6059ZM6.31921 15.6059C5.92288 15.4421 5.47745 15.4421 5.08111 15.6059L5.54011 16.7144C5.64245 16.6723 5.75727 16.6723 5.85961 16.7144L6.31921 15.6059ZM6.60001 12.1781V13.3784L7.80001 13.3781V12.1781H6.60001ZM6.60001 11.6012V12.1781H7.80001V11.6012H6.60001ZM6.60001 11.5436V11.6012H7.80001V11.5436H6.60001ZM6.60001 11.4857V11.5436H7.80001V11.4857H6.60001ZM6.60001 11.4281V11.4857H7.80001V11.4281H6.60001ZM6.60001 11.3705V11.4281H7.80001V11.3705H6.60001ZM6.60001 11.3126V11.3705H7.80001V11.3126H6.60001ZM6.60001 11.3012V11.3126H7.80001V11.3015L6.60001 11.3012ZM6.32311 11.9012H7.20001V10.7015L6.32311 10.7012V11.9012ZM5.12311 11.9015L6.32311 11.9012V10.7012H5.12311V11.9015ZM4.52311 8.9012V11.3015L5.72311 11.3012V8.9012H4.52311ZM6.32311 8.3012H5.12311V9.5012H6.32311V8.3012ZM7.20001 8.3012H6.32311V9.5012H7.20001V8.3012ZM6.60001 8.8895V8.9012H7.80001V8.8895H6.60001ZM6.60001 8.8607V8.8895H7.80001V8.8607H6.60001ZM6.60001 8.8319V8.8607H7.80001V8.8319H6.60001ZM6.60001 8.7743V8.8319H7.80001V8.7743H6.60001ZM6.60001 8.7167V8.7743H7.80001V8.7167H6.60001ZM6.60001 8.6588V8.7167H7.80001V8.6588H6.60001ZM6.60001 8.6012V8.6588H7.80001V8.6012H6.60001ZM6.60001 8.5436V8.6012H7.80001V8.5436H6.60001ZM6.60001 8.4857V8.5436H7.80001V8.4857H6.60001ZM6.60001 8.4281V8.4857H7.80001V8.4281H6.60001ZM6.60001 8.3705V8.4281H7.80001V8.3705H6.60001ZM6.60001 8.0243V8.3705H7.80001V8.0243H6.60001ZM6.60001 6.8243V8.0243H7.80001V6.8243H6.60001ZM9.60001 6.2243H7.20001V7.4243H9.60001V6.2243ZM10.2 8.0243V6.8243H9.00001V8.0243H10.2ZM10.2 8.3705V8.0243H9.00001V8.3705H10.2ZM10.2 8.4281V8.3705H9.00001V8.4281H10.2ZM10.2 8.4857V8.4281H9.00001V8.4857H10.2ZM10.2 8.5436V8.4857H9.00001V8.5436H10.2ZM10.2 8.6012V8.5436H9.00001V8.6012H10.2ZM10.2 8.6588V8.6012H9.00001V8.6588H10.2ZM10.2 8.7164V8.6588H9.00001V8.7164H10.2ZM10.2 8.7743V8.7164H9.00001V8.7743H10.2ZM10.2 8.8319V8.7743H9.00001V8.8319H10.2ZM10.2 8.8607V8.8319H9.00001V8.8607H10.2ZM10.2 8.8895V8.8607H9.00001V8.8895H10.2ZM10.2 8.9012V8.8895H9.00001V8.9012H10.2ZM9.61141 8.3012H9.60001V9.5012H9.61141V8.3012ZM9.66931 8.3012H9.61141V9.5012H9.66931V8.3012ZM10.4769 8.3012H9.66931V9.5012H10.4769V8.3012ZM11.6769 8.3012H10.4769V9.5012H11.6769V8.3012ZM12.2769 11.3015V8.9012H11.0769V11.3012L12.2769 11.3015ZM10.4769 11.9012L11.6769 11.9015V10.7012H10.4769V11.9012ZM9.66931 11.9012H10.4769V10.7012H9.66931V11.9012ZM9.61141 11.9012H9.66931V10.7012H9.61141V11.9012ZM9.60001 11.9012H9.61141V10.7012L9.60001 10.7015V11.9012ZM10.2 11.3126V11.3012L9.00001 11.3015V11.3126H10.2ZM10.2 11.3705V11.3126H9.00001V11.3705H10.2ZM10.2 11.4281V11.3705H9.00001V11.4281H10.2ZM10.2 11.4857V11.4281H9.00001V11.4857H10.2ZM10.2 11.5436V11.4857H9.00001V11.5436H10.2ZM10.2 11.6012V11.5436H9.00001V11.6012H10.2ZM10.2 12.1781V11.6012H9.00001V12.1781H10.2ZM10.2 13.3784V12.1781H9.00001V13.3781L10.2 13.3784ZM7.20001 13.9784H9.60001V12.7781H7.20001V13.9784Z" fill="black" fill-opacity="0.2"/>
<path d="M4.85161 15.0515C5.39484 14.8265 6.0052 14.8265 6.54843 15.0515C7.09166 15.2765 7.52325 15.7081 7.74826 16.2514C7.97327 16.7946 7.97326 17.405 7.74825 17.9482C7.52323 18.4914 7.09164 18.923 6.54841 19.148C6.27943 19.2594 5.99114 19.3168 5.69999 19.3168C5.40885 19.3168 5.12056 19.2594 4.85158 19.148C4.30836 18.923 3.87677 18.4914 3.65176 17.9482C3.42675 17.4049 3.42675 16.7946 3.65177 16.2513C3.87678 15.7081 4.30838 15.2765 4.85161 15.0515ZM7.20001 13.3784H6.60001V13.9784H7.20001V13.3784ZM9.60001 13.3784V13.9784H10.2V13.3784H9.60001ZM9.60001 11.3015V10.7015H9.00001V11.3015H9.60001ZM11.6769 11.3015V11.9015H12.2769V11.3015H11.6769ZM11.6769 8.90151H12.2769V8.30151H11.6769V8.90151ZM9.60001 8.90151H9.00001V9.50151H9.60001V8.90151ZM9.60001 6.82461H10.2V6.22461H9.60001V6.82461ZM7.20001 6.82461V6.22461H6.60001V6.82461H7.20001ZM7.20001 8.90151V9.50151H7.80001V8.90151H7.20001ZM5.12311 8.90151V8.30151H4.52311V8.90151H5.12311ZM5.12311 11.3015H4.52311V11.9015H5.12311V11.3015ZM7.20001 11.3015H7.80001V10.7015H7.20001V11.3015ZM7.80001 13.3784V12.1784H6.60001V13.3784H7.80001ZM9.60001 12.7784H7.20001V13.9784H9.60001V12.7784ZM9.00001 12.1784V13.3784H10.2V12.1784H9.00001ZM9.00001 11.6015V12.1784H10.2V11.6015H9.00001ZM9.00001 11.5439V11.6015H10.2V11.5439H9.00001ZM9.00001 11.4863V11.5439H10.2V11.4863H9.00001ZM9.00001 11.4284V11.4863H10.2V11.4284H9.00001ZM9.00001 11.3708V11.4284H10.2V11.3708H9.00001ZM9.00001 11.3132V11.3708H10.2V11.3132H9.00001ZM9.00001 11.3015V11.3132H10.2V11.3015H9.00001ZM9.61141 10.7015H9.60001V11.9015H9.61141V10.7015ZM9.66931 10.7015H9.61141V11.9015H9.66931V10.7015ZM10.4769 10.7015H9.66931V11.9015H10.4766L10.4769 10.7015ZM11.6769 10.7015H10.4769L10.4766 11.9015H11.6769V10.7015ZM11.0769 8.90151V11.3015H12.2769V8.90151H11.0769ZM10.4769 9.50151H11.6769V8.30151H10.4769V9.50151ZM9.66931 9.50151H10.4769V8.30151H9.66901L9.66931 9.50151ZM9.61141 9.50151H9.66931L9.66901 8.30151H9.61141V9.50151ZM9.60001 9.50151H9.61141V8.30151H9.60001V9.50151ZM9.00001 8.89011V8.90151H10.2V8.89011H9.00001ZM9.00001 8.86131V8.89011H10.2V8.86131H9.00001ZM9.00001 8.83221V8.86131H10.2V8.83221H9.00001ZM9.00001 8.77461V8.83221H10.2V8.77461H9.00001ZM9.00001 8.71701V8.77461H10.2V8.71701H9.00001ZM9.00001 8.65911V8.71701H10.2V8.65911H9.00001ZM9.00001 8.60151V8.65911H10.2V8.60151H9.00001ZM9.00001 8.54391V8.60151H10.2V8.54391H9.00001ZM9.00001 8.48631V8.54391H10.2V8.48631H9.00001ZM9.00001 8.42841V8.48631H10.2V8.42841H9.00001ZM9.00001 8.37081V8.42841H10.2V8.37081H9.00001ZM9.00001 8.02461V8.37081H10.2V8.02461H9.00001ZM9.00001 6.82461V8.02461H10.2V6.82461H9.00001ZM7.20001 7.42461H9.60001V6.22461H7.20001V7.42461ZM7.80001 8.02461V6.82461H6.60001V8.02461H7.80001ZM7.80001 8.37081V8.02461H6.60001V8.37081H7.80001ZM7.80001 8.42841V8.37081H6.60001V8.42841H7.80001ZM7.80001 8.48631V8.42841H6.60001V8.48631H7.80001ZM7.80001 8.54391V8.48631H6.60001V8.54391H7.80001ZM7.80001 8.60151V8.54391H6.60001V8.60151H7.80001ZM7.80001 8.65911V8.60151H6.60001V8.65911H7.80001ZM7.80001 8.71701V8.65911H6.60001V8.71701H7.80001ZM7.80001 8.77461V8.71701H6.60001V8.77461H7.80001ZM7.80001 8.83221V8.77461H6.60001V8.83221H7.80001ZM7.80001 8.86131V8.83221H6.60001V8.86131H7.80001ZM7.80001 8.89011V8.86131H6.60001V8.89011H7.80001ZM7.80001 8.90151V8.89011H6.60001V8.90151H7.80001ZM6.32311 9.50151H7.20001V8.30151H6.32311V9.50151ZM5.12311 9.50151H6.32311V8.30151H5.12311V9.50151ZM5.72311 11.3015V8.90151H4.52311V11.3015H5.72311ZM6.32311 10.7015H5.12311V11.9015H6.32311V10.7015ZM7.20001 10.7015H6.32311V11.9015H7.20001V10.7015ZM7.80001 11.3132V11.3015H6.60001V11.3132H7.80001ZM7.80001 11.3708V11.3132H6.60001V11.3708H7.80001ZM7.80001 11.4284V11.3708H6.60001V11.4284H7.80001ZM7.80001 11.4863V11.4284H6.60001V11.4863H7.80001ZM7.80001 11.5439V11.4863H6.60001V11.5439H7.80001ZM7.80001 11.6015V11.5439H6.60001V11.6015H7.80001ZM7.80001 12.1784V11.6015H6.60001V12.1784H7.80001Z" fill="#232323"/>
<path d="M4.85161 15.0515C5.39484 14.8265 6.0052 14.8265 6.54843 15.0515C7.09166 15.2765 7.52325 15.7081 7.74826 16.2514C7.97327 16.7946 7.97326 17.405 7.74825 17.9482C7.52323 18.4914 7.09164 18.923 6.54841 19.148C6.27943 19.2594 5.99114 19.3168 5.69999 19.3168C5.40885 19.3168 5.12056 19.2594 4.85158 19.148C4.30836 18.923 3.87677 18.4914 3.65176 17.9482C3.42675 17.4049 3.42675 16.7946 3.65177 16.2513C3.87678 15.7081 4.30838 15.2765 4.85161 15.0515ZM7.20001 13.3784H6.60001V13.9784H7.20001V13.3784ZM9.60001 13.3784V13.9784H10.2V13.3784H9.60001ZM9.60001 11.3015V10.7015H9.00001V11.3015H9.60001ZM11.6769 11.3015V11.9015H12.2769V11.3015H11.6769ZM11.6769 8.90151H12.2769V8.30151H11.6769V8.90151ZM9.60001 8.90151H9.00001V9.50151H9.60001V8.90151ZM9.60001 6.82461H10.2V6.22461H9.60001V6.82461ZM7.20001 6.82461V6.22461H6.60001V6.82461H7.20001ZM7.20001 8.90151V9.50151H7.80001V8.90151H7.20001ZM5.12311 8.90151V8.30151H4.52311V8.90151H5.12311ZM5.12311 11.3015H4.52311V11.9015H5.12311V11.3015ZM7.20001 11.3015H7.80001V10.7015H7.20001V11.3015ZM7.80001 13.3784V12.1784H6.60001V13.3784H7.80001ZM9.60001 12.7784H7.20001V13.9784H9.60001V12.7784ZM9.00001 12.1784V13.3784H10.2V12.1784H9.00001ZM9.00001 11.6015V12.1784H10.2V11.6015H9.00001ZM9.00001 11.5439V11.6015H10.2V11.5439H9.00001ZM9.00001 11.4863V11.5439H10.2V11.4863H9.00001ZM9.00001 11.4284V11.4863H10.2V11.4284H9.00001ZM9.00001 11.3708V11.4284H10.2V11.3708H9.00001ZM9.00001 11.3132V11.3708H10.2V11.3132H9.00001ZM9.00001 11.3015V11.3132H10.2V11.3015H9.00001ZM9.61141 10.7015H9.60001V11.9015H9.61141V10.7015ZM9.66931 10.7015H9.61141V11.9015H9.66931V10.7015ZM10.4769 10.7015H9.66931V11.9015H10.4766L10.4769 10.7015ZM11.6769 10.7015H10.4769L10.4766 11.9015H11.6769V10.7015ZM11.0769 8.90151V11.3015H12.2769V8.90151H11.0769ZM10.4769 9.50151H11.6769V8.30151H10.4769V9.50151ZM9.66931 9.50151H10.4769V8.30151H9.66901L9.66931 9.50151ZM9.61141 9.50151H9.66931L9.66901 8.30151H9.61141V9.50151ZM9.60001 9.50151H9.61141V8.30151H9.60001V9.50151ZM9.00001 8.89011V8.90151H10.2V8.89011H9.00001ZM9.00001 8.86131V8.89011H10.2V8.86131H9.00001ZM9.00001 8.83221V8.86131H10.2V8.83221H9.00001ZM9.00001 8.77461V8.83221H10.2V8.77461H9.00001ZM9.00001 8.71701V8.77461H10.2V8.71701H9.00001ZM9.00001 8.65911V8.71701H10.2V8.65911H9.00001ZM9.00001 8.60151V8.65911H10.2V8.60151H9.00001ZM9.00001 8.54391V8.60151H10.2V8.54391H9.00001ZM9.00001 8.48631V8.54391H10.2V8.48631H9.00001ZM9.00001 8.42841V8.48631H10.2V8.42841H9.00001ZM9.00001 8.37081V8.42841H10.2V8.37081H9.00001ZM9.00001 8.02461V8.37081H10.2V8.02461H9.00001ZM9.00001 6.82461V8.02461H10.2V6.82461H9.00001ZM7.20001 7.42461H9.60001V6.22461H7.20001V7.42461ZM7.80001 8.02461V6.82461H6.60001V8.02461H7.80001ZM7.80001 8.37081V8.02461H6.60001V8.37081H7.80001ZM7.80001 8.42841V8.37081H6.60001V8.42841H7.80001ZM7.80001 8.48631V8.42841H6.60001V8.48631H7.80001ZM7.80001 8.54391V8.48631H6.60001V8.54391H7.80001ZM7.80001 8.60151V8.54391H6.60001V8.60151H7.80001ZM7.80001 8.65911V8.60151H6.60001V8.65911H7.80001ZM7.80001 8.71701V8.65911H6.60001V8.71701H7.80001ZM7.80001 8.77461V8.71701H6.60001V8.77461H7.80001ZM7.80001 8.83221V8.77461H6.60001V8.83221H7.80001ZM7.80001 8.86131V8.83221H6.60001V8.86131H7.80001ZM7.80001 8.89011V8.86131H6.60001V8.89011H7.80001ZM7.80001 8.90151V8.89011H6.60001V8.90151H7.80001ZM6.32311 9.50151H7.20001V8.30151H6.32311V9.50151ZM5.12311 9.50151H6.32311V8.30151H5.12311V9.50151ZM5.72311 11.3015V8.90151H4.52311V11.3015H5.72311ZM6.32311 10.7015H5.12311V11.9015H6.32311V10.7015ZM7.20001 10.7015H6.32311V11.9015H7.20001V10.7015ZM7.80001 11.3132V11.3015H6.60001V11.3132H7.80001ZM7.80001 11.3708V11.3132H6.60001V11.3708H7.80001ZM7.80001 11.4284V11.3708H6.60001V11.4284H7.80001ZM7.80001 11.4863V11.4284H6.60001V11.4863H7.80001ZM7.80001 11.5439V11.4863H6.60001V11.5439H7.80001ZM7.80001 11.6015V11.5439H6.60001V11.6015H7.80001ZM7.80001 12.1784V11.6015H6.60001V12.1784H7.80001Z" fill="black" fill-opacity="0.2"/>
<path d="M4.85161 15.0515C5.39484 14.8265 6.0052 14.8265 6.54843 15.0515C7.09166 15.2765 7.52325 15.7081 7.74826 16.2514C7.97327 16.7946 7.97326 17.405 7.74825 17.9482C7.52323 18.4914 7.09164 18.923 6.54841 19.148C6.27943 19.2594 5.99114 19.3168 5.69999 19.3168C5.40885 19.3168 5.12056 19.2594 4.85158 19.148C4.30836 18.923 3.87677 18.4914 3.65176 17.9482C3.42675 17.4049 3.42675 16.7946 3.65177 16.2513C3.87678 15.7081 4.30838 15.2765 4.85161 15.0515ZM7.20001 13.3784H6.60001V13.9784H7.20001V13.3784ZM9.60001 13.3784V13.9784H10.2V13.3784H9.60001ZM9.60001 11.3015V10.7015H9.00001V11.3015H9.60001ZM11.6769 11.3015V11.9015H12.2769V11.3015H11.6769ZM11.6769 8.90151H12.2769V8.30151H11.6769V8.90151ZM9.60001 8.90151H9.00001V9.50151H9.60001V8.90151ZM9.60001 6.82461H10.2V6.22461H9.60001V6.82461ZM7.20001 6.82461V6.22461H6.60001V6.82461H7.20001ZM7.20001 8.90151V9.50151H7.80001V8.90151H7.20001ZM5.12311 8.90151V8.30151H4.52311V8.90151H5.12311ZM5.12311 11.3015H4.52311V11.9015H5.12311V11.3015ZM7.20001 11.3015H7.80001V10.7015H7.20001V11.3015ZM7.80001 13.3784V12.1784H6.60001V13.3784H7.80001ZM9.60001 12.7784H7.20001V13.9784H9.60001V12.7784ZM9.00001 12.1784V13.3784H10.2V12.1784H9.00001ZM9.00001 11.6015V12.1784H10.2V11.6015H9.00001ZM9.00001 11.5439V11.6015H10.2V11.5439H9.00001ZM9.00001 11.4863V11.5439H10.2V11.4863H9.00001ZM9.00001 11.4284V11.4863H10.2V11.4284H9.00001ZM9.00001 11.3708V11.4284H10.2V11.3708H9.00001ZM9.00001 11.3132V11.3708H10.2V11.3132H9.00001ZM9.00001 11.3015V11.3132H10.2V11.3015H9.00001ZM9.61141 10.7015H9.60001V11.9015H9.61141V10.7015ZM9.66931 10.7015H9.61141V11.9015H9.66931V10.7015ZM10.4769 10.7015H9.66931V11.9015H10.4766L10.4769 10.7015ZM11.6769 10.7015H10.4769L10.4766 11.9015H11.6769V10.7015ZM11.0769 8.90151V11.3015H12.2769V8.90151H11.0769ZM10.4769 9.50151H11.6769V8.30151H10.4769V9.50151ZM9.66931 9.50151H10.4769V8.30151H9.66901L9.66931 9.50151ZM9.61141 9.50151H9.66931L9.66901 8.30151H9.61141V9.50151ZM9.60001 9.50151H9.61141V8.30151H9.60001V9.50151ZM9.00001 8.89011V8.90151H10.2V8.89011H9.00001ZM9.00001 8.86131V8.89011H10.2V8.86131H9.00001ZM9.00001 8.83221V8.86131H10.2V8.83221H9.00001ZM9.00001 8.77461V8.83221H10.2V8.77461H9.00001ZM9.00001 8.71701V8.77461H10.2V8.71701H9.00001ZM9.00001 8.65911V8.71701H10.2V8.65911H9.00001ZM9.00001 8.60151V8.65911H10.2V8.60151H9.00001ZM9.00001 8.54391V8.60151H10.2V8.54391H9.00001ZM9.00001 8.48631V8.54391H10.2V8.48631H9.00001ZM9.00001 8.42841V8.48631H10.2V8.42841H9.00001ZM9.00001 8.37081V8.42841H10.2V8.37081H9.00001ZM9.00001 8.02461V8.37081H10.2V8.02461H9.00001ZM9.00001 6.82461V8.02461H10.2V6.82461H9.00001ZM7.20001 7.42461H9.60001V6.22461H7.20001V7.42461ZM7.80001 8.02461V6.82461H6.60001V8.02461H7.80001ZM7.80001 8.37081V8.02461H6.60001V8.37081H7.80001ZM7.80001 8.42841V8.37081H6.60001V8.42841H7.80001ZM7.80001 8.48631V8.42841H6.60001V8.48631H7.80001ZM7.80001 8.54391V8.48631H6.60001V8.54391H7.80001ZM7.80001 8.60151V8.54391H6.60001V8.60151H7.80001ZM7.80001 8.65911V8.60151H6.60001V8.65911H7.80001ZM7.80001 8.71701V8.65911H6.60001V8.71701H7.80001ZM7.80001 8.77461V8.71701H6.60001V8.77461H7.80001ZM7.80001 8.83221V8.77461H6.60001V8.83221H7.80001ZM7.80001 8.86131V8.83221H6.60001V8.86131H7.80001ZM7.80001 8.89011V8.86131H6.60001V8.89011H7.80001ZM7.80001 8.90151V8.89011H6.60001V8.90151H7.80001ZM6.32311 9.50151H7.20001V8.30151H6.32311V9.50151ZM5.12311 9.50151H6.32311V8.30151H5.12311V9.50151ZM5.72311 11.3015V8.90151H4.52311V11.3015H5.72311ZM6.32311 10.7015H5.12311V11.9015H6.32311V10.7015ZM7.20001 10.7015H6.32311V11.9015H7.20001V10.7015ZM7.80001 11.3132V11.3015H6.60001V11.3132H7.80001ZM7.80001 11.3708V11.3132H6.60001V11.3708H7.80001ZM7.80001 11.4284V11.3708H6.60001V11.4284H7.80001ZM7.80001 11.4863V11.4284H6.60001V11.4863H7.80001ZM7.80001 11.5439V11.4863H6.60001V11.5439H7.80001ZM7.80001 11.6015V11.5439H6.60001V11.6015H7.80001ZM7.80001 12.1784V11.6015H6.60001V12.1784H7.80001Z" fill="black" fill-opacity="0.2"/>
</svg>
