<svg width="24" height="24" viewBox="0 0 24 24" fill="none" xmlns="http://www.w3.org/2000/svg">
<path d="M9.879 16.4848C9.75039 16.4526 9.6398 16.3708 9.57154 16.2571C9.50328 16.1435 9.48295 16.0074 9.515 15.8788L9.86 14.4998H8.5C8.36739 14.4998 8.24021 14.4471 8.14645 14.3533C8.05268 14.2595 8 14.1324 8 13.9998C8 13.8672 8.05268 13.74 8.14645 13.6462C8.24021 13.5524 8.36739 13.4998 8.5 13.4998H10.11L10.515 11.8788C10.53 11.8141 10.5577 11.7531 10.5965 11.6992C10.6354 11.6454 10.6845 11.5998 10.7412 11.5652C10.7978 11.5305 10.8608 11.5075 10.9264 11.4975C10.992 11.4874 11.0589 11.4905 11.1233 11.5066C11.1877 11.5227 11.2483 11.5515 11.3015 11.5912C11.3546 11.631 11.3993 11.6809 11.433 11.7381C11.4667 11.7953 11.4886 11.8587 11.4975 11.9245C11.5065 11.9902 11.5022 12.0571 11.485 12.1213L11.14 13.4998H12.5C12.6326 13.4998 12.7598 13.5524 12.8536 13.6462C12.9473 13.74 13 13.8672 13 13.9998C13 14.1324 12.9473 14.2595 12.8536 14.3533C12.7598 14.4471 12.6326 14.4998 12.5 14.4998H10.89L10.485 16.1213C10.4528 16.2498 10.3708 16.3603 10.2572 16.4284C10.1436 16.4966 10.0076 16.5168 9.879 16.4848Z" fill="#232323"/>
<path d="M9.879 16.4848C9.75039 16.4526 9.6398 16.3708 9.57154 16.2571C9.50328 16.1435 9.48295 16.0074 9.515 15.8788L9.86 14.4998H8.5C8.36739 14.4998 8.24021 14.4471 8.14645 14.3533C8.05268 14.2595 8 14.1324 8 13.9998C8 13.8672 8.05268 13.74 8.14645 13.6462C8.24021 13.5524 8.36739 13.4998 8.5 13.4998H10.11L10.515 11.8788C10.53 11.8141 10.5577 11.7531 10.5965 11.6992C10.6354 11.6454 10.6845 11.5998 10.7412 11.5652C10.7978 11.5305 10.8608 11.5075 10.9264 11.4975C10.992 11.4874 11.0589 11.4905 11.1233 11.5066C11.1877 11.5227 11.2483 11.5515 11.3015 11.5912C11.3546 11.631 11.3993 11.6809 11.433 11.7381C11.4667 11.7953 11.4886 11.8587 11.4975 11.9245C11.5065 11.9902 11.5022 12.0571 11.485 12.1213L11.14 13.4998H12.5C12.6326 13.4998 12.7598 13.5524 12.8536 13.6462C12.9473 13.74 13 13.8672 13 13.9998C13 14.1324 12.9473 14.2595 12.8536 14.3533C12.7598 14.4471 12.6326 14.4998 12.5 14.4998H10.89L10.485 16.1213C10.4528 16.2498 10.3708 16.3603 10.2572 16.4284C10.1436 16.4966 10.0076 16.5168 9.879 16.4848Z" fill="black" fill-opacity="0.2"/>
<path d="M9.879 16.4848C9.75039 16.4526 9.6398 16.3708 9.57154 16.2571C9.50328 16.1435 9.48295 16.0074 9.515 15.8788L9.86 14.4998H8.5C8.36739 14.4998 8.24021 14.4471 8.14645 14.3533C8.05268 14.2595 8 14.1324 8 13.9998C8 13.8672 8.05268 13.74 8.14645 13.6462C8.24021 13.5524 8.36739 13.4998 8.5 13.4998H10.11L10.515 11.8788C10.53 11.8141 10.5577 11.7531 10.5965 11.6992C10.6354 11.6454 10.6845 11.5998 10.7412 11.5652C10.7978 11.5305 10.8608 11.5075 10.9264 11.4975C10.992 11.4874 11.0589 11.4905 11.1233 11.5066C11.1877 11.5227 11.2483 11.5515 11.3015 11.5912C11.3546 11.631 11.3993 11.6809 11.433 11.7381C11.4667 11.7953 11.4886 11.8587 11.4975 11.9245C11.5065 11.9902 11.5022 12.0571 11.485 12.1213L11.14 13.4998H12.5C12.6326 13.4998 12.7598 13.5524 12.8536 13.6462C12.9473 13.74 13 13.8672 13 13.9998C13 14.1324 12.9473 14.2595 12.8536 14.3533C12.7598 14.4471 12.6326 14.4998 12.5 14.4998H10.89L10.485 16.1213C10.4528 16.2498 10.3708 16.3603 10.2572 16.4284C10.1436 16.4966 10.0076 16.5168 9.879 16.4848Z" fill="black" fill-opacity="0.2"/>
<path fill-rule="evenodd" clip-rule="evenodd" d="M4.50702 10.069C4.70102 9.4345 5.29502 9 5.96902 9H18V8H14.5V5H19V9.481L21.9675 16.3245C21.9915 16.3882 22.0022 16.4562 21.9989 16.5242C21.9956 16.5922 21.9784 16.6588 21.9483 16.7198C21.9182 16.7809 21.8759 16.8352 21.824 16.8792C21.7721 16.9233 21.7117 16.9562 21.6465 16.976L21.647 16.978L16.75 18.5L17.25 17.25L20.796 16.189L18.4925 11.064L16.091 17.931C15.8975 18.5655 15.3035 19 14.63 19H3.52702C2.50502 19 1.77202 18.0315 2.06552 17.069L4.50702 10.069ZM3.01802 17.3745L5.45802 10.3795L5.46352 10.361C5.49841 10.2549 5.56624 10.1626 5.65715 10.0977C5.74807 10.0328 5.85732 9.99856 5.96902 10H17.8055L15.1405 17.62L15.135 17.639C15.1001 17.7451 15.0323 17.8374 14.9414 17.9023C14.8505 17.9672 14.7412 18.0014 14.6295 18H3.52702C3.15852 18 2.93802 17.668 3.01802 17.3745ZM18 6H15.5V7H18V6Z" fill="#232323"/>
<path fill-rule="evenodd" clip-rule="evenodd" d="M4.50702 10.069C4.70102 9.4345 5.29502 9 5.96902 9H18V8H14.5V5H19V9.481L21.9675 16.3245C21.9915 16.3882 22.0022 16.4562 21.9989 16.5242C21.9956 16.5922 21.9784 16.6588 21.9483 16.7198C21.9182 16.7809 21.8759 16.8352 21.824 16.8792C21.7721 16.9233 21.7117 16.9562 21.6465 16.976L21.647 16.978L16.75 18.5L17.25 17.25L20.796 16.189L18.4925 11.064L16.091 17.931C15.8975 18.5655 15.3035 19 14.63 19H3.52702C2.50502 19 1.77202 18.0315 2.06552 17.069L4.50702 10.069ZM3.01802 17.3745L5.45802 10.3795L5.46352 10.361C5.49841 10.2549 5.56624 10.1626 5.65715 10.0977C5.74807 10.0328 5.85732 9.99856 5.96902 10H17.8055L15.1405 17.62L15.135 17.639C15.1001 17.7451 15.0323 17.8374 14.9414 17.9023C14.8505 17.9672 14.7412 18.0014 14.6295 18H3.52702C3.15852 18 2.93802 17.668 3.01802 17.3745ZM18 6H15.5V7H18V6Z" fill="black" fill-opacity="0.2"/>
<path fill-rule="evenodd" clip-rule="evenodd" d="M4.50702 10.069C4.70102 9.4345 5.29502 9 5.96902 9H18V8H14.5V5H19V9.481L21.9675 16.3245C21.9915 16.3882 22.0022 16.4562 21.9989 16.5242C21.9956 16.5922 21.9784 16.6588 21.9483 16.7198C21.9182 16.7809 21.8759 16.8352 21.824 16.8792C21.7721 16.9233 21.7117 16.9562 21.6465 16.976L21.647 16.978L16.75 18.5L17.25 17.25L20.796 16.189L18.4925 11.064L16.091 17.931C15.8975 18.5655 15.3035 19 14.63 19H3.52702C2.50502 19 1.77202 18.0315 2.06552 17.069L4.50702 10.069ZM3.01802 17.3745L5.45802 10.3795L5.46352 10.361C5.49841 10.2549 5.56624 10.1626 5.65715 10.0977C5.74807 10.0328 5.85732 9.99856 5.96902 10H17.8055L15.1405 17.62L15.135 17.639C15.1001 17.7451 15.0323 17.8374 14.9414 17.9023C14.8505 17.9672 14.7412 18.0014 14.6295 18H3.52702C3.15852 18 2.93802 17.668 3.01802 17.3745ZM18 6H15.5V7H18V6Z" fill="black" fill-opacity="0.2"/>
</svg>
