<svg width="24" height="24" viewBox="0 0 24 24" fill="none" xmlns="http://www.w3.org/2000/svg">
<path fill-rule="evenodd" clip-rule="evenodd" d="M21.9675 16.3245L19 9.481V5H14.5V8H18V9H5.969C5.295 9 4.701 9.4345 4.507 10.069L2.0655 17.069C1.7715 18.0315 2.505 19 3.527 19H14.63C15.304 19 15.898 18.5655 16.0915 17.931L18.493 11.0645L20.7965 16.189L17.25 17.25L16.75 18.5L21.647 16.978L21.6465 16.976L21.6495 16.975L21.6695 16.968C21.7316 16.9458 21.7887 16.9114 21.8375 16.8668C21.8862 16.8223 21.9255 16.7686 21.9533 16.7087C21.981 16.6488 21.9966 16.584 21.999 16.518C22.0014 16.4521 21.9907 16.3863 21.9675 16.3245ZM9.515 15.879C9.4978 15.9431 9.49354 16.01 9.50246 16.0758C9.51139 16.1416 9.53333 16.2049 9.56699 16.2621C9.60065 16.3193 9.64537 16.3693 9.69854 16.409C9.75171 16.4488 9.81226 16.4775 9.87666 16.4936C9.94106 16.5097 10.008 16.5128 10.0736 16.5028C10.1393 16.4927 10.2022 16.4697 10.2588 16.4351C10.3155 16.4004 10.3646 16.3549 10.4035 16.301C10.4423 16.2472 10.47 16.1862 10.485 16.1215L10.89 14.5H12.5C12.6326 14.5 12.7598 14.4473 12.8536 14.3536C12.9473 14.2598 13 14.1326 13 14C13 13.8674 12.9473 13.7402 12.8536 13.6464C12.7598 13.5527 12.6326 13.5 12.5 13.5H11.14L11.485 12.1215C11.5022 12.0574 11.5065 11.9905 11.4975 11.9247C11.4886 11.8589 11.4667 11.7956 11.433 11.7384C11.3994 11.6812 11.3546 11.6312 11.3015 11.5915C11.2483 11.5517 11.1877 11.523 11.1234 11.5069C11.059 11.4908 10.992 11.4876 10.9264 11.4977C10.8608 11.5078 10.7978 11.5308 10.7412 11.5654C10.6845 11.6001 10.6354 11.6456 10.5965 11.6995C10.5577 11.7533 10.53 11.8143 10.515 11.879L10.11 13.5H8.5C8.36739 13.5 8.24022 13.5527 8.14645 13.6464C8.05268 13.7402 8 13.8674 8 14C8 14.1326 8.05268 14.2598 8.14645 14.3536C8.24022 14.4473 8.36739 14.5 8.5 14.5H9.86L9.515 15.879Z" fill="#232323"/>
<path fill-rule="evenodd" clip-rule="evenodd" d="M21.9675 16.3245L19 9.481V5H14.5V8H18V9H5.969C5.295 9 4.701 9.4345 4.507 10.069L2.0655 17.069C1.7715 18.0315 2.505 19 3.527 19H14.63C15.304 19 15.898 18.5655 16.0915 17.931L18.493 11.0645L20.7965 16.189L17.25 17.25L16.75 18.5L21.647 16.978L21.6465 16.976L21.6495 16.975L21.6695 16.968C21.7316 16.9458 21.7887 16.9114 21.8375 16.8668C21.8862 16.8223 21.9255 16.7686 21.9533 16.7087C21.981 16.6488 21.9966 16.584 21.999 16.518C22.0014 16.4521 21.9907 16.3863 21.9675 16.3245ZM9.515 15.879C9.4978 15.9431 9.49354 16.01 9.50246 16.0758C9.51139 16.1416 9.53333 16.2049 9.56699 16.2621C9.60065 16.3193 9.64537 16.3693 9.69854 16.409C9.75171 16.4488 9.81226 16.4775 9.87666 16.4936C9.94106 16.5097 10.008 16.5128 10.0736 16.5028C10.1393 16.4927 10.2022 16.4697 10.2588 16.4351C10.3155 16.4004 10.3646 16.3549 10.4035 16.301C10.4423 16.2472 10.47 16.1862 10.485 16.1215L10.89 14.5H12.5C12.6326 14.5 12.7598 14.4473 12.8536 14.3536C12.9473 14.2598 13 14.1326 13 14C13 13.8674 12.9473 13.7402 12.8536 13.6464C12.7598 13.5527 12.6326 13.5 12.5 13.5H11.14L11.485 12.1215C11.5022 12.0574 11.5065 11.9905 11.4975 11.9247C11.4886 11.8589 11.4667 11.7956 11.433 11.7384C11.3994 11.6812 11.3546 11.6312 11.3015 11.5915C11.2483 11.5517 11.1877 11.523 11.1234 11.5069C11.059 11.4908 10.992 11.4876 10.9264 11.4977C10.8608 11.5078 10.7978 11.5308 10.7412 11.5654C10.6845 11.6001 10.6354 11.6456 10.5965 11.6995C10.5577 11.7533 10.53 11.8143 10.515 11.879L10.11 13.5H8.5C8.36739 13.5 8.24022 13.5527 8.14645 13.6464C8.05268 13.7402 8 13.8674 8 14C8 14.1326 8.05268 14.2598 8.14645 14.3536C8.24022 14.4473 8.36739 14.5 8.5 14.5H9.86L9.515 15.879Z" fill="black" fill-opacity="0.2"/>
<path fill-rule="evenodd" clip-rule="evenodd" d="M21.9675 16.3245L19 9.481V5H14.5V8H18V9H5.969C5.295 9 4.701 9.4345 4.507 10.069L2.0655 17.069C1.7715 18.0315 2.505 19 3.527 19H14.63C15.304 19 15.898 18.5655 16.0915 17.931L18.493 11.0645L20.7965 16.189L17.25 17.25L16.75 18.5L21.647 16.978L21.6465 16.976L21.6495 16.975L21.6695 16.968C21.7316 16.9458 21.7887 16.9114 21.8375 16.8668C21.8862 16.8223 21.9255 16.7686 21.9533 16.7087C21.981 16.6488 21.9966 16.584 21.999 16.518C22.0014 16.4521 21.9907 16.3863 21.9675 16.3245ZM9.515 15.879C9.4978 15.9431 9.49354 16.01 9.50246 16.0758C9.51139 16.1416 9.53333 16.2049 9.56699 16.2621C9.60065 16.3193 9.64537 16.3693 9.69854 16.409C9.75171 16.4488 9.81226 16.4775 9.87666 16.4936C9.94106 16.5097 10.008 16.5128 10.0736 16.5028C10.1393 16.4927 10.2022 16.4697 10.2588 16.4351C10.3155 16.4004 10.3646 16.3549 10.4035 16.301C10.4423 16.2472 10.47 16.1862 10.485 16.1215L10.89 14.5H12.5C12.6326 14.5 12.7598 14.4473 12.8536 14.3536C12.9473 14.2598 13 14.1326 13 14C13 13.8674 12.9473 13.7402 12.8536 13.6464C12.7598 13.5527 12.6326 13.5 12.5 13.5H11.14L11.485 12.1215C11.5022 12.0574 11.5065 11.9905 11.4975 11.9247C11.4886 11.8589 11.4667 11.7956 11.433 11.7384C11.3994 11.6812 11.3546 11.6312 11.3015 11.5915C11.2483 11.5517 11.1877 11.523 11.1234 11.5069C11.059 11.4908 10.992 11.4876 10.9264 11.4977C10.8608 11.5078 10.7978 11.5308 10.7412 11.5654C10.6845 11.6001 10.6354 11.6456 10.5965 11.6995C10.5577 11.7533 10.53 11.8143 10.515 11.879L10.11 13.5H8.5C8.36739 13.5 8.24022 13.5527 8.14645 13.6464C8.05268 13.7402 8 13.8674 8 14C8 14.1326 8.05268 14.2598 8.14645 14.3536C8.24022 14.4473 8.36739 14.5 8.5 14.5H9.86L9.515 15.879Z" fill="black" fill-opacity="0.2"/>
</svg>
