<svg width="24" height="24" viewBox="0 0 24 24" fill="none" xmlns="http://www.w3.org/2000/svg">
<g clip-path="url(#clip0_384_4204)">
<path d="M4.94551 4.5C3.94351 4.5 3.01801 5.001 2.46076 5.83575L0.375013 8.9535C0.129547 9.32112 -0.000991196 9.75346 1.28833e-05 10.1955V15.1642C-0.00136999 15.4972 0.108609 15.821 0.312459 16.0843C0.516309 16.3475 0.802323 16.535 1.12501 16.617L3.07051 17.1097C3.21043 17.7838 3.57792 18.3892 4.11133 18.8245C4.64473 19.2597 5.31159 19.4982 6.00001 19.5C7.38901 19.5 8.54851 18.5393 8.88301 17.25H15.867C16.2015 18.5393 17.361 19.5 18.75 19.5C20.139 19.5 21.2985 18.5393 21.633 17.25H22.5C23.3205 17.25 24 16.5705 24 15.75V13.008C23.999 12.3396 23.7748 11.6906 23.363 11.1641C22.9512 10.6376 22.3753 10.2637 21.7268 10.1017L17.6715 9.0705L14.742 5.5785C14.4616 5.24148 14.1106 4.97019 13.7137 4.78383C13.3169 4.59746 12.8839 4.50057 12.4455 4.5H4.94551ZM4.94551 6H8.25001V9H2.15626L3.70351 6.6795V6.65625C3.83925 6.45201 4.02393 6.28497 4.24072 6.17035C4.45752 6.05573 4.7003 5.99717 4.94551 6ZM9.75001 6H12.4455C12.8903 6 13.3095 6.1965 13.5938 6.53925L15.6563 9H9.75001V6ZM1.50001 10.5H17.1563L21.375 11.5545C21.6987 11.6348 21.9859 11.822 22.1901 12.0858C22.3942 12.3496 22.5034 12.6745 22.5 13.008V15.75H21.633C21.2985 14.4607 20.139 13.5 18.75 13.5C17.361 13.5 16.2015 14.4607 15.867 15.75H8.88301C8.54851 14.4607 7.38901 13.5 6.00001 13.5C4.67026 13.5 3.55351 14.379 3.16426 15.5858L1.50001 15.165V10.5ZM6.00001 15C6.83776 15 7.50001 15.6622 7.50001 16.5C7.50001 17.3378 6.83776 18 6.00001 18C5.16226 18 4.50001 17.3378 4.50001 16.5C4.50001 15.6622 5.16226 15 6.00001 15ZM18.75 15C19.5878 15 20.25 15.6622 20.25 16.5C20.25 17.3378 19.5878 18 18.75 18C17.9123 18 17.25 17.3378 17.25 16.5C17.25 15.6622 17.9123 15 18.75 15Z" fill="black"/>
</g>
<defs>
<clipPath id="clip0_384_4204">
<rect width="24" height="24" fill="white"/>
</clipPath>
</defs>
</svg>
