<svg width="24" height="24" viewBox="0 0 24 24" fill="none" xmlns="http://www.w3.org/2000/svg">
<path d="M5 8.5L12 3L19 8.5V21H15V13L14 12H10L9 13V21H5V8.5Z" fill="#232323"/>
<path d="M5 8.5L12 3L19 8.5V21H15V13L14 12H10L9 13V21H5V8.5Z" fill="black" fill-opacity="0.2"/>
<path d="M5 8.5L12 3L19 8.5V21H15V13L14 12H10L9 13V21H5V8.5Z" fill="black" fill-opacity="0.2"/>
<path d="M4.5 21.5H19.5" stroke="#232323" stroke-width="2" stroke-linecap="round" stroke-linejoin="round"/>
<path d="M4.5 21.5H19.5" stroke="black" stroke-opacity="0.2" stroke-width="2" stroke-linecap="round" stroke-linejoin="round"/>
<path d="M4.5 21.5H19.5" stroke="black" stroke-opacity="0.2" stroke-width="2" stroke-linecap="round" stroke-linejoin="round"/>
<path d="M4.5 21.5V8M19.5 21.5V8" stroke="#232323" stroke-width="2" stroke-linecap="round" stroke-linejoin="round"/>
<path d="M4.5 21.5V8M19.5 21.5V8" stroke="black" stroke-opacity="0.2" stroke-width="2" stroke-linecap="round" stroke-linejoin="round"/>
<path d="M4.5 21.5V8M19.5 21.5V8" stroke="black" stroke-opacity="0.2" stroke-width="2" stroke-linecap="round" stroke-linejoin="round"/>
<path d="M2 10L12 2L22 10" stroke="#232323" stroke-width="2" stroke-linecap="round" stroke-linejoin="round"/>
<path d="M2 10L12 2L22 10" stroke="black" stroke-opacity="0.2" stroke-width="2" stroke-linecap="round" stroke-linejoin="round"/>
<path d="M2 10L12 2L22 10" stroke="black" stroke-opacity="0.2" stroke-width="2" stroke-linecap="round" stroke-linejoin="round"/>
<path d="M9.5 21.5V12.5H14.5V21.5" stroke="#232323" stroke-width="2" stroke-linecap="round" stroke-linejoin="round"/>
<path d="M9.5 21.5V12.5H14.5V21.5" stroke="black" stroke-opacity="0.2" stroke-width="2" stroke-linecap="round" stroke-linejoin="round"/>
<path d="M9.5 21.5V12.5H14.5V21.5" stroke="black" stroke-opacity="0.2" stroke-width="2" stroke-linecap="round" stroke-linejoin="round"/>
</svg>
