<svg width="24" height="24" viewBox="0 0 24 24" fill="none" xmlns="http://www.w3.org/2000/svg">
<path d="M22.047 18.9251C21.9243 19.511 21.6076 20.0384 21.148 20.4221C20.604 20.9721 19.949 21.4021 19.228 21.6821C18.5975 21.9205 17.9291 22.0431 17.255 22.0441H16.893C15.3897 21.99 13.912 21.6389 12.545 21.0111C12.205 20.8561 11.885 20.7011 11.585 20.5361C9.9827 19.6335 8.51251 18.5143 7.21602 17.2101C5.51246 15.6451 4.11234 13.7792 3.08602 11.7061C2.5505 10.5601 2.20111 9.33605 2.05102 8.08005C1.7972 6.78249 1.94511 5.43837 2.47502 4.22706C2.79701 3.66756 3.19702 3.15677 3.66302 2.71005C3.86402 2.48305 4.11102 2.30005 4.38602 2.17305C4.67502 2.03905 4.98802 1.96605 5.30602 1.95605C5.66902 1.98105 6.02202 2.08705 6.33802 2.26605C6.63102 2.42605 6.88502 2.64805 7.08202 2.91605L8.33202 4.20806C8.65202 4.52805 8.96202 4.84806 9.28202 5.18806C9.65902 5.52306 9.89502 5.98805 9.94202 6.49005V6.59305C9.90222 7.00991 9.73258 7.40375 9.45702 7.71905C9.276 7.94263 9.08305 8.15627 8.87902 8.35906L8.60002 8.64906C8.48126 8.76744 8.38651 8.90768 8.32102 9.06206C8.27417 9.1945 8.25313 9.33469 8.25902 9.47506C8.42102 9.93906 8.68202 10.3621 9.02402 10.7151C9.57102 11.4371 10.056 12.1191 10.614 12.7281C11.6031 13.8616 12.772 14.8245 14.074 15.5781C14.2017 15.6742 14.3505 15.7383 14.508 15.7651C14.644 15.7831 14.783 15.7651 14.911 15.7131C15.267 15.4901 15.584 15.2111 15.851 14.8871C16.229 14.4357 16.7639 14.1442 17.348 14.0711C17.91 14.0771 18.448 14.3031 18.845 14.7011C19.042 14.8871 19.259 15.1031 19.475 15.3311L19.826 15.7031L20.157 16.0231C20.353 16.2091 20.529 16.3841 20.704 16.5801C21.0394 16.8827 21.356 17.2027 21.654 17.5401C21.822 17.7401 21.946 17.9721 22.016 18.2231C22.073 18.4531 22.083 18.6911 22.047 18.9251ZM18.949 7.37805C18.9492 7.47987 18.9292 7.5807 18.8903 7.67479C18.8514 7.76888 18.7943 7.85436 18.7223 7.92636C18.6503 7.99835 18.5648 8.05543 18.4708 8.09433C18.3767 8.13323 18.2758 8.15319 18.174 8.15305H16.294V10.0231C16.2978 10.1271 16.2805 10.2308 16.2433 10.3281C16.206 10.4253 16.1496 10.514 16.0773 10.589C16.005 10.6639 15.9184 10.7235 15.8225 10.7642C15.7267 10.8049 15.6236 10.8259 15.5195 10.8259C15.4154 10.8259 15.3124 10.8049 15.2165 10.7642C15.1207 10.7235 15.034 10.6639 14.9618 10.589C14.8895 10.514 14.833 10.4253 14.7958 10.3281C14.7585 10.2308 14.7413 10.1271 14.745 10.0231V8.15305H12.855C12.6495 8.15305 12.4524 8.0714 12.307 7.92606C12.1617 7.78072 12.08 7.5836 12.08 7.37805C12.08 7.17251 12.1617 6.97539 12.307 6.83005C12.4524 6.68471 12.6495 6.60306 12.855 6.60306H14.725V4.72505C14.725 4.51964 14.8066 4.32265 14.9519 4.1774C15.0971 4.03215 15.2941 3.95055 15.4995 3.95055C15.7049 3.95055 15.9019 4.03215 16.0472 4.1774C16.1924 4.32265 16.274 4.51964 16.274 4.72505V6.60505H18.154C18.2574 6.60225 18.3603 6.62019 18.4567 6.65783C18.553 6.69547 18.6408 6.75204 18.7149 6.82419C18.7891 6.89635 18.848 6.98262 18.8882 7.07793C18.9284 7.17323 18.9491 7.27562 18.949 7.37906" fill="#232323"/>
<path d="M22.047 18.9251C21.9243 19.511 21.6076 20.0384 21.148 20.4221C20.604 20.9721 19.949 21.4021 19.228 21.6821C18.5975 21.9205 17.9291 22.0431 17.255 22.0441H16.893C15.3897 21.99 13.912 21.6389 12.545 21.0111C12.205 20.8561 11.885 20.7011 11.585 20.5361C9.9827 19.6335 8.51251 18.5143 7.21602 17.2101C5.51246 15.6451 4.11234 13.7792 3.08602 11.7061C2.5505 10.5601 2.20111 9.33605 2.05102 8.08005C1.7972 6.78249 1.94511 5.43837 2.47502 4.22706C2.79701 3.66756 3.19702 3.15677 3.66302 2.71005C3.86402 2.48305 4.11102 2.30005 4.38602 2.17305C4.67502 2.03905 4.98802 1.96605 5.30602 1.95605C5.66902 1.98105 6.02202 2.08705 6.33802 2.26605C6.63102 2.42605 6.88502 2.64805 7.08202 2.91605L8.33202 4.20806C8.65202 4.52805 8.96202 4.84806 9.28202 5.18806C9.65902 5.52306 9.89502 5.98805 9.94202 6.49005V6.59305C9.90222 7.00991 9.73258 7.40375 9.45702 7.71905C9.276 7.94263 9.08305 8.15627 8.87902 8.35906L8.60002 8.64906C8.48126 8.76744 8.38651 8.90768 8.32102 9.06206C8.27417 9.1945 8.25313 9.33469 8.25902 9.47506C8.42102 9.93906 8.68202 10.3621 9.02402 10.7151C9.57102 11.4371 10.056 12.1191 10.614 12.7281C11.6031 13.8616 12.772 14.8245 14.074 15.5781C14.2017 15.6742 14.3505 15.7383 14.508 15.7651C14.644 15.7831 14.783 15.7651 14.911 15.7131C15.267 15.4901 15.584 15.2111 15.851 14.8871C16.229 14.4357 16.7639 14.1442 17.348 14.0711C17.91 14.0771 18.448 14.3031 18.845 14.7011C19.042 14.8871 19.259 15.1031 19.475 15.3311L19.826 15.7031L20.157 16.0231C20.353 16.2091 20.529 16.3841 20.704 16.5801C21.0394 16.8827 21.356 17.2027 21.654 17.5401C21.822 17.7401 21.946 17.9721 22.016 18.2231C22.073 18.4531 22.083 18.6911 22.047 18.9251ZM18.949 7.37805C18.9492 7.47987 18.9292 7.5807 18.8903 7.67479C18.8514 7.76888 18.7943 7.85436 18.7223 7.92636C18.6503 7.99835 18.5648 8.05543 18.4708 8.09433C18.3767 8.13323 18.2758 8.15319 18.174 8.15305H16.294V10.0231C16.2978 10.1271 16.2805 10.2308 16.2433 10.3281C16.206 10.4253 16.1496 10.514 16.0773 10.589C16.005 10.6639 15.9184 10.7235 15.8225 10.7642C15.7267 10.8049 15.6236 10.8259 15.5195 10.8259C15.4154 10.8259 15.3124 10.8049 15.2165 10.7642C15.1207 10.7235 15.034 10.6639 14.9618 10.589C14.8895 10.514 14.833 10.4253 14.7958 10.3281C14.7585 10.2308 14.7413 10.1271 14.745 10.0231V8.15305H12.855C12.6495 8.15305 12.4524 8.0714 12.307 7.92606C12.1617 7.78072 12.08 7.5836 12.08 7.37805C12.08 7.17251 12.1617 6.97539 12.307 6.83005C12.4524 6.68471 12.6495 6.60306 12.855 6.60306H14.725V4.72505C14.725 4.51964 14.8066 4.32265 14.9519 4.1774C15.0971 4.03215 15.2941 3.95055 15.4995 3.95055C15.7049 3.95055 15.9019 4.03215 16.0472 4.1774C16.1924 4.32265 16.274 4.51964 16.274 4.72505V6.60505H18.154C18.2574 6.60225 18.3603 6.62019 18.4567 6.65783C18.553 6.69547 18.6408 6.75204 18.7149 6.82419C18.7891 6.89635 18.848 6.98262 18.8882 7.07793C18.9284 7.17323 18.9491 7.27562 18.949 7.37906" fill="black" fill-opacity="0.2"/>
<path d="M22.047 18.9251C21.9243 19.511 21.6076 20.0384 21.148 20.4221C20.604 20.9721 19.949 21.4021 19.228 21.6821C18.5975 21.9205 17.9291 22.0431 17.255 22.0441H16.893C15.3897 21.99 13.912 21.6389 12.545 21.0111C12.205 20.8561 11.885 20.7011 11.585 20.5361C9.9827 19.6335 8.51251 18.5143 7.21602 17.2101C5.51246 15.6451 4.11234 13.7792 3.08602 11.7061C2.5505 10.5601 2.20111 9.33605 2.05102 8.08005C1.7972 6.78249 1.94511 5.43837 2.47502 4.22706C2.79701 3.66756 3.19702 3.15677 3.66302 2.71005C3.86402 2.48305 4.11102 2.30005 4.38602 2.17305C4.67502 2.03905 4.98802 1.96605 5.30602 1.95605C5.66902 1.98105 6.02202 2.08705 6.33802 2.26605C6.63102 2.42605 6.88502 2.64805 7.08202 2.91605L8.33202 4.20806C8.65202 4.52805 8.96202 4.84806 9.28202 5.18806C9.65902 5.52306 9.89502 5.98805 9.94202 6.49005V6.59305C9.90222 7.00991 9.73258 7.40375 9.45702 7.71905C9.276 7.94263 9.08305 8.15627 8.87902 8.35906L8.60002 8.64906C8.48126 8.76744 8.38651 8.90768 8.32102 9.06206C8.27417 9.1945 8.25313 9.33469 8.25902 9.47506C8.42102 9.93906 8.68202 10.3621 9.02402 10.7151C9.57102 11.4371 10.056 12.1191 10.614 12.7281C11.6031 13.8616 12.772 14.8245 14.074 15.5781C14.2017 15.6742 14.3505 15.7383 14.508 15.7651C14.644 15.7831 14.783 15.7651 14.911 15.7131C15.267 15.4901 15.584 15.2111 15.851 14.8871C16.229 14.4357 16.7639 14.1442 17.348 14.0711C17.91 14.0771 18.448 14.3031 18.845 14.7011C19.042 14.8871 19.259 15.1031 19.475 15.3311L19.826 15.7031L20.157 16.0231C20.353 16.2091 20.529 16.3841 20.704 16.5801C21.0394 16.8827 21.356 17.2027 21.654 17.5401C21.822 17.7401 21.946 17.9721 22.016 18.2231C22.073 18.4531 22.083 18.6911 22.047 18.9251ZM18.949 7.37805C18.9492 7.47987 18.9292 7.5807 18.8903 7.67479C18.8514 7.76888 18.7943 7.85436 18.7223 7.92636C18.6503 7.99835 18.5648 8.05543 18.4708 8.09433C18.3767 8.13323 18.2758 8.15319 18.174 8.15305H16.294V10.0231C16.2978 10.1271 16.2805 10.2308 16.2433 10.3281C16.206 10.4253 16.1496 10.514 16.0773 10.589C16.005 10.6639 15.9184 10.7235 15.8225 10.7642C15.7267 10.8049 15.6236 10.8259 15.5195 10.8259C15.4154 10.8259 15.3124 10.8049 15.2165 10.7642C15.1207 10.7235 15.034 10.6639 14.9618 10.589C14.8895 10.514 14.833 10.4253 14.7958 10.3281C14.7585 10.2308 14.7413 10.1271 14.745 10.0231V8.15305H12.855C12.6495 8.15305 12.4524 8.0714 12.307 7.92606C12.1617 7.78072 12.08 7.5836 12.08 7.37805C12.08 7.17251 12.1617 6.97539 12.307 6.83005C12.4524 6.68471 12.6495 6.60306 12.855 6.60306H14.725V4.72505C14.725 4.51964 14.8066 4.32265 14.9519 4.1774C15.0971 4.03215 15.2941 3.95055 15.4995 3.95055C15.7049 3.95055 15.9019 4.03215 16.0472 4.1774C16.1924 4.32265 16.274 4.51964 16.274 4.72505V6.60505H18.154C18.2574 6.60225 18.3603 6.62019 18.4567 6.65783C18.553 6.69547 18.6408 6.75204 18.7149 6.82419C18.7891 6.89635 18.848 6.98262 18.8882 7.07793C18.9284 7.17323 18.9491 7.27562 18.949 7.37906" fill="black" fill-opacity="0.2"/>
</svg>
