<svg width="24" height="24" viewBox="0 0 24 24" fill="none" xmlns="http://www.w3.org/2000/svg">
<path d="M6.288 19.65C4.76267 18.0833 4 16.1333 4 13.8C4 12.7667 4.23333 11.7333 4.7 10.7C5.16667 9.66668 5.75 8.67501 6.45 7.72501C7.15 6.77501 7.90833 5.88334 8.725 5.05001C9.54167 4.21668 10.3 3.49168 11 2.87501C11.1333 2.74168 11.2877 2.64601 11.463 2.58801C11.6383 2.53001 11.8173 2.50068 12 2.50001C12.1827 2.49934 12.362 2.52868 12.538 2.58801C12.714 2.64734 12.868 2.74301 13 2.87501C13.7 3.49168 14.4583 4.21668 15.275 5.05001C16.0917 5.88334 16.85 6.77501 17.55 7.72501C18.25 8.67501 18.8333 9.66668 19.3 10.7C19.7667 11.7333 20 12.7667 20 13.8C20 16.1333 19.2377 18.0833 17.713 19.65C16.1883 21.2167 14.284 22 12 22C9.716 22 7.812 21.2167 6.288 19.65ZM10 18H14C14.2833 18 14.521 17.904 14.713 17.712C14.905 17.52 15.0007 17.2827 15 17C14.9993 16.7173 14.9033 16.48 14.712 16.288C14.5207 16.096 14.2833 16 14 16H10C9.71667 16 9.47933 16.096 9.288 16.288C9.09667 16.48 9.00067 16.7173 9 17C8.99933 17.2827 9.09533 17.5203 9.288 17.713C9.48067 17.9057 9.718 18.0013 10 18ZM11 13V14C11 14.2833 11.096 14.521 11.288 14.713C11.48 14.905 11.7173 15.0007 12 15C12.2827 14.9993 12.5203 14.9033 12.713 14.712C12.9057 14.5207 13.0013 14.2833 13 14V13H14C14.2833 13 14.521 12.904 14.713 12.712C14.905 12.52 15.0007 12.2827 15 12C14.9993 11.7173 14.9033 11.48 14.712 11.288C14.5207 11.096 14.2833 11 14 11H13V10C13 9.71668 12.904 9.47934 12.712 9.28801C12.52 9.09668 12.2827 9.00068 12 9.00001C11.7173 8.99934 11.48 9.09534 11.288 9.28801C11.096 9.48068 11 9.71801 11 10V11H10C9.71667 11 9.47933 11.096 9.288 11.288C9.09667 11.48 9.00067 11.7173 9 12C8.99933 12.2827 9.09533 12.5203 9.288 12.713C9.48067 12.9057 9.718 13.0013 10 13H11Z" fill="#232323"/>
<path d="M6.288 19.65C4.76267 18.0833 4 16.1333 4 13.8C4 12.7667 4.23333 11.7333 4.7 10.7C5.16667 9.66668 5.75 8.67501 6.45 7.72501C7.15 6.77501 7.90833 5.88334 8.725 5.05001C9.54167 4.21668 10.3 3.49168 11 2.87501C11.1333 2.74168 11.2877 2.64601 11.463 2.58801C11.6383 2.53001 11.8173 2.50068 12 2.50001C12.1827 2.49934 12.362 2.52868 12.538 2.58801C12.714 2.64734 12.868 2.74301 13 2.87501C13.7 3.49168 14.4583 4.21668 15.275 5.05001C16.0917 5.88334 16.85 6.77501 17.55 7.72501C18.25 8.67501 18.8333 9.66668 19.3 10.7C19.7667 11.7333 20 12.7667 20 13.8C20 16.1333 19.2377 18.0833 17.713 19.65C16.1883 21.2167 14.284 22 12 22C9.716 22 7.812 21.2167 6.288 19.65ZM10 18H14C14.2833 18 14.521 17.904 14.713 17.712C14.905 17.52 15.0007 17.2827 15 17C14.9993 16.7173 14.9033 16.48 14.712 16.288C14.5207 16.096 14.2833 16 14 16H10C9.71667 16 9.47933 16.096 9.288 16.288C9.09667 16.48 9.00067 16.7173 9 17C8.99933 17.2827 9.09533 17.5203 9.288 17.713C9.48067 17.9057 9.718 18.0013 10 18ZM11 13V14C11 14.2833 11.096 14.521 11.288 14.713C11.48 14.905 11.7173 15.0007 12 15C12.2827 14.9993 12.5203 14.9033 12.713 14.712C12.9057 14.5207 13.0013 14.2833 13 14V13H14C14.2833 13 14.521 12.904 14.713 12.712C14.905 12.52 15.0007 12.2827 15 12C14.9993 11.7173 14.9033 11.48 14.712 11.288C14.5207 11.096 14.2833 11 14 11H13V10C13 9.71668 12.904 9.47934 12.712 9.28801C12.52 9.09668 12.2827 9.00068 12 9.00001C11.7173 8.99934 11.48 9.09534 11.288 9.28801C11.096 9.48068 11 9.71801 11 10V11H10C9.71667 11 9.47933 11.096 9.288 11.288C9.09667 11.48 9.00067 11.7173 9 12C8.99933 12.2827 9.09533 12.5203 9.288 12.713C9.48067 12.9057 9.718 13.0013 10 13H11Z" fill="black" fill-opacity="0.2"/>
<path d="M6.288 19.65C4.76267 18.0833 4 16.1333 4 13.8C4 12.7667 4.23333 11.7333 4.7 10.7C5.16667 9.66668 5.75 8.67501 6.45 7.72501C7.15 6.77501 7.90833 5.88334 8.725 5.05001C9.54167 4.21668 10.3 3.49168 11 2.87501C11.1333 2.74168 11.2877 2.64601 11.463 2.58801C11.6383 2.53001 11.8173 2.50068 12 2.50001C12.1827 2.49934 12.362 2.52868 12.538 2.58801C12.714 2.64734 12.868 2.74301 13 2.87501C13.7 3.49168 14.4583 4.21668 15.275 5.05001C16.0917 5.88334 16.85 6.77501 17.55 7.72501C18.25 8.67501 18.8333 9.66668 19.3 10.7C19.7667 11.7333 20 12.7667 20 13.8C20 16.1333 19.2377 18.0833 17.713 19.65C16.1883 21.2167 14.284 22 12 22C9.716 22 7.812 21.2167 6.288 19.65ZM10 18H14C14.2833 18 14.521 17.904 14.713 17.712C14.905 17.52 15.0007 17.2827 15 17C14.9993 16.7173 14.9033 16.48 14.712 16.288C14.5207 16.096 14.2833 16 14 16H10C9.71667 16 9.47933 16.096 9.288 16.288C9.09667 16.48 9.00067 16.7173 9 17C8.99933 17.2827 9.09533 17.5203 9.288 17.713C9.48067 17.9057 9.718 18.0013 10 18ZM11 13V14C11 14.2833 11.096 14.521 11.288 14.713C11.48 14.905 11.7173 15.0007 12 15C12.2827 14.9993 12.5203 14.9033 12.713 14.712C12.9057 14.5207 13.0013 14.2833 13 14V13H14C14.2833 13 14.521 12.904 14.713 12.712C14.905 12.52 15.0007 12.2827 15 12C14.9993 11.7173 14.9033 11.48 14.712 11.288C14.5207 11.096 14.2833 11 14 11H13V10C13 9.71668 12.904 9.47934 12.712 9.28801C12.52 9.09668 12.2827 9.00068 12 9.00001C11.7173 8.99934 11.48 9.09534 11.288 9.28801C11.096 9.48068 11 9.71801 11 10V11H10C9.71667 11 9.47933 11.096 9.288 11.288C9.09667 11.48 9.00067 11.7173 9 12C8.99933 12.2827 9.09533 12.5203 9.288 12.713C9.48067 12.9057 9.718 13.0013 10 13H11Z" fill="black" fill-opacity="0.2"/>
</svg>
