<svg width="24" height="24" viewBox="0 0 24 24" fill="none" xmlns="http://www.w3.org/2000/svg">
<path d="M3 9.5V6.616C3 6.15533 3.15433 5.771 3.463 5.463C3.77167 5.155 4.15567 5.00067 4.615 5H19.385C19.845 5 20.229 5.15433 20.537 5.463C20.845 5.77167 20.9993 6.156 21 6.616V9.5H20V6.616C20 6.462 19.936 6.32067 19.808 6.192C19.68 6.06333 19.539 5.99933 19.385 6H4.615C4.46167 6 4.32067 6.064 4.192 6.192C4.06333 6.32 3.99933 6.46133 4 6.616V9.5H3ZM4.616 19C4.15533 19 3.771 18.846 3.463 18.538C3.155 18.23 3.00067 17.8453 3 17.384V14.5H4V17.385C4 17.5383 4.064 17.6793 4.192 17.808C4.32 17.9367 4.461 18.0007 4.615 18H19.385C19.5383 18 19.6793 17.936 19.808 17.808C19.9367 17.68 20.0007 17.5387 20 17.384V14.5H21V17.385C21 17.845 20.846 18.229 20.538 18.537C20.23 18.845 19.8457 18.9993 19.385 19H4.616ZM10.266 16.43C10.3487 16.3833 10.4127 16.3133 10.458 16.22L14 9.134L15.542 12.218C15.5867 12.3113 15.6507 12.3813 15.734 12.428C15.8173 12.4747 15.906 12.4987 16 12.5H21V11.5H16.317L14.457 7.78C14.413 7.7 14.3523 7.64167 14.275 7.605C14.1977 7.56833 14.106 7.55 14 7.55C13.9067 7.55 13.8183 7.56833 13.735 7.605C13.6517 7.64167 13.5873 7.70033 13.542 7.781L10 14.866L8.458 11.78C8.41333 11.6867 8.34933 11.6167 8.266 11.57C8.18267 11.5233 8.094 11.5 8 11.5H3V12.5H7.683L9.543 16.22C9.58767 16.3133 9.65167 16.3833 9.735 16.43C9.81833 16.4767 9.90667 16.5 10 16.5C10.0933 16.5 10.182 16.4767 10.266 16.43Z" fill="black"/>
</svg>
