<svg width="24" height="24" viewBox="0 0 24 24" fill="none" xmlns="http://www.w3.org/2000/svg">
<path d="M11.401 20.6542C11.2043 20.5735 11.0253 20.4542 10.864 20.2962L3.70401 13.1362C3.54601 12.9748 3.42667 12.7958 3.34601 12.5992C3.26534 12.4025 3.22501 12.2028 3.22501 12.0002C3.22501 11.7975 3.26534 11.5968 3.34601 11.3982C3.42667 11.1995 3.54601 11.0215 3.70401 10.8642L10.864 3.70415C11.0253 3.54282 11.2043 3.42282 11.401 3.34415C11.5977 3.26549 11.7973 3.22549 12 3.22415C12.2027 3.22282 12.4033 3.26215 12.602 3.34215C12.8007 3.42215 12.979 3.54215 13.137 3.70215L20.297 10.8622C20.4577 11.0202 20.5777 11.1985 20.657 11.3972C20.7357 11.5958 20.775 11.7965 20.775 11.9992C20.775 12.2018 20.7357 12.4015 20.657 12.5982C20.5783 12.7948 20.4583 12.9742 20.297 13.1362L13.137 20.2962C12.979 20.4535 12.8007 20.5725 12.602 20.6532C12.4033 20.7338 12.2027 20.7742 12 20.7742C11.7973 20.7742 11.5977 20.7348 11.401 20.6542ZM11.5 13.1722H12.5V7.94215H11.5V13.1722ZM12.434 15.2212C12.5553 15.1005 12.616 14.9562 12.616 14.7882C12.616 14.6202 12.5553 14.4755 12.434 14.3542C12.3127 14.2328 12.168 14.1722 12 14.1722C11.832 14.1722 11.6873 14.2328 11.566 14.3542C11.4447 14.4755 11.384 14.6198 11.384 14.7872C11.384 14.9545 11.4447 15.0992 11.566 15.2212C11.6873 15.3432 11.832 15.4038 12 15.4032C12.168 15.4025 12.3127 15.3418 12.434 15.2212Z" fill="#232323"/>
<path d="M11.401 20.6542C11.2043 20.5735 11.0253 20.4542 10.864 20.2962L3.70401 13.1362C3.54601 12.9748 3.42667 12.7958 3.34601 12.5992C3.26534 12.4025 3.22501 12.2028 3.22501 12.0002C3.22501 11.7975 3.26534 11.5968 3.34601 11.3982C3.42667 11.1995 3.54601 11.0215 3.70401 10.8642L10.864 3.70415C11.0253 3.54282 11.2043 3.42282 11.401 3.34415C11.5977 3.26549 11.7973 3.22549 12 3.22415C12.2027 3.22282 12.4033 3.26215 12.602 3.34215C12.8007 3.42215 12.979 3.54215 13.137 3.70215L20.297 10.8622C20.4577 11.0202 20.5777 11.1985 20.657 11.3972C20.7357 11.5958 20.775 11.7965 20.775 11.9992C20.775 12.2018 20.7357 12.4015 20.657 12.5982C20.5783 12.7948 20.4583 12.9742 20.297 13.1362L13.137 20.2962C12.979 20.4535 12.8007 20.5725 12.602 20.6532C12.4033 20.7338 12.2027 20.7742 12 20.7742C11.7973 20.7742 11.5977 20.7348 11.401 20.6542ZM11.5 13.1722H12.5V7.94215H11.5V13.1722ZM12.434 15.2212C12.5553 15.1005 12.616 14.9562 12.616 14.7882C12.616 14.6202 12.5553 14.4755 12.434 14.3542C12.3127 14.2328 12.168 14.1722 12 14.1722C11.832 14.1722 11.6873 14.2328 11.566 14.3542C11.4447 14.4755 11.384 14.6198 11.384 14.7872C11.384 14.9545 11.4447 15.0992 11.566 15.2212C11.6873 15.3432 11.832 15.4038 12 15.4032C12.168 15.4025 12.3127 15.3418 12.434 15.2212Z" fill="black" fill-opacity="0.2"/>
<path d="M11.401 20.6542C11.2043 20.5735 11.0253 20.4542 10.864 20.2962L3.70401 13.1362C3.54601 12.9748 3.42667 12.7958 3.34601 12.5992C3.26534 12.4025 3.22501 12.2028 3.22501 12.0002C3.22501 11.7975 3.26534 11.5968 3.34601 11.3982C3.42667 11.1995 3.54601 11.0215 3.70401 10.8642L10.864 3.70415C11.0253 3.54282 11.2043 3.42282 11.401 3.34415C11.5977 3.26549 11.7973 3.22549 12 3.22415C12.2027 3.22282 12.4033 3.26215 12.602 3.34215C12.8007 3.42215 12.979 3.54215 13.137 3.70215L20.297 10.8622C20.4577 11.0202 20.5777 11.1985 20.657 11.3972C20.7357 11.5958 20.775 11.7965 20.775 11.9992C20.775 12.2018 20.7357 12.4015 20.657 12.5982C20.5783 12.7948 20.4583 12.9742 20.297 13.1362L13.137 20.2962C12.979 20.4535 12.8007 20.5725 12.602 20.6532C12.4033 20.7338 12.2027 20.7742 12 20.7742C11.7973 20.7742 11.5977 20.7348 11.401 20.6542ZM11.5 13.1722H12.5V7.94215H11.5V13.1722ZM12.434 15.2212C12.5553 15.1005 12.616 14.9562 12.616 14.7882C12.616 14.6202 12.5553 14.4755 12.434 14.3542C12.3127 14.2328 12.168 14.1722 12 14.1722C11.832 14.1722 11.6873 14.2328 11.566 14.3542C11.4447 14.4755 11.384 14.6198 11.384 14.7872C11.384 14.9545 11.4447 15.0992 11.566 15.2212C11.6873 15.3432 11.832 15.4038 12 15.4032C12.168 15.4025 12.3127 15.3418 12.434 15.2212Z" fill="black" fill-opacity="0.2"/>
</svg>
