<svg width="24" height="24" viewBox="0 0 24 24" fill="none" xmlns="http://www.w3.org/2000/svg">
<path d="M12 21.3248C13.25 20.1414 14.2293 19.0041 14.938 17.9128C15.6467 16.8214 16.0007 15.9004 16 15.1498C16 13.9998 15.6127 13.0208 14.838 12.2128C14.0633 11.4048 13.1173 11.0004 12 10.9998C10.8827 10.9991 9.93666 11.4034 9.16199 12.2128C8.38733 13.0221 7.99999 14.0011 7.99999 15.1498C7.99999 15.8998 8.35433 16.8208 9.06299 17.9128C9.77166 19.0048 10.7507 20.1421 12 21.3248ZM12 22.6728C10.3427 21.1868 9.09499 19.8164 8.25699 18.5618C7.41899 17.3071 6.99999 16.1698 6.99999 15.1498C6.99999 13.7318 7.48299 12.5191 8.44899 11.5118C9.41499 10.5044 10.5987 10.0004 12 9.99977C13.4013 9.9991 14.585 10.5031 15.551 11.5118C16.517 12.5204 17 13.7331 17 15.1498C17 16.2458 16.565 17.4024 15.695 18.6198C14.825 19.8371 13.5933 21.1888 12 22.6728ZM12.793 15.7918C13.0083 15.5771 13.116 15.3128 13.116 14.9988C13.116 14.6848 13.0083 14.4204 12.793 14.2058C12.5783 13.9904 12.314 13.8828 12 13.8828C11.686 13.8828 11.4217 13.9904 11.207 14.2058C10.9917 14.4204 10.884 14.6848 10.884 14.9988C10.884 15.3128 10.9917 15.5771 11.207 15.7918C11.4217 16.0071 11.686 16.1148 12 16.1148C12.314 16.1148 12.5783 16.0071 12.793 15.7918ZM8.46999 7.14277L7.78199 6.45277C8.37199 5.95277 9.02766 5.56643 9.74899 5.29377C10.4703 5.0211 11.2207 4.88443 12 4.88377C12.7793 4.8831 13.53 5.01977 14.252 5.29377C14.974 5.56777 15.6297 5.95443 16.219 6.45377L15.531 7.14177C15.035 6.7231 14.4827 6.40877 13.874 6.19877C13.2653 5.98877 12.6407 5.8841 12 5.88477C11.3593 5.88543 10.7347 5.9901 10.126 6.19877C9.51733 6.40743 8.96499 6.72177 8.46899 7.14177M5.64999 4.31677L4.95599 3.60977C5.92933 2.72643 7.02166 2.05143 8.23299 1.58477C9.44433 1.1181 10.7 0.884766 12 0.884766C13.3133 0.884766 14.5757 1.1181 15.787 1.58477C16.9983 2.05143 18.0907 2.73277 19.064 3.62877L18.356 4.34177C17.48 3.5431 16.4983 2.9341 15.411 2.51477C14.3243 2.09477 13.1873 1.88477 12 1.88477C10.826 1.88477 9.69299 2.09043 8.60099 2.50177C7.50899 2.9131 6.52533 3.5181 5.64999 4.31677Z" fill="#232323"/>
<path d="M12 21.3248C13.25 20.1414 14.2293 19.0041 14.938 17.9128C15.6467 16.8214 16.0007 15.9004 16 15.1498C16 13.9998 15.6127 13.0208 14.838 12.2128C14.0633 11.4048 13.1173 11.0004 12 10.9998C10.8827 10.9991 9.93666 11.4034 9.16199 12.2128C8.38733 13.0221 7.99999 14.0011 7.99999 15.1498C7.99999 15.8998 8.35433 16.8208 9.06299 17.9128C9.77166 19.0048 10.7507 20.1421 12 21.3248ZM12 22.6728C10.3427 21.1868 9.09499 19.8164 8.25699 18.5618C7.41899 17.3071 6.99999 16.1698 6.99999 15.1498C6.99999 13.7318 7.48299 12.5191 8.44899 11.5118C9.41499 10.5044 10.5987 10.0004 12 9.99977C13.4013 9.9991 14.585 10.5031 15.551 11.5118C16.517 12.5204 17 13.7331 17 15.1498C17 16.2458 16.565 17.4024 15.695 18.6198C14.825 19.8371 13.5933 21.1888 12 22.6728ZM12.793 15.7918C13.0083 15.5771 13.116 15.3128 13.116 14.9988C13.116 14.6848 13.0083 14.4204 12.793 14.2058C12.5783 13.9904 12.314 13.8828 12 13.8828C11.686 13.8828 11.4217 13.9904 11.207 14.2058C10.9917 14.4204 10.884 14.6848 10.884 14.9988C10.884 15.3128 10.9917 15.5771 11.207 15.7918C11.4217 16.0071 11.686 16.1148 12 16.1148C12.314 16.1148 12.5783 16.0071 12.793 15.7918ZM8.46999 7.14277L7.78199 6.45277C8.37199 5.95277 9.02766 5.56643 9.74899 5.29377C10.4703 5.0211 11.2207 4.88443 12 4.88377C12.7793 4.8831 13.53 5.01977 14.252 5.29377C14.974 5.56777 15.6297 5.95443 16.219 6.45377L15.531 7.14177C15.035 6.7231 14.4827 6.40877 13.874 6.19877C13.2653 5.98877 12.6407 5.8841 12 5.88477C11.3593 5.88543 10.7347 5.9901 10.126 6.19877C9.51733 6.40743 8.96499 6.72177 8.46899 7.14177M5.64999 4.31677L4.95599 3.60977C5.92933 2.72643 7.02166 2.05143 8.23299 1.58477C9.44433 1.1181 10.7 0.884766 12 0.884766C13.3133 0.884766 14.5757 1.1181 15.787 1.58477C16.9983 2.05143 18.0907 2.73277 19.064 3.62877L18.356 4.34177C17.48 3.5431 16.4983 2.9341 15.411 2.51477C14.3243 2.09477 13.1873 1.88477 12 1.88477C10.826 1.88477 9.69299 2.09043 8.60099 2.50177C7.50899 2.9131 6.52533 3.5181 5.64999 4.31677Z" fill="black" fill-opacity="0.2"/>
<path d="M12 21.3248C13.25 20.1414 14.2293 19.0041 14.938 17.9128C15.6467 16.8214 16.0007 15.9004 16 15.1498C16 13.9998 15.6127 13.0208 14.838 12.2128C14.0633 11.4048 13.1173 11.0004 12 10.9998C10.8827 10.9991 9.93666 11.4034 9.16199 12.2128C8.38733 13.0221 7.99999 14.0011 7.99999 15.1498C7.99999 15.8998 8.35433 16.8208 9.06299 17.9128C9.77166 19.0048 10.7507 20.1421 12 21.3248ZM12 22.6728C10.3427 21.1868 9.09499 19.8164 8.25699 18.5618C7.41899 17.3071 6.99999 16.1698 6.99999 15.1498C6.99999 13.7318 7.48299 12.5191 8.44899 11.5118C9.41499 10.5044 10.5987 10.0004 12 9.99977C13.4013 9.9991 14.585 10.5031 15.551 11.5118C16.517 12.5204 17 13.7331 17 15.1498C17 16.2458 16.565 17.4024 15.695 18.6198C14.825 19.8371 13.5933 21.1888 12 22.6728ZM12.793 15.7918C13.0083 15.5771 13.116 15.3128 13.116 14.9988C13.116 14.6848 13.0083 14.4204 12.793 14.2058C12.5783 13.9904 12.314 13.8828 12 13.8828C11.686 13.8828 11.4217 13.9904 11.207 14.2058C10.9917 14.4204 10.884 14.6848 10.884 14.9988C10.884 15.3128 10.9917 15.5771 11.207 15.7918C11.4217 16.0071 11.686 16.1148 12 16.1148C12.314 16.1148 12.5783 16.0071 12.793 15.7918ZM8.46999 7.14277L7.78199 6.45277C8.37199 5.95277 9.02766 5.56643 9.74899 5.29377C10.4703 5.0211 11.2207 4.88443 12 4.88377C12.7793 4.8831 13.53 5.01977 14.252 5.29377C14.974 5.56777 15.6297 5.95443 16.219 6.45377L15.531 7.14177C15.035 6.7231 14.4827 6.40877 13.874 6.19877C13.2653 5.98877 12.6407 5.8841 12 5.88477C11.3593 5.88543 10.7347 5.9901 10.126 6.19877C9.51733 6.40743 8.96499 6.72177 8.46899 7.14177M5.64999 4.31677L4.95599 3.60977C5.92933 2.72643 7.02166 2.05143 8.23299 1.58477C9.44433 1.1181 10.7 0.884766 12 0.884766C13.3133 0.884766 14.5757 1.1181 15.787 1.58477C16.9983 2.05143 18.0907 2.73277 19.064 3.62877L18.356 4.34177C17.48 3.5431 16.4983 2.9341 15.411 2.51477C14.3243 2.09477 13.1873 1.88477 12 1.88477C10.826 1.88477 9.69299 2.09043 8.60099 2.50177C7.50899 2.9131 6.52533 3.5181 5.64999 4.31677Z" fill="black" fill-opacity="0.2"/>
</svg>
