<svg width="24" height="24" viewBox="0 0 24 24" fill="none" xmlns="http://www.w3.org/2000/svg">
<path d="M18.356 4.34179C17.48 3.54312 16.4983 2.93412 15.411 2.51479C14.3243 2.09479 13.1873 1.88479 12 1.88479C10.9653 1.88479 9.96833 2.04446 9.009 2.36379C8.049 2.68246 7.158 3.14646 6.336 3.75579L5.623 3.04179C6.53833 2.34046 7.53667 1.80546 8.618 1.43679C9.69933 1.06812 10.8267 0.883789 12 0.883789C13.3133 0.883789 14.5757 1.11712 15.787 1.58379C16.9983 2.05046 18.0907 2.73179 19.064 3.62779L18.356 4.34179ZM15.531 7.14179C15.035 6.72312 14.4827 6.40879 13.874 6.19879C13.2653 5.98879 12.6407 5.88412 12 5.88479C11.5027 5.88479 11.019 5.94846 10.549 6.07579C10.079 6.20312 9.633 6.38812 9.211 6.63079L8.492 5.91679C9.012 5.58479 9.56967 5.32979 10.165 5.15179C10.761 4.97379 11.3727 4.88479 12 4.88479C12.78 4.88479 13.5307 5.02146 14.252 5.29479C14.9733 5.56746 15.629 5.95379 16.219 6.45379L15.531 7.14179ZM16.904 14.3348L12.633 10.0578H12.673C13.7797 10.1985 14.723 10.6638 15.503 11.4538C16.283 12.2438 16.7497 13.2001 16.903 14.3228L16.904 14.3348ZM15.481 16.8958L10.108 11.5228C9.47733 11.8681 8.96833 12.3608 8.581 13.0008C8.19367 13.6408 8 14.3571 8 15.1498C8 15.8998 8.35433 16.8208 9.063 17.9128C9.77167 19.0048 10.7507 20.1421 12 21.3248C12.8427 20.5288 13.5587 19.7548 14.148 19.0028C14.7373 18.2508 15.1817 17.5485 15.481 16.8958ZM20.508 20.5078L19.8 21.2158L16.264 17.6788C15.866 18.4415 15.306 19.2295 14.584 20.0428C13.8613 20.8561 13 21.7328 12 22.6728C10.3427 21.1868 9.095 19.8165 8.257 18.5618C7.419 17.3071 7 16.1698 7 15.1498C7 14.2278 7.218 13.3835 7.654 12.6168C8.09 11.8501 8.67 11.2475 9.394 10.8088L2.862 4.27779L3.569 3.56979L20.508 20.5078ZM11.207 15.7928C10.9917 15.5781 10.884 15.3138 10.884 14.9998C10.884 14.6858 10.9917 14.4215 11.207 14.2068C11.4217 13.9915 11.686 13.8838 12 13.8838C12.1487 13.8838 12.292 13.9118 12.43 13.9678C12.568 14.0238 12.689 14.1035 12.793 14.2068C12.897 14.3101 12.9767 14.4308 13.032 14.5688C13.0873 14.7068 13.1153 14.8505 13.116 14.9998C13.116 15.3138 13.0083 15.5781 12.793 15.7928C12.5783 16.0081 12.314 16.1158 12 16.1158C11.686 16.1158 11.4217 16.0081 11.207 15.7928Z" fill="#232323"/>
<path d="M18.356 4.34179C17.48 3.54312 16.4983 2.93412 15.411 2.51479C14.3243 2.09479 13.1873 1.88479 12 1.88479C10.9653 1.88479 9.96833 2.04446 9.009 2.36379C8.049 2.68246 7.158 3.14646 6.336 3.75579L5.623 3.04179C6.53833 2.34046 7.53667 1.80546 8.618 1.43679C9.69933 1.06812 10.8267 0.883789 12 0.883789C13.3133 0.883789 14.5757 1.11712 15.787 1.58379C16.9983 2.05046 18.0907 2.73179 19.064 3.62779L18.356 4.34179ZM15.531 7.14179C15.035 6.72312 14.4827 6.40879 13.874 6.19879C13.2653 5.98879 12.6407 5.88412 12 5.88479C11.5027 5.88479 11.019 5.94846 10.549 6.07579C10.079 6.20312 9.633 6.38812 9.211 6.63079L8.492 5.91679C9.012 5.58479 9.56967 5.32979 10.165 5.15179C10.761 4.97379 11.3727 4.88479 12 4.88479C12.78 4.88479 13.5307 5.02146 14.252 5.29479C14.9733 5.56746 15.629 5.95379 16.219 6.45379L15.531 7.14179ZM16.904 14.3348L12.633 10.0578H12.673C13.7797 10.1985 14.723 10.6638 15.503 11.4538C16.283 12.2438 16.7497 13.2001 16.903 14.3228L16.904 14.3348ZM15.481 16.8958L10.108 11.5228C9.47733 11.8681 8.96833 12.3608 8.581 13.0008C8.19367 13.6408 8 14.3571 8 15.1498C8 15.8998 8.35433 16.8208 9.063 17.9128C9.77167 19.0048 10.7507 20.1421 12 21.3248C12.8427 20.5288 13.5587 19.7548 14.148 19.0028C14.7373 18.2508 15.1817 17.5485 15.481 16.8958ZM20.508 20.5078L19.8 21.2158L16.264 17.6788C15.866 18.4415 15.306 19.2295 14.584 20.0428C13.8613 20.8561 13 21.7328 12 22.6728C10.3427 21.1868 9.095 19.8165 8.257 18.5618C7.419 17.3071 7 16.1698 7 15.1498C7 14.2278 7.218 13.3835 7.654 12.6168C8.09 11.8501 8.67 11.2475 9.394 10.8088L2.862 4.27779L3.569 3.56979L20.508 20.5078ZM11.207 15.7928C10.9917 15.5781 10.884 15.3138 10.884 14.9998C10.884 14.6858 10.9917 14.4215 11.207 14.2068C11.4217 13.9915 11.686 13.8838 12 13.8838C12.1487 13.8838 12.292 13.9118 12.43 13.9678C12.568 14.0238 12.689 14.1035 12.793 14.2068C12.897 14.3101 12.9767 14.4308 13.032 14.5688C13.0873 14.7068 13.1153 14.8505 13.116 14.9998C13.116 15.3138 13.0083 15.5781 12.793 15.7928C12.5783 16.0081 12.314 16.1158 12 16.1158C11.686 16.1158 11.4217 16.0081 11.207 15.7928Z" fill="black" fill-opacity="0.2"/>
<path d="M18.356 4.34179C17.48 3.54312 16.4983 2.93412 15.411 2.51479C14.3243 2.09479 13.1873 1.88479 12 1.88479C10.9653 1.88479 9.96833 2.04446 9.009 2.36379C8.049 2.68246 7.158 3.14646 6.336 3.75579L5.623 3.04179C6.53833 2.34046 7.53667 1.80546 8.618 1.43679C9.69933 1.06812 10.8267 0.883789 12 0.883789C13.3133 0.883789 14.5757 1.11712 15.787 1.58379C16.9983 2.05046 18.0907 2.73179 19.064 3.62779L18.356 4.34179ZM15.531 7.14179C15.035 6.72312 14.4827 6.40879 13.874 6.19879C13.2653 5.98879 12.6407 5.88412 12 5.88479C11.5027 5.88479 11.019 5.94846 10.549 6.07579C10.079 6.20312 9.633 6.38812 9.211 6.63079L8.492 5.91679C9.012 5.58479 9.56967 5.32979 10.165 5.15179C10.761 4.97379 11.3727 4.88479 12 4.88479C12.78 4.88479 13.5307 5.02146 14.252 5.29479C14.9733 5.56746 15.629 5.95379 16.219 6.45379L15.531 7.14179ZM16.904 14.3348L12.633 10.0578H12.673C13.7797 10.1985 14.723 10.6638 15.503 11.4538C16.283 12.2438 16.7497 13.2001 16.903 14.3228L16.904 14.3348ZM15.481 16.8958L10.108 11.5228C9.47733 11.8681 8.96833 12.3608 8.581 13.0008C8.19367 13.6408 8 14.3571 8 15.1498C8 15.8998 8.35433 16.8208 9.063 17.9128C9.77167 19.0048 10.7507 20.1421 12 21.3248C12.8427 20.5288 13.5587 19.7548 14.148 19.0028C14.7373 18.2508 15.1817 17.5485 15.481 16.8958ZM20.508 20.5078L19.8 21.2158L16.264 17.6788C15.866 18.4415 15.306 19.2295 14.584 20.0428C13.8613 20.8561 13 21.7328 12 22.6728C10.3427 21.1868 9.095 19.8165 8.257 18.5618C7.419 17.3071 7 16.1698 7 15.1498C7 14.2278 7.218 13.3835 7.654 12.6168C8.09 11.8501 8.67 11.2475 9.394 10.8088L2.862 4.27779L3.569 3.56979L20.508 20.5078ZM11.207 15.7928C10.9917 15.5781 10.884 15.3138 10.884 14.9998C10.884 14.6858 10.9917 14.4215 11.207 14.2068C11.4217 13.9915 11.686 13.8838 12 13.8838C12.1487 13.8838 12.292 13.9118 12.43 13.9678C12.568 14.0238 12.689 14.1035 12.793 14.2068C12.897 14.3101 12.9767 14.4308 13.032 14.5688C13.0873 14.7068 13.1153 14.8505 13.116 14.9998C13.116 15.3138 13.0083 15.5781 12.793 15.7928C12.5783 16.0081 12.314 16.1158 12 16.1158C11.686 16.1158 11.4217 16.0081 11.207 15.7928Z" fill="black" fill-opacity="0.2"/>
</svg>
