<svg width="24" height="24" viewBox="0 0 24 24" fill="none" xmlns="http://www.w3.org/2000/svg">
<path d="M12.025 4.4749C13.7917 4.4749 15.4583 4.85424 17.025 5.6129C18.5917 6.37157 19.9 7.46724 20.95 8.8999C21.0667 9.0499 21.1043 9.18324 21.063 9.2999C21.0217 9.41657 20.9507 9.51657 20.85 9.5999C20.7493 9.68324 20.6327 9.7209 20.5 9.7129C20.3673 9.7049 20.2507 9.6339 20.15 9.4999C19.2333 8.1999 18.0543 7.20424 16.613 6.5129C15.1717 5.82157 13.6423 5.47557 12.025 5.4749C10.4077 5.47424 8.891 5.82024 7.475 6.5129C6.059 7.20557 4.884 8.20124 3.95 9.4999C3.85 9.6499 3.73333 9.73324 3.6 9.7499C3.46666 9.76657 3.35 9.73324 3.25 9.6499C3.13333 9.56657 3.06233 9.46257 3.037 9.3379C3.01166 9.21324 3.04933 9.0839 3.15 8.9499C4.18333 7.53324 5.47933 6.43324 7.038 5.6499C8.59666 4.86657 10.259 4.4749 12.025 4.4749ZM12.025 6.8249C14.275 6.8249 16.2083 7.5749 17.825 9.0749C19.4417 10.5749 20.25 12.4332 20.25 14.6499C20.25 15.4832 19.9543 16.1792 19.363 16.7379C18.7717 17.2966 18.0507 17.5756 17.2 17.5749C16.3493 17.5742 15.6203 17.2952 15.013 16.7379C14.4057 16.1806 14.1013 15.4846 14.1 14.6499C14.1 14.0999 13.896 13.6372 13.488 13.2619C13.08 12.8866 12.5923 12.6992 12.025 12.6999C11.4577 12.7006 10.97 12.8882 10.562 13.2629C10.154 13.6376 9.95 14.0999 9.95 14.6499C9.95 16.2666 10.4293 17.6166 11.388 18.6999C12.3467 19.7832 13.584 20.5416 15.1 20.9749C15.25 21.0249 15.35 21.1082 15.4 21.2249C15.45 21.3416 15.4583 21.4666 15.425 21.5999C15.3917 21.7166 15.325 21.8166 15.225 21.8999C15.125 21.9832 15 22.0082 14.85 21.9749C13.1167 21.5416 11.7 20.6789 10.6 19.3869C9.5 18.0949 8.95 16.5159 8.95 14.6499C8.95 13.8166 9.25 13.1166 9.85 12.5499C10.45 11.9832 11.175 11.6999 12.025 11.6999C12.875 11.6999 13.6 11.9832 14.2 12.5499C14.8 13.1166 15.1 13.8166 15.1 14.6499C15.1 15.1999 15.3083 15.6626 15.725 16.0379C16.1417 16.4132 16.6333 16.6006 17.2 16.5999C17.7667 16.5992 18.25 16.4119 18.65 16.0379C19.05 15.6639 19.25 15.2012 19.25 14.6499C19.25 12.7166 18.5417 11.0916 17.125 9.7749C15.7083 8.45824 14.0167 7.7999 12.05 7.7999C10.0833 7.7999 8.39166 8.45824 6.975 9.7749C5.55833 11.0916 4.85 12.7082 4.85 14.6249C4.85 15.0249 4.88766 15.5249 4.963 16.1249C5.03833 16.7249 5.21733 17.4249 5.5 18.2249C5.55 18.3749 5.546 18.5082 5.488 18.6249C5.43 18.7416 5.334 18.8249 5.2 18.8749C5.066 18.9249 4.937 18.9209 4.813 18.8629C4.689 18.8049 4.60133 18.7089 4.55 18.5749C4.3 17.9249 4.121 17.2792 4.013 16.6379C3.905 15.9966 3.85066 15.3339 3.85 14.6499C3.85 12.4332 4.65433 10.5749 6.263 9.0749C7.87167 7.5749 9.79233 6.8249 12.025 6.8249ZM12.025 2.0249C13.0917 2.0249 14.1333 2.1539 15.15 2.4119C16.1667 2.6699 17.15 3.0409 18.1 3.5249C18.25 3.60824 18.3377 3.70824 18.363 3.8249C18.3883 3.94157 18.3757 4.05824 18.325 4.1749C18.2743 4.29157 18.191 4.38324 18.075 4.4499C17.959 4.51657 17.8173 4.50824 17.65 4.4249C16.7667 3.9749 15.854 3.62924 14.912 3.3879C13.97 3.14657 13.0077 3.02557 12.025 3.0249C11.0583 3.0249 10.1083 3.13757 9.175 3.3629C8.24166 3.58824 7.35 3.94224 6.5 4.4249C6.36666 4.50824 6.23333 4.52924 6.1 4.4879C5.96666 4.44657 5.86666 4.3589 5.8 4.2249C5.73333 4.0909 5.71666 3.97024 5.75 3.8629C5.78333 3.75557 5.86666 3.65957 6 3.5749C6.93333 3.0749 7.90833 2.69157 8.925 2.4249C9.94166 2.15824 10.975 2.0249 12.025 2.0249ZM12.025 9.2499C13.575 9.2499 14.9083 9.7709 16.025 10.8129C17.1417 11.8549 17.7 13.1339 17.7 14.6499C17.7 14.7999 17.6543 14.9209 17.563 15.0129C17.4717 15.1049 17.3507 15.1506 17.2 15.1499C17.0667 15.1499 16.95 15.1042 16.85 15.0129C16.75 14.9216 16.7 14.8006 16.7 14.6499C16.7 13.3999 16.2373 12.3542 15.312 11.5129C14.3867 10.6716 13.291 10.2506 12.025 10.2499C10.759 10.2492 9.67166 10.6702 8.763 11.5129C7.85433 12.3556 7.4 13.4012 7.4 14.6499C7.4 15.9999 7.63333 17.1459 8.1 18.0879C8.56667 19.0299 9.25 19.9756 10.15 20.9249C10.25 21.0249 10.3 21.1416 10.3 21.2749C10.3 21.4082 10.25 21.5249 10.15 21.6249C10.05 21.7249 9.93333 21.7749 9.8 21.7749C9.66667 21.7749 9.55 21.7249 9.45 21.6249C8.46666 20.5916 7.71267 19.5376 7.188 18.4629C6.66333 17.3882 6.40066 16.1172 6.4 14.6499C6.4 13.1332 6.95 11.8539 8.05 10.8119C9.15 9.7699 10.475 9.24924 12.025 9.2499ZM12 14.1499C12.15 14.1499 12.271 14.1999 12.363 14.2999C12.455 14.3999 12.5007 14.5166 12.5 14.6499C12.5 15.8999 12.95 16.9249 13.85 17.7249C14.75 18.5249 15.8 18.9249 17 18.9249C17.1 18.9249 17.2417 18.9166 17.425 18.8999C17.6083 18.8832 17.8 18.8582 18 18.8249C18.15 18.7916 18.2793 18.8126 18.388 18.8879C18.4967 18.9632 18.5673 19.0756 18.6 19.2249C18.6333 19.3582 18.6083 19.4749 18.525 19.5749C18.4417 19.6749 18.3333 19.7416 18.2 19.7749C17.9 19.8582 17.6377 19.9042 17.413 19.9129C17.1883 19.9216 17.0507 19.9256 17 19.9249C15.5167 19.9249 14.229 19.4249 13.137 18.4249C12.045 17.4249 11.4993 16.1666 11.5 14.6499C11.5 14.5166 11.546 14.3999 11.638 14.2999C11.73 14.1999 11.8507 14.1499 12 14.1499Z" fill="#232323"/>
<path d="M12.025 4.4749C13.7917 4.4749 15.4583 4.85424 17.025 5.6129C18.5917 6.37157 19.9 7.46724 20.95 8.8999C21.0667 9.0499 21.1043 9.18324 21.063 9.2999C21.0217 9.41657 20.9507 9.51657 20.85 9.5999C20.7493 9.68324 20.6327 9.7209 20.5 9.7129C20.3673 9.7049 20.2507 9.6339 20.15 9.4999C19.2333 8.1999 18.0543 7.20424 16.613 6.5129C15.1717 5.82157 13.6423 5.47557 12.025 5.4749C10.4077 5.47424 8.891 5.82024 7.475 6.5129C6.059 7.20557 4.884 8.20124 3.95 9.4999C3.85 9.6499 3.73333 9.73324 3.6 9.7499C3.46666 9.76657 3.35 9.73324 3.25 9.6499C3.13333 9.56657 3.06233 9.46257 3.037 9.3379C3.01166 9.21324 3.04933 9.0839 3.15 8.9499C4.18333 7.53324 5.47933 6.43324 7.038 5.6499C8.59666 4.86657 10.259 4.4749 12.025 4.4749ZM12.025 6.8249C14.275 6.8249 16.2083 7.5749 17.825 9.0749C19.4417 10.5749 20.25 12.4332 20.25 14.6499C20.25 15.4832 19.9543 16.1792 19.363 16.7379C18.7717 17.2966 18.0507 17.5756 17.2 17.5749C16.3493 17.5742 15.6203 17.2952 15.013 16.7379C14.4057 16.1806 14.1013 15.4846 14.1 14.6499C14.1 14.0999 13.896 13.6372 13.488 13.2619C13.08 12.8866 12.5923 12.6992 12.025 12.6999C11.4577 12.7006 10.97 12.8882 10.562 13.2629C10.154 13.6376 9.95 14.0999 9.95 14.6499C9.95 16.2666 10.4293 17.6166 11.388 18.6999C12.3467 19.7832 13.584 20.5416 15.1 20.9749C15.25 21.0249 15.35 21.1082 15.4 21.2249C15.45 21.3416 15.4583 21.4666 15.425 21.5999C15.3917 21.7166 15.325 21.8166 15.225 21.8999C15.125 21.9832 15 22.0082 14.85 21.9749C13.1167 21.5416 11.7 20.6789 10.6 19.3869C9.5 18.0949 8.95 16.5159 8.95 14.6499C8.95 13.8166 9.25 13.1166 9.85 12.5499C10.45 11.9832 11.175 11.6999 12.025 11.6999C12.875 11.6999 13.6 11.9832 14.2 12.5499C14.8 13.1166 15.1 13.8166 15.1 14.6499C15.1 15.1999 15.3083 15.6626 15.725 16.0379C16.1417 16.4132 16.6333 16.6006 17.2 16.5999C17.7667 16.5992 18.25 16.4119 18.65 16.0379C19.05 15.6639 19.25 15.2012 19.25 14.6499C19.25 12.7166 18.5417 11.0916 17.125 9.7749C15.7083 8.45824 14.0167 7.7999 12.05 7.7999C10.0833 7.7999 8.39166 8.45824 6.975 9.7749C5.55833 11.0916 4.85 12.7082 4.85 14.6249C4.85 15.0249 4.88766 15.5249 4.963 16.1249C5.03833 16.7249 5.21733 17.4249 5.5 18.2249C5.55 18.3749 5.546 18.5082 5.488 18.6249C5.43 18.7416 5.334 18.8249 5.2 18.8749C5.066 18.9249 4.937 18.9209 4.813 18.8629C4.689 18.8049 4.60133 18.7089 4.55 18.5749C4.3 17.9249 4.121 17.2792 4.013 16.6379C3.905 15.9966 3.85066 15.3339 3.85 14.6499C3.85 12.4332 4.65433 10.5749 6.263 9.0749C7.87167 7.5749 9.79233 6.8249 12.025 6.8249ZM12.025 2.0249C13.0917 2.0249 14.1333 2.1539 15.15 2.4119C16.1667 2.6699 17.15 3.0409 18.1 3.5249C18.25 3.60824 18.3377 3.70824 18.363 3.8249C18.3883 3.94157 18.3757 4.05824 18.325 4.1749C18.2743 4.29157 18.191 4.38324 18.075 4.4499C17.959 4.51657 17.8173 4.50824 17.65 4.4249C16.7667 3.9749 15.854 3.62924 14.912 3.3879C13.97 3.14657 13.0077 3.02557 12.025 3.0249C11.0583 3.0249 10.1083 3.13757 9.175 3.3629C8.24166 3.58824 7.35 3.94224 6.5 4.4249C6.36666 4.50824 6.23333 4.52924 6.1 4.4879C5.96666 4.44657 5.86666 4.3589 5.8 4.2249C5.73333 4.0909 5.71666 3.97024 5.75 3.8629C5.78333 3.75557 5.86666 3.65957 6 3.5749C6.93333 3.0749 7.90833 2.69157 8.925 2.4249C9.94166 2.15824 10.975 2.0249 12.025 2.0249ZM12.025 9.2499C13.575 9.2499 14.9083 9.7709 16.025 10.8129C17.1417 11.8549 17.7 13.1339 17.7 14.6499C17.7 14.7999 17.6543 14.9209 17.563 15.0129C17.4717 15.1049 17.3507 15.1506 17.2 15.1499C17.0667 15.1499 16.95 15.1042 16.85 15.0129C16.75 14.9216 16.7 14.8006 16.7 14.6499C16.7 13.3999 16.2373 12.3542 15.312 11.5129C14.3867 10.6716 13.291 10.2506 12.025 10.2499C10.759 10.2492 9.67166 10.6702 8.763 11.5129C7.85433 12.3556 7.4 13.4012 7.4 14.6499C7.4 15.9999 7.63333 17.1459 8.1 18.0879C8.56667 19.0299 9.25 19.9756 10.15 20.9249C10.25 21.0249 10.3 21.1416 10.3 21.2749C10.3 21.4082 10.25 21.5249 10.15 21.6249C10.05 21.7249 9.93333 21.7749 9.8 21.7749C9.66667 21.7749 9.55 21.7249 9.45 21.6249C8.46666 20.5916 7.71267 19.5376 7.188 18.4629C6.66333 17.3882 6.40066 16.1172 6.4 14.6499C6.4 13.1332 6.95 11.8539 8.05 10.8119C9.15 9.7699 10.475 9.24924 12.025 9.2499ZM12 14.1499C12.15 14.1499 12.271 14.1999 12.363 14.2999C12.455 14.3999 12.5007 14.5166 12.5 14.6499C12.5 15.8999 12.95 16.9249 13.85 17.7249C14.75 18.5249 15.8 18.9249 17 18.9249C17.1 18.9249 17.2417 18.9166 17.425 18.8999C17.6083 18.8832 17.8 18.8582 18 18.8249C18.15 18.7916 18.2793 18.8126 18.388 18.8879C18.4967 18.9632 18.5673 19.0756 18.6 19.2249C18.6333 19.3582 18.6083 19.4749 18.525 19.5749C18.4417 19.6749 18.3333 19.7416 18.2 19.7749C17.9 19.8582 17.6377 19.9042 17.413 19.9129C17.1883 19.9216 17.0507 19.9256 17 19.9249C15.5167 19.9249 14.229 19.4249 13.137 18.4249C12.045 17.4249 11.4993 16.1666 11.5 14.6499C11.5 14.5166 11.546 14.3999 11.638 14.2999C11.73 14.1999 11.8507 14.1499 12 14.1499Z" fill="black" fill-opacity="0.2"/>
<path d="M12.025 4.4749C13.7917 4.4749 15.4583 4.85424 17.025 5.6129C18.5917 6.37157 19.9 7.46724 20.95 8.8999C21.0667 9.0499 21.1043 9.18324 21.063 9.2999C21.0217 9.41657 20.9507 9.51657 20.85 9.5999C20.7493 9.68324 20.6327 9.7209 20.5 9.7129C20.3673 9.7049 20.2507 9.6339 20.15 9.4999C19.2333 8.1999 18.0543 7.20424 16.613 6.5129C15.1717 5.82157 13.6423 5.47557 12.025 5.4749C10.4077 5.47424 8.891 5.82024 7.475 6.5129C6.059 7.20557 4.884 8.20124 3.95 9.4999C3.85 9.6499 3.73333 9.73324 3.6 9.7499C3.46666 9.76657 3.35 9.73324 3.25 9.6499C3.13333 9.56657 3.06233 9.46257 3.037 9.3379C3.01166 9.21324 3.04933 9.0839 3.15 8.9499C4.18333 7.53324 5.47933 6.43324 7.038 5.6499C8.59666 4.86657 10.259 4.4749 12.025 4.4749ZM12.025 6.8249C14.275 6.8249 16.2083 7.5749 17.825 9.0749C19.4417 10.5749 20.25 12.4332 20.25 14.6499C20.25 15.4832 19.9543 16.1792 19.363 16.7379C18.7717 17.2966 18.0507 17.5756 17.2 17.5749C16.3493 17.5742 15.6203 17.2952 15.013 16.7379C14.4057 16.1806 14.1013 15.4846 14.1 14.6499C14.1 14.0999 13.896 13.6372 13.488 13.2619C13.08 12.8866 12.5923 12.6992 12.025 12.6999C11.4577 12.7006 10.97 12.8882 10.562 13.2629C10.154 13.6376 9.95 14.0999 9.95 14.6499C9.95 16.2666 10.4293 17.6166 11.388 18.6999C12.3467 19.7832 13.584 20.5416 15.1 20.9749C15.25 21.0249 15.35 21.1082 15.4 21.2249C15.45 21.3416 15.4583 21.4666 15.425 21.5999C15.3917 21.7166 15.325 21.8166 15.225 21.8999C15.125 21.9832 15 22.0082 14.85 21.9749C13.1167 21.5416 11.7 20.6789 10.6 19.3869C9.5 18.0949 8.95 16.5159 8.95 14.6499C8.95 13.8166 9.25 13.1166 9.85 12.5499C10.45 11.9832 11.175 11.6999 12.025 11.6999C12.875 11.6999 13.6 11.9832 14.2 12.5499C14.8 13.1166 15.1 13.8166 15.1 14.6499C15.1 15.1999 15.3083 15.6626 15.725 16.0379C16.1417 16.4132 16.6333 16.6006 17.2 16.5999C17.7667 16.5992 18.25 16.4119 18.65 16.0379C19.05 15.6639 19.25 15.2012 19.25 14.6499C19.25 12.7166 18.5417 11.0916 17.125 9.7749C15.7083 8.45824 14.0167 7.7999 12.05 7.7999C10.0833 7.7999 8.39166 8.45824 6.975 9.7749C5.55833 11.0916 4.85 12.7082 4.85 14.6249C4.85 15.0249 4.88766 15.5249 4.963 16.1249C5.03833 16.7249 5.21733 17.4249 5.5 18.2249C5.55 18.3749 5.546 18.5082 5.488 18.6249C5.43 18.7416 5.334 18.8249 5.2 18.8749C5.066 18.9249 4.937 18.9209 4.813 18.8629C4.689 18.8049 4.60133 18.7089 4.55 18.5749C4.3 17.9249 4.121 17.2792 4.013 16.6379C3.905 15.9966 3.85066 15.3339 3.85 14.6499C3.85 12.4332 4.65433 10.5749 6.263 9.0749C7.87167 7.5749 9.79233 6.8249 12.025 6.8249ZM12.025 2.0249C13.0917 2.0249 14.1333 2.1539 15.15 2.4119C16.1667 2.6699 17.15 3.0409 18.1 3.5249C18.25 3.60824 18.3377 3.70824 18.363 3.8249C18.3883 3.94157 18.3757 4.05824 18.325 4.1749C18.2743 4.29157 18.191 4.38324 18.075 4.4499C17.959 4.51657 17.8173 4.50824 17.65 4.4249C16.7667 3.9749 15.854 3.62924 14.912 3.3879C13.97 3.14657 13.0077 3.02557 12.025 3.0249C11.0583 3.0249 10.1083 3.13757 9.175 3.3629C8.24166 3.58824 7.35 3.94224 6.5 4.4249C6.36666 4.50824 6.23333 4.52924 6.1 4.4879C5.96666 4.44657 5.86666 4.3589 5.8 4.2249C5.73333 4.0909 5.71666 3.97024 5.75 3.8629C5.78333 3.75557 5.86666 3.65957 6 3.5749C6.93333 3.0749 7.90833 2.69157 8.925 2.4249C9.94166 2.15824 10.975 2.0249 12.025 2.0249ZM12.025 9.2499C13.575 9.2499 14.9083 9.7709 16.025 10.8129C17.1417 11.8549 17.7 13.1339 17.7 14.6499C17.7 14.7999 17.6543 14.9209 17.563 15.0129C17.4717 15.1049 17.3507 15.1506 17.2 15.1499C17.0667 15.1499 16.95 15.1042 16.85 15.0129C16.75 14.9216 16.7 14.8006 16.7 14.6499C16.7 13.3999 16.2373 12.3542 15.312 11.5129C14.3867 10.6716 13.291 10.2506 12.025 10.2499C10.759 10.2492 9.67166 10.6702 8.763 11.5129C7.85433 12.3556 7.4 13.4012 7.4 14.6499C7.4 15.9999 7.63333 17.1459 8.1 18.0879C8.56667 19.0299 9.25 19.9756 10.15 20.9249C10.25 21.0249 10.3 21.1416 10.3 21.2749C10.3 21.4082 10.25 21.5249 10.15 21.6249C10.05 21.7249 9.93333 21.7749 9.8 21.7749C9.66667 21.7749 9.55 21.7249 9.45 21.6249C8.46666 20.5916 7.71267 19.5376 7.188 18.4629C6.66333 17.3882 6.40066 16.1172 6.4 14.6499C6.4 13.1332 6.95 11.8539 8.05 10.8119C9.15 9.7699 10.475 9.24924 12.025 9.2499ZM12 14.1499C12.15 14.1499 12.271 14.1999 12.363 14.2999C12.455 14.3999 12.5007 14.5166 12.5 14.6499C12.5 15.8999 12.95 16.9249 13.85 17.7249C14.75 18.5249 15.8 18.9249 17 18.9249C17.1 18.9249 17.2417 18.9166 17.425 18.8999C17.6083 18.8832 17.8 18.8582 18 18.8249C18.15 18.7916 18.2793 18.8126 18.388 18.8879C18.4967 18.9632 18.5673 19.0756 18.6 19.2249C18.6333 19.3582 18.6083 19.4749 18.525 19.5749C18.4417 19.6749 18.3333 19.7416 18.2 19.7749C17.9 19.8582 17.6377 19.9042 17.413 19.9129C17.1883 19.9216 17.0507 19.9256 17 19.9249C15.5167 19.9249 14.229 19.4249 13.137 18.4249C12.045 17.4249 11.4993 16.1666 11.5 14.6499C11.5 14.5166 11.546 14.3999 11.638 14.2999C11.73 14.1999 11.8507 14.1499 12 14.1499Z" fill="black" fill-opacity="0.2"/>
</svg>
