<svg width="24" height="24" viewBox="0 0 24 24" fill="none" xmlns="http://www.w3.org/2000/svg">
<path d="M5.00001 18.77V17.77H6.61601V9.845C6.61601 9.46167 6.65768 9.07633 6.74101 8.689C6.82501 8.301 6.95101 7.931 7.11901 7.579L7.88901 8.349C7.79768 8.591 7.72935 8.83667 7.68401 9.086C7.63868 9.33533 7.61601 9.58867 7.61601 9.846V17.768H15.969L2.67001 4.546L3.37801 3.839L20.663 21.123L19.955 21.831L16.882 18.769L5.00001 18.77ZM17.385 14.958L16.385 13.958V9.846C16.385 8.63067 15.958 7.596 15.104 6.742C14.25 5.888 13.2153 5.46133 12 5.462C11.4453 5.462 10.912 5.55733 10.4 5.748C9.88668 5.93933 9.43135 6.226 9.03401 6.608L8.31501 5.888C8.68701 5.54467 9.10001 5.257 9.55401 5.025C10.008 4.793 10.49 4.63333 11 4.546V4C11 3.722 11.097 3.486 11.291 3.292C11.485 3.09733 11.7207 3 11.998 3C12.2753 3 12.5117 3.09733 12.707 3.292C12.9023 3.48667 13 3.72267 13 4V4.546C14.282 4.764 15.3333 5.372 16.154 6.37C16.9747 7.368 17.3847 8.52667 17.384 9.846L17.385 14.958ZM11.996 21.385C11.5513 21.385 11.1713 21.2267 10.856 20.91C10.542 20.594 10.385 20.214 10.385 19.77H13.615C13.615 20.2167 13.4567 20.5977 13.14 20.913C12.8227 21.2277 12.4407 21.385 11.996 21.385Z" fill="#232323"/>
<path d="M5.00001 18.77V17.77H6.61601V9.845C6.61601 9.46167 6.65768 9.07633 6.74101 8.689C6.82501 8.301 6.95101 7.931 7.11901 7.579L7.88901 8.349C7.79768 8.591 7.72935 8.83667 7.68401 9.086C7.63868 9.33533 7.61601 9.58867 7.61601 9.846V17.768H15.969L2.67001 4.546L3.37801 3.839L20.663 21.123L19.955 21.831L16.882 18.769L5.00001 18.77ZM17.385 14.958L16.385 13.958V9.846C16.385 8.63067 15.958 7.596 15.104 6.742C14.25 5.888 13.2153 5.46133 12 5.462C11.4453 5.462 10.912 5.55733 10.4 5.748C9.88668 5.93933 9.43135 6.226 9.03401 6.608L8.31501 5.888C8.68701 5.54467 9.10001 5.257 9.55401 5.025C10.008 4.793 10.49 4.63333 11 4.546V4C11 3.722 11.097 3.486 11.291 3.292C11.485 3.09733 11.7207 3 11.998 3C12.2753 3 12.5117 3.09733 12.707 3.292C12.9023 3.48667 13 3.72267 13 4V4.546C14.282 4.764 15.3333 5.372 16.154 6.37C16.9747 7.368 17.3847 8.52667 17.384 9.846L17.385 14.958ZM11.996 21.385C11.5513 21.385 11.1713 21.2267 10.856 20.91C10.542 20.594 10.385 20.214 10.385 19.77H13.615C13.615 20.2167 13.4567 20.5977 13.14 20.913C12.8227 21.2277 12.4407 21.385 11.996 21.385Z" fill="black" fill-opacity="0.2"/>
<path d="M5.00001 18.77V17.77H6.61601V9.845C6.61601 9.46167 6.65768 9.07633 6.74101 8.689C6.82501 8.301 6.95101 7.931 7.11901 7.579L7.88901 8.349C7.79768 8.591 7.72935 8.83667 7.68401 9.086C7.63868 9.33533 7.61601 9.58867 7.61601 9.846V17.768H15.969L2.67001 4.546L3.37801 3.839L20.663 21.123L19.955 21.831L16.882 18.769L5.00001 18.77ZM17.385 14.958L16.385 13.958V9.846C16.385 8.63067 15.958 7.596 15.104 6.742C14.25 5.888 13.2153 5.46133 12 5.462C11.4453 5.462 10.912 5.55733 10.4 5.748C9.88668 5.93933 9.43135 6.226 9.03401 6.608L8.31501 5.888C8.68701 5.54467 9.10001 5.257 9.55401 5.025C10.008 4.793 10.49 4.63333 11 4.546V4C11 3.722 11.097 3.486 11.291 3.292C11.485 3.09733 11.7207 3 11.998 3C12.2753 3 12.5117 3.09733 12.707 3.292C12.9023 3.48667 13 3.72267 13 4V4.546C14.282 4.764 15.3333 5.372 16.154 6.37C16.9747 7.368 17.3847 8.52667 17.384 9.846L17.385 14.958ZM11.996 21.385C11.5513 21.385 11.1713 21.2267 10.856 20.91C10.542 20.594 10.385 20.214 10.385 19.77H13.615C13.615 20.2167 13.4567 20.5977 13.14 20.913C12.8227 21.2277 12.4407 21.385 11.996 21.385Z" fill="black" fill-opacity="0.2"/>
</svg>
