<svg width="24" height="24" viewBox="0 0 24 24" fill="none" xmlns="http://www.w3.org/2000/svg">
<path d="M2 9V6C2 5.45 2.196 4.97933 2.588 4.588C2.98 4.19667 3.45067 4.00067 4 4H20C20.55 4 21.021 4.196 21.413 4.588C21.805 4.98 22.0007 5.45067 22 6V9H20V6H4V9H2ZM4 20C3.45 20 2.97933 19.8043 2.588 19.413C2.19667 19.0217 2.00067 18.5507 2 18V15H4V18H20V15H22V18C22 18.55 21.8043 19.021 21.413 19.413C21.0217 19.805 20.5507 20.0007 20 20H4ZM10.525 16.863C10.6917 16.771 10.8167 16.6333 10.9 16.45L14 10.25L15.1 12.45C15.1833 12.6333 15.3083 12.771 15.475 12.863C15.6417 12.955 15.8167 13.0007 16 13H22V11H16.625L14.9 7.55C14.8167 7.36667 14.6917 7.23767 14.525 7.163C14.3583 7.08833 14.1833 7.05067 14 7.05C13.8167 7.04933 13.6417 7.087 13.475 7.163C13.3083 7.239 13.1833 7.368 13.1 7.55L10 13.75L8.9 11.55C8.81667 11.3667 8.69167 11.229 8.525 11.137C8.35833 11.045 8.18333 10.9993 8 11H2V13H7.375L9.1 16.45C9.18333 16.6333 9.30833 16.771 9.475 16.863C9.64167 16.955 9.81667 17.0007 10 17C10.1833 16.9993 10.3583 16.9537 10.525 16.863Z" fill="black"/>
</svg>
