<svg width="24" height="24" viewBox="0 0 24 24" fill="none" xmlns="http://www.w3.org/2000/svg">
<path d="M11.238 21.8751C10.996 21.7751 10.775 21.6334 10.575 21.4501L2.55001 13.4251C2.36667 13.2251 2.22501 13.0041 2.12501 12.7621C2.02501 12.5201 1.97501 12.2661 1.97501 12.0001C1.97501 11.7341 2.02501 11.4758 2.12501 11.2251C2.22501 10.9744 2.36667 10.7578 2.55001 10.5751L10.575 2.5501C10.775 2.3501 10.996 2.2041 11.238 2.1121C11.48 2.0201 11.734 1.97444 12 1.9751C12.266 1.97577 12.5243 2.02177 12.775 2.1131C13.0257 2.20444 13.2423 2.3501 13.425 2.5501L21.45 10.5751C21.65 10.7584 21.796 10.9751 21.888 11.2251C21.98 11.4751 22.0257 11.7334 22.025 12.0001C22.0243 12.2668 21.9787 12.5211 21.888 12.7631C21.7973 13.0051 21.6513 13.2258 21.45 13.4251L13.425 21.4501C13.2417 21.6334 13.025 21.7751 12.775 21.8751C12.525 21.9751 12.2667 22.0251 12 22.0251C11.7333 22.0251 11.48 21.9751 11.238 21.8751ZM12 20.0251L20.025 12.0001L12 3.9751L3.97501 12.0001L12 20.0251ZM11 13.0001H13V7.0001H11V13.0001ZM12.713 15.7131C12.9043 15.5211 13 15.2834 13 15.0001C13 14.7168 12.904 14.4794 12.712 14.2881C12.52 14.0968 12.2827 14.0008 12 14.0001C11.7173 13.9994 11.48 14.0954 11.288 14.2881C11.096 14.4808 11 14.7181 11 15.0001C11 15.2821 11.096 15.5198 11.288 15.7131C11.48 15.9064 11.7173 16.0021 12 16.0001C12.2827 15.9981 12.5203 15.9021 12.713 15.7121" fill="#232323"/>
<path d="M11.238 21.8751C10.996 21.7751 10.775 21.6334 10.575 21.4501L2.55001 13.4251C2.36667 13.2251 2.22501 13.0041 2.12501 12.7621C2.02501 12.5201 1.97501 12.2661 1.97501 12.0001C1.97501 11.7341 2.02501 11.4758 2.12501 11.2251C2.22501 10.9744 2.36667 10.7578 2.55001 10.5751L10.575 2.5501C10.775 2.3501 10.996 2.2041 11.238 2.1121C11.48 2.0201 11.734 1.97444 12 1.9751C12.266 1.97577 12.5243 2.02177 12.775 2.1131C13.0257 2.20444 13.2423 2.3501 13.425 2.5501L21.45 10.5751C21.65 10.7584 21.796 10.9751 21.888 11.2251C21.98 11.4751 22.0257 11.7334 22.025 12.0001C22.0243 12.2668 21.9787 12.5211 21.888 12.7631C21.7973 13.0051 21.6513 13.2258 21.45 13.4251L13.425 21.4501C13.2417 21.6334 13.025 21.7751 12.775 21.8751C12.525 21.9751 12.2667 22.0251 12 22.0251C11.7333 22.0251 11.48 21.9751 11.238 21.8751ZM12 20.0251L20.025 12.0001L12 3.9751L3.97501 12.0001L12 20.0251ZM11 13.0001H13V7.0001H11V13.0001ZM12.713 15.7131C12.9043 15.5211 13 15.2834 13 15.0001C13 14.7168 12.904 14.4794 12.712 14.2881C12.52 14.0968 12.2827 14.0008 12 14.0001C11.7173 13.9994 11.48 14.0954 11.288 14.2881C11.096 14.4808 11 14.7181 11 15.0001C11 15.2821 11.096 15.5198 11.288 15.7131C11.48 15.9064 11.7173 16.0021 12 16.0001C12.2827 15.9981 12.5203 15.9021 12.713 15.7121" fill="black" fill-opacity="0.2"/>
<path d="M11.238 21.8751C10.996 21.7751 10.775 21.6334 10.575 21.4501L2.55001 13.4251C2.36667 13.2251 2.22501 13.0041 2.12501 12.7621C2.02501 12.5201 1.97501 12.2661 1.97501 12.0001C1.97501 11.7341 2.02501 11.4758 2.12501 11.2251C2.22501 10.9744 2.36667 10.7578 2.55001 10.5751L10.575 2.5501C10.775 2.3501 10.996 2.2041 11.238 2.1121C11.48 2.0201 11.734 1.97444 12 1.9751C12.266 1.97577 12.5243 2.02177 12.775 2.1131C13.0257 2.20444 13.2423 2.3501 13.425 2.5501L21.45 10.5751C21.65 10.7584 21.796 10.9751 21.888 11.2251C21.98 11.4751 22.0257 11.7334 22.025 12.0001C22.0243 12.2668 21.9787 12.5211 21.888 12.7631C21.7973 13.0051 21.6513 13.2258 21.45 13.4251L13.425 21.4501C13.2417 21.6334 13.025 21.7751 12.775 21.8751C12.525 21.9751 12.2667 22.0251 12 22.0251C11.7333 22.0251 11.48 21.9751 11.238 21.8751ZM12 20.0251L20.025 12.0001L12 3.9751L3.97501 12.0001L12 20.0251ZM11 13.0001H13V7.0001H11V13.0001ZM12.713 15.7131C12.9043 15.5211 13 15.2834 13 15.0001C13 14.7168 12.904 14.4794 12.712 14.2881C12.52 14.0968 12.2827 14.0008 12 14.0001C11.7173 13.9994 11.48 14.0954 11.288 14.2881C11.096 14.4808 11 14.7181 11 15.0001C11 15.2821 11.096 15.5198 11.288 15.7131C11.48 15.9064 11.7173 16.0021 12 16.0001C12.2827 15.9981 12.5203 15.9021 12.713 15.7121" fill="black" fill-opacity="0.2"/>
</svg>
