<svg width="24" height="24" viewBox="0 0 24 24" fill="none" xmlns="http://www.w3.org/2000/svg">
<path d="M18.356 4.34179C17.48 3.54312 16.4983 2.93412 15.411 2.51479C14.3243 2.09479 13.1873 1.88479 12 1.88479C10.9653 1.88479 9.96833 2.04446 9.009 2.36379C8.049 2.68246 7.158 3.14646 6.336 3.75579L5.623 3.04179C6.53833 2.34046 7.53667 1.80546 8.618 1.43679C9.69933 1.06812 10.8267 0.883789 12 0.883789C13.3133 0.883789 14.5757 1.11712 15.787 1.58379C16.9983 2.05046 18.0907 2.73179 19.064 3.62779L18.356 4.34179ZM15.531 7.14179C15.035 6.72312 14.4827 6.40879 13.874 6.19879C13.2653 5.98879 12.6407 5.88412 12 5.88479C11.5027 5.88479 11.019 5.94846 10.549 6.07579C10.079 6.20312 9.633 6.38812 9.211 6.63079L8.492 5.91679C9.012 5.58479 9.56967 5.32979 10.165 5.15179C10.761 4.97379 11.3727 4.88479 12 4.88479C12.78 4.88479 13.5307 5.02146 14.252 5.29479C14.9733 5.56746 15.629 5.95379 16.219 6.45379L15.531 7.14179ZM16.904 14.3348L12.633 10.0578H12.673C13.7797 10.1985 14.723 10.6638 15.503 11.4538C16.283 12.2438 16.7497 13.2001 16.903 14.3228L16.904 14.3348ZM20.508 20.5078L19.8 21.2158L16.264 17.6788C15.866 18.4415 15.306 19.2295 14.584 20.0428C13.8613 20.8561 13 21.7328 12 22.6728C10.3427 21.1868 9.095 19.8165 8.257 18.5618C7.419 17.3071 7 16.1698 7 15.1498C7 14.1651 7.243 13.2751 7.729 12.4798C8.215 11.6838 8.85167 11.0731 9.639 10.6478H10.648L16.096 16.0958L14.7 16.1158L2.862 4.27679L3.569 3.56879L20.508 20.5078ZM12.793 15.7928C13.0083 15.5781 13.116 15.3138 13.116 14.9998C13.116 14.8511 13.088 14.7078 13.032 14.5698C12.976 14.4318 12.8963 14.3108 12.793 14.2068C12.6897 14.1028 12.569 14.0231 12.431 13.9678C12.293 13.9125 12.1493 13.8845 12 13.8838C11.686 13.8838 11.4217 13.9915 11.207 14.2068C10.9917 14.4215 10.884 14.6858 10.884 14.9998C10.884 15.3138 10.9917 15.5781 11.207 15.7928C11.4217 16.0081 11.686 16.1158 12 16.1158C12.314 16.1158 12.5783 16.0081 12.793 15.7928Z" fill="#232323"/>
<path d="M18.356 4.34179C17.48 3.54312 16.4983 2.93412 15.411 2.51479C14.3243 2.09479 13.1873 1.88479 12 1.88479C10.9653 1.88479 9.96833 2.04446 9.009 2.36379C8.049 2.68246 7.158 3.14646 6.336 3.75579L5.623 3.04179C6.53833 2.34046 7.53667 1.80546 8.618 1.43679C9.69933 1.06812 10.8267 0.883789 12 0.883789C13.3133 0.883789 14.5757 1.11712 15.787 1.58379C16.9983 2.05046 18.0907 2.73179 19.064 3.62779L18.356 4.34179ZM15.531 7.14179C15.035 6.72312 14.4827 6.40879 13.874 6.19879C13.2653 5.98879 12.6407 5.88412 12 5.88479C11.5027 5.88479 11.019 5.94846 10.549 6.07579C10.079 6.20312 9.633 6.38812 9.211 6.63079L8.492 5.91679C9.012 5.58479 9.56967 5.32979 10.165 5.15179C10.761 4.97379 11.3727 4.88479 12 4.88479C12.78 4.88479 13.5307 5.02146 14.252 5.29479C14.9733 5.56746 15.629 5.95379 16.219 6.45379L15.531 7.14179ZM16.904 14.3348L12.633 10.0578H12.673C13.7797 10.1985 14.723 10.6638 15.503 11.4538C16.283 12.2438 16.7497 13.2001 16.903 14.3228L16.904 14.3348ZM20.508 20.5078L19.8 21.2158L16.264 17.6788C15.866 18.4415 15.306 19.2295 14.584 20.0428C13.8613 20.8561 13 21.7328 12 22.6728C10.3427 21.1868 9.095 19.8165 8.257 18.5618C7.419 17.3071 7 16.1698 7 15.1498C7 14.1651 7.243 13.2751 7.729 12.4798C8.215 11.6838 8.85167 11.0731 9.639 10.6478H10.648L16.096 16.0958L14.7 16.1158L2.862 4.27679L3.569 3.56879L20.508 20.5078ZM12.793 15.7928C13.0083 15.5781 13.116 15.3138 13.116 14.9998C13.116 14.8511 13.088 14.7078 13.032 14.5698C12.976 14.4318 12.8963 14.3108 12.793 14.2068C12.6897 14.1028 12.569 14.0231 12.431 13.9678C12.293 13.9125 12.1493 13.8845 12 13.8838C11.686 13.8838 11.4217 13.9915 11.207 14.2068C10.9917 14.4215 10.884 14.6858 10.884 14.9998C10.884 15.3138 10.9917 15.5781 11.207 15.7928C11.4217 16.0081 11.686 16.1158 12 16.1158C12.314 16.1158 12.5783 16.0081 12.793 15.7928Z" fill="black" fill-opacity="0.2"/>
<path d="M18.356 4.34179C17.48 3.54312 16.4983 2.93412 15.411 2.51479C14.3243 2.09479 13.1873 1.88479 12 1.88479C10.9653 1.88479 9.96833 2.04446 9.009 2.36379C8.049 2.68246 7.158 3.14646 6.336 3.75579L5.623 3.04179C6.53833 2.34046 7.53667 1.80546 8.618 1.43679C9.69933 1.06812 10.8267 0.883789 12 0.883789C13.3133 0.883789 14.5757 1.11712 15.787 1.58379C16.9983 2.05046 18.0907 2.73179 19.064 3.62779L18.356 4.34179ZM15.531 7.14179C15.035 6.72312 14.4827 6.40879 13.874 6.19879C13.2653 5.98879 12.6407 5.88412 12 5.88479C11.5027 5.88479 11.019 5.94846 10.549 6.07579C10.079 6.20312 9.633 6.38812 9.211 6.63079L8.492 5.91679C9.012 5.58479 9.56967 5.32979 10.165 5.15179C10.761 4.97379 11.3727 4.88479 12 4.88479C12.78 4.88479 13.5307 5.02146 14.252 5.29479C14.9733 5.56746 15.629 5.95379 16.219 6.45379L15.531 7.14179ZM16.904 14.3348L12.633 10.0578H12.673C13.7797 10.1985 14.723 10.6638 15.503 11.4538C16.283 12.2438 16.7497 13.2001 16.903 14.3228L16.904 14.3348ZM20.508 20.5078L19.8 21.2158L16.264 17.6788C15.866 18.4415 15.306 19.2295 14.584 20.0428C13.8613 20.8561 13 21.7328 12 22.6728C10.3427 21.1868 9.095 19.8165 8.257 18.5618C7.419 17.3071 7 16.1698 7 15.1498C7 14.1651 7.243 13.2751 7.729 12.4798C8.215 11.6838 8.85167 11.0731 9.639 10.6478H10.648L16.096 16.0958L14.7 16.1158L2.862 4.27679L3.569 3.56879L20.508 20.5078ZM12.793 15.7928C13.0083 15.5781 13.116 15.3138 13.116 14.9998C13.116 14.8511 13.088 14.7078 13.032 14.5698C12.976 14.4318 12.8963 14.3108 12.793 14.2068C12.6897 14.1028 12.569 14.0231 12.431 13.9678C12.293 13.9125 12.1493 13.8845 12 13.8838C11.686 13.8838 11.4217 13.9915 11.207 14.2068C10.9917 14.4215 10.884 14.6858 10.884 14.9998C10.884 15.3138 10.9917 15.5781 11.207 15.7928C11.4217 16.0081 11.686 16.1158 12 16.1158C12.314 16.1158 12.5783 16.0081 12.793 15.7928Z" fill="black" fill-opacity="0.2"/>
</svg>
