<svg width="24" height="24" viewBox="0 0 24 24" fill="none" xmlns="http://www.w3.org/2000/svg">
<path d="M8.75 11.17C8.75 11.9233 9.125 12.645 9.875 13.335C10.625 14.0243 11.2443 14.601 11.733 15.065C11.8197 15.1357 11.9097 15.171 12.003 15.171C12.0963 15.171 12.1847 15.137 12.268 15.069C12.7687 14.619 13.3907 14.043 14.134 13.341C14.8773 12.639 15.2493 11.915 15.25 11.169C15.25 10.6843 15.0733 10.267 14.72 9.91699C14.366 9.56699 13.944 9.39199 13.454 9.39199C13.1553 9.39199 12.8777 9.44932 12.621 9.56399C12.3643 9.67866 12.1573 9.83666 12 10.038C11.8387 9.83599 11.63 9.67799 11.374 9.56399C11.1187 9.44932 10.8427 9.39199 10.546 9.39199C10.0613 9.39199 9.641 9.56699 9.285 9.91699C8.92833 10.267 8.75 10.6843 8.75 11.169M11.714 20.817C11.614 20.8003 11.52 20.7753 11.432 20.742C9.46467 19.992 7.901 18.72 6.741 16.926C5.58033 15.132 5 13.19 5 11.1V6.81699C5 6.47432 5.09767 6.16565 5.293 5.89099C5.48767 5.61632 5.74 5.41732 6.05 5.29399L11.435 3.29399C11.6297 3.22332 11.818 3.18799 12 3.18799C12.182 3.18799 12.3707 3.22332 12.566 3.29399L17.95 5.29399C18.2593 5.41799 18.5117 5.61699 18.707 5.89099C18.9023 6.16565 19 6.47432 19 6.81699V11.1C19 13.19 18.42 15.132 17.26 16.926C16.1 18.72 14.536 19.992 12.568 20.742C12.4807 20.7753 12.387 20.8003 12.287 20.817C12.187 20.8337 12.0913 20.842 12 20.842C11.9087 20.842 11.814 20.8337 11.714 20.817Z" fill="#232323"/>
<path d="M8.75 11.17C8.75 11.9233 9.125 12.645 9.875 13.335C10.625 14.0243 11.2443 14.601 11.733 15.065C11.8197 15.1357 11.9097 15.171 12.003 15.171C12.0963 15.171 12.1847 15.137 12.268 15.069C12.7687 14.619 13.3907 14.043 14.134 13.341C14.8773 12.639 15.2493 11.915 15.25 11.169C15.25 10.6843 15.0733 10.267 14.72 9.91699C14.366 9.56699 13.944 9.39199 13.454 9.39199C13.1553 9.39199 12.8777 9.44932 12.621 9.56399C12.3643 9.67866 12.1573 9.83666 12 10.038C11.8387 9.83599 11.63 9.67799 11.374 9.56399C11.1187 9.44932 10.8427 9.39199 10.546 9.39199C10.0613 9.39199 9.641 9.56699 9.285 9.91699C8.92833 10.267 8.75 10.6843 8.75 11.169M11.714 20.817C11.614 20.8003 11.52 20.7753 11.432 20.742C9.46467 19.992 7.901 18.72 6.741 16.926C5.58033 15.132 5 13.19 5 11.1V6.81699C5 6.47432 5.09767 6.16565 5.293 5.89099C5.48767 5.61632 5.74 5.41732 6.05 5.29399L11.435 3.29399C11.6297 3.22332 11.818 3.18799 12 3.18799C12.182 3.18799 12.3707 3.22332 12.566 3.29399L17.95 5.29399C18.2593 5.41799 18.5117 5.61699 18.707 5.89099C18.9023 6.16565 19 6.47432 19 6.81699V11.1C19 13.19 18.42 15.132 17.26 16.926C16.1 18.72 14.536 19.992 12.568 20.742C12.4807 20.7753 12.387 20.8003 12.287 20.817C12.187 20.8337 12.0913 20.842 12 20.842C11.9087 20.842 11.814 20.8337 11.714 20.817Z" fill="black" fill-opacity="0.2"/>
<path d="M8.75 11.17C8.75 11.9233 9.125 12.645 9.875 13.335C10.625 14.0243 11.2443 14.601 11.733 15.065C11.8197 15.1357 11.9097 15.171 12.003 15.171C12.0963 15.171 12.1847 15.137 12.268 15.069C12.7687 14.619 13.3907 14.043 14.134 13.341C14.8773 12.639 15.2493 11.915 15.25 11.169C15.25 10.6843 15.0733 10.267 14.72 9.91699C14.366 9.56699 13.944 9.39199 13.454 9.39199C13.1553 9.39199 12.8777 9.44932 12.621 9.56399C12.3643 9.67866 12.1573 9.83666 12 10.038C11.8387 9.83599 11.63 9.67799 11.374 9.56399C11.1187 9.44932 10.8427 9.39199 10.546 9.39199C10.0613 9.39199 9.641 9.56699 9.285 9.91699C8.92833 10.267 8.75 10.6843 8.75 11.169M11.714 20.817C11.614 20.8003 11.52 20.7753 11.432 20.742C9.46467 19.992 7.901 18.72 6.741 16.926C5.58033 15.132 5 13.19 5 11.1V6.81699C5 6.47432 5.09767 6.16565 5.293 5.89099C5.48767 5.61632 5.74 5.41732 6.05 5.29399L11.435 3.29399C11.6297 3.22332 11.818 3.18799 12 3.18799C12.182 3.18799 12.3707 3.22332 12.566 3.29399L17.95 5.29399C18.2593 5.41799 18.5117 5.61699 18.707 5.89099C18.9023 6.16565 19 6.47432 19 6.81699V11.1C19 13.19 18.42 15.132 17.26 16.926C16.1 18.72 14.536 19.992 12.568 20.742C12.4807 20.7753 12.387 20.8003 12.287 20.817C12.187 20.8337 12.0913 20.842 12 20.842C11.9087 20.842 11.814 20.8337 11.714 20.817Z" fill="black" fill-opacity="0.2"/>
</svg>
