<svg width="24" height="24" viewBox="0 0 24 24" fill="none" xmlns="http://www.w3.org/2000/svg">
<g clip-path="url(#clip0_19_296)">
<path d="M10.4362 12.2664V12.2626C10.6631 12.1741 10.8127 11.9788 10.8127 11.6098C10.8127 11.0844 10.4711 10.8463 9.94875 10.8463C9.699 10.8463 9.47287 10.8538 9.23025 10.8808V13.4255H9.726V12.4198H9.98325C10.0485 12.4198 10.0639 12.4543 10.083 12.527L10.3181 13.4251H10.836L10.5247 12.3849C10.5094 12.3204 10.4902 12.2818 10.4362 12.2664ZM10.0024 12.0241H9.726V11.249C9.807 11.2415 9.8875 11.2376 9.9675 11.2374C10.2637 11.2374 10.3249 11.414 10.3249 11.6401C10.3249 11.909 10.2292 12.0241 10.0024 12.0241ZM13.8472 12.305H14.5204V11.894H13.8472V11.2801H14.5935V10.8654H13.3526V13.4255H14.6239V13.022H13.8472V12.305ZM3.93225 12.305H4.60462V11.894H3.93225V11.2801H4.67737V10.8654H3.43687V13.4255H4.7085V13.022H3.93262L3.93225 12.305ZM8.04675 12.305H8.71987V11.894H8.04675V11.2801H8.79262V10.8654H7.55175V13.4255H8.823V13.022H8.04675V12.305ZM6.08362 11.8363L5.58037 10.8654H5.11575V13.4255H5.59987V11.7714L6.084 12.7423L6.564 11.7676H6.57937V13.4255H7.044V10.8654H6.57937L6.08362 11.8363ZM12.1271 12.4156H12.4759V12.5075C12.4759 12.773 12.4376 13.0723 12.1076 13.0723C11.6775 13.0723 11.6662 12.4621 11.6662 12.1475C11.6662 11.8359 11.6974 11.2453 12.1234 11.2453C12.3229 11.2453 12.4189 11.3563 12.5299 11.4943L12.8029 11.1294C12.6064 10.9344 12.4031 10.8223 12.1305 10.8223C11.4049 10.8223 11.1469 11.5134 11.1469 12.1501C11.1469 12.7801 11.3816 13.4671 12.0922 13.4671C12.7867 13.4671 12.9255 12.8641 12.9255 12.3076V12.0088H12.1267L12.1271 12.4156ZM19.6646 13.4255H20.1566V12.4468L20.8057 10.865H20.3021L19.9144 12.0316L19.5262 10.865H18.996L19.665 12.4734L19.6646 13.4255ZM15.0315 13.4255H15.5156V11.8445H15.5272L16.3492 13.4255H16.7831V10.8654H16.3031V12.3811H16.296L15.5119 10.865H15.0319L15.0315 13.4255Z" fill="#232323"/>
<path d="M10.4362 12.2664V12.2626C10.6631 12.1741 10.8127 11.9788 10.8127 11.6098C10.8127 11.0844 10.4711 10.8463 9.94875 10.8463C9.699 10.8463 9.47287 10.8538 9.23025 10.8808V13.4255H9.726V12.4198H9.98325C10.0485 12.4198 10.0639 12.4543 10.083 12.527L10.3181 13.4251H10.836L10.5247 12.3849C10.5094 12.3204 10.4902 12.2818 10.4362 12.2664ZM10.0024 12.0241H9.726V11.249C9.807 11.2415 9.8875 11.2376 9.9675 11.2374C10.2637 11.2374 10.3249 11.414 10.3249 11.6401C10.3249 11.909 10.2292 12.0241 10.0024 12.0241ZM13.8472 12.305H14.5204V11.894H13.8472V11.2801H14.5935V10.8654H13.3526V13.4255H14.6239V13.022H13.8472V12.305ZM3.93225 12.305H4.60462V11.894H3.93225V11.2801H4.67737V10.8654H3.43687V13.4255H4.7085V13.022H3.93262L3.93225 12.305ZM8.04675 12.305H8.71987V11.894H8.04675V11.2801H8.79262V10.8654H7.55175V13.4255H8.823V13.022H8.04675V12.305ZM6.08362 11.8363L5.58037 10.8654H5.11575V13.4255H5.59987V11.7714L6.084 12.7423L6.564 11.7676H6.57937V13.4255H7.044V10.8654H6.57937L6.08362 11.8363ZM12.1271 12.4156H12.4759V12.5075C12.4759 12.773 12.4376 13.0723 12.1076 13.0723C11.6775 13.0723 11.6662 12.4621 11.6662 12.1475C11.6662 11.8359 11.6974 11.2453 12.1234 11.2453C12.3229 11.2453 12.4189 11.3563 12.5299 11.4943L12.8029 11.1294C12.6064 10.9344 12.4031 10.8223 12.1305 10.8223C11.4049 10.8223 11.1469 11.5134 11.1469 12.1501C11.1469 12.7801 11.3816 13.4671 12.0922 13.4671C12.7867 13.4671 12.9255 12.8641 12.9255 12.3076V12.0088H12.1267L12.1271 12.4156ZM19.6646 13.4255H20.1566V12.4468L20.8057 10.865H20.3021L19.9144 12.0316L19.5262 10.865H18.996L19.665 12.4734L19.6646 13.4255ZM15.0315 13.4255H15.5156V11.8445H15.5272L16.3492 13.4255H16.7831V10.8654H16.3031V12.3811H16.296L15.5119 10.865H15.0319L15.0315 13.4255Z" fill="black" fill-opacity="0.2"/>
<path d="M10.4362 12.2664V12.2626C10.6631 12.1741 10.8127 11.9788 10.8127 11.6098C10.8127 11.0844 10.4711 10.8463 9.94875 10.8463C9.699 10.8463 9.47287 10.8538 9.23025 10.8808V13.4255H9.726V12.4198H9.98325C10.0485 12.4198 10.0639 12.4543 10.083 12.527L10.3181 13.4251H10.836L10.5247 12.3849C10.5094 12.3204 10.4902 12.2818 10.4362 12.2664ZM10.0024 12.0241H9.726V11.249C9.807 11.2415 9.8875 11.2376 9.9675 11.2374C10.2637 11.2374 10.3249 11.414 10.3249 11.6401C10.3249 11.909 10.2292 12.0241 10.0024 12.0241ZM13.8472 12.305H14.5204V11.894H13.8472V11.2801H14.5935V10.8654H13.3526V13.4255H14.6239V13.022H13.8472V12.305ZM3.93225 12.305H4.60462V11.894H3.93225V11.2801H4.67737V10.8654H3.43687V13.4255H4.7085V13.022H3.93262L3.93225 12.305ZM8.04675 12.305H8.71987V11.894H8.04675V11.2801H8.79262V10.8654H7.55175V13.4255H8.823V13.022H8.04675V12.305ZM6.08362 11.8363L5.58037 10.8654H5.11575V13.4255H5.59987V11.7714L6.084 12.7423L6.564 11.7676H6.57937V13.4255H7.044V10.8654H6.57937L6.08362 11.8363ZM12.1271 12.4156H12.4759V12.5075C12.4759 12.773 12.4376 13.0723 12.1076 13.0723C11.6775 13.0723 11.6662 12.4621 11.6662 12.1475C11.6662 11.8359 11.6974 11.2453 12.1234 11.2453C12.3229 11.2453 12.4189 11.3563 12.5299 11.4943L12.8029 11.1294C12.6064 10.9344 12.4031 10.8223 12.1305 10.8223C11.4049 10.8223 11.1469 11.5134 11.1469 12.1501C11.1469 12.7801 11.3816 13.4671 12.0922 13.4671C12.7867 13.4671 12.9255 12.8641 12.9255 12.3076V12.0088H12.1267L12.1271 12.4156ZM19.6646 13.4255H20.1566V12.4468L20.8057 10.865H20.3021L19.9144 12.0316L19.5262 10.865H18.996L19.665 12.4734L19.6646 13.4255ZM15.0315 13.4255H15.5156V11.8445H15.5272L16.3492 13.4255H16.7831V10.8654H16.3031V12.3811H16.296L15.5119 10.865H15.0319L15.0315 13.4255Z" fill="black" fill-opacity="0.2"/>
<path d="M20.8699 0.30957H3.11175C1.587 0.30957 0.159378 1.7402 0.159378 3.26457V21.0178C0.159378 22.5429 1.59263 23.9807 3.11813 23.9807H20.8706C22.3954 23.9807 23.8313 22.5504 23.8313 21.0257V3.26682C23.8313 1.74245 22.3954 0.309945 20.8699 0.309945V0.30957ZM21.474 15.3036H15.1553V21.6159H8.83688V15.3036H2.51625V8.9867H8.83688V2.67432H15.1553V8.9867H21.474V15.3036Z" fill="#232323"/>
<path d="M20.8699 0.30957H3.11175C1.587 0.30957 0.159378 1.7402 0.159378 3.26457V21.0178C0.159378 22.5429 1.59263 23.9807 3.11813 23.9807H20.8706C22.3954 23.9807 23.8313 22.5504 23.8313 21.0257V3.26682C23.8313 1.74245 22.3954 0.309945 20.8699 0.309945V0.30957ZM21.474 15.3036H15.1553V21.6159H8.83688V15.3036H2.51625V8.9867H8.83688V2.67432H15.1553V8.9867H21.474V15.3036Z" fill="black" fill-opacity="0.2"/>
<path d="M20.8699 0.30957H3.11175C1.587 0.30957 0.159378 1.7402 0.159378 3.26457V21.0178C0.159378 22.5429 1.59263 23.9807 3.11813 23.9807H20.8706C22.3954 23.9807 23.8313 22.5504 23.8313 21.0257V3.26682C23.8313 1.74245 22.3954 0.309945 20.8699 0.309945V0.30957ZM21.474 15.3036H15.1553V21.6159H8.83688V15.3036H2.51625V8.9867H8.83688V2.67432H15.1553V8.9867H21.474V15.3036Z" fill="black" fill-opacity="0.2"/>
<path d="M18.174 13.4675C18.4886 13.4679 18.7346 13.3216 18.9041 13.1143L18.6506 12.7531C18.5239 12.9219 18.4095 13.0486 18.201 13.0486C17.8016 13.0486 17.7319 12.4925 17.7319 12.1471C17.7319 11.6863 17.8395 11.2449 18.1897 11.2449C18.3784 11.2449 18.4822 11.3713 18.5929 11.5408L18.8891 11.1909C18.6922 10.9573 18.4965 10.8223 18.1972 10.8223C17.4866 10.8223 17.2136 11.4901 17.2136 12.1471C17.2136 12.842 17.4671 13.4675 18.174 13.4675Z" fill="#232323"/>
<path d="M18.174 13.4675C18.4886 13.4679 18.7346 13.3216 18.9041 13.1143L18.6506 12.7531C18.5239 12.9219 18.4095 13.0486 18.201 13.0486C17.8016 13.0486 17.7319 12.4925 17.7319 12.1471C17.7319 11.6863 17.8395 11.2449 18.1897 11.2449C18.3784 11.2449 18.4822 11.3713 18.5929 11.5408L18.8891 11.1909C18.6922 10.9573 18.4965 10.8223 18.1972 10.8223C17.4866 10.8223 17.2136 11.4901 17.2136 12.1471C17.2136 12.842 17.4671 13.4675 18.174 13.4675Z" fill="black" fill-opacity="0.2"/>
<path d="M18.174 13.4675C18.4886 13.4679 18.7346 13.3216 18.9041 13.1143L18.6506 12.7531C18.5239 12.9219 18.4095 13.0486 18.201 13.0486C17.8016 13.0486 17.7319 12.4925 17.7319 12.1471C17.7319 11.6863 17.8395 11.2449 18.1897 11.2449C18.3784 11.2449 18.4822 11.3713 18.5929 11.5408L18.8891 11.1909C18.6922 10.9573 18.4965 10.8223 18.1972 10.8223C17.4866 10.8223 17.2136 11.4901 17.2136 12.1471C17.2136 12.842 17.4671 13.4675 18.174 13.4675Z" fill="black" fill-opacity="0.2"/>
</g>
<defs>
<clipPath id="clip0_19_296">
<rect width="24" height="24" fill="white"/>
</clipPath>
</defs>
</svg>
