<svg width="24" height="24" viewBox="0 0 24 24" fill="none" xmlns="http://www.w3.org/2000/svg">
<path d="M14 10.0002L11 13.0002M20.288 3.03122C20.3829 2.99847 20.4851 2.99309 20.5829 3.01567C20.6807 3.03825 20.7702 3.0879 20.8411 3.15893C20.912 3.22996 20.9615 3.31952 20.984 3.41736C21.0064 3.5152 21.0009 3.61738 20.968 3.71222L15.044 20.6422C15.0085 20.7434 14.9435 20.8316 14.8573 20.8954C14.7711 20.9592 14.6677 20.9956 14.5606 20.9999C14.4534 21.0042 14.3475 20.9763 14.2564 20.9196C14.1654 20.863 14.0935 20.7802 14.05 20.6822L10.831 13.4402C10.7768 13.3198 10.6804 13.2234 10.56 13.1692L3.31799 9.94922C3.22028 9.9056 3.1379 9.83368 3.08149 9.74275C3.02508 9.65183 2.99723 9.54608 3.00153 9.43917C3.00584 9.33225 3.04211 9.22909 3.10565 9.14299C3.16919 9.0569 3.25709 8.99184 3.35798 8.95622L20.288 3.03122Z" stroke="#232323" stroke-width="1.5" stroke-linecap="round" stroke-linejoin="round"/>
<path d="M14 10.0002L11 13.0002M20.288 3.03122C20.3829 2.99847 20.4851 2.99309 20.5829 3.01567C20.6807 3.03825 20.7702 3.0879 20.8411 3.15893C20.912 3.22996 20.9615 3.31952 20.984 3.41736C21.0064 3.5152 21.0009 3.61738 20.968 3.71222L15.044 20.6422C15.0085 20.7434 14.9435 20.8316 14.8573 20.8954C14.7711 20.9592 14.6677 20.9956 14.5606 20.9999C14.4534 21.0042 14.3475 20.9763 14.2564 20.9196C14.1654 20.863 14.0935 20.7802 14.05 20.6822L10.831 13.4402C10.7768 13.3198 10.6804 13.2234 10.56 13.1692L3.31799 9.94922C3.22028 9.9056 3.1379 9.83368 3.08149 9.74275C3.02508 9.65183 2.99723 9.54608 3.00153 9.43917C3.00584 9.33225 3.04211 9.22909 3.10565 9.14299C3.16919 9.0569 3.25709 8.99184 3.35798 8.95622L20.288 3.03122Z" stroke="black" stroke-opacity="0.2" stroke-width="1.5" stroke-linecap="round" stroke-linejoin="round"/>
<path d="M14 10.0002L11 13.0002M20.288 3.03122C20.3829 2.99847 20.4851 2.99309 20.5829 3.01567C20.6807 3.03825 20.7702 3.0879 20.8411 3.15893C20.912 3.22996 20.9615 3.31952 20.984 3.41736C21.0064 3.5152 21.0009 3.61738 20.968 3.71222L15.044 20.6422C15.0085 20.7434 14.9435 20.8316 14.8573 20.8954C14.7711 20.9592 14.6677 20.9956 14.5606 20.9999C14.4534 21.0042 14.3475 20.9763 14.2564 20.9196C14.1654 20.863 14.0935 20.7802 14.05 20.6822L10.831 13.4402C10.7768 13.3198 10.6804 13.2234 10.56 13.1692L3.31799 9.94922C3.22028 9.9056 3.1379 9.83368 3.08149 9.74275C3.02508 9.65183 2.99723 9.54608 3.00153 9.43917C3.00584 9.33225 3.04211 9.22909 3.10565 9.14299C3.16919 9.0569 3.25709 8.99184 3.35798 8.95622L20.288 3.03122Z" stroke="black" stroke-opacity="0.2" stroke-width="1.5" stroke-linecap="round" stroke-linejoin="round"/>
</svg>
