<svg width="24" height="24" viewBox="0 0 24 24" fill="none" xmlns="http://www.w3.org/2000/svg">
<path d="M9.367 2.25H9.4C9.59891 2.25 9.78968 2.32902 9.93033 2.46967C10.071 2.61032 10.15 2.80109 10.15 3C10.15 3.19891 10.071 3.38968 9.93033 3.53033C9.78968 3.67098 9.59891 3.75 9.4 3.75C8.268 3.75 7.463 3.75 6.834 3.802C6.214 3.852 5.829 3.949 5.524 4.104C4.91263 4.41556 4.41556 4.91263 4.104 5.524C3.949 5.829 3.853 6.214 3.802 6.834C3.751 7.464 3.75 8.268 3.75 9.4C3.75 9.59891 3.67098 9.78968 3.53033 9.93033C3.38968 10.071 3.19891 10.15 3 10.15C2.80109 10.15 2.61032 10.071 2.46967 9.93033C2.32902 9.78968 2.25 9.59891 2.25 9.4V9.367C2.25 8.275 2.25 7.409 2.307 6.712C2.365 5.998 2.487 5.395 2.767 4.844C3.22267 3.94999 3.94977 3.22324 4.844 2.768C5.394 2.487 5.998 2.365 6.712 2.307C7.409 2.25 8.275 2.25 9.367 2.25ZM17.167 3.802C16.537 3.751 15.732 3.75 14.6 3.75C14.4011 3.75 14.2103 3.67098 14.0697 3.53033C13.929 3.38968 13.85 3.19891 13.85 3C13.85 2.80109 13.929 2.61032 14.0697 2.46967C14.2103 2.32902 14.4011 2.25 14.6 2.25H14.633C15.725 2.25 16.591 2.25 17.288 2.307C18.002 2.365 18.605 2.487 19.157 2.767C20.0506 3.22284 20.777 3.94992 21.232 4.844C21.513 5.394 21.635 5.998 21.693 6.712C21.75 7.409 21.75 8.275 21.75 9.367V9.4C21.75 9.59891 21.671 9.78968 21.5303 9.93033C21.3897 10.071 21.1989 10.15 21 10.15C20.8011 10.15 20.6103 10.071 20.4697 9.93033C20.329 9.78968 20.25 9.59891 20.25 9.4C20.25 8.268 20.25 7.463 20.198 6.834C20.148 6.214 20.051 5.829 19.896 5.524C19.5844 4.91263 19.0874 4.41556 18.476 4.104C18.171 3.949 17.787 3.853 17.167 3.802ZM8 7.25C8.19891 7.25 8.38968 7.32902 8.53033 7.46967C8.67098 7.61032 8.75 7.80109 8.75 8V9.5C8.75 9.69891 8.67098 9.88968 8.53033 10.0303C8.38968 10.171 8.19891 10.25 8 10.25C7.80109 10.25 7.61032 10.171 7.46967 10.0303C7.32902 9.88968 7.25 9.69891 7.25 9.5V8C7.25 7.80109 7.32902 7.61032 7.46967 7.46967C7.61032 7.32902 7.80109 7.25 8 7.25ZM16 7.25C16.1989 7.25 16.3897 7.32902 16.5303 7.46967C16.671 7.61032 16.75 7.80109 16.75 8V9.5C16.75 9.69891 16.671 9.88968 16.5303 10.0303C16.3897 10.171 16.1989 10.25 16 10.25C15.8011 10.25 15.6103 10.171 15.4697 10.0303C15.329 9.88968 15.25 9.69891 15.25 9.5V8C15.25 7.80109 15.329 7.61032 15.4697 7.46967C15.6103 7.32902 15.8011 7.25 16 7.25ZM12 9C12.1989 9 12.3897 9.07902 12.5303 9.21967C12.671 9.36032 12.75 9.55109 12.75 9.75V13.75C12.75 13.9489 12.671 14.1397 12.5303 14.2803C12.3897 14.421 12.1989 14.5 12 14.5H11C10.8011 14.5 10.6103 14.421 10.4697 14.2803C10.329 14.1397 10.25 13.9489 10.25 13.75C10.25 13.5511 10.329 13.3603 10.4697 13.2197C10.6103 13.079 10.8011 13 11 13H11.25V9.75C11.25 9.55109 11.329 9.36032 11.4697 9.21967C11.6103 9.07902 11.8011 9 12 9ZM3 13.85C3.19891 13.85 3.38968 13.929 3.53033 14.0697C3.67098 14.2103 3.75 14.4011 3.75 14.6C3.75 15.733 3.75 16.537 3.802 17.166C3.852 17.786 3.949 18.171 4.104 18.476C4.41556 19.0874 4.91263 19.5844 5.524 19.896C5.829 20.051 6.214 20.147 6.834 20.198C7.464 20.249 8.268 20.25 9.4 20.25C9.59891 20.25 9.78968 20.329 9.93033 20.4697C10.071 20.6103 10.15 20.8011 10.15 21C10.15 21.1989 10.071 21.3897 9.93033 21.5303C9.78968 21.671 9.59891 21.75 9.4 21.75H9.367C8.275 21.75 7.409 21.75 6.712 21.693C5.998 21.635 5.395 21.513 4.844 21.233C3.95014 20.7776 3.22341 20.0509 2.768 19.157C2.487 18.605 2.365 18.002 2.307 17.288C2.25 16.591 2.25 15.725 2.25 14.633V14.6C2.25 14.4011 2.32902 14.2103 2.46967 14.0697C2.61032 13.929 2.80109 13.85 3 13.85ZM21 13.85C21.1989 13.85 21.3897 13.929 21.5303 14.0697C21.671 14.2103 21.75 14.4011 21.75 14.6V14.633C21.75 15.725 21.75 16.591 21.693 17.288C21.635 18.002 21.513 18.605 21.233 19.157C20.7774 20.0505 20.0507 20.7768 19.157 21.232C18.605 21.513 18.002 21.635 17.288 21.693C16.591 21.75 15.725 21.75 14.633 21.75H14.6C14.4011 21.75 14.2103 21.671 14.0697 21.5303C13.929 21.3897 13.85 21.1989 13.85 21C13.85 20.8011 13.929 20.6103 14.0697 20.4697C14.2103 20.329 14.4011 20.25 14.6 20.25C15.733 20.25 16.537 20.25 17.166 20.198C17.786 20.148 18.171 20.051 18.476 19.896C19.0874 19.5844 19.5844 19.0874 19.896 18.476C20.051 18.171 20.147 17.786 20.198 17.166C20.249 16.536 20.25 15.732 20.25 14.6C20.25 14.4011 20.329 14.2103 20.4697 14.0697C20.6103 13.929 20.8011 13.85 21 13.85ZM8.47 15.97C8.61063 15.8295 8.80125 15.7507 9 15.7507C9.19875 15.7507 9.38937 15.8295 9.53 15.97C10.108 16.547 11.024 16.875 12 16.875C12.976 16.875 13.892 16.547 14.47 15.97C14.5387 15.8963 14.6215 15.8372 14.7135 15.7962C14.8055 15.7552 14.9048 15.7332 15.0055 15.7314C15.1062 15.7296 15.2062 15.7482 15.2996 15.7859C15.393 15.8236 15.4778 15.8797 15.549 15.951C15.6203 16.0222 15.6764 16.107 15.7141 16.2004C15.7518 16.2938 15.7704 16.3938 15.7686 16.4945C15.7668 16.5952 15.7448 16.6945 15.7038 16.7865C15.6628 16.8785 15.6037 16.9613 15.53 17.03C14.608 17.953 13.274 18.375 12 18.375C10.726 18.375 9.392 17.953 8.47 17.03C8.32955 16.8894 8.25066 16.6988 8.25066 16.5C8.25066 16.3012 8.32955 16.1106 8.47 15.97Z" fill="#232323"/>
<path d="M9.367 2.25H9.4C9.59891 2.25 9.78968 2.32902 9.93033 2.46967C10.071 2.61032 10.15 2.80109 10.15 3C10.15 3.19891 10.071 3.38968 9.93033 3.53033C9.78968 3.67098 9.59891 3.75 9.4 3.75C8.268 3.75 7.463 3.75 6.834 3.802C6.214 3.852 5.829 3.949 5.524 4.104C4.91263 4.41556 4.41556 4.91263 4.104 5.524C3.949 5.829 3.853 6.214 3.802 6.834C3.751 7.464 3.75 8.268 3.75 9.4C3.75 9.59891 3.67098 9.78968 3.53033 9.93033C3.38968 10.071 3.19891 10.15 3 10.15C2.80109 10.15 2.61032 10.071 2.46967 9.93033C2.32902 9.78968 2.25 9.59891 2.25 9.4V9.367C2.25 8.275 2.25 7.409 2.307 6.712C2.365 5.998 2.487 5.395 2.767 4.844C3.22267 3.94999 3.94977 3.22324 4.844 2.768C5.394 2.487 5.998 2.365 6.712 2.307C7.409 2.25 8.275 2.25 9.367 2.25ZM17.167 3.802C16.537 3.751 15.732 3.75 14.6 3.75C14.4011 3.75 14.2103 3.67098 14.0697 3.53033C13.929 3.38968 13.85 3.19891 13.85 3C13.85 2.80109 13.929 2.61032 14.0697 2.46967C14.2103 2.32902 14.4011 2.25 14.6 2.25H14.633C15.725 2.25 16.591 2.25 17.288 2.307C18.002 2.365 18.605 2.487 19.157 2.767C20.0506 3.22284 20.777 3.94992 21.232 4.844C21.513 5.394 21.635 5.998 21.693 6.712C21.75 7.409 21.75 8.275 21.75 9.367V9.4C21.75 9.59891 21.671 9.78968 21.5303 9.93033C21.3897 10.071 21.1989 10.15 21 10.15C20.8011 10.15 20.6103 10.071 20.4697 9.93033C20.329 9.78968 20.25 9.59891 20.25 9.4C20.25 8.268 20.25 7.463 20.198 6.834C20.148 6.214 20.051 5.829 19.896 5.524C19.5844 4.91263 19.0874 4.41556 18.476 4.104C18.171 3.949 17.787 3.853 17.167 3.802ZM8 7.25C8.19891 7.25 8.38968 7.32902 8.53033 7.46967C8.67098 7.61032 8.75 7.80109 8.75 8V9.5C8.75 9.69891 8.67098 9.88968 8.53033 10.0303C8.38968 10.171 8.19891 10.25 8 10.25C7.80109 10.25 7.61032 10.171 7.46967 10.0303C7.32902 9.88968 7.25 9.69891 7.25 9.5V8C7.25 7.80109 7.32902 7.61032 7.46967 7.46967C7.61032 7.32902 7.80109 7.25 8 7.25ZM16 7.25C16.1989 7.25 16.3897 7.32902 16.5303 7.46967C16.671 7.61032 16.75 7.80109 16.75 8V9.5C16.75 9.69891 16.671 9.88968 16.5303 10.0303C16.3897 10.171 16.1989 10.25 16 10.25C15.8011 10.25 15.6103 10.171 15.4697 10.0303C15.329 9.88968 15.25 9.69891 15.25 9.5V8C15.25 7.80109 15.329 7.61032 15.4697 7.46967C15.6103 7.32902 15.8011 7.25 16 7.25ZM12 9C12.1989 9 12.3897 9.07902 12.5303 9.21967C12.671 9.36032 12.75 9.55109 12.75 9.75V13.75C12.75 13.9489 12.671 14.1397 12.5303 14.2803C12.3897 14.421 12.1989 14.5 12 14.5H11C10.8011 14.5 10.6103 14.421 10.4697 14.2803C10.329 14.1397 10.25 13.9489 10.25 13.75C10.25 13.5511 10.329 13.3603 10.4697 13.2197C10.6103 13.079 10.8011 13 11 13H11.25V9.75C11.25 9.55109 11.329 9.36032 11.4697 9.21967C11.6103 9.07902 11.8011 9 12 9ZM3 13.85C3.19891 13.85 3.38968 13.929 3.53033 14.0697C3.67098 14.2103 3.75 14.4011 3.75 14.6C3.75 15.733 3.75 16.537 3.802 17.166C3.852 17.786 3.949 18.171 4.104 18.476C4.41556 19.0874 4.91263 19.5844 5.524 19.896C5.829 20.051 6.214 20.147 6.834 20.198C7.464 20.249 8.268 20.25 9.4 20.25C9.59891 20.25 9.78968 20.329 9.93033 20.4697C10.071 20.6103 10.15 20.8011 10.15 21C10.15 21.1989 10.071 21.3897 9.93033 21.5303C9.78968 21.671 9.59891 21.75 9.4 21.75H9.367C8.275 21.75 7.409 21.75 6.712 21.693C5.998 21.635 5.395 21.513 4.844 21.233C3.95014 20.7776 3.22341 20.0509 2.768 19.157C2.487 18.605 2.365 18.002 2.307 17.288C2.25 16.591 2.25 15.725 2.25 14.633V14.6C2.25 14.4011 2.32902 14.2103 2.46967 14.0697C2.61032 13.929 2.80109 13.85 3 13.85ZM21 13.85C21.1989 13.85 21.3897 13.929 21.5303 14.0697C21.671 14.2103 21.75 14.4011 21.75 14.6V14.633C21.75 15.725 21.75 16.591 21.693 17.288C21.635 18.002 21.513 18.605 21.233 19.157C20.7774 20.0505 20.0507 20.7768 19.157 21.232C18.605 21.513 18.002 21.635 17.288 21.693C16.591 21.75 15.725 21.75 14.633 21.75H14.6C14.4011 21.75 14.2103 21.671 14.0697 21.5303C13.929 21.3897 13.85 21.1989 13.85 21C13.85 20.8011 13.929 20.6103 14.0697 20.4697C14.2103 20.329 14.4011 20.25 14.6 20.25C15.733 20.25 16.537 20.25 17.166 20.198C17.786 20.148 18.171 20.051 18.476 19.896C19.0874 19.5844 19.5844 19.0874 19.896 18.476C20.051 18.171 20.147 17.786 20.198 17.166C20.249 16.536 20.25 15.732 20.25 14.6C20.25 14.4011 20.329 14.2103 20.4697 14.0697C20.6103 13.929 20.8011 13.85 21 13.85ZM8.47 15.97C8.61063 15.8295 8.80125 15.7507 9 15.7507C9.19875 15.7507 9.38937 15.8295 9.53 15.97C10.108 16.547 11.024 16.875 12 16.875C12.976 16.875 13.892 16.547 14.47 15.97C14.5387 15.8963 14.6215 15.8372 14.7135 15.7962C14.8055 15.7552 14.9048 15.7332 15.0055 15.7314C15.1062 15.7296 15.2062 15.7482 15.2996 15.7859C15.393 15.8236 15.4778 15.8797 15.549 15.951C15.6203 16.0222 15.6764 16.107 15.7141 16.2004C15.7518 16.2938 15.7704 16.3938 15.7686 16.4945C15.7668 16.5952 15.7448 16.6945 15.7038 16.7865C15.6628 16.8785 15.6037 16.9613 15.53 17.03C14.608 17.953 13.274 18.375 12 18.375C10.726 18.375 9.392 17.953 8.47 17.03C8.32955 16.8894 8.25066 16.6988 8.25066 16.5C8.25066 16.3012 8.32955 16.1106 8.47 15.97Z" fill="black" fill-opacity="0.2"/>
<path d="M9.367 2.25H9.4C9.59891 2.25 9.78968 2.32902 9.93033 2.46967C10.071 2.61032 10.15 2.80109 10.15 3C10.15 3.19891 10.071 3.38968 9.93033 3.53033C9.78968 3.67098 9.59891 3.75 9.4 3.75C8.268 3.75 7.463 3.75 6.834 3.802C6.214 3.852 5.829 3.949 5.524 4.104C4.91263 4.41556 4.41556 4.91263 4.104 5.524C3.949 5.829 3.853 6.214 3.802 6.834C3.751 7.464 3.75 8.268 3.75 9.4C3.75 9.59891 3.67098 9.78968 3.53033 9.93033C3.38968 10.071 3.19891 10.15 3 10.15C2.80109 10.15 2.61032 10.071 2.46967 9.93033C2.32902 9.78968 2.25 9.59891 2.25 9.4V9.367C2.25 8.275 2.25 7.409 2.307 6.712C2.365 5.998 2.487 5.395 2.767 4.844C3.22267 3.94999 3.94977 3.22324 4.844 2.768C5.394 2.487 5.998 2.365 6.712 2.307C7.409 2.25 8.275 2.25 9.367 2.25ZM17.167 3.802C16.537 3.751 15.732 3.75 14.6 3.75C14.4011 3.75 14.2103 3.67098 14.0697 3.53033C13.929 3.38968 13.85 3.19891 13.85 3C13.85 2.80109 13.929 2.61032 14.0697 2.46967C14.2103 2.32902 14.4011 2.25 14.6 2.25H14.633C15.725 2.25 16.591 2.25 17.288 2.307C18.002 2.365 18.605 2.487 19.157 2.767C20.0506 3.22284 20.777 3.94992 21.232 4.844C21.513 5.394 21.635 5.998 21.693 6.712C21.75 7.409 21.75 8.275 21.75 9.367V9.4C21.75 9.59891 21.671 9.78968 21.5303 9.93033C21.3897 10.071 21.1989 10.15 21 10.15C20.8011 10.15 20.6103 10.071 20.4697 9.93033C20.329 9.78968 20.25 9.59891 20.25 9.4C20.25 8.268 20.25 7.463 20.198 6.834C20.148 6.214 20.051 5.829 19.896 5.524C19.5844 4.91263 19.0874 4.41556 18.476 4.104C18.171 3.949 17.787 3.853 17.167 3.802ZM8 7.25C8.19891 7.25 8.38968 7.32902 8.53033 7.46967C8.67098 7.61032 8.75 7.80109 8.75 8V9.5C8.75 9.69891 8.67098 9.88968 8.53033 10.0303C8.38968 10.171 8.19891 10.25 8 10.25C7.80109 10.25 7.61032 10.171 7.46967 10.0303C7.32902 9.88968 7.25 9.69891 7.25 9.5V8C7.25 7.80109 7.32902 7.61032 7.46967 7.46967C7.61032 7.32902 7.80109 7.25 8 7.25ZM16 7.25C16.1989 7.25 16.3897 7.32902 16.5303 7.46967C16.671 7.61032 16.75 7.80109 16.75 8V9.5C16.75 9.69891 16.671 9.88968 16.5303 10.0303C16.3897 10.171 16.1989 10.25 16 10.25C15.8011 10.25 15.6103 10.171 15.4697 10.0303C15.329 9.88968 15.25 9.69891 15.25 9.5V8C15.25 7.80109 15.329 7.61032 15.4697 7.46967C15.6103 7.32902 15.8011 7.25 16 7.25ZM12 9C12.1989 9 12.3897 9.07902 12.5303 9.21967C12.671 9.36032 12.75 9.55109 12.75 9.75V13.75C12.75 13.9489 12.671 14.1397 12.5303 14.2803C12.3897 14.421 12.1989 14.5 12 14.5H11C10.8011 14.5 10.6103 14.421 10.4697 14.2803C10.329 14.1397 10.25 13.9489 10.25 13.75C10.25 13.5511 10.329 13.3603 10.4697 13.2197C10.6103 13.079 10.8011 13 11 13H11.25V9.75C11.25 9.55109 11.329 9.36032 11.4697 9.21967C11.6103 9.07902 11.8011 9 12 9ZM3 13.85C3.19891 13.85 3.38968 13.929 3.53033 14.0697C3.67098 14.2103 3.75 14.4011 3.75 14.6C3.75 15.733 3.75 16.537 3.802 17.166C3.852 17.786 3.949 18.171 4.104 18.476C4.41556 19.0874 4.91263 19.5844 5.524 19.896C5.829 20.051 6.214 20.147 6.834 20.198C7.464 20.249 8.268 20.25 9.4 20.25C9.59891 20.25 9.78968 20.329 9.93033 20.4697C10.071 20.6103 10.15 20.8011 10.15 21C10.15 21.1989 10.071 21.3897 9.93033 21.5303C9.78968 21.671 9.59891 21.75 9.4 21.75H9.367C8.275 21.75 7.409 21.75 6.712 21.693C5.998 21.635 5.395 21.513 4.844 21.233C3.95014 20.7776 3.22341 20.0509 2.768 19.157C2.487 18.605 2.365 18.002 2.307 17.288C2.25 16.591 2.25 15.725 2.25 14.633V14.6C2.25 14.4011 2.32902 14.2103 2.46967 14.0697C2.61032 13.929 2.80109 13.85 3 13.85ZM21 13.85C21.1989 13.85 21.3897 13.929 21.5303 14.0697C21.671 14.2103 21.75 14.4011 21.75 14.6V14.633C21.75 15.725 21.75 16.591 21.693 17.288C21.635 18.002 21.513 18.605 21.233 19.157C20.7774 20.0505 20.0507 20.7768 19.157 21.232C18.605 21.513 18.002 21.635 17.288 21.693C16.591 21.75 15.725 21.75 14.633 21.75H14.6C14.4011 21.75 14.2103 21.671 14.0697 21.5303C13.929 21.3897 13.85 21.1989 13.85 21C13.85 20.8011 13.929 20.6103 14.0697 20.4697C14.2103 20.329 14.4011 20.25 14.6 20.25C15.733 20.25 16.537 20.25 17.166 20.198C17.786 20.148 18.171 20.051 18.476 19.896C19.0874 19.5844 19.5844 19.0874 19.896 18.476C20.051 18.171 20.147 17.786 20.198 17.166C20.249 16.536 20.25 15.732 20.25 14.6C20.25 14.4011 20.329 14.2103 20.4697 14.0697C20.6103 13.929 20.8011 13.85 21 13.85ZM8.47 15.97C8.61063 15.8295 8.80125 15.7507 9 15.7507C9.19875 15.7507 9.38937 15.8295 9.53 15.97C10.108 16.547 11.024 16.875 12 16.875C12.976 16.875 13.892 16.547 14.47 15.97C14.5387 15.8963 14.6215 15.8372 14.7135 15.7962C14.8055 15.7552 14.9048 15.7332 15.0055 15.7314C15.1062 15.7296 15.2062 15.7482 15.2996 15.7859C15.393 15.8236 15.4778 15.8797 15.549 15.951C15.6203 16.0222 15.6764 16.107 15.7141 16.2004C15.7518 16.2938 15.7704 16.3938 15.7686 16.4945C15.7668 16.5952 15.7448 16.6945 15.7038 16.7865C15.6628 16.8785 15.6037 16.9613 15.53 17.03C14.608 17.953 13.274 18.375 12 18.375C10.726 18.375 9.392 17.953 8.47 17.03C8.32955 16.8894 8.25066 16.6988 8.25066 16.5C8.25066 16.3012 8.32955 16.1106 8.47 15.97Z" fill="black" fill-opacity="0.2"/>
</svg>
