<svg width="16" height="16" viewBox="0 0 16 16" fill="none" xmlns="http://www.w3.org/2000/svg">
<g clip-path="url(#clip0_574_5376)">
<path d="M15 7.75H13.2437C13.18 6.44618 12.6334 5.21272 11.7103 4.28967C10.7873 3.36663 9.55382 2.82003 8.25 2.75625V1C8.25 0.933696 8.22366 0.870107 8.17678 0.823223C8.12989 0.776339 8.0663 0.75 8 0.75C7.9337 0.75 7.87011 0.776339 7.82322 0.823223C7.77634 0.870107 7.75 0.933696 7.75 1V2.75625C6.44618 2.82003 5.21272 3.36663 4.28967 4.28967C3.36663 5.21272 2.82003 6.44618 2.75625 7.75H1C0.933696 7.75 0.870107 7.77634 0.823223 7.82322C0.776339 7.87011 0.75 7.9337 0.75 8C0.75 8.0663 0.776339 8.12989 0.823223 8.17678C0.870107 8.22366 0.933696 8.25 1 8.25H2.75625C2.82003 9.55382 3.36663 10.7873 4.28967 11.7103C5.21272 12.6334 6.44618 13.18 7.75 13.2437V15C7.75 15.0663 7.77634 15.1299 7.82322 15.1768C7.87011 15.2237 7.9337 15.25 8 15.25C8.0663 15.25 8.12989 15.2237 8.17678 15.1768C8.22366 15.1299 8.25 15.0663 8.25 15V13.2437C9.55382 13.18 10.7873 12.6334 11.7103 11.7103C12.6334 10.7873 13.18 9.55382 13.2437 8.25H15C15.0663 8.25 15.1299 8.22366 15.1768 8.17678C15.2237 8.12989 15.25 8.0663 15.25 8C15.25 7.9337 15.2237 7.87011 15.1768 7.82322C15.1299 7.77634 15.0663 7.75 15 7.75ZM8 12.75C7.06054 12.75 6.14218 12.4714 5.36104 11.9495C4.57991 11.4275 3.97109 10.6857 3.61157 9.81775C3.25206 8.9498 3.15799 7.99473 3.34127 7.07332C3.52455 6.15191 3.97694 5.30554 4.64124 4.64124C5.30554 3.97694 6.15191 3.52455 7.07332 3.34127C7.99473 3.15799 8.9498 3.25206 9.81775 3.61157C10.6857 3.97109 11.4275 4.57991 11.9495 5.36104C12.4714 6.14218 12.75 7.06054 12.75 8C12.7487 9.25937 12.2478 10.4668 11.3573 11.3573C10.4668 12.2478 9.25937 12.7487 8 12.75Z" fill="black"/>
</g>
<defs>
<clipPath id="clip0_574_5376">
<rect width="16" height="16" fill="white"/>
</clipPath>
</defs>
</svg>
