<svg width="24" height="24" viewBox="0 0 24 24" fill="none" xmlns="http://www.w3.org/2000/svg">
<path d="M10.5 15.25C10.307 15.2352 10.1276 15.1455 9.99998 15L6.99998 12C6.93314 11.86 6.91133 11.7028 6.93756 11.5499C6.96379 11.3971 7.03676 11.2561 7.14643 11.1464C7.2561 11.0368 7.39707 10.9638 7.54993 10.9376C7.70279 10.9113 7.86003 10.9331 7.99998 11L10.47 13.47L19 4.99998C19.1399 4.93314 19.2972 4.91133 19.45 4.93756C19.6029 4.96379 19.7439 5.03676 19.8535 5.14643C19.9632 5.2561 20.0362 5.39707 20.0624 5.54993C20.0886 5.70279 20.0668 5.86003 20 5.99998L11 15C10.8724 15.1455 10.6929 15.2352 10.5 15.25Z" fill="black"/>
<path d="M12 21.0002C10.3915 20.9976 8.813 20.564 7.42891 19.7444C6.04481 18.9249 4.90566 17.7493 4.12999 16.3402C3.54118 15.2898 3.17682 14.1286 3.05999 12.9302C2.87697 11.1723 3.2156 9.39935 4.03363 7.83264C4.85167 6.26592 6.1129 4.97474 7.65999 4.12017C8.71036 3.53136 9.87152 3.16701 11.07 3.05017C12.2641 2.92284 13.4717 3.03849 14.62 3.39017C14.7224 3.41064 14.8195 3.4523 14.9049 3.51246C14.9903 3.57263 15.0622 3.64998 15.116 3.73955C15.1698 3.82913 15.2043 3.92896 15.2173 4.03263C15.2302 4.13631 15.2214 4.24155 15.1913 4.34161C15.1612 4.44167 15.1105 4.53433 15.0425 4.61367C14.9745 4.69301 14.8907 4.75726 14.7965 4.80232C14.7022 4.84738 14.5995 4.87224 14.4951 4.87531C14.3907 4.87839 14.2867 4.85961 14.19 4.82017C13.2187 4.52756 12.1987 4.43236 11.19 4.54017C10.1928 4.64145 9.22661 4.94423 8.34999 5.43017C7.50512 5.89628 6.75813 6.52103 6.14999 7.27017C5.52385 8.03333 5.05628 8.91376 4.77467 9.85989C4.49307 10.806 4.40308 11.7988 4.50999 12.7802C4.61126 13.7773 4.91405 14.7435 5.39999 15.6202C5.86609 16.465 6.49084 17.212 7.23999 17.8202C8.00315 18.4463 8.88357 18.9139 9.8297 19.1955C10.7758 19.4771 11.7686 19.5671 12.75 19.4602C13.7472 19.3589 14.7134 19.0561 15.59 18.5702C16.4349 18.1041 17.1818 17.4793 17.79 16.7302C18.4161 15.967 18.8837 15.0866 19.1653 14.1405C19.4469 13.1943 19.5369 12.2015 19.43 11.2202C19.4101 11.012 19.4737 10.8044 19.6069 10.6431C19.74 10.4818 19.9318 10.3801 20.14 10.3602C20.3482 10.3403 20.5558 10.4039 20.717 10.5371C20.8783 10.6702 20.9801 10.862 21 11.0702C21.1821 12.8291 20.842 14.6028 20.0221 16.1696C19.2022 17.7364 17.9389 19.027 16.39 19.8802C15.3284 20.4931 14.1493 20.8748 12.93 21.0002H12Z" fill="black"/>
</svg>
