<svg width="24" height="24" viewBox="0 0 24 24" fill="none" xmlns="http://www.w3.org/2000/svg">
<path d="M18.22 20.7498H5.78C5.43322 20.7357 5.09262 20.6533 4.77771 20.5074C4.4628 20.3615 4.17975 20.1549 3.94476 19.8995C3.70977 19.644 3.52745 19.3448 3.40824 19.0188C3.28903 18.6929 3.23525 18.3466 3.25 17.9998V14.9998C3.25 14.8009 3.32902 14.6102 3.46967 14.4695C3.61033 14.3288 3.80109 14.2498 4 14.2498C4.19892 14.2498 4.38968 14.3288 4.53033 14.4695C4.67099 14.6102 4.75 14.8009 4.75 14.9998V17.9998C4.72419 18.2968 4.81365 18.5922 4.99984 18.825C5.18602 19.0577 5.45465 19.2098 5.75 19.2498H18.22C18.5154 19.2098 18.784 19.0577 18.9702 18.825C19.1564 18.5922 19.2458 18.2968 19.22 17.9998V14.9998C19.22 14.8009 19.299 14.6102 19.4397 14.4695C19.5803 14.3288 19.7711 14.2498 19.97 14.2498C20.1689 14.2498 20.3597 14.3288 20.5003 14.4695C20.641 14.6102 20.72 14.8009 20.72 14.9998V17.9998C20.75 18.6952 20.5041 19.3743 20.0359 19.8893C19.5677 20.4043 18.9151 20.7136 18.22 20.7498ZM16 8.74983C15.9015 8.75029 15.8038 8.73107 15.7128 8.69329C15.6218 8.65552 15.5392 8.59994 15.47 8.52983L12 5.05983L8.53 8.52983C8.38783 8.66231 8.19978 8.73443 8.00548 8.731C7.81118 8.72758 7.6258 8.64886 7.48838 8.51145C7.35097 8.37404 7.27226 8.18865 7.26883 7.99435C7.2654 7.80005 7.33752 7.612 7.47 7.46983L11.47 3.46983C11.6106 3.32938 11.8013 3.25049 12 3.25049C12.1988 3.25049 12.3894 3.32938 12.53 3.46983L16.53 7.46983C16.6705 7.61045 16.7493 7.80108 16.7493 7.99983C16.7493 8.19858 16.6705 8.3892 16.53 8.52983C16.4608 8.59994 16.3782 8.65552 16.2872 8.69329C16.1962 8.73107 16.0985 8.75029 16 8.74983Z" fill="black"/>
<path d="M12 15.75C11.8019 15.7474 11.6126 15.6676 11.4725 15.5275C11.3324 15.3874 11.2526 15.1981 11.25 15V4C11.25 3.80109 11.329 3.61032 11.4697 3.46967C11.6103 3.32902 11.8011 3.25 12 3.25C12.1989 3.25 12.3897 3.32902 12.5303 3.46967C12.671 3.61032 12.75 3.80109 12.75 4V15C12.7474 15.1981 12.6676 15.3874 12.5275 15.5275C12.3874 15.6676 12.1981 15.7474 12 15.75Z" fill="black"/>
</svg>
