<svg width="24" height="24" viewBox="0 0 24 24" fill="none" xmlns="http://www.w3.org/2000/svg">
<path d="M7.243 17.9972H3V13.7542L14.435 2.31915C14.6225 2.13168 14.8768 2.02637 15.142 2.02637C15.4072 2.02637 15.6615 2.13168 15.849 2.31915L18.678 5.14715C18.771 5.24003 18.8447 5.35032 18.8951 5.47171C18.9454 5.59311 18.9713 5.72324 18.9713 5.85465C18.9713 5.98607 18.9454 6.1162 18.8951 6.23759C18.8447 6.35899 18.771 6.46928 18.678 6.56215L7.243 17.9972ZM3 19.9972H21V21.9972H3V19.9972Z" fill="#232323"/>
<path d="M7.243 17.9972H3V13.7542L14.435 2.31915C14.6225 2.13168 14.8768 2.02637 15.142 2.02637C15.4072 2.02637 15.6615 2.13168 15.849 2.31915L18.678 5.14715C18.771 5.24003 18.8447 5.35032 18.8951 5.47171C18.9454 5.59311 18.9713 5.72324 18.9713 5.85465C18.9713 5.98607 18.9454 6.1162 18.8951 6.23759C18.8447 6.35899 18.771 6.46928 18.678 6.56215L7.243 17.9972ZM3 19.9972H21V21.9972H3V19.9972Z" fill="black" fill-opacity="0.2"/>
<path d="M7.243 17.9972H3V13.7542L14.435 2.31915C14.6225 2.13168 14.8768 2.02637 15.142 2.02637C15.4072 2.02637 15.6615 2.13168 15.849 2.31915L18.678 5.14715C18.771 5.24003 18.8447 5.35032 18.8951 5.47171C18.9454 5.59311 18.9713 5.72324 18.9713 5.85465C18.9713 5.98607 18.9454 6.1162 18.8951 6.23759C18.8447 6.35899 18.771 6.46928 18.678 6.56215L7.243 17.9972ZM3 19.9972H21V21.9972H3V19.9972Z" fill="black" fill-opacity="0.2"/>
</svg>
