<svg width="24" height="24" viewBox="0 0 24 24" fill="none" xmlns="http://www.w3.org/2000/svg">
<path d="M2.21203 14.0601C1.92492 12.7018 1.92526 11.2984 2.21303 9.94014C3.32303 10.0711 4.29203 9.70414 4.60903 8.93914C4.92603 8.17414 4.50003 7.22914 3.62303 6.53714C4.38008 5.3732 5.37235 4.38059 6.53603 3.62314C7.22803 4.50114 8.17303 4.92614 8.93803 4.60914C9.70303 4.29214 10.071 3.32314 9.94003 2.21314C11.2983 1.9257 12.7017 1.9257 14.06 2.21314C13.929 3.32314 14.296 4.29314 15.061 4.60914C15.826 4.92614 16.771 4.50114 17.463 3.62414C18.6278 4.37974 19.6206 5.37188 20.377 6.53614C19.499 7.22814 19.074 8.17414 19.391 8.93914C19.708 9.70414 20.677 10.0711 21.787 9.94014C22.0745 11.2984 22.0745 12.7018 21.787 14.0601C20.677 13.9301 19.707 14.2971 19.391 15.0621C19.074 15.8261 19.499 16.7721 20.376 17.4641C19.6193 18.628 18.6274 19.6206 17.464 20.3781C16.771 19.5001 15.826 19.0741 15.061 19.3911C14.296 19.7081 13.929 20.6771 14.06 21.7881C12.7018 22.0767 11.2981 22.0764 9.94003 21.7871C10.07 20.6771 9.70303 19.7081 8.93803 19.3911C8.17303 19.0741 7.22803 19.5001 6.53603 20.3771C5.37115 19.6213 4.37832 18.6288 3.62203 17.4641C4.50003 16.7721 4.92603 15.8271 4.60903 15.0621C4.29203 14.2971 3.32303 13.9291 2.21203 14.0601ZM4.00003 12.2101C5.10003 12.5151 6.00703 13.2121 6.45603 14.2961C6.90603 15.3811 6.75603 16.5161 6.19403 17.5081C6.2907 17.6101 6.39003 17.7095 6.49203 17.8061C7.48503 17.2431 8.61903 17.0941 9.70403 17.5441C10.788 17.9931 11.485 18.9001 11.789 20.0001C11.929 20.0041 12.069 20.0041 12.209 20.0001C12.514 18.9001 13.211 17.9931 14.296 17.5441C15.38 17.0941 16.515 17.2441 17.508 17.8061C17.6094 17.7095 17.7084 17.6101 17.805 17.5081C17.243 16.5151 17.094 15.3811 17.543 14.2961C17.993 13.2121 18.9 12.5151 19.999 12.2111C20.003 12.0711 20.003 11.9308 19.999 11.7901C18.899 11.4861 17.992 10.7891 17.543 9.70414C17.093 8.62014 17.243 7.48414 17.805 6.49214C17.7086 6.39056 17.6096 6.29152 17.508 6.19514C16.515 6.75714 15.38 6.90614 14.296 6.45714C13.21 6.00714 12.514 5.10014 12.21 4.00014C12.0701 3.99646 11.93 3.99646 11.79 4.00014C11.485 5.10014 10.788 6.00814 9.70403 6.45714C8.61903 6.90714 7.48403 6.75714 6.49203 6.19514C6.39003 6.29114 6.2907 6.39014 6.19403 6.49214C6.75703 7.48514 6.90603 8.62014 6.45603 9.70414C6.00603 10.7881 5.10003 11.4851 4.00003 11.7901C3.99603 11.9301 3.99603 12.0701 4.00003 12.2101ZM12 15.0001C11.2044 15.0001 10.4413 14.6841 9.87871 14.1215C9.3161 13.5589 9.00003 12.7958 9.00003 12.0001C9.00003 11.2045 9.3161 10.4414 9.87871 9.87882C10.4413 9.31621 11.2044 9.00014 12 9.00014C12.7957 9.00014 13.5587 9.31621 14.1214 9.87882C14.684 10.4414 15 11.2045 15 12.0001C15 12.7958 14.684 13.5589 14.1214 14.1215C13.5587 14.6841 12.7957 15.0001 12 15.0001ZM12 13.0001C12.2652 13.0001 12.5196 12.8948 12.7071 12.7072C12.8947 12.5197 13 12.2654 13 12.0001C13 11.7349 12.8947 11.4806 12.7071 11.293C12.5196 11.1055 12.2652 11.0001 12 11.0001C11.7348 11.0001 11.4805 11.1055 11.2929 11.293C11.1054 11.4806 11 11.7349 11 12.0001C11 12.2654 11.1054 12.5197 11.2929 12.7072C11.4805 12.8948 11.7348 13.0001 12 13.0001Z" fill="#232323"/>
<path d="M2.21203 14.0601C1.92492 12.7018 1.92526 11.2984 2.21303 9.94014C3.32303 10.0711 4.29203 9.70414 4.60903 8.93914C4.92603 8.17414 4.50003 7.22914 3.62303 6.53714C4.38008 5.3732 5.37235 4.38059 6.53603 3.62314C7.22803 4.50114 8.17303 4.92614 8.93803 4.60914C9.70303 4.29214 10.071 3.32314 9.94003 2.21314C11.2983 1.9257 12.7017 1.9257 14.06 2.21314C13.929 3.32314 14.296 4.29314 15.061 4.60914C15.826 4.92614 16.771 4.50114 17.463 3.62414C18.6278 4.37974 19.6206 5.37188 20.377 6.53614C19.499 7.22814 19.074 8.17414 19.391 8.93914C19.708 9.70414 20.677 10.0711 21.787 9.94014C22.0745 11.2984 22.0745 12.7018 21.787 14.0601C20.677 13.9301 19.707 14.2971 19.391 15.0621C19.074 15.8261 19.499 16.7721 20.376 17.4641C19.6193 18.628 18.6274 19.6206 17.464 20.3781C16.771 19.5001 15.826 19.0741 15.061 19.3911C14.296 19.7081 13.929 20.6771 14.06 21.7881C12.7018 22.0767 11.2981 22.0764 9.94003 21.7871C10.07 20.6771 9.70303 19.7081 8.93803 19.3911C8.17303 19.0741 7.22803 19.5001 6.53603 20.3771C5.37115 19.6213 4.37832 18.6288 3.62203 17.4641C4.50003 16.7721 4.92603 15.8271 4.60903 15.0621C4.29203 14.2971 3.32303 13.9291 2.21203 14.0601ZM4.00003 12.2101C5.10003 12.5151 6.00703 13.2121 6.45603 14.2961C6.90603 15.3811 6.75603 16.5161 6.19403 17.5081C6.2907 17.6101 6.39003 17.7095 6.49203 17.8061C7.48503 17.2431 8.61903 17.0941 9.70403 17.5441C10.788 17.9931 11.485 18.9001 11.789 20.0001C11.929 20.0041 12.069 20.0041 12.209 20.0001C12.514 18.9001 13.211 17.9931 14.296 17.5441C15.38 17.0941 16.515 17.2441 17.508 17.8061C17.6094 17.7095 17.7084 17.6101 17.805 17.5081C17.243 16.5151 17.094 15.3811 17.543 14.2961C17.993 13.2121 18.9 12.5151 19.999 12.2111C20.003 12.0711 20.003 11.9308 19.999 11.7901C18.899 11.4861 17.992 10.7891 17.543 9.70414C17.093 8.62014 17.243 7.48414 17.805 6.49214C17.7086 6.39056 17.6096 6.29152 17.508 6.19514C16.515 6.75714 15.38 6.90614 14.296 6.45714C13.21 6.00714 12.514 5.10014 12.21 4.00014C12.0701 3.99646 11.93 3.99646 11.79 4.00014C11.485 5.10014 10.788 6.00814 9.70403 6.45714C8.61903 6.90714 7.48403 6.75714 6.49203 6.19514C6.39003 6.29114 6.2907 6.39014 6.19403 6.49214C6.75703 7.48514 6.90603 8.62014 6.45603 9.70414C6.00603 10.7881 5.10003 11.4851 4.00003 11.7901C3.99603 11.9301 3.99603 12.0701 4.00003 12.2101ZM12 15.0001C11.2044 15.0001 10.4413 14.6841 9.87871 14.1215C9.3161 13.5589 9.00003 12.7958 9.00003 12.0001C9.00003 11.2045 9.3161 10.4414 9.87871 9.87882C10.4413 9.31621 11.2044 9.00014 12 9.00014C12.7957 9.00014 13.5587 9.31621 14.1214 9.87882C14.684 10.4414 15 11.2045 15 12.0001C15 12.7958 14.684 13.5589 14.1214 14.1215C13.5587 14.6841 12.7957 15.0001 12 15.0001ZM12 13.0001C12.2652 13.0001 12.5196 12.8948 12.7071 12.7072C12.8947 12.5197 13 12.2654 13 12.0001C13 11.7349 12.8947 11.4806 12.7071 11.293C12.5196 11.1055 12.2652 11.0001 12 11.0001C11.7348 11.0001 11.4805 11.1055 11.2929 11.293C11.1054 11.4806 11 11.7349 11 12.0001C11 12.2654 11.1054 12.5197 11.2929 12.7072C11.4805 12.8948 11.7348 13.0001 12 13.0001Z" fill="black" fill-opacity="0.2"/>
<path d="M2.21203 14.0601C1.92492 12.7018 1.92526 11.2984 2.21303 9.94014C3.32303 10.0711 4.29203 9.70414 4.60903 8.93914C4.92603 8.17414 4.50003 7.22914 3.62303 6.53714C4.38008 5.3732 5.37235 4.38059 6.53603 3.62314C7.22803 4.50114 8.17303 4.92614 8.93803 4.60914C9.70303 4.29214 10.071 3.32314 9.94003 2.21314C11.2983 1.9257 12.7017 1.9257 14.06 2.21314C13.929 3.32314 14.296 4.29314 15.061 4.60914C15.826 4.92614 16.771 4.50114 17.463 3.62414C18.6278 4.37974 19.6206 5.37188 20.377 6.53614C19.499 7.22814 19.074 8.17414 19.391 8.93914C19.708 9.70414 20.677 10.0711 21.787 9.94014C22.0745 11.2984 22.0745 12.7018 21.787 14.0601C20.677 13.9301 19.707 14.2971 19.391 15.0621C19.074 15.8261 19.499 16.7721 20.376 17.4641C19.6193 18.628 18.6274 19.6206 17.464 20.3781C16.771 19.5001 15.826 19.0741 15.061 19.3911C14.296 19.7081 13.929 20.6771 14.06 21.7881C12.7018 22.0767 11.2981 22.0764 9.94003 21.7871C10.07 20.6771 9.70303 19.7081 8.93803 19.3911C8.17303 19.0741 7.22803 19.5001 6.53603 20.3771C5.37115 19.6213 4.37832 18.6288 3.62203 17.4641C4.50003 16.7721 4.92603 15.8271 4.60903 15.0621C4.29203 14.2971 3.32303 13.9291 2.21203 14.0601ZM4.00003 12.2101C5.10003 12.5151 6.00703 13.2121 6.45603 14.2961C6.90603 15.3811 6.75603 16.5161 6.19403 17.5081C6.2907 17.6101 6.39003 17.7095 6.49203 17.8061C7.48503 17.2431 8.61903 17.0941 9.70403 17.5441C10.788 17.9931 11.485 18.9001 11.789 20.0001C11.929 20.0041 12.069 20.0041 12.209 20.0001C12.514 18.9001 13.211 17.9931 14.296 17.5441C15.38 17.0941 16.515 17.2441 17.508 17.8061C17.6094 17.7095 17.7084 17.6101 17.805 17.5081C17.243 16.5151 17.094 15.3811 17.543 14.2961C17.993 13.2121 18.9 12.5151 19.999 12.2111C20.003 12.0711 20.003 11.9308 19.999 11.7901C18.899 11.4861 17.992 10.7891 17.543 9.70414C17.093 8.62014 17.243 7.48414 17.805 6.49214C17.7086 6.39056 17.6096 6.29152 17.508 6.19514C16.515 6.75714 15.38 6.90614 14.296 6.45714C13.21 6.00714 12.514 5.10014 12.21 4.00014C12.0701 3.99646 11.93 3.99646 11.79 4.00014C11.485 5.10014 10.788 6.00814 9.70403 6.45714C8.61903 6.90714 7.48403 6.75714 6.49203 6.19514C6.39003 6.29114 6.2907 6.39014 6.19403 6.49214C6.75703 7.48514 6.90603 8.62014 6.45603 9.70414C6.00603 10.7881 5.10003 11.4851 4.00003 11.7901C3.99603 11.9301 3.99603 12.0701 4.00003 12.2101ZM12 15.0001C11.2044 15.0001 10.4413 14.6841 9.87871 14.1215C9.3161 13.5589 9.00003 12.7958 9.00003 12.0001C9.00003 11.2045 9.3161 10.4414 9.87871 9.87882C10.4413 9.31621 11.2044 9.00014 12 9.00014C12.7957 9.00014 13.5587 9.31621 14.1214 9.87882C14.684 10.4414 15 11.2045 15 12.0001C15 12.7958 14.684 13.5589 14.1214 14.1215C13.5587 14.6841 12.7957 15.0001 12 15.0001ZM12 13.0001C12.2652 13.0001 12.5196 12.8948 12.7071 12.7072C12.8947 12.5197 13 12.2654 13 12.0001C13 11.7349 12.8947 11.4806 12.7071 11.293C12.5196 11.1055 12.2652 11.0001 12 11.0001C11.7348 11.0001 11.4805 11.1055 11.2929 11.293C11.1054 11.4806 11 11.7349 11 12.0001C11 12.2654 11.1054 12.5197 11.2929 12.7072C11.4805 12.8948 11.7348 13.0001 12 13.0001Z" fill="black" fill-opacity="0.2"/>
</svg>
