<svg width="24" height="24" viewBox="0 0 24 24" fill="none" xmlns="http://www.w3.org/2000/svg">
<path d="M15.287 3.15221L14.36 4.07921L5.83902 12.5992C5.26202 13.1772 4.97302 13.4662 4.72502 13.7842C4.43241 14.1597 4.18128 14.5657 3.97602 14.9952C3.80302 15.3592 3.67402 15.7472 3.41602 16.5212L2.32202 19.8022L2.05402 20.6042C1.99133 20.7912 1.98203 20.9919 2.02716 21.1838C2.07229 21.3758 2.17007 21.5513 2.30949 21.6907C2.44891 21.8302 2.62446 21.9279 2.81641 21.9731C3.00835 22.0182 3.20907 22.0089 3.39602 21.9462L4.19802 21.6782L7.47902 20.5842C8.25402 20.3262 8.64102 20.1972 9.00502 20.0242C9.43635 19.8189 9.84002 19.5692 10.216 19.2752C10.534 19.0272 10.823 18.7382 11.4 18.1612L19.921 9.64021L20.848 8.71321C21.5855 7.97577 21.9997 6.9756 21.9997 5.93271C21.9997 4.88982 21.5855 3.88964 20.848 3.15221C20.1106 2.41477 19.1104 2.00049 18.0675 2.00049C17.0246 2.00049 16.0245 2.41477 15.287 3.15221Z" stroke="black" stroke-width="1.5"/>
<path opacity="0.5" d="M14.36 4.07812C14.36 4.07812 14.476 6.04812 16.214 7.78612C17.952 9.52412 19.921 9.63912 19.921 9.63912M4.19802 21.6781L2.32202 19.8021" stroke="black" stroke-width="1.5"/>
</svg>
