<svg width="24" height="24" viewBox="0 0 24 24" fill="none" xmlns="http://www.w3.org/2000/svg">
<path fill-rule="evenodd" clip-rule="evenodd" d="M0.00171547 9.4097C0.00171547 7.47942 1.66457 6.00342 3.49029 6.00342C4.944 6.00342 6.41657 6.91713 6.91714 8.33656C7.01149 8.60481 6.9954 8.89955 6.87243 9.15593C6.74946 9.41232 6.52968 9.60936 6.26143 9.7037C5.99318 9.79804 5.69844 9.78196 5.44206 9.65899C5.18567 9.53602 4.98863 9.31624 4.89429 9.04799C4.73143 8.5817 4.14 8.14627 3.48857 8.14627C2.748 8.14627 2.14457 8.75999 2.14457 9.4097C2.14457 9.92399 2.49429 10.3697 2.98457 10.4931L4.35086 10.836C5.10216 11.0261 5.76849 11.4616 6.24424 12.0733C6.71999 12.6851 6.97792 13.4382 6.97714 14.2131V14.3537C6.97714 16.2806 5.42057 17.8508 3.49029 17.8508C2.03486 17.8508 0.562287 16.9371 0.0617155 15.5194C-0.0328532 15.2512 -0.0169876 14.9563 0.105822 14.6998C0.228632 14.4432 0.448325 14.246 0.716573 14.1514C0.98482 14.0568 1.27965 14.0727 1.5362 14.1955C1.79275 14.3183 1.99 14.538 2.08457 14.8063C2.24743 15.2726 2.83886 15.708 3.49029 15.708C4.22743 15.708 4.83429 15.1063 4.83429 14.3537V14.2114C4.83429 13.5943 4.41772 13.0628 3.82972 12.9154L2.46343 12.5726C1.75925 12.3952 1.13452 11.9877 0.688498 11.4146C0.242478 10.8415 0.000749534 10.1359 0.00171547 9.4097ZM17.0229 9.4097C17.0229 7.47942 18.6857 6.00342 20.5114 6.00342C21.9651 6.00342 23.4377 6.91713 23.9383 8.33656C24.0326 8.60481 24.0165 8.89955 23.8936 9.15593C23.7706 9.41232 23.5508 9.60936 23.2826 9.7037C23.0143 9.79804 22.7196 9.78196 22.4632 9.65899C22.2068 9.53602 22.0098 9.31624 21.9154 9.04799C21.7526 8.5817 21.1611 8.14627 20.5097 8.14627C19.7691 8.14627 19.1657 8.75999 19.1657 9.4097C19.1657 9.92399 19.5154 10.3697 20.0057 10.4931L21.372 10.836C22.1233 11.0261 22.7896 11.4616 23.2654 12.0733C23.7411 12.6851 23.9991 13.4382 23.9983 14.2131V14.3537C23.9983 16.2806 22.4417 17.8508 20.5114 17.8508C19.056 17.8508 17.5834 16.9371 17.0829 15.5194C16.9883 15.2512 17.0042 14.9563 17.127 14.6998C17.2498 14.4432 17.4695 14.246 17.7377 14.1514C18.006 14.0568 18.3008 14.0727 18.5573 14.1955C18.8139 14.3183 19.0111 14.538 19.1057 14.8063C19.2686 15.2726 19.86 15.708 20.5114 15.708C21.2486 15.708 21.8554 15.1063 21.8554 14.3537V14.2114C21.8554 13.5943 21.4389 13.0628 20.8491 12.9154L19.4846 12.5726C18.7804 12.3952 18.1557 11.9877 17.7096 11.4146C17.2636 10.8415 17.0219 10.1359 17.0229 9.4097ZM10.656 9.63599C10.656 9.27908 10.7978 8.9368 11.0502 8.68443C11.3025 8.43206 11.6448 8.29027 12.0017 8.29027C12.3586 8.29027 12.7009 8.43206 12.9533 8.68443C13.2057 8.9368 13.3474 9.27908 13.3474 9.63599V14.5097C13.3474 14.6864 13.3126 14.8614 13.245 15.0247C13.1774 15.188 13.0782 15.3363 12.9533 15.4613C12.8283 15.5862 12.68 15.6854 12.5167 15.753C12.3534 15.8206 12.1784 15.8554 12.0017 15.8554C11.825 15.8554 11.65 15.8206 11.4867 15.753C11.3235 15.6854 11.1751 15.5862 11.0502 15.4613C10.9252 15.3363 10.8261 15.188 10.7584 15.0247C10.6908 14.8614 10.656 14.6864 10.656 14.5097V9.63599ZM12.0017 6.14913C10.0749 6.14913 8.51314 7.70913 8.51314 9.63599V14.5097C8.51314 15.4349 8.88069 16.3223 9.53492 16.9765C10.1892 17.6307 11.0765 17.9983 12.0017 17.9983C12.9269 17.9983 13.8143 17.6307 14.4685 16.9765C15.1227 16.3223 15.4903 15.4349 15.4903 14.5097V9.63427C15.4898 8.70935 15.1221 7.82245 14.4679 7.16859C13.8137 6.51473 12.9266 6.14913 12.0017 6.14913Z" fill="#232323"/>
<path fill-rule="evenodd" clip-rule="evenodd" d="M0.00171547 9.4097C0.00171547 7.47942 1.66457 6.00342 3.49029 6.00342C4.944 6.00342 6.41657 6.91713 6.91714 8.33656C7.01149 8.60481 6.9954 8.89955 6.87243 9.15593C6.74946 9.41232 6.52968 9.60936 6.26143 9.7037C5.99318 9.79804 5.69844 9.78196 5.44206 9.65899C5.18567 9.53602 4.98863 9.31624 4.89429 9.04799C4.73143 8.5817 4.14 8.14627 3.48857 8.14627C2.748 8.14627 2.14457 8.75999 2.14457 9.4097C2.14457 9.92399 2.49429 10.3697 2.98457 10.4931L4.35086 10.836C5.10216 11.0261 5.76849 11.4616 6.24424 12.0733C6.71999 12.6851 6.97792 13.4382 6.97714 14.2131V14.3537C6.97714 16.2806 5.42057 17.8508 3.49029 17.8508C2.03486 17.8508 0.562287 16.9371 0.0617155 15.5194C-0.0328532 15.2512 -0.0169876 14.9563 0.105822 14.6998C0.228632 14.4432 0.448325 14.246 0.716573 14.1514C0.98482 14.0568 1.27965 14.0727 1.5362 14.1955C1.79275 14.3183 1.99 14.538 2.08457 14.8063C2.24743 15.2726 2.83886 15.708 3.49029 15.708C4.22743 15.708 4.83429 15.1063 4.83429 14.3537V14.2114C4.83429 13.5943 4.41772 13.0628 3.82972 12.9154L2.46343 12.5726C1.75925 12.3952 1.13452 11.9877 0.688498 11.4146C0.242478 10.8415 0.000749534 10.1359 0.00171547 9.4097ZM17.0229 9.4097C17.0229 7.47942 18.6857 6.00342 20.5114 6.00342C21.9651 6.00342 23.4377 6.91713 23.9383 8.33656C24.0326 8.60481 24.0165 8.89955 23.8936 9.15593C23.7706 9.41232 23.5508 9.60936 23.2826 9.7037C23.0143 9.79804 22.7196 9.78196 22.4632 9.65899C22.2068 9.53602 22.0098 9.31624 21.9154 9.04799C21.7526 8.5817 21.1611 8.14627 20.5097 8.14627C19.7691 8.14627 19.1657 8.75999 19.1657 9.4097C19.1657 9.92399 19.5154 10.3697 20.0057 10.4931L21.372 10.836C22.1233 11.0261 22.7896 11.4616 23.2654 12.0733C23.7411 12.6851 23.9991 13.4382 23.9983 14.2131V14.3537C23.9983 16.2806 22.4417 17.8508 20.5114 17.8508C19.056 17.8508 17.5834 16.9371 17.0829 15.5194C16.9883 15.2512 17.0042 14.9563 17.127 14.6998C17.2498 14.4432 17.4695 14.246 17.7377 14.1514C18.006 14.0568 18.3008 14.0727 18.5573 14.1955C18.8139 14.3183 19.0111 14.538 19.1057 14.8063C19.2686 15.2726 19.86 15.708 20.5114 15.708C21.2486 15.708 21.8554 15.1063 21.8554 14.3537V14.2114C21.8554 13.5943 21.4389 13.0628 20.8491 12.9154L19.4846 12.5726C18.7804 12.3952 18.1557 11.9877 17.7096 11.4146C17.2636 10.8415 17.0219 10.1359 17.0229 9.4097ZM10.656 9.63599C10.656 9.27908 10.7978 8.9368 11.0502 8.68443C11.3025 8.43206 11.6448 8.29027 12.0017 8.29027C12.3586 8.29027 12.7009 8.43206 12.9533 8.68443C13.2057 8.9368 13.3474 9.27908 13.3474 9.63599V14.5097C13.3474 14.6864 13.3126 14.8614 13.245 15.0247C13.1774 15.188 13.0782 15.3363 12.9533 15.4613C12.8283 15.5862 12.68 15.6854 12.5167 15.753C12.3534 15.8206 12.1784 15.8554 12.0017 15.8554C11.825 15.8554 11.65 15.8206 11.4867 15.753C11.3235 15.6854 11.1751 15.5862 11.0502 15.4613C10.9252 15.3363 10.8261 15.188 10.7584 15.0247C10.6908 14.8614 10.656 14.6864 10.656 14.5097V9.63599ZM12.0017 6.14913C10.0749 6.14913 8.51314 7.70913 8.51314 9.63599V14.5097C8.51314 15.4349 8.88069 16.3223 9.53492 16.9765C10.1892 17.6307 11.0765 17.9983 12.0017 17.9983C12.9269 17.9983 13.8143 17.6307 14.4685 16.9765C15.1227 16.3223 15.4903 15.4349 15.4903 14.5097V9.63427C15.4898 8.70935 15.1221 7.82245 14.4679 7.16859C13.8137 6.51473 12.9266 6.14913 12.0017 6.14913Z" fill="black" fill-opacity="0.2"/>
<path fill-rule="evenodd" clip-rule="evenodd" d="M0.00171547 9.4097C0.00171547 7.47942 1.66457 6.00342 3.49029 6.00342C4.944 6.00342 6.41657 6.91713 6.91714 8.33656C7.01149 8.60481 6.9954 8.89955 6.87243 9.15593C6.74946 9.41232 6.52968 9.60936 6.26143 9.7037C5.99318 9.79804 5.69844 9.78196 5.44206 9.65899C5.18567 9.53602 4.98863 9.31624 4.89429 9.04799C4.73143 8.5817 4.14 8.14627 3.48857 8.14627C2.748 8.14627 2.14457 8.75999 2.14457 9.4097C2.14457 9.92399 2.49429 10.3697 2.98457 10.4931L4.35086 10.836C5.10216 11.0261 5.76849 11.4616 6.24424 12.0733C6.71999 12.6851 6.97792 13.4382 6.97714 14.2131V14.3537C6.97714 16.2806 5.42057 17.8508 3.49029 17.8508C2.03486 17.8508 0.562287 16.9371 0.0617155 15.5194C-0.0328532 15.2512 -0.0169876 14.9563 0.105822 14.6998C0.228632 14.4432 0.448325 14.246 0.716573 14.1514C0.98482 14.0568 1.27965 14.0727 1.5362 14.1955C1.79275 14.3183 1.99 14.538 2.08457 14.8063C2.24743 15.2726 2.83886 15.708 3.49029 15.708C4.22743 15.708 4.83429 15.1063 4.83429 14.3537V14.2114C4.83429 13.5943 4.41772 13.0628 3.82972 12.9154L2.46343 12.5726C1.75925 12.3952 1.13452 11.9877 0.688498 11.4146C0.242478 10.8415 0.000749534 10.1359 0.00171547 9.4097ZM17.0229 9.4097C17.0229 7.47942 18.6857 6.00342 20.5114 6.00342C21.9651 6.00342 23.4377 6.91713 23.9383 8.33656C24.0326 8.60481 24.0165 8.89955 23.8936 9.15593C23.7706 9.41232 23.5508 9.60936 23.2826 9.7037C23.0143 9.79804 22.7196 9.78196 22.4632 9.65899C22.2068 9.53602 22.0098 9.31624 21.9154 9.04799C21.7526 8.5817 21.1611 8.14627 20.5097 8.14627C19.7691 8.14627 19.1657 8.75999 19.1657 9.4097C19.1657 9.92399 19.5154 10.3697 20.0057 10.4931L21.372 10.836C22.1233 11.0261 22.7896 11.4616 23.2654 12.0733C23.7411 12.6851 23.9991 13.4382 23.9983 14.2131V14.3537C23.9983 16.2806 22.4417 17.8508 20.5114 17.8508C19.056 17.8508 17.5834 16.9371 17.0829 15.5194C16.9883 15.2512 17.0042 14.9563 17.127 14.6998C17.2498 14.4432 17.4695 14.246 17.7377 14.1514C18.006 14.0568 18.3008 14.0727 18.5573 14.1955C18.8139 14.3183 19.0111 14.538 19.1057 14.8063C19.2686 15.2726 19.86 15.708 20.5114 15.708C21.2486 15.708 21.8554 15.1063 21.8554 14.3537V14.2114C21.8554 13.5943 21.4389 13.0628 20.8491 12.9154L19.4846 12.5726C18.7804 12.3952 18.1557 11.9877 17.7096 11.4146C17.2636 10.8415 17.0219 10.1359 17.0229 9.4097ZM10.656 9.63599C10.656 9.27908 10.7978 8.9368 11.0502 8.68443C11.3025 8.43206 11.6448 8.29027 12.0017 8.29027C12.3586 8.29027 12.7009 8.43206 12.9533 8.68443C13.2057 8.9368 13.3474 9.27908 13.3474 9.63599V14.5097C13.3474 14.6864 13.3126 14.8614 13.245 15.0247C13.1774 15.188 13.0782 15.3363 12.9533 15.4613C12.8283 15.5862 12.68 15.6854 12.5167 15.753C12.3534 15.8206 12.1784 15.8554 12.0017 15.8554C11.825 15.8554 11.65 15.8206 11.4867 15.753C11.3235 15.6854 11.1751 15.5862 11.0502 15.4613C10.9252 15.3363 10.8261 15.188 10.7584 15.0247C10.6908 14.8614 10.656 14.6864 10.656 14.5097V9.63599ZM12.0017 6.14913C10.0749 6.14913 8.51314 7.70913 8.51314 9.63599V14.5097C8.51314 15.4349 8.88069 16.3223 9.53492 16.9765C10.1892 17.6307 11.0765 17.9983 12.0017 17.9983C12.9269 17.9983 13.8143 17.6307 14.4685 16.9765C15.1227 16.3223 15.4903 15.4349 15.4903 14.5097V9.63427C15.4898 8.70935 15.1221 7.82245 14.4679 7.16859C13.8137 6.51473 12.9266 6.14913 12.0017 6.14913Z" fill="black" fill-opacity="0.2"/>
</svg>
