<svg width="24" height="24" viewBox="0 0 24 24" fill="none" xmlns="http://www.w3.org/2000/svg">
<path fill-rule="evenodd" clip-rule="evenodd" d="M2.25 10.5C2.25 5.115 6.615 0.75 12 0.75C17.385 0.75 21.75 5.115 21.75 10.5C21.75 13.9935 19.947 16.9325 17.987 19.1015C16.021 21.277 13.824 22.7595 12.8685 23.3545C12.6084 23.5183 12.3073 23.6052 12 23.6052C11.6927 23.6052 11.3916 23.5183 11.1315 23.3545C10.1765 22.7595 7.979 21.277 6.013 19.1015C4.053 16.9325 2.25 13.9935 2.25 10.5ZM12 14.5C13.0609 14.5 14.0783 14.0786 14.8284 13.3284C15.5786 12.5783 16 11.5609 16 10.5C16 9.43913 15.5786 8.42172 14.8284 7.67157C14.0783 6.92143 13.0609 6.5 12 6.5C10.9391 6.5 9.92172 6.92143 9.17157 7.67157C8.42143 8.42172 8 9.43913 8 10.5C8 11.5609 8.42143 12.5783 9.17157 13.3284C9.92172 14.0786 10.9391 14.5 12 14.5Z" fill="#232323"/>
<path fill-rule="evenodd" clip-rule="evenodd" d="M2.25 10.5C2.25 5.115 6.615 0.75 12 0.75C17.385 0.75 21.75 5.115 21.75 10.5C21.75 13.9935 19.947 16.9325 17.987 19.1015C16.021 21.277 13.824 22.7595 12.8685 23.3545C12.6084 23.5183 12.3073 23.6052 12 23.6052C11.6927 23.6052 11.3916 23.5183 11.1315 23.3545C10.1765 22.7595 7.979 21.277 6.013 19.1015C4.053 16.9325 2.25 13.9935 2.25 10.5ZM12 14.5C13.0609 14.5 14.0783 14.0786 14.8284 13.3284C15.5786 12.5783 16 11.5609 16 10.5C16 9.43913 15.5786 8.42172 14.8284 7.67157C14.0783 6.92143 13.0609 6.5 12 6.5C10.9391 6.5 9.92172 6.92143 9.17157 7.67157C8.42143 8.42172 8 9.43913 8 10.5C8 11.5609 8.42143 12.5783 9.17157 13.3284C9.92172 14.0786 10.9391 14.5 12 14.5Z" fill="black" fill-opacity="0.2"/>
<path fill-rule="evenodd" clip-rule="evenodd" d="M2.25 10.5C2.25 5.115 6.615 0.75 12 0.75C17.385 0.75 21.75 5.115 21.75 10.5C21.75 13.9935 19.947 16.9325 17.987 19.1015C16.021 21.277 13.824 22.7595 12.8685 23.3545C12.6084 23.5183 12.3073 23.6052 12 23.6052C11.6927 23.6052 11.3916 23.5183 11.1315 23.3545C10.1765 22.7595 7.979 21.277 6.013 19.1015C4.053 16.9325 2.25 13.9935 2.25 10.5ZM12 14.5C13.0609 14.5 14.0783 14.0786 14.8284 13.3284C15.5786 12.5783 16 11.5609 16 10.5C16 9.43913 15.5786 8.42172 14.8284 7.67157C14.0783 6.92143 13.0609 6.5 12 6.5C10.9391 6.5 9.92172 6.92143 9.17157 7.67157C8.42143 8.42172 8 9.43913 8 10.5C8 11.5609 8.42143 12.5783 9.17157 13.3284C9.92172 14.0786 10.9391 14.5 12 14.5Z" fill="black" fill-opacity="0.2"/>
</svg>
