<svg width="24" height="24" viewBox="0 0 24 24" fill="none" xmlns="http://www.w3.org/2000/svg">
<path d="M21 10.5C21 16.9595 14.325 21.564 12.472 22.718C12.3307 22.8071 12.1671 22.8544 12 22.8544C11.8329 22.8544 11.6693 22.8071 11.528 22.718C9.6755 21.564 3 16.9595 3 10.5C3 5.5295 7.0295 1.5 12 1.5C16.9705 1.5 21 5.5295 21 10.5Z" stroke="#232323" stroke-width="1.5" stroke-linecap="round" stroke-linejoin="round"/>
<path d="M21 10.5C21 16.9595 14.325 21.564 12.472 22.718C12.3307 22.8071 12.1671 22.8544 12 22.8544C11.8329 22.8544 11.6693 22.8071 11.528 22.718C9.6755 21.564 3 16.9595 3 10.5C3 5.5295 7.0295 1.5 12 1.5C16.9705 1.5 21 5.5295 21 10.5Z" stroke="black" stroke-opacity="0.2" stroke-width="1.5" stroke-linecap="round" stroke-linejoin="round"/>
<path d="M21 10.5C21 16.9595 14.325 21.564 12.472 22.718C12.3307 22.8071 12.1671 22.8544 12 22.8544C11.8329 22.8544 11.6693 22.8071 11.528 22.718C9.6755 21.564 3 16.9595 3 10.5C3 5.5295 7.0295 1.5 12 1.5C16.9705 1.5 21 5.5295 21 10.5Z" stroke="black" stroke-opacity="0.2" stroke-width="1.5" stroke-linecap="round" stroke-linejoin="round"/>
<path d="M16 10.5C16 11.5609 15.5786 12.5783 14.8284 13.3284C14.0783 14.0786 13.0609 14.5 12 14.5C10.9391 14.5 9.92172 14.0786 9.17157 13.3284C8.42143 12.5783 8 11.5609 8 10.5C8 9.43913 8.42143 8.42172 9.17157 7.67157C9.92172 6.92143 10.9391 6.5 12 6.5C13.0609 6.5 14.0783 6.92143 14.8284 7.67157C15.5786 8.42172 16 9.43913 16 10.5Z" stroke="#232323" stroke-width="1.5" stroke-linecap="round" stroke-linejoin="round"/>
<path d="M16 10.5C16 11.5609 15.5786 12.5783 14.8284 13.3284C14.0783 14.0786 13.0609 14.5 12 14.5C10.9391 14.5 9.92172 14.0786 9.17157 13.3284C8.42143 12.5783 8 11.5609 8 10.5C8 9.43913 8.42143 8.42172 9.17157 7.67157C9.92172 6.92143 10.9391 6.5 12 6.5C13.0609 6.5 14.0783 6.92143 14.8284 7.67157C15.5786 8.42172 16 9.43913 16 10.5Z" stroke="black" stroke-opacity="0.2" stroke-width="1.5" stroke-linecap="round" stroke-linejoin="round"/>
<path d="M16 10.5C16 11.5609 15.5786 12.5783 14.8284 13.3284C14.0783 14.0786 13.0609 14.5 12 14.5C10.9391 14.5 9.92172 14.0786 9.17157 13.3284C8.42143 12.5783 8 11.5609 8 10.5C8 9.43913 8.42143 8.42172 9.17157 7.67157C9.92172 6.92143 10.9391 6.5 12 6.5C13.0609 6.5 14.0783 6.92143 14.8284 7.67157C15.5786 8.42172 16 9.43913 16 10.5Z" stroke="black" stroke-opacity="0.2" stroke-width="1.5" stroke-linecap="round" stroke-linejoin="round"/>
</svg>
