<svg width="24" height="24" viewBox="0 0 24 24" fill="none" xmlns="http://www.w3.org/2000/svg">
<path fill-rule="evenodd" clip-rule="evenodd" d="M9.74598 18.2858C9.33732 18.1958 8.93732 18.0758 8.54598 17.9258C8.16438 17.7826 7.79956 17.5982 7.45798 17.3758C6.86382 16.9988 6.37098 16.4821 6.02253 15.8708C5.67407 15.2595 5.48059 14.5721 5.45898 13.8688C5.41339 12.4521 5.85455 11.0627 6.70898 9.93178C7.2535 9.17308 7.95987 8.54493 8.77698 8.09278C9.60389 7.65533 10.5122 7.3932 11.445 7.32278C12.6852 7.25106 13.9185 7.55142 14.9868 8.18535C16.0551 8.81928 16.9097 9.75788 17.441 10.8808C17.7578 11.4115 17.9639 12.0009 18.0467 12.6134C18.1296 13.226 18.0875 13.8489 17.923 14.4447C17.7585 15.0406 17.4751 15.5969 17.0898 16.0802C16.7044 16.5635 16.2252 16.9637 15.681 17.2568C15.6359 17.2826 15.5964 17.3172 15.5649 17.3585C15.5333 17.3998 15.5104 17.447 15.4973 17.4973C15.4843 17.5476 15.4814 17.6 15.4889 17.6515C15.4964 17.7029 15.5141 17.7523 15.541 17.7968C15.5658 17.8415 15.5995 17.8808 15.6399 17.9123C15.6803 17.9437 15.7267 17.9666 15.7762 17.9797C15.8257 17.9928 15.8773 17.9957 15.928 17.9883C15.9786 17.981 16.0273 17.9634 16.071 17.9368C19.279 16.1768 19.649 13.0298 18.44 10.4008C17.8325 9.06364 16.8458 7.93428 15.6023 7.15281C14.3588 6.37134 12.9133 5.97215 11.445 6.00478C10.3198 6.0791 9.22466 6.39966 8.23698 6.94378C7.01551 7.63246 6.01822 8.65838 5.36438 9.89885C4.71054 11.1393 4.4278 12.5419 4.54998 13.9388C4.59767 14.7736 4.84599 15.5847 5.27389 16.3031C5.70179 17.0216 6.29663 17.6262 7.00798 18.0658C7.40798 18.2964 7.82798 18.4831 8.26798 18.6258C8.69132 18.7724 9.12398 18.8858 9.56598 18.9658C9.65872 18.9835 9.75472 18.9641 9.83328 18.9117C9.91184 18.8594 9.96668 18.7782 9.98598 18.6858C10.0021 18.6013 9.98661 18.5138 9.94234 18.44C9.89806 18.3662 9.82816 18.3113 9.74598 18.2858Z" fill="#232323"/>
<path fill-rule="evenodd" clip-rule="evenodd" d="M9.74598 18.2858C9.33732 18.1958 8.93732 18.0758 8.54598 17.9258C8.16438 17.7826 7.79956 17.5982 7.45798 17.3758C6.86382 16.9988 6.37098 16.4821 6.02253 15.8708C5.67407 15.2595 5.48059 14.5721 5.45898 13.8688C5.41339 12.4521 5.85455 11.0627 6.70898 9.93178C7.2535 9.17308 7.95987 8.54493 8.77698 8.09278C9.60389 7.65533 10.5122 7.3932 11.445 7.32278C12.6852 7.25106 13.9185 7.55142 14.9868 8.18535C16.0551 8.81928 16.9097 9.75788 17.441 10.8808C17.7578 11.4115 17.9639 12.0009 18.0467 12.6134C18.1296 13.226 18.0875 13.8489 17.923 14.4447C17.7585 15.0406 17.4751 15.5969 17.0898 16.0802C16.7044 16.5635 16.2252 16.9637 15.681 17.2568C15.6359 17.2826 15.5964 17.3172 15.5649 17.3585C15.5333 17.3998 15.5104 17.447 15.4973 17.4973C15.4843 17.5476 15.4814 17.6 15.4889 17.6515C15.4964 17.7029 15.5141 17.7523 15.541 17.7968C15.5658 17.8415 15.5995 17.8808 15.6399 17.9123C15.6803 17.9437 15.7267 17.9666 15.7762 17.9797C15.8257 17.9928 15.8773 17.9957 15.928 17.9883C15.9786 17.981 16.0273 17.9634 16.071 17.9368C19.279 16.1768 19.649 13.0298 18.44 10.4008C17.8325 9.06364 16.8458 7.93428 15.6023 7.15281C14.3588 6.37134 12.9133 5.97215 11.445 6.00478C10.3198 6.0791 9.22466 6.39966 8.23698 6.94378C7.01551 7.63246 6.01822 8.65838 5.36438 9.89885C4.71054 11.1393 4.4278 12.5419 4.54998 13.9388C4.59767 14.7736 4.84599 15.5847 5.27389 16.3031C5.70179 17.0216 6.29663 17.6262 7.00798 18.0658C7.40798 18.2964 7.82798 18.4831 8.26798 18.6258C8.69132 18.7724 9.12398 18.8858 9.56598 18.9658C9.65872 18.9835 9.75472 18.9641 9.83328 18.9117C9.91184 18.8594 9.96668 18.7782 9.98598 18.6858C10.0021 18.6013 9.98661 18.5138 9.94234 18.44C9.89806 18.3662 9.82816 18.3113 9.74598 18.2858Z" fill="black" fill-opacity="0.2"/>
<path fill-rule="evenodd" clip-rule="evenodd" d="M9.74598 18.2858C9.33732 18.1958 8.93732 18.0758 8.54598 17.9258C8.16438 17.7826 7.79956 17.5982 7.45798 17.3758C6.86382 16.9988 6.37098 16.4821 6.02253 15.8708C5.67407 15.2595 5.48059 14.5721 5.45898 13.8688C5.41339 12.4521 5.85455 11.0627 6.70898 9.93178C7.2535 9.17308 7.95987 8.54493 8.77698 8.09278C9.60389 7.65533 10.5122 7.3932 11.445 7.32278C12.6852 7.25106 13.9185 7.55142 14.9868 8.18535C16.0551 8.81928 16.9097 9.75788 17.441 10.8808C17.7578 11.4115 17.9639 12.0009 18.0467 12.6134C18.1296 13.226 18.0875 13.8489 17.923 14.4447C17.7585 15.0406 17.4751 15.5969 17.0898 16.0802C16.7044 16.5635 16.2252 16.9637 15.681 17.2568C15.6359 17.2826 15.5964 17.3172 15.5649 17.3585C15.5333 17.3998 15.5104 17.447 15.4973 17.4973C15.4843 17.5476 15.4814 17.6 15.4889 17.6515C15.4964 17.7029 15.5141 17.7523 15.541 17.7968C15.5658 17.8415 15.5995 17.8808 15.6399 17.9123C15.6803 17.9437 15.7267 17.9666 15.7762 17.9797C15.8257 17.9928 15.8773 17.9957 15.928 17.9883C15.9786 17.981 16.0273 17.9634 16.071 17.9368C19.279 16.1768 19.649 13.0298 18.44 10.4008C17.8325 9.06364 16.8458 7.93428 15.6023 7.15281C14.3588 6.37134 12.9133 5.97215 11.445 6.00478C10.3198 6.0791 9.22466 6.39966 8.23698 6.94378C7.01551 7.63246 6.01822 8.65838 5.36438 9.89885C4.71054 11.1393 4.4278 12.5419 4.54998 13.9388C4.59767 14.7736 4.84599 15.5847 5.27389 16.3031C5.70179 17.0216 6.29663 17.6262 7.00798 18.0658C7.40798 18.2964 7.82798 18.4831 8.26798 18.6258C8.69132 18.7724 9.12398 18.8858 9.56598 18.9658C9.65872 18.9835 9.75472 18.9641 9.83328 18.9117C9.91184 18.8594 9.96668 18.7782 9.98598 18.6858C10.0021 18.6013 9.98661 18.5138 9.94234 18.44C9.89806 18.3662 9.82816 18.3113 9.74598 18.2858Z" fill="black" fill-opacity="0.2"/>
<path fill-rule="evenodd" clip-rule="evenodd" d="M11.905 16.8069C12.3568 16.7177 12.778 16.5136 13.128 16.2142C13.4779 15.9149 13.7449 15.5304 13.903 15.0979C13.9289 15.053 13.9453 15.0032 13.9513 14.9517C13.9572 14.9001 13.9525 14.848 13.9376 14.7983C13.9226 14.7487 13.8976 14.7026 13.8641 14.663C13.8306 14.6233 13.7894 14.591 13.743 14.5679C13.6981 14.542 13.6483 14.5256 13.5968 14.5196C13.5453 14.5137 13.4931 14.5183 13.4434 14.5333C13.3938 14.5483 13.3477 14.5733 13.3081 14.6068C13.2684 14.6402 13.2361 14.6815 13.213 14.7279C13.0184 15.0249 12.7394 15.257 12.4118 15.3942C12.0843 15.5314 11.7232 15.5675 11.375 15.4979C11.1694 15.474 10.9677 15.4236 10.775 15.3479C10.2573 15.1827 9.81034 14.848 9.50599 14.3979C9.48954 14.3496 9.46242 14.3056 9.42664 14.2692C9.39086 14.2328 9.34734 14.2049 9.29931 14.1876C9.25128 14.1703 9.19997 14.164 9.14919 14.1693C9.09842 14.1745 9.04947 14.1911 9.00599 14.2179C8.92125 14.2552 8.85474 14.3245 8.821 14.4107C8.78727 14.4969 8.78906 14.593 8.826 14.6779C9.035 15.4279 9.51599 16.0739 10.176 16.4879C10.482 16.6659 10.822 16.7779 11.175 16.8169C11.4183 16.8502 11.6617 16.8469 11.905 16.8069Z" fill="#232323"/>
<path fill-rule="evenodd" clip-rule="evenodd" d="M11.905 16.8069C12.3568 16.7177 12.778 16.5136 13.128 16.2142C13.4779 15.9149 13.7449 15.5304 13.903 15.0979C13.9289 15.053 13.9453 15.0032 13.9513 14.9517C13.9572 14.9001 13.9525 14.848 13.9376 14.7983C13.9226 14.7487 13.8976 14.7026 13.8641 14.663C13.8306 14.6233 13.7894 14.591 13.743 14.5679C13.6981 14.542 13.6483 14.5256 13.5968 14.5196C13.5453 14.5137 13.4931 14.5183 13.4434 14.5333C13.3938 14.5483 13.3477 14.5733 13.3081 14.6068C13.2684 14.6402 13.2361 14.6815 13.213 14.7279C13.0184 15.0249 12.7394 15.257 12.4118 15.3942C12.0843 15.5314 11.7232 15.5675 11.375 15.4979C11.1694 15.474 10.9677 15.4236 10.775 15.3479C10.2573 15.1827 9.81034 14.848 9.50599 14.3979C9.48954 14.3496 9.46242 14.3056 9.42664 14.2692C9.39086 14.2328 9.34734 14.2049 9.29931 14.1876C9.25128 14.1703 9.19997 14.164 9.14919 14.1693C9.09842 14.1745 9.04947 14.1911 9.00599 14.2179C8.92125 14.2552 8.85474 14.3245 8.821 14.4107C8.78727 14.4969 8.78906 14.593 8.826 14.6779C9.035 15.4279 9.51599 16.0739 10.176 16.4879C10.482 16.6659 10.822 16.7779 11.175 16.8169C11.4183 16.8502 11.6617 16.8469 11.905 16.8069Z" fill="black" fill-opacity="0.2"/>
<path fill-rule="evenodd" clip-rule="evenodd" d="M11.905 16.8069C12.3568 16.7177 12.778 16.5136 13.128 16.2142C13.4779 15.9149 13.7449 15.5304 13.903 15.0979C13.9289 15.053 13.9453 15.0032 13.9513 14.9517C13.9572 14.9001 13.9525 14.848 13.9376 14.7983C13.9226 14.7487 13.8976 14.7026 13.8641 14.663C13.8306 14.6233 13.7894 14.591 13.743 14.5679C13.6981 14.542 13.6483 14.5256 13.5968 14.5196C13.5453 14.5137 13.4931 14.5183 13.4434 14.5333C13.3938 14.5483 13.3477 14.5733 13.3081 14.6068C13.2684 14.6402 13.2361 14.6815 13.213 14.7279C13.0184 15.0249 12.7394 15.257 12.4118 15.3942C12.0843 15.5314 11.7232 15.5675 11.375 15.4979C11.1694 15.474 10.9677 15.4236 10.775 15.3479C10.2573 15.1827 9.81034 14.848 9.50599 14.3979C9.48954 14.3496 9.46242 14.3056 9.42664 14.2692C9.39086 14.2328 9.34734 14.2049 9.29931 14.1876C9.25128 14.1703 9.19997 14.164 9.14919 14.1693C9.09842 14.1745 9.04947 14.1911 9.00599 14.2179C8.92125 14.2552 8.85474 14.3245 8.821 14.4107C8.78727 14.4969 8.78906 14.593 8.826 14.6779C9.035 15.4279 9.51599 16.0739 10.176 16.4879C10.482 16.6659 10.822 16.7779 11.175 16.8169C11.4183 16.8502 11.6617 16.8469 11.905 16.8069Z" fill="black" fill-opacity="0.2"/>
<path fill-rule="evenodd" clip-rule="evenodd" d="M23.886 12.4499C23.8243 12.1846 23.7267 11.9289 23.596 11.6899C23.3598 11.2703 23.0389 10.9043 22.6536 10.6154C22.2683 10.3266 21.8271 10.121 21.358 10.0119C21.2811 9.42418 21.1608 8.84293 20.998 8.27295C20.6279 6.9944 19.9826 5.81225 19.1075 4.80932C18.2324 3.80639 17.1486 3.00693 15.932 2.46695C14.6452 1.98043 13.2729 1.76058 11.8986 1.82075C10.5242 1.88091 9.17637 2.21984 7.93701 2.81695C6.66226 3.33842 5.53529 4.16535 4.65535 5.2249C3.77542 6.28445 3.16952 7.54411 2.89101 8.89295C2.89101 9.13295 2.89101 9.37295 2.83101 9.61295C2.32276 9.7078 1.84203 9.9147 1.42377 10.2186C1.0055 10.5226 0.660218 10.9159 0.413006 11.3699C0.28234 11.6099 0.185673 11.8633 0.123006 12.1299C-0.0405139 12.6841 -0.0405139 13.2738 0.123006 13.8279C0.271961 14.2458 0.522666 14.6199 0.852471 14.9165C1.18228 15.2132 1.58079 15.423 2.01201 15.5269C2.21001 15.5896 2.41334 15.6329 2.62201 15.6569C2.82467 15.6769 3.02767 15.6769 3.23101 15.6569C3.32256 15.6538 3.41025 15.6193 3.47941 15.5592C3.54858 15.4991 3.59503 15.4171 3.61101 15.3269C3.65157 15.3464 3.696 15.3566 3.74101 15.3566C3.78601 15.3566 3.83044 15.3464 3.87101 15.3269C3.93222 15.2993 3.98388 15.2542 4.01948 15.1972C4.05507 15.1403 4.073 15.0741 4.07101 15.0069C3.83694 14.0224 3.68971 13.0192 3.63101 12.0089C3.57501 11.0219 3.64501 10.0309 3.84101 9.06095C4.15506 7.91097 4.73977 6.85285 5.54629 5.97501C6.3528 5.09717 7.3577 4.42509 8.47701 4.01495C9.56175 3.49532 10.7396 3.19839 11.9411 3.14171C13.1425 3.08503 14.3432 3.26975 15.472 3.68495C16.5347 4.13248 17.4889 4.8031 18.2699 5.65142C19.0509 6.49974 19.6406 7.50595 19.999 8.60195C20.7539 10.8843 20.6867 13.3589 19.809 15.5969C19.7896 15.6448 19.7799 15.6961 19.7805 15.7478C19.781 15.7995 19.7919 15.8505 19.8123 15.898C19.8328 15.9454 19.8625 15.9883 19.8997 16.0242C19.9369 16.0601 19.9808 16.0882 20.029 16.1069C20.0907 16.1275 20.1573 16.1275 20.219 16.1069C19.9412 16.6881 19.6062 17.2402 19.219 17.7549C18.849 18.2559 18.417 18.7059 17.93 19.0949C17.1825 19.7686 16.218 20.1515 15.212 20.1739C15.1675 20.0933 15.096 20.0309 15.0099 19.998C14.9239 19.965 14.829 19.9636 14.742 19.9939C14.644 20.0339 14.5658 20.111 14.5246 20.2085C14.4834 20.306 14.4824 20.4158 14.522 20.5139C14.522 20.6439 14.522 20.7339 14.392 20.8239C14.232 20.9439 14.042 21.0209 13.843 21.0429C13.5638 21.0961 13.2759 21.0824 13.003 21.0029C12.7266 20.935 12.4678 20.8089 12.244 20.6329C12.074 20.5129 11.944 20.4329 12.004 20.3129C12.0798 20.1674 12.1985 20.0487 12.344 19.9729L13.024 19.7529C13.2159 19.7222 13.4097 19.7055 13.604 19.7029H14.223C14.3117 19.7174 14.4025 19.6962 14.4756 19.6439C14.5486 19.5916 14.5981 19.5125 14.613 19.4239C14.6217 19.3786 14.6213 19.332 14.6119 19.2869C14.6025 19.2417 14.5843 19.1988 14.5583 19.1607C14.5323 19.1226 14.499 19.09 14.4603 19.0648C14.4216 19.0396 14.3784 19.0224 14.333 19.0139L13.003 18.7939C12.8336 18.7795 12.6634 18.7795 12.494 18.7939C12.3143 18.8081 12.1365 18.8416 11.964 18.8939C11.6808 18.9649 11.4202 19.1067 11.207 19.3062C10.9937 19.5056 10.8347 19.7561 10.745 20.0339C10.6795 20.3503 10.7159 20.6792 10.8488 20.9736C10.9817 21.2681 11.2044 21.5129 11.485 21.6729C11.885 21.9369 12.339 22.1069 12.814 22.1729C13.267 22.2179 13.725 22.1599 14.153 22.0029C14.563 21.8479 14.912 21.5679 15.153 21.2029C15.1957 21.1096 15.229 21.0129 15.253 20.9129C16.2885 21.0509 17.3407 20.8473 18.25 20.3329C19.079 19.8524 19.7681 19.1637 20.249 18.3349C20.6854 17.6179 20.993 16.83 21.158 16.0069H21.438C21.6447 15.9736 21.848 15.9269 22.048 15.8669C22.4645 15.7511 22.8466 15.5359 23.1615 15.2398C23.4764 14.9437 23.7148 14.5755 23.856 14.1669C24.0369 13.61 24.0473 13.0128 23.886 12.4499ZM2.74101 14.8079C2.59791 14.7593 2.45768 14.7025 2.32101 14.6379C2.08737 14.5239 1.88242 14.3587 1.72142 14.1546C1.56041 13.9505 1.44747 13.7127 1.39101 13.4589C1.32413 13.1293 1.32447 12.7895 1.39201 12.4599C1.46166 12.0501 1.61805 11.6598 1.85069 11.3152C2.08333 10.9707 2.38687 10.6797 2.74101 10.4619C2.73101 11.0093 2.75101 11.5553 2.80101 12.0999C2.90101 13.0839 3.08801 14.0579 3.36101 15.0079C3.30101 15.0079 3.26101 14.9379 3.19101 14.9379L2.74101 14.8079ZM21.728 14.9479C20.218 15.6779 21.628 14.0089 21.458 10.8309C22.0891 11.2914 22.5156 11.9799 22.647 12.7499C22.713 13.0799 22.713 13.4199 22.647 13.7499C22.5907 14.0103 22.4747 14.2541 22.3081 14.462C22.1415 14.6699 21.9289 14.8362 21.687 14.9479H21.728Z" fill="#232323"/>
<path fill-rule="evenodd" clip-rule="evenodd" d="M23.886 12.4499C23.8243 12.1846 23.7267 11.9289 23.596 11.6899C23.3598 11.2703 23.0389 10.9043 22.6536 10.6154C22.2683 10.3266 21.8271 10.121 21.358 10.0119C21.2811 9.42418 21.1608 8.84293 20.998 8.27295C20.6279 6.9944 19.9826 5.81225 19.1075 4.80932C18.2324 3.80639 17.1486 3.00693 15.932 2.46695C14.6452 1.98043 13.2729 1.76058 11.8986 1.82075C10.5242 1.88091 9.17637 2.21984 7.93701 2.81695C6.66226 3.33842 5.53529 4.16535 4.65535 5.2249C3.77542 6.28445 3.16952 7.54411 2.89101 8.89295C2.89101 9.13295 2.89101 9.37295 2.83101 9.61295C2.32276 9.7078 1.84203 9.9147 1.42377 10.2186C1.0055 10.5226 0.660218 10.9159 0.413006 11.3699C0.28234 11.6099 0.185673 11.8633 0.123006 12.1299C-0.0405139 12.6841 -0.0405139 13.2738 0.123006 13.8279C0.271961 14.2458 0.522666 14.6199 0.852471 14.9165C1.18228 15.2132 1.58079 15.423 2.01201 15.5269C2.21001 15.5896 2.41334 15.6329 2.62201 15.6569C2.82467 15.6769 3.02767 15.6769 3.23101 15.6569C3.32256 15.6538 3.41025 15.6193 3.47941 15.5592C3.54858 15.4991 3.59503 15.4171 3.61101 15.3269C3.65157 15.3464 3.696 15.3566 3.74101 15.3566C3.78601 15.3566 3.83044 15.3464 3.87101 15.3269C3.93222 15.2993 3.98388 15.2542 4.01948 15.1972C4.05507 15.1403 4.073 15.0741 4.07101 15.0069C3.83694 14.0224 3.68971 13.0192 3.63101 12.0089C3.57501 11.0219 3.64501 10.0309 3.84101 9.06095C4.15506 7.91097 4.73977 6.85285 5.54629 5.97501C6.3528 5.09717 7.3577 4.42509 8.47701 4.01495C9.56175 3.49532 10.7396 3.19839 11.9411 3.14171C13.1425 3.08503 14.3432 3.26975 15.472 3.68495C16.5347 4.13248 17.4889 4.8031 18.2699 5.65142C19.0509 6.49974 19.6406 7.50595 19.999 8.60195C20.7539 10.8843 20.6867 13.3589 19.809 15.5969C19.7896 15.6448 19.7799 15.6961 19.7805 15.7478C19.781 15.7995 19.7919 15.8505 19.8123 15.898C19.8328 15.9454 19.8625 15.9883 19.8997 16.0242C19.9369 16.0601 19.9808 16.0882 20.029 16.1069C20.0907 16.1275 20.1573 16.1275 20.219 16.1069C19.9412 16.6881 19.6062 17.2402 19.219 17.7549C18.849 18.2559 18.417 18.7059 17.93 19.0949C17.1825 19.7686 16.218 20.1515 15.212 20.1739C15.1675 20.0933 15.096 20.0309 15.0099 19.998C14.9239 19.965 14.829 19.9636 14.742 19.9939C14.644 20.0339 14.5658 20.111 14.5246 20.2085C14.4834 20.306 14.4824 20.4158 14.522 20.5139C14.522 20.6439 14.522 20.7339 14.392 20.8239C14.232 20.9439 14.042 21.0209 13.843 21.0429C13.5638 21.0961 13.2759 21.0824 13.003 21.0029C12.7266 20.935 12.4678 20.8089 12.244 20.6329C12.074 20.5129 11.944 20.4329 12.004 20.3129C12.0798 20.1674 12.1985 20.0487 12.344 19.9729L13.024 19.7529C13.2159 19.7222 13.4097 19.7055 13.604 19.7029H14.223C14.3117 19.7174 14.4025 19.6962 14.4756 19.6439C14.5486 19.5916 14.5981 19.5125 14.613 19.4239C14.6217 19.3786 14.6213 19.332 14.6119 19.2869C14.6025 19.2417 14.5843 19.1988 14.5583 19.1607C14.5323 19.1226 14.499 19.09 14.4603 19.0648C14.4216 19.0396 14.3784 19.0224 14.333 19.0139L13.003 18.7939C12.8336 18.7795 12.6634 18.7795 12.494 18.7939C12.3143 18.8081 12.1365 18.8416 11.964 18.8939C11.6808 18.9649 11.4202 19.1067 11.207 19.3062C10.9937 19.5056 10.8347 19.7561 10.745 20.0339C10.6795 20.3503 10.7159 20.6792 10.8488 20.9736C10.9817 21.2681 11.2044 21.5129 11.485 21.6729C11.885 21.9369 12.339 22.1069 12.814 22.1729C13.267 22.2179 13.725 22.1599 14.153 22.0029C14.563 21.8479 14.912 21.5679 15.153 21.2029C15.1957 21.1096 15.229 21.0129 15.253 20.9129C16.2885 21.0509 17.3407 20.8473 18.25 20.3329C19.079 19.8524 19.7681 19.1637 20.249 18.3349C20.6854 17.6179 20.993 16.83 21.158 16.0069H21.438C21.6447 15.9736 21.848 15.9269 22.048 15.8669C22.4645 15.7511 22.8466 15.5359 23.1615 15.2398C23.4764 14.9437 23.7148 14.5755 23.856 14.1669C24.0369 13.61 24.0473 13.0128 23.886 12.4499ZM2.74101 14.8079C2.59791 14.7593 2.45768 14.7025 2.32101 14.6379C2.08737 14.5239 1.88242 14.3587 1.72142 14.1546C1.56041 13.9505 1.44747 13.7127 1.39101 13.4589C1.32413 13.1293 1.32447 12.7895 1.39201 12.4599C1.46166 12.0501 1.61805 11.6598 1.85069 11.3152C2.08333 10.9707 2.38687 10.6797 2.74101 10.4619C2.73101 11.0093 2.75101 11.5553 2.80101 12.0999C2.90101 13.0839 3.08801 14.0579 3.36101 15.0079C3.30101 15.0079 3.26101 14.9379 3.19101 14.9379L2.74101 14.8079ZM21.728 14.9479C20.218 15.6779 21.628 14.0089 21.458 10.8309C22.0891 11.2914 22.5156 11.9799 22.647 12.7499C22.713 13.0799 22.713 13.4199 22.647 13.7499C22.5907 14.0103 22.4747 14.2541 22.3081 14.462C22.1415 14.6699 21.9289 14.8362 21.687 14.9479H21.728Z" fill="black" fill-opacity="0.2"/>
<path fill-rule="evenodd" clip-rule="evenodd" d="M23.886 12.4499C23.8243 12.1846 23.7267 11.9289 23.596 11.6899C23.3598 11.2703 23.0389 10.9043 22.6536 10.6154C22.2683 10.3266 21.8271 10.121 21.358 10.0119C21.2811 9.42418 21.1608 8.84293 20.998 8.27295C20.6279 6.9944 19.9826 5.81225 19.1075 4.80932C18.2324 3.80639 17.1486 3.00693 15.932 2.46695C14.6452 1.98043 13.2729 1.76058 11.8986 1.82075C10.5242 1.88091 9.17637 2.21984 7.93701 2.81695C6.66226 3.33842 5.53529 4.16535 4.65535 5.2249C3.77542 6.28445 3.16952 7.54411 2.89101 8.89295C2.89101 9.13295 2.89101 9.37295 2.83101 9.61295C2.32276 9.7078 1.84203 9.9147 1.42377 10.2186C1.0055 10.5226 0.660218 10.9159 0.413006 11.3699C0.28234 11.6099 0.185673 11.8633 0.123006 12.1299C-0.0405139 12.6841 -0.0405139 13.2738 0.123006 13.8279C0.271961 14.2458 0.522666 14.6199 0.852471 14.9165C1.18228 15.2132 1.58079 15.423 2.01201 15.5269C2.21001 15.5896 2.41334 15.6329 2.62201 15.6569C2.82467 15.6769 3.02767 15.6769 3.23101 15.6569C3.32256 15.6538 3.41025 15.6193 3.47941 15.5592C3.54858 15.4991 3.59503 15.4171 3.61101 15.3269C3.65157 15.3464 3.696 15.3566 3.74101 15.3566C3.78601 15.3566 3.83044 15.3464 3.87101 15.3269C3.93222 15.2993 3.98388 15.2542 4.01948 15.1972C4.05507 15.1403 4.073 15.0741 4.07101 15.0069C3.83694 14.0224 3.68971 13.0192 3.63101 12.0089C3.57501 11.0219 3.64501 10.0309 3.84101 9.06095C4.15506 7.91097 4.73977 6.85285 5.54629 5.97501C6.3528 5.09717 7.3577 4.42509 8.47701 4.01495C9.56175 3.49532 10.7396 3.19839 11.9411 3.14171C13.1425 3.08503 14.3432 3.26975 15.472 3.68495C16.5347 4.13248 17.4889 4.8031 18.2699 5.65142C19.0509 6.49974 19.6406 7.50595 19.999 8.60195C20.7539 10.8843 20.6867 13.3589 19.809 15.5969C19.7896 15.6448 19.7799 15.6961 19.7805 15.7478C19.781 15.7995 19.7919 15.8505 19.8123 15.898C19.8328 15.9454 19.8625 15.9883 19.8997 16.0242C19.9369 16.0601 19.9808 16.0882 20.029 16.1069C20.0907 16.1275 20.1573 16.1275 20.219 16.1069C19.9412 16.6881 19.6062 17.2402 19.219 17.7549C18.849 18.2559 18.417 18.7059 17.93 19.0949C17.1825 19.7686 16.218 20.1515 15.212 20.1739C15.1675 20.0933 15.096 20.0309 15.0099 19.998C14.9239 19.965 14.829 19.9636 14.742 19.9939C14.644 20.0339 14.5658 20.111 14.5246 20.2085C14.4834 20.306 14.4824 20.4158 14.522 20.5139C14.522 20.6439 14.522 20.7339 14.392 20.8239C14.232 20.9439 14.042 21.0209 13.843 21.0429C13.5638 21.0961 13.2759 21.0824 13.003 21.0029C12.7266 20.935 12.4678 20.8089 12.244 20.6329C12.074 20.5129 11.944 20.4329 12.004 20.3129C12.0798 20.1674 12.1985 20.0487 12.344 19.9729L13.024 19.7529C13.2159 19.7222 13.4097 19.7055 13.604 19.7029H14.223C14.3117 19.7174 14.4025 19.6962 14.4756 19.6439C14.5486 19.5916 14.5981 19.5125 14.613 19.4239C14.6217 19.3786 14.6213 19.332 14.6119 19.2869C14.6025 19.2417 14.5843 19.1988 14.5583 19.1607C14.5323 19.1226 14.499 19.09 14.4603 19.0648C14.4216 19.0396 14.3784 19.0224 14.333 19.0139L13.003 18.7939C12.8336 18.7795 12.6634 18.7795 12.494 18.7939C12.3143 18.8081 12.1365 18.8416 11.964 18.8939C11.6808 18.9649 11.4202 19.1067 11.207 19.3062C10.9937 19.5056 10.8347 19.7561 10.745 20.0339C10.6795 20.3503 10.7159 20.6792 10.8488 20.9736C10.9817 21.2681 11.2044 21.5129 11.485 21.6729C11.885 21.9369 12.339 22.1069 12.814 22.1729C13.267 22.2179 13.725 22.1599 14.153 22.0029C14.563 21.8479 14.912 21.5679 15.153 21.2029C15.1957 21.1096 15.229 21.0129 15.253 20.9129C16.2885 21.0509 17.3407 20.8473 18.25 20.3329C19.079 19.8524 19.7681 19.1637 20.249 18.3349C20.6854 17.6179 20.993 16.83 21.158 16.0069H21.438C21.6447 15.9736 21.848 15.9269 22.048 15.8669C22.4645 15.7511 22.8466 15.5359 23.1615 15.2398C23.4764 14.9437 23.7148 14.5755 23.856 14.1669C24.0369 13.61 24.0473 13.0128 23.886 12.4499ZM2.74101 14.8079C2.59791 14.7593 2.45768 14.7025 2.32101 14.6379C2.08737 14.5239 1.88242 14.3587 1.72142 14.1546C1.56041 13.9505 1.44747 13.7127 1.39101 13.4589C1.32413 13.1293 1.32447 12.7895 1.39201 12.4599C1.46166 12.0501 1.61805 11.6598 1.85069 11.3152C2.08333 10.9707 2.38687 10.6797 2.74101 10.4619C2.73101 11.0093 2.75101 11.5553 2.80101 12.0999C2.90101 13.0839 3.08801 14.0579 3.36101 15.0079C3.30101 15.0079 3.26101 14.9379 3.19101 14.9379L2.74101 14.8079ZM21.728 14.9479C20.218 15.6779 21.628 14.0089 21.458 10.8309C22.0891 11.2914 22.5156 11.9799 22.647 12.7499C22.713 13.0799 22.713 13.4199 22.647 13.7499C22.5907 14.0103 22.4747 14.2541 22.3081 14.462C22.1415 14.6699 21.9289 14.8362 21.687 14.9479H21.728Z" fill="black" fill-opacity="0.2"/>
<path fill-rule="evenodd" clip-rule="evenodd" d="M8.83701 10.5209C8.65619 10.5163 8.4762 10.5469 8.30701 10.6109C7.92701 10.7609 7.58701 10.9929 7.30701 11.2909C7.22914 11.3402 7.17391 11.4184 7.15332 11.5082C7.13272 11.5981 7.14842 11.6925 7.19701 11.7709C7.33701 12.0209 9.19701 11.7709 9.55701 11.7709C9.71634 11.7775 9.87268 11.8042 10.026 11.8509C10.1169 11.9039 10.2246 11.92 10.327 11.8958C10.4294 11.8716 10.5185 11.8089 10.576 11.7209C10.6285 11.6315 10.6443 11.5253 10.62 11.4246C10.5958 11.3239 10.5334 11.2365 10.446 11.1809C10.1468 10.8828 9.77429 10.6689 9.36601 10.5609C9.19281 10.5181 9.01467 10.5046 8.83701 10.5209ZM16.082 11.7699C16.1297 11.6903 16.1439 11.595 16.1214 11.505C16.0989 11.415 16.0415 11.3376 15.962 11.2899C15.6866 10.9881 15.3441 10.7555 14.962 10.6109C14.7928 10.5469 14.6128 10.5163 14.432 10.5209C14.251 10.5109 14.068 10.5309 13.893 10.5809C13.486 10.6909 13.114 10.9049 12.813 11.2009C12.7275 11.2582 12.6673 11.3464 12.6452 11.447C12.623 11.5476 12.6405 11.6528 12.694 11.7409C12.7498 11.831 12.839 11.8952 12.9421 11.9196C13.0452 11.944 13.1538 11.9265 13.244 11.8709C13.3967 11.8242 13.5533 11.7975 13.714 11.7909C14.842 11.7009 15.872 12.1299 16.082 11.7699Z" fill="#232323"/>
<path fill-rule="evenodd" clip-rule="evenodd" d="M8.83701 10.5209C8.65619 10.5163 8.4762 10.5469 8.30701 10.6109C7.92701 10.7609 7.58701 10.9929 7.30701 11.2909C7.22914 11.3402 7.17391 11.4184 7.15332 11.5082C7.13272 11.5981 7.14842 11.6925 7.19701 11.7709C7.33701 12.0209 9.19701 11.7709 9.55701 11.7709C9.71634 11.7775 9.87268 11.8042 10.026 11.8509C10.1169 11.9039 10.2246 11.92 10.327 11.8958C10.4294 11.8716 10.5185 11.8089 10.576 11.7209C10.6285 11.6315 10.6443 11.5253 10.62 11.4246C10.5958 11.3239 10.5334 11.2365 10.446 11.1809C10.1468 10.8828 9.77429 10.6689 9.36601 10.5609C9.19281 10.5181 9.01467 10.5046 8.83701 10.5209ZM16.082 11.7699C16.1297 11.6903 16.1439 11.595 16.1214 11.505C16.0989 11.415 16.0415 11.3376 15.962 11.2899C15.6866 10.9881 15.3441 10.7555 14.962 10.6109C14.7928 10.5469 14.6128 10.5163 14.432 10.5209C14.251 10.5109 14.068 10.5309 13.893 10.5809C13.486 10.6909 13.114 10.9049 12.813 11.2009C12.7275 11.2582 12.6673 11.3464 12.6452 11.447C12.623 11.5476 12.6405 11.6528 12.694 11.7409C12.7498 11.831 12.839 11.8952 12.9421 11.9196C13.0452 11.944 13.1538 11.9265 13.244 11.8709C13.3967 11.8242 13.5533 11.7975 13.714 11.7909C14.842 11.7009 15.872 12.1299 16.082 11.7699Z" fill="black" fill-opacity="0.2"/>
<path fill-rule="evenodd" clip-rule="evenodd" d="M8.83701 10.5209C8.65619 10.5163 8.4762 10.5469 8.30701 10.6109C7.92701 10.7609 7.58701 10.9929 7.30701 11.2909C7.22914 11.3402 7.17391 11.4184 7.15332 11.5082C7.13272 11.5981 7.14842 11.6925 7.19701 11.7709C7.33701 12.0209 9.19701 11.7709 9.55701 11.7709C9.71634 11.7775 9.87268 11.8042 10.026 11.8509C10.1169 11.9039 10.2246 11.92 10.327 11.8958C10.4294 11.8716 10.5185 11.8089 10.576 11.7209C10.6285 11.6315 10.6443 11.5253 10.62 11.4246C10.5958 11.3239 10.5334 11.2365 10.446 11.1809C10.1468 10.8828 9.77429 10.6689 9.36601 10.5609C9.19281 10.5181 9.01467 10.5046 8.83701 10.5209ZM16.082 11.7699C16.1297 11.6903 16.1439 11.595 16.1214 11.505C16.0989 11.415 16.0415 11.3376 15.962 11.2899C15.6866 10.9881 15.3441 10.7555 14.962 10.6109C14.7928 10.5469 14.6128 10.5163 14.432 10.5209C14.251 10.5109 14.068 10.5309 13.893 10.5809C13.486 10.6909 13.114 10.9049 12.813 11.2009C12.7275 11.2582 12.6673 11.3464 12.6452 11.447C12.623 11.5476 12.6405 11.6528 12.694 11.7409C12.7498 11.831 12.839 11.8952 12.9421 11.9196C13.0452 11.944 13.1538 11.9265 13.244 11.8709C13.3967 11.8242 13.5533 11.7975 13.714 11.7909C14.842 11.7009 15.872 12.1299 16.082 11.7699Z" fill="black" fill-opacity="0.2"/>
</svg>
