<svg width="24" height="24" viewBox="0 0 24 24" fill="none" xmlns="http://www.w3.org/2000/svg">
<g clip-path="url(#clip0_161_319)">
<path fill-rule="evenodd" clip-rule="evenodd" d="M6.34801 0.829566C7.15226 0.546508 7.98439 0.34997 8.83029 0.24328C8.88917 0.2362 8.94888 0.24177 9.00542 0.25962C9.06197 0.277469 9.11406 0.307186 9.1582 0.346783C9.20234 0.38638 9.23752 0.434945 9.26138 0.489231C9.28525 0.543516 9.29725 0.602271 9.29658 0.661566V6.38728C9.29658 6.59299 9.14915 6.76614 8.95029 6.81928C8.28515 6.99757 7.69886 7.31471 7.22401 7.78785C6.43715 8.57471 6.08229 9.67528 6.08229 10.9301C6.08229 12.1867 6.43715 13.2873 7.22401 14.0741C8.01086 14.861 9.11315 15.2159 10.368 15.2159C10.6457 15.2159 10.916 15.1987 11.1789 15.1644C11.2464 15.1548 11.3153 15.1603 11.3805 15.1805C11.4457 15.2006 11.5056 15.235 11.556 15.281C12.8057 16.4433 14.6829 17.5524 16.9766 18.2193C17.1117 18.2587 17.2532 18.2711 17.393 18.2558C17.5329 18.2405 17.6684 18.1978 17.7918 18.1302C17.9151 18.0625 18.024 17.9712 18.112 17.8615C18.2001 17.7518 18.2658 17.6258 18.3051 17.4907C18.3445 17.3556 18.357 17.2141 18.3417 17.0743C18.3264 16.9344 18.2837 16.7989 18.216 16.6755C18.1484 16.5522 18.0571 16.4433 17.9474 16.3552C17.8376 16.2672 17.7117 16.2015 17.5766 16.1621C15.8794 15.6684 14.4926 14.9107 13.5137 14.1376C13.5091 14.1338 13.5053 14.1291 13.5026 14.1238C13.4998 14.1184 13.4983 14.1126 13.4979 14.1066C13.4976 14.1006 13.4986 14.0947 13.5007 14.0891C13.5028 14.0835 13.5061 14.0784 13.5103 14.0741C14.2989 13.2873 14.6537 12.1867 14.6537 10.9301C14.6537 9.67528 14.2971 8.57471 13.5103 7.78785C13.0318 7.31732 12.4365 6.98296 11.7857 6.81928C11.6883 6.79516 11.6016 6.73958 11.539 6.66117C11.4764 6.58276 11.4414 6.48589 11.4394 6.38557V0.65128C11.4394 0.400995 11.652 0.205566 11.9006 0.23128C12.7424 0.32383 13.5743 0.491352 14.3863 0.731852C14.8897 0.88108 15.3827 1.06319 15.8623 1.27699L15.9514 1.31814L15.9771 1.33185H15.9789C18.264 2.45985 19.9303 4.50499 20.3709 7.67642C20.4069 7.93871 20.5886 8.33814 20.9417 8.89357C21.1937 9.28957 21.4869 9.69585 21.7954 10.1227L22.1331 10.589C22.5394 11.1599 22.9646 11.7839 23.2217 12.3667C23.4583 12.9033 23.6949 13.7261 23.1943 14.4393C22.9897 14.7318 22.7179 14.9709 22.4017 15.1365C22.0855 15.302 21.7341 15.3892 21.3771 15.3907L21.2949 15.3924C21.183 15.3951 21.0766 15.4414 20.9984 15.5215C20.9203 15.6016 20.8765 15.7091 20.8766 15.821V16.9404C20.8766 17.8497 20.5154 18.7218 19.8724 19.3648C19.2294 20.0078 18.3573 20.369 17.448 20.369H16.6029C16.2137 20.369 15.9686 20.6021 15.9154 20.8524V22.9181C15.9154 23.1455 15.8251 23.3635 15.6644 23.5242C15.5036 23.685 15.2856 23.7753 15.0583 23.7753H4.73829C4.51096 23.7753 4.29295 23.685 4.1322 23.5242C3.97146 23.3635 3.88115 23.1455 3.88115 22.9181L3.88458 21.4987C3.88801 20.2679 3.61544 19.0867 3.00344 18.0976L2.72572 17.6519C2.19429 16.7999 1.66286 15.953 1.26515 14.9193C0.788578 13.6799 0.510864 12.2021 0.510864 10.0747C0.510864 6.05299 1.96115 3.11814 4.78458 1.53242L4.80515 1.52042L4.89258 1.47071C4.96686 1.42842 5.07143 1.37414 5.20629 1.30785C5.47544 1.17414 5.86115 1.00271 6.34801 0.829566Z" fill="#232323"/>
<path fill-rule="evenodd" clip-rule="evenodd" d="M6.34801 0.829566C7.15226 0.546508 7.98439 0.34997 8.83029 0.24328C8.88917 0.2362 8.94888 0.24177 9.00542 0.25962C9.06197 0.277469 9.11406 0.307186 9.1582 0.346783C9.20234 0.38638 9.23752 0.434945 9.26138 0.489231C9.28525 0.543516 9.29725 0.602271 9.29658 0.661566V6.38728C9.29658 6.59299 9.14915 6.76614 8.95029 6.81928C8.28515 6.99757 7.69886 7.31471 7.22401 7.78785C6.43715 8.57471 6.08229 9.67528 6.08229 10.9301C6.08229 12.1867 6.43715 13.2873 7.22401 14.0741C8.01086 14.861 9.11315 15.2159 10.368 15.2159C10.6457 15.2159 10.916 15.1987 11.1789 15.1644C11.2464 15.1548 11.3153 15.1603 11.3805 15.1805C11.4457 15.2006 11.5056 15.235 11.556 15.281C12.8057 16.4433 14.6829 17.5524 16.9766 18.2193C17.1117 18.2587 17.2532 18.2711 17.393 18.2558C17.5329 18.2405 17.6684 18.1978 17.7918 18.1302C17.9151 18.0625 18.024 17.9712 18.112 17.8615C18.2001 17.7518 18.2658 17.6258 18.3051 17.4907C18.3445 17.3556 18.357 17.2141 18.3417 17.0743C18.3264 16.9344 18.2837 16.7989 18.216 16.6755C18.1484 16.5522 18.0571 16.4433 17.9474 16.3552C17.8376 16.2672 17.7117 16.2015 17.5766 16.1621C15.8794 15.6684 14.4926 14.9107 13.5137 14.1376C13.5091 14.1338 13.5053 14.1291 13.5026 14.1238C13.4998 14.1184 13.4983 14.1126 13.4979 14.1066C13.4976 14.1006 13.4986 14.0947 13.5007 14.0891C13.5028 14.0835 13.5061 14.0784 13.5103 14.0741C14.2989 13.2873 14.6537 12.1867 14.6537 10.9301C14.6537 9.67528 14.2971 8.57471 13.5103 7.78785C13.0318 7.31732 12.4365 6.98296 11.7857 6.81928C11.6883 6.79516 11.6016 6.73958 11.539 6.66117C11.4764 6.58276 11.4414 6.48589 11.4394 6.38557V0.65128C11.4394 0.400995 11.652 0.205566 11.9006 0.23128C12.7424 0.32383 13.5743 0.491352 14.3863 0.731852C14.8897 0.88108 15.3827 1.06319 15.8623 1.27699L15.9514 1.31814L15.9771 1.33185H15.9789C18.264 2.45985 19.9303 4.50499 20.3709 7.67642C20.4069 7.93871 20.5886 8.33814 20.9417 8.89357C21.1937 9.28957 21.4869 9.69585 21.7954 10.1227L22.1331 10.589C22.5394 11.1599 22.9646 11.7839 23.2217 12.3667C23.4583 12.9033 23.6949 13.7261 23.1943 14.4393C22.9897 14.7318 22.7179 14.9709 22.4017 15.1365C22.0855 15.302 21.7341 15.3892 21.3771 15.3907L21.2949 15.3924C21.183 15.3951 21.0766 15.4414 20.9984 15.5215C20.9203 15.6016 20.8765 15.7091 20.8766 15.821V16.9404C20.8766 17.8497 20.5154 18.7218 19.8724 19.3648C19.2294 20.0078 18.3573 20.369 17.448 20.369H16.6029C16.2137 20.369 15.9686 20.6021 15.9154 20.8524V22.9181C15.9154 23.1455 15.8251 23.3635 15.6644 23.5242C15.5036 23.685 15.2856 23.7753 15.0583 23.7753H4.73829C4.51096 23.7753 4.29295 23.685 4.1322 23.5242C3.97146 23.3635 3.88115 23.1455 3.88115 22.9181L3.88458 21.4987C3.88801 20.2679 3.61544 19.0867 3.00344 18.0976L2.72572 17.6519C2.19429 16.7999 1.66286 15.953 1.26515 14.9193C0.788578 13.6799 0.510864 12.2021 0.510864 10.0747C0.510864 6.05299 1.96115 3.11814 4.78458 1.53242L4.80515 1.52042L4.89258 1.47071C4.96686 1.42842 5.07143 1.37414 5.20629 1.30785C5.47544 1.17414 5.86115 1.00271 6.34801 0.829566Z" fill="black" fill-opacity="0.2"/>
<path fill-rule="evenodd" clip-rule="evenodd" d="M6.34801 0.829566C7.15226 0.546508 7.98439 0.34997 8.83029 0.24328C8.88917 0.2362 8.94888 0.24177 9.00542 0.25962C9.06197 0.277469 9.11406 0.307186 9.1582 0.346783C9.20234 0.38638 9.23752 0.434945 9.26138 0.489231C9.28525 0.543516 9.29725 0.602271 9.29658 0.661566V6.38728C9.29658 6.59299 9.14915 6.76614 8.95029 6.81928C8.28515 6.99757 7.69886 7.31471 7.22401 7.78785C6.43715 8.57471 6.08229 9.67528 6.08229 10.9301C6.08229 12.1867 6.43715 13.2873 7.22401 14.0741C8.01086 14.861 9.11315 15.2159 10.368 15.2159C10.6457 15.2159 10.916 15.1987 11.1789 15.1644C11.2464 15.1548 11.3153 15.1603 11.3805 15.1805C11.4457 15.2006 11.5056 15.235 11.556 15.281C12.8057 16.4433 14.6829 17.5524 16.9766 18.2193C17.1117 18.2587 17.2532 18.2711 17.393 18.2558C17.5329 18.2405 17.6684 18.1978 17.7918 18.1302C17.9151 18.0625 18.024 17.9712 18.112 17.8615C18.2001 17.7518 18.2658 17.6258 18.3051 17.4907C18.3445 17.3556 18.357 17.2141 18.3417 17.0743C18.3264 16.9344 18.2837 16.7989 18.216 16.6755C18.1484 16.5522 18.0571 16.4433 17.9474 16.3552C17.8376 16.2672 17.7117 16.2015 17.5766 16.1621C15.8794 15.6684 14.4926 14.9107 13.5137 14.1376C13.5091 14.1338 13.5053 14.1291 13.5026 14.1238C13.4998 14.1184 13.4983 14.1126 13.4979 14.1066C13.4976 14.1006 13.4986 14.0947 13.5007 14.0891C13.5028 14.0835 13.5061 14.0784 13.5103 14.0741C14.2989 13.2873 14.6537 12.1867 14.6537 10.9301C14.6537 9.67528 14.2971 8.57471 13.5103 7.78785C13.0318 7.31732 12.4365 6.98296 11.7857 6.81928C11.6883 6.79516 11.6016 6.73958 11.539 6.66117C11.4764 6.58276 11.4414 6.48589 11.4394 6.38557V0.65128C11.4394 0.400995 11.652 0.205566 11.9006 0.23128C12.7424 0.32383 13.5743 0.491352 14.3863 0.731852C14.8897 0.88108 15.3827 1.06319 15.8623 1.27699L15.9514 1.31814L15.9771 1.33185H15.9789C18.264 2.45985 19.9303 4.50499 20.3709 7.67642C20.4069 7.93871 20.5886 8.33814 20.9417 8.89357C21.1937 9.28957 21.4869 9.69585 21.7954 10.1227L22.1331 10.589C22.5394 11.1599 22.9646 11.7839 23.2217 12.3667C23.4583 12.9033 23.6949 13.7261 23.1943 14.4393C22.9897 14.7318 22.7179 14.9709 22.4017 15.1365C22.0855 15.302 21.7341 15.3892 21.3771 15.3907L21.2949 15.3924C21.183 15.3951 21.0766 15.4414 20.9984 15.5215C20.9203 15.6016 20.8765 15.7091 20.8766 15.821V16.9404C20.8766 17.8497 20.5154 18.7218 19.8724 19.3648C19.2294 20.0078 18.3573 20.369 17.448 20.369H16.6029C16.2137 20.369 15.9686 20.6021 15.9154 20.8524V22.9181C15.9154 23.1455 15.8251 23.3635 15.6644 23.5242C15.5036 23.685 15.2856 23.7753 15.0583 23.7753H4.73829C4.51096 23.7753 4.29295 23.685 4.1322 23.5242C3.97146 23.3635 3.88115 23.1455 3.88115 22.9181L3.88458 21.4987C3.88801 20.2679 3.61544 19.0867 3.00344 18.0976L2.72572 17.6519C2.19429 16.7999 1.66286 15.953 1.26515 14.9193C0.788578 13.6799 0.510864 12.2021 0.510864 10.0747C0.510864 6.05299 1.96115 3.11814 4.78458 1.53242L4.80515 1.52042L4.89258 1.47071C4.96686 1.42842 5.07143 1.37414 5.20629 1.30785C5.47544 1.17414 5.86115 1.00271 6.34801 0.829566Z" fill="black" fill-opacity="0.2"/>
</g>
<defs>
<clipPath id="clip0_161_319">
<rect width="24" height="24" fill="white"/>
</clipPath>
</defs>
</svg>
