<svg width="24" height="24" viewBox="0 0 24 24" fill="none" xmlns="http://www.w3.org/2000/svg">
<path d="M21.41 8.64013V8.59013C20.7054 6.66635 19.4269 5.00541 17.7475 3.83199C16.0681 2.65857 14.0688 2.0293 12.02 2.0293C9.97126 2.0293 7.97195 2.65857 6.29252 3.83199C4.6131 5.00541 3.33461 6.66635 2.63001 8.59013C2.63001 8.59013 2.63001 8.59013 2.63001 8.64013C1.84314 10.811 1.84314 13.1892 2.63001 15.3601V15.4101C3.33461 17.3339 4.6131 18.9948 6.29252 20.1683C7.97195 21.3417 9.97126 21.971 12.02 21.971C14.0688 21.971 16.0681 21.3417 17.7475 20.1683C19.4269 18.9948 20.7054 17.3339 21.41 15.4101C21.41 15.4101 21.41 15.4101 21.41 15.3601C22.1969 13.1892 22.1969 10.811 21.41 8.64013ZM4.26001 14.0001C3.91232 12.6895 3.91232 11.3108 4.26001 10.0001H6.12001C5.95975 11.3286 5.95975 12.6716 6.12001 14.0001H4.26001ZM5.08001 16.0001H6.48001C6.71348 16.8924 7.04903 17.7547 7.48001 18.5701C6.49931 17.9021 5.67951 17.0242 5.08001 16.0001ZM6.48001 8.00013H5.08001C5.67088 6.97921 6.4802 6.10159 7.45001 5.43013C7.02937 6.24684 6.70391 7.10915 6.48001 8.00013ZM11 19.7001C9.77178 18.7988 8.90916 17.4854 8.57001 16.0001H11V19.7001ZM11 14.0001H8.14001C7.95393 12.6733 7.95393 11.327 8.14001 10.0001H11V14.0001ZM11 8.00013H8.57001C8.90916 6.51489 9.77178 5.20144 11 4.30013V8.00013ZM18.92 8.00013H17.52C17.2865 7.10788 16.951 6.24552 16.52 5.43013C17.5007 6.0982 18.3205 6.97607 18.92 8.00013ZM13 4.30013C14.2282 5.20144 15.0909 6.51489 15.43 8.00013H13V4.30013ZM13 19.7001V16.0001H15.43C15.0909 17.4854 14.2282 18.7988 13 19.7001ZM15.86 14.0001H13V10.0001H15.86C16.0461 11.327 16.0461 12.6733 15.86 14.0001ZM16.55 18.5701C16.981 17.7547 17.3165 16.8924 17.55 16.0001H18.95C18.3505 17.0242 17.5307 17.9021 16.55 18.5701ZM19.74 14.0001H17.88C17.9618 13.3366 18.0018 12.6686 18 12.0001C18.0018 11.3316 17.9618 10.6636 17.88 10.0001H19.74C20.0877 11.3108 20.0877 12.6895 19.74 14.0001Z" fill="#232323"/>
<path d="M21.41 8.64013V8.59013C20.7054 6.66635 19.4269 5.00541 17.7475 3.83199C16.0681 2.65857 14.0688 2.0293 12.02 2.0293C9.97126 2.0293 7.97195 2.65857 6.29252 3.83199C4.6131 5.00541 3.33461 6.66635 2.63001 8.59013C2.63001 8.59013 2.63001 8.59013 2.63001 8.64013C1.84314 10.811 1.84314 13.1892 2.63001 15.3601V15.4101C3.33461 17.3339 4.6131 18.9948 6.29252 20.1683C7.97195 21.3417 9.97126 21.971 12.02 21.971C14.0688 21.971 16.0681 21.3417 17.7475 20.1683C19.4269 18.9948 20.7054 17.3339 21.41 15.4101C21.41 15.4101 21.41 15.4101 21.41 15.3601C22.1969 13.1892 22.1969 10.811 21.41 8.64013ZM4.26001 14.0001C3.91232 12.6895 3.91232 11.3108 4.26001 10.0001H6.12001C5.95975 11.3286 5.95975 12.6716 6.12001 14.0001H4.26001ZM5.08001 16.0001H6.48001C6.71348 16.8924 7.04903 17.7547 7.48001 18.5701C6.49931 17.9021 5.67951 17.0242 5.08001 16.0001ZM6.48001 8.00013H5.08001C5.67088 6.97921 6.4802 6.10159 7.45001 5.43013C7.02937 6.24684 6.70391 7.10915 6.48001 8.00013ZM11 19.7001C9.77178 18.7988 8.90916 17.4854 8.57001 16.0001H11V19.7001ZM11 14.0001H8.14001C7.95393 12.6733 7.95393 11.327 8.14001 10.0001H11V14.0001ZM11 8.00013H8.57001C8.90916 6.51489 9.77178 5.20144 11 4.30013V8.00013ZM18.92 8.00013H17.52C17.2865 7.10788 16.951 6.24552 16.52 5.43013C17.5007 6.0982 18.3205 6.97607 18.92 8.00013ZM13 4.30013C14.2282 5.20144 15.0909 6.51489 15.43 8.00013H13V4.30013ZM13 19.7001V16.0001H15.43C15.0909 17.4854 14.2282 18.7988 13 19.7001ZM15.86 14.0001H13V10.0001H15.86C16.0461 11.327 16.0461 12.6733 15.86 14.0001ZM16.55 18.5701C16.981 17.7547 17.3165 16.8924 17.55 16.0001H18.95C18.3505 17.0242 17.5307 17.9021 16.55 18.5701ZM19.74 14.0001H17.88C17.9618 13.3366 18.0018 12.6686 18 12.0001C18.0018 11.3316 17.9618 10.6636 17.88 10.0001H19.74C20.0877 11.3108 20.0877 12.6895 19.74 14.0001Z" fill="black" fill-opacity="0.2"/>
<path d="M21.41 8.64013V8.59013C20.7054 6.66635 19.4269 5.00541 17.7475 3.83199C16.0681 2.65857 14.0688 2.0293 12.02 2.0293C9.97126 2.0293 7.97195 2.65857 6.29252 3.83199C4.6131 5.00541 3.33461 6.66635 2.63001 8.59013C2.63001 8.59013 2.63001 8.59013 2.63001 8.64013C1.84314 10.811 1.84314 13.1892 2.63001 15.3601V15.4101C3.33461 17.3339 4.6131 18.9948 6.29252 20.1683C7.97195 21.3417 9.97126 21.971 12.02 21.971C14.0688 21.971 16.0681 21.3417 17.7475 20.1683C19.4269 18.9948 20.7054 17.3339 21.41 15.4101C21.41 15.4101 21.41 15.4101 21.41 15.3601C22.1969 13.1892 22.1969 10.811 21.41 8.64013ZM4.26001 14.0001C3.91232 12.6895 3.91232 11.3108 4.26001 10.0001H6.12001C5.95975 11.3286 5.95975 12.6716 6.12001 14.0001H4.26001ZM5.08001 16.0001H6.48001C6.71348 16.8924 7.04903 17.7547 7.48001 18.5701C6.49931 17.9021 5.67951 17.0242 5.08001 16.0001ZM6.48001 8.00013H5.08001C5.67088 6.97921 6.4802 6.10159 7.45001 5.43013C7.02937 6.24684 6.70391 7.10915 6.48001 8.00013ZM11 19.7001C9.77178 18.7988 8.90916 17.4854 8.57001 16.0001H11V19.7001ZM11 14.0001H8.14001C7.95393 12.6733 7.95393 11.327 8.14001 10.0001H11V14.0001ZM11 8.00013H8.57001C8.90916 6.51489 9.77178 5.20144 11 4.30013V8.00013ZM18.92 8.00013H17.52C17.2865 7.10788 16.951 6.24552 16.52 5.43013C17.5007 6.0982 18.3205 6.97607 18.92 8.00013ZM13 4.30013C14.2282 5.20144 15.0909 6.51489 15.43 8.00013H13V4.30013ZM13 19.7001V16.0001H15.43C15.0909 17.4854 14.2282 18.7988 13 19.7001ZM15.86 14.0001H13V10.0001H15.86C16.0461 11.327 16.0461 12.6733 15.86 14.0001ZM16.55 18.5701C16.981 17.7547 17.3165 16.8924 17.55 16.0001H18.95C18.3505 17.0242 17.5307 17.9021 16.55 18.5701ZM19.74 14.0001H17.88C17.9618 13.3366 18.0018 12.6686 18 12.0001C18.0018 11.3316 17.9618 10.6636 17.88 10.0001H19.74C20.0877 11.3108 20.0877 12.6895 19.74 14.0001Z" fill="black" fill-opacity="0.2"/>
</svg>
