<svg width="22" height="22" viewBox="0 0 22 22" fill="none" xmlns="http://www.w3.org/2000/svg">
<path d="M0 21.216C0 19.0943 0.842855 17.0594 2.34315 15.5591C3.84344 14.0589 5.87827 13.216 8 13.216C10.1217 13.216 12.1566 14.0589 13.6569 15.5591C15.1571 17.0594 16 19.0943 16 21.216H0ZM8 12.216C4.685 12.216 2 9.531 2 6.216C2 2.901 4.685 0.216 8 0.216C11.315 0.216 14 2.901 14 6.216C14 9.531 11.315 12.216 8 12.216ZM17.246 2.401C17.7446 3.61107 18.0007 4.90725 18 6.216C18.0009 7.52509 17.7447 8.82161 17.246 10.032L15.569 8.812C15.855 7.97639 16.0006 7.09919 16 6.216C16.0009 5.33286 15.8556 4.45567 15.57 3.62L17.246 2.401ZM20.548 0C21.5063 1.9318 22.0033 4.05958 22 6.216C22 8.449 21.477 10.56 20.548 12.433L18.903 11.236C19.6268 9.6615 20.0011 7.94891 20 6.216C20.0011 4.48309 19.6268 2.7705 18.903 1.196L20.548 0Z" fill="#232323"/>
<path d="M0 21.216C0 19.0943 0.842855 17.0594 2.34315 15.5591C3.84344 14.0589 5.87827 13.216 8 13.216C10.1217 13.216 12.1566 14.0589 13.6569 15.5591C15.1571 17.0594 16 19.0943 16 21.216H0ZM8 12.216C4.685 12.216 2 9.531 2 6.216C2 2.901 4.685 0.216 8 0.216C11.315 0.216 14 2.901 14 6.216C14 9.531 11.315 12.216 8 12.216ZM17.246 2.401C17.7446 3.61107 18.0007 4.90725 18 6.216C18.0009 7.52509 17.7447 8.82161 17.246 10.032L15.569 8.812C15.855 7.97639 16.0006 7.09919 16 6.216C16.0009 5.33286 15.8556 4.45567 15.57 3.62L17.246 2.401ZM20.548 0C21.5063 1.9318 22.0033 4.05958 22 6.216C22 8.449 21.477 10.56 20.548 12.433L18.903 11.236C19.6268 9.6615 20.0011 7.94891 20 6.216C20.0011 4.48309 19.6268 2.7705 18.903 1.196L20.548 0Z" fill="black" fill-opacity="0.2"/>
<path d="M0 21.216C0 19.0943 0.842855 17.0594 2.34315 15.5591C3.84344 14.0589 5.87827 13.216 8 13.216C10.1217 13.216 12.1566 14.0589 13.6569 15.5591C15.1571 17.0594 16 19.0943 16 21.216H0ZM8 12.216C4.685 12.216 2 9.531 2 6.216C2 2.901 4.685 0.216 8 0.216C11.315 0.216 14 2.901 14 6.216C14 9.531 11.315 12.216 8 12.216ZM17.246 2.401C17.7446 3.61107 18.0007 4.90725 18 6.216C18.0009 7.52509 17.7447 8.82161 17.246 10.032L15.569 8.812C15.855 7.97639 16.0006 7.09919 16 6.216C16.0009 5.33286 15.8556 4.45567 15.57 3.62L17.246 2.401ZM20.548 0C21.5063 1.9318 22.0033 4.05958 22 6.216C22 8.449 21.477 10.56 20.548 12.433L18.903 11.236C19.6268 9.6615 20.0011 7.94891 20 6.216C20.0011 4.48309 19.6268 2.7705 18.903 1.196L20.548 0Z" fill="black" fill-opacity="0.2"/>
</svg>
